<?xml version="1.0" standalone="no"?>
<!DOCTYPE svg PUBLIC "-//W3C//DTD SVG 1.1//EN" "http://www.w3.org/Graphics/SVG/1.1/DTD/svg11.dtd" >
<svg xmlns="http://www.w3.org/2000/svg">
<metadata></metadata>
<defs>
<font id="cabrito_norm_exboldnormexBd" horiz-adv-x="874" >
<font-face units-per-em="2048" ascent="1567" descent="-481" />
<missing-glyph horiz-adv-x="438" />
<glyph horiz-adv-x="2048" />
<glyph horiz-adv-x="2048" />
<glyph unicode="&#xd;" horiz-adv-x="2048" />
<glyph unicode=" "  horiz-adv-x="438" />
<glyph unicode="&#x09;" horiz-adv-x="438" />
<glyph unicode="&#xa0;" horiz-adv-x="438" />
<glyph unicode="!" horiz-adv-x="636" d="M94 1298q0 124 51.5 180t169.5 56q121 0 173.5 -56t52.5 -180q0 -57 -27 -149t-59 -179t-59 -214t-27 -248q0 -15 -2 -22t-14.5 -13t-37.5 -6q-34 0 -42.5 9.5t-8.5 31.5q0 121 -26.5 248t-58.5 214t-58.5 179t-26.5 149zM121 174q0 91 62.5 154t144.5 63q79 0 134.5 -55 t55.5 -146q0 -93 -61 -151.5t-148 -58.5q-79 0 -133.5 54t-54.5 140z" />
<glyph unicode="&#x22;" horiz-adv-x="923" d="M78 1438q-3 36 35 49.5t143 13.5t143 -13.5t35 -49.5l-37 -455q-2 -29 -29.5 -39t-111.5 -10t-112 10t-31 39zM489 1438q-3 35 35.5 49t143.5 14q104 0 142.5 -14t35.5 -49l-35 -455q-3 -29 -31.5 -39t-111.5 -10q-85 0 -113.5 10t-30.5 39z" />
<glyph unicode="#" horiz-adv-x="1875" d="M59 506q0 63 37.5 79.5t130.5 16.5h174l111 266h-180q-88 0 -88 129q0 63 38 80t130 17h194l139 329q20 47 54.5 59.5t148.5 12.5q79 0 108 -20t29 -64q0 -21 -10 -51l-112 -266h258l139 329q20 47 54.5 59.5t148.5 12.5q79 0 108 -20t29 -64q0 -21 -10 -51l-113 -266 h154q28 0 46.5 -12.5t26 -35t9.5 -40.5t2 -43q0 -47 -20 -71t-75 -24h-237l-111 -266h174q28 0 46.5 -12.5t26 -35t9.5 -40.5t2 -43q0 -47 -19.5 -70.5t-74.5 -23.5h-258l-137 -328q-20 -47 -50 -59.5t-126 -12.5q-166 0 -166 84q0 25 12 52l111 264h-258l-138 -328 q-20 -47 -50 -59.5t-126 -12.5q-166 0 -166 84q0 23 13 52l110 264h-160q-88 0 -88 129zM758 602h258l110 266h-258z" />
<glyph unicode="$" horiz-adv-x="1353" d="M66 338q0 92 61.5 154.5t144.5 62.5q80 0 137.5 -57t57.5 -148q0 -57 -31 -114q97 -25 221 -25q125 0 199 41.5t74 130.5q0 58 -28 102t-75.5 71t-109 48t-129.5 39.5t-136.5 39.5t-130 53t-109 75t-75.5 110.5t-28 155.5q0 173 107 275.5t304 132.5v131q0 54 60 57h213 q53 0 53 -55v-127q200 -24 304.5 -115t104.5 -233q0 -94 -62.5 -153.5t-148.5 -59.5q-82 0 -137 55t-55 145q0 57 25 105q-83 27 -181 27q-109 0 -174 -31.5t-65 -97.5q0 -45 28 -78t76 -55t109.5 -41t129.5 -39t136.5 -44.5t130 -63.5t109.5 -90t76 -129.5t28 -176.5 q0 -189 -120 -295.5t-324 -134.5v-152q0 -54 -58 -57h-215q-27 0 -40 15t-13 40v150q-216 23 -330 111.5t-114 244.5z" />
<glyph unicode="%" horiz-adv-x="2129" d="M55 1083q0 89 25 163.5t77 134.5t140 94t205 34t205.5 -34t140 -93.5t77 -134.5t25.5 -164q0 -70 -15.5 -132.5t-50 -117t-85.5 -94t-127 -62t-170 -22.5q-117 0 -205 34t-140 94.5t-77 135.5t-25 164zM360 1081q0 -118 36.5 -179.5t105.5 -61.5t105 61.5t36 179.5 q0 119 -36 181.5t-105 62.5q-68 0 -105 -63t-37 -181zM508 129q0 25 27 64l895 1292q16 24 32 34.5t41 10.5q46 0 90.5 -29.5t44.5 -83.5q0 -36 -28 -76l-893 -1290q-20 -27 -36.5 -38t-41.5 -11q-48 0 -89.5 33t-41.5 94zM1182 410q0 89 25 163.5t76.5 134.5t139.5 94 t205 34t205 -34t140 -94t77 -134.5t25 -163.5t-25 -164t-77 -135.5t-140 -94.5t-205 -34t-205 34t-139.5 94.5t-76.5 135.5t-25 164zM1487 408q0 -118 36.5 -180t104.5 -62t104.5 62t36.5 180q0 119 -36 181t-105 62t-105 -62t-36 -181z" />
<glyph unicode="&#x26;" horiz-adv-x="1550" d="M59 422q0 88 24.5 155t68.5 108.5t99 65t122 31.5q-36 2 -74.5 21.5t-75 56t-60.5 100.5t-24 144q0 188 128.5 291.5t361.5 103.5q228 0 361.5 -96.5t133.5 -261.5q0 -93 -62 -150t-149 -57q-80 0 -136 55.5t-56 145.5q0 57 24 100q-53 16 -98 16q-90 0 -127 -43 t-37 -118q0 -92 46 -138.5t126 -46.5h758q54 0 69.5 -14t18.5 -80l15 -297q1 -16 0.5 -26t-7.5 -14.5t-24 -4.5h-164q-22 0 -32.5 9t-14.5 34l-6 35q-10 58 -35 75t-100 19v-330q1 -53 23 -68.5t81 -15.5q28 0 35.5 -7t7.5 -27v-148q0 -29 -8 -37t-35 -8h-608 q-570 0 -570 422zM449 438q0 -95 58 -131.5t183 -36.5h94v371h-133q-37 0 -71 -10.5t-64.5 -33t-48.5 -63.5t-18 -96z" />
<glyph unicode="'" horiz-adv-x="509" d="M78 1438q-3 36 35 49.5t143 13.5t143 -13.5t35 -49.5l-37 -455q-2 -29 -29.5 -39t-111.5 -10t-112 10t-31 39z" />
<glyph unicode="(" horiz-adv-x="706" d="M45 631q2 262 149.5 480.5t434.5 365.5q24 10 30.5 7.5t20.5 -24.5q14 -24 13.5 -33t-11.5 -22q-151 -170 -229.5 -358.5t-81.5 -415.5h-326zM45 631h326q3 -227 81.5 -415.5t229.5 -358.5q11 -13 11.5 -22.5t-13.5 -33.5q-14 -22 -20.5 -24.5t-30.5 8.5 q-287 145 -434.5 364t-149.5 482z" />
<glyph unicode=")" horiz-adv-x="706" d="M23 -143q151 170 229.5 359t79.5 415q-1 226 -79.5 415t-229.5 359q-11 13 -11.5 22t13.5 33q14 22 20.5 24.5t30.5 -7.5q287 -147 434 -365t149 -481q-2 -263 -149 -482t-434 -364q-16 -8 -23.5 -9t-12.5 4t-15 21q-14 24 -13.5 33.5t11.5 22.5z" />
<glyph unicode="*" horiz-adv-x="847" d="M72 977q0 56 55 92q37 23 124.5 24.5t127.5 22.5q-40 24 -128 28t-126 30q-53 32 -53 90q0 45 33.5 78.5t74.5 33.5q36 0 66 -18q38 -26 78 -99t73 -102q-5 44 -48.5 119.5t-43.5 122.5q0 48 30.5 79t80.5 31q52 0 81 -32.5t29 -79.5t-41.5 -122.5t-46.5 -121.5l2 2 q34 22 58.5 63.5t48.5 82.5t57 61q30 18 62 18q40 0 74 -33t34 -79q0 -63 -55 -94q-39 -24 -128 -30t-132 -28q43 -22 129 -28.5t125 -30.5q53 -37 53 -92q0 -47 -34 -81t-75 -34q-34 0 -63 20q-33 20 -55 60.5t-45 83t-56 65.5q7 -44 47.5 -118t40.5 -119q0 -47 -29 -80 t-81 -33q-50 0 -80.5 31.5t-30.5 79.5q0 46 42.5 120t47.5 117q-31 -27 -71 -98.5t-80 -95.5q-29 -19 -62 -19q-40 0 -75 33.5t-35 79.5z" />
<glyph unicode="+" horiz-adv-x="978" d="M61 705q0 63 37.5 79.5t130.5 16.5h146v221q0 29 12.5 48t35 26.5t40.5 9.5t43 2q47 0 70.5 -20t23.5 -74v-213h231q29 0 48 -12.5t26.5 -35t10 -40.5t2.5 -43q0 -47 -20.5 -71t-74.5 -24h-223v-235q0 -88 -129 -88q-63 0 -79.5 37.5t-16.5 130.5v155h-225q-89 0 -89 130 z" />
<glyph unicode="," horiz-adv-x="536" d="M68 174q0 96 55 156.5t151 60.5q86 0 138.5 -61.5t52.5 -169.5q0 -229 -279 -484q-14 -12 -20 -15.5t-16.5 -1t-24.5 16.5l-31 29q-17 16 -15.5 26.5t19.5 30.5q39 44 75.5 105.5t49.5 112.5q-66 5 -110.5 58t-44.5 136z" />
<glyph unicode="-" d="M94 580v137q0 27 9 36t38 9h594q28 0 35.5 -10.5t7.5 -34.5v-137q0 -29 -9.5 -38.5t-37.5 -9.5h-590q-27 0 -37 9.5t-10 38.5z" />
<glyph unicode="." horiz-adv-x="526" d="M63 174q0 91 62.5 154t144.5 63q78 0 134.5 -55.5t56.5 -145.5q0 -93 -61 -151.5t-148 -58.5q-79 0 -134 54t-55 140z" />
<glyph unicode="/" horiz-adv-x="1075" d="M55 35l637 1515q8 20 17.5 27t27.5 4l262 -49q23 -4 27 -14t-6 -33l-637 -1516q-7 -20 -17 -25.5t-32 -0.5l-254 49q-27 5 -31 11t6 32z" />
<glyph unicode="0" horiz-adv-x="1421" d="M61 748q0 164 42 302t122 241t205.5 160.5t284.5 57.5t283.5 -57.5t202.5 -160.5t118.5 -240t40.5 -301q0 -166 -41.5 -306.5t-120.5 -246t-203.5 -165t-281.5 -59.5t-282.5 60t-205.5 165t-122 245.5t-42 304.5zM430 776q0 -577 285 -577q278 0 278 579q0 258 -72.5 382 t-205.5 124q-134 0 -209.5 -125t-75.5 -383z" />
<glyph unicode="1" horiz-adv-x="942" d="M72 47v146q0 21 9 28.5t38 7.5h10q43 0 72 2t50.5 4t34.5 10t21 14t11 22t3.5 27t0.5 36v776q-2 21 -11.5 28t-34.5 3l-157 -35q-47 -11 -47 33v170q0 21 9.5 30t37.5 17l393 107q60 16 111 16q27 0 37 -12.5t10 -44.5v-1088v-34t3 -25.5t7 -21t14 -14t22.5 -10.5 t34 -5.5t47 -4t62.5 -0.5h12q30 0 39 -7.5t9 -28.5v-146q0 -29 -10 -38t-38 -9h-753q-27 0 -37 9.5t-10 37.5z" />
<glyph unicode="2" horiz-adv-x="1243" d="M66 53v97q0 38 16.5 68.5t56.5 70.5l477 467q148 145 148 311q0 89 -46 135.5t-159 46.5q-57 0 -110 -12q20 -45 20 -92q0 -94 -60.5 -150.5t-148.5 -56.5q-80 0 -136 55.5t-56 145.5q0 156 138 257t388 101q142 0 247.5 -30.5t168.5 -86t93 -127.5t30 -161 q0 -126 -72.5 -246t-222.5 -271l-310 -309h119q59 0 89 0.5t63.5 5t48 11.5t31 22t25 34.5t18.5 51.5l10 37q6 25 18 35t35 10h152q19 0 27 -5t8.5 -16t-1.5 -28l-34 -328q-7 -65 -25 -80.5t-70 -15.5h-933q-25 0 -34 11t-9 42z" />
<glyph unicode="3" horiz-adv-x="1202" d="M59 1141q0 164 144.5 261t390.5 97q244 0 378 -103.5t134 -283.5q0 -84 -29 -149.5t-74.5 -102.5t-94.5 -56.5t-97 -21.5q71 -8 129.5 -31.5t105.5 -65.5t73 -110t26 -157q0 -223 -159.5 -334t-440.5 -111q-127 0 -255.5 19t-174.5 41q-29 13 -29 51v180q0 39 27 39 q9 0 26.5 -6t28.5 -8q185 -47 317 -47q136 0 203.5 48t67.5 148q0 111 -58.5 157t-167.5 46h-79q-25 0 -32 7t-7 32v192q0 22 7.5 27.5t31.5 5.5h77q118 0 186 46.5t68 142.5q0 157 -202 157q-64 0 -136 -20q17 -42 17 -84q0 -94 -60.5 -150.5t-148.5 -56.5q-81 0 -137 55.5 t-56 145.5z" />
<glyph unicode="4" horiz-adv-x="1228" d="M18 371v104q0 34 9 49l673 908q17 22 23.5 29t18.5 12.5t30 5.5h281q19 0 30 -7t9 -25.5t-23 -47.5l-643 -858h231v192q0 16 5.5 23.5t25.5 7.5h289q20 0 25.5 -6.5t5.5 -22.5v-194h159q39 0 50.5 -7t11.5 -36v-131q0 -27 -13.5 -39.5t-46.5 -12.5h-161q4 -54 26 -70 t78 -16h12q28 0 36.5 -7.5t8.5 -28.5v-146q0 -29 -9 -38t-36 -9h-624q-27 0 -37 9.5t-10 37.5v146q0 21 9.5 28.5t37.5 7.5h49q55 0 78.5 17.5t27.5 68.5h-569q-42 0 -55 9.5t-13 46.5z" />
<glyph unicode="5" horiz-adv-x="1191" d="M51 66v200q0 39 25 39q6 0 46 -10.5t113 -20.5t162 -10q183 0 274 45.5t91 155.5q0 116 -84 167.5t-250 51.5q-130 0 -219 -12q-14 -2 -51 -2q-26 0 -34.5 15t-2.5 60l90 699q6 35 47 35h698q60 0 76 -15t19 -82l14 -307q1 -26 -7 -37.5t-28 -11.5h-131q-24 0 -36.5 10 t-16.5 35l-6 37q-4 26 -9 43t-16 29t-20.5 18t-32.5 9.5t-41.5 4t-56.5 0.5h-211l-33 -309q90 12 174 12q91 0 165 -11t144.5 -41t118.5 -78t77 -126t29 -182q0 -256 -167 -380t-476 -124q-110 0 -232.5 13.5t-168.5 29.5q-23 8 -28 17.5t-5 32.5z" />
<glyph unicode="6" horiz-adv-x="1243" d="M68 676q0 425 178 625t540 200q129 0 269 -28q24 -6 29.5 -13.5t5.5 -32.5v-202q0 -21 -12 -26.5t-40 -2.5q-118 16 -196 16q-113 0 -188.5 -24t-125.5 -81.5t-76 -143.5t-40 -220q74 222 315 222q220 0 345.5 -123t125.5 -365q0 -500 -561 -500q-131 0 -229 30.5 t-162.5 87t-104.5 144.5t-56.5 193.5t-16.5 243.5zM446 461q0 -116 53.5 -176t141.5 -60t141.5 60t53.5 176q0 110 -51.5 171.5t-143.5 61.5q-93 0 -144 -61t-51 -172z" />
<glyph unicode="7" horiz-adv-x="1126" d="M45 1055l14 327q1 66 18 81.5t75 15.5h927q27 0 36 -9t9 -38v-68q0 -112 -75 -268l-496 -1049q-12 -27 -27 -37t-43 -10h-280q-31 0 -45.5 11.5t-1.5 35.5l577 1165h-182q-153 0 -197.5 -14.5t-54.5 -81.5l-12 -65q-5 -26 -14.5 -35.5t-32.5 -9.5h-160q-27 0 -32 9.5 t-3 39.5z" />
<glyph unicode="8" horiz-adv-x="1314" d="M55 430q0 144 67 238.5t171 144.5q-137 96 -137 289t133 295t368 102t368.5 -102t133.5 -295q0 -192 -139 -289q105 -50 172.5 -144.5t67.5 -238.5q0 -116 -47.5 -205.5t-131 -143.5t-190.5 -81t-234 -27q-101 0 -189.5 16.5t-165 52.5t-131 89t-85.5 129.5t-31 169.5z M424 434q0 -102 67 -157.5t166 -55.5t166.5 55.5t67.5 157.5q0 56 -21 104.5t-72.5 84.5t-127.5 39h-25q-59 -2 -103.5 -23t-69 -54.5t-36.5 -71.5t-12 -79zM498 1100q0 -83 45 -128.5t114 -45.5q68 0 113 44.5t45 127.5t-44.5 128.5t-113.5 45.5t-114 -45t-45 -127z" />
<glyph unicode="9" horiz-adv-x="1253" d="M53 997q0 504 557 504q107 0 190.5 -18.5t158 -66.5t123 -125.5t76.5 -200.5t28 -287q0 -420 -178 -623t-529 -203q-174 0 -295 31q-22 6 -22 33v213q0 21 12.5 26.5t40.5 2.5q15 -1 46.5 -6t67.5 -8t79 -3q116 0 192 23t126 78t75.5 137t38.5 211q-76 -201 -334 -201 q-212 0 -332.5 121.5t-120.5 361.5zM418 1014q0 -107 50.5 -168.5t143.5 -61.5q92 0 143.5 62t51.5 168q0 110 -53 164.5t-142 54.5t-141.5 -54.5t-52.5 -164.5z" />
<glyph unicode=":" horiz-adv-x="569" d="M86 174q0 91 62.5 154t144.5 63q78 0 134 -55.5t56 -145.5q0 -93 -61 -151.5t-148 -58.5q-79 0 -133.5 54t-54.5 140zM86 856q0 91 62.5 154t144.5 63q78 0 134 -55.5t56 -145.5q0 -93 -61 -151.5t-148 -58.5q-79 0 -133.5 54t-54.5 140z" />
<glyph unicode=";" horiz-adv-x="573" d="M53 -299q-13 13 4 27q69 58 126 126.5t79 125.5q-75 5 -125.5 58t-50.5 136q0 91 62.5 154t144.5 63q80 0 136 -55t56 -146q0 -266 -342 -548q-11 -11 -20 -2zM86 856q0 91 62.5 154t144.5 63q80 0 136 -55t56 -146q0 -93 -61.5 -151.5t-147.5 -58.5q-80 0 -135 54 t-55 140z" />
<glyph unicode="&#x3c;" horiz-adv-x="1189" d="M59 571q0 78 18.5 108.5t86.5 57.5l797 312q50 18 77 18q37 0 48.5 -27.5t11.5 -85.5q0 -104 -19 -135.5t-104 -64.5l-488 -183l488 -184q31 -12 49.5 -20t33.5 -20.5t22 -23.5t11.5 -32.5t5.5 -43t1 -59.5q0 -57 -12.5 -85.5t-49.5 -28.5q-26 0 -75 18l-797 314 q-68 26 -86.5 56.5t-18.5 108.5z" />
<glyph unicode="=" horiz-adv-x="1050" d="M96 457q0 63 37.5 79.5t130.5 16.5h602q29 0 48 -12.5t26.5 -35t9.5 -40.5t2 -43q0 -47 -20 -70.5t-74 -23.5h-674q-88 0 -88 129zM96 866q0 63 38 80t130 17h602q29 0 48 -12.5t26.5 -35.5t9.5 -41t2 -43q0 -47 -20 -70.5t-74 -23.5h-674q-88 0 -88 129z" />
<glyph unicode="&#x3e;" horiz-adv-x="1189" d="M90 188q0 38 1 59.5t5.5 43t11.5 32.5t22 23.5t33.5 20.5t49.5 20l489 184h428q0 -79 -18.5 -109t-85.5 -56l-799 -314q-49 -18 -75 -18q-37 0 -49.5 28.5t-12.5 85.5zM90 954q0 57 12.5 85t49.5 28q26 0 75 -18l799 -314q68 -26 86 -56t18 -108h-428l-489 183 q-85 33 -104 64.5t-19 135.5z" />
<glyph unicode="?" horiz-adv-x="1163" d="M61 1139q0 62 28.5 122.5t85.5 114.5t158.5 87.5t231.5 33.5q127 0 230.5 -33t171 -90t103.5 -133t36 -164q0 -69 -23 -129.5t-59.5 -104t-80.5 -81.5t-88 -69.5t-80.5 -60.5t-59.5 -63t-23 -69v-21q0 -29 -17 -39t-54 -10h-191q-33 0 -48 16t-15 56q0 48 20.5 92t53 79 t72 69t79 69.5t72 73t53 85.5t20.5 101q0 78 -47 128t-143 50q-57 0 -103 -16q19 -43 19 -88q0 -94 -60.5 -150.5t-148.5 -56.5q-81 0 -137 55.5t-56 145.5zM326 176q0 91 61 152t143 61t140.5 -58t58.5 -149q0 -94 -61.5 -150.5t-149.5 -56.5q-80 0 -136 55.5t-56 145.5z " />
<glyph unicode="@" horiz-adv-x="1828" d="M76 696q0 164 65.5 308.5t183 251t291 168t377.5 61.5q160 0 300.5 -46t245 -129.5t164.5 -208t60 -274.5q0 -155 -65 -283.5t-172.5 -200t-231.5 -71.5q-96 0 -147.5 46t-65.5 139q-104 -185 -272 -185q-58 0 -112 21t-98.5 61t-71.5 107t-27 151q0 99 37.5 193 t105.5 168.5t173.5 120t230.5 45.5q196 0 284 -77.5t88 -201.5q0 -24 -8 -78q-9 -46 -30.5 -137t-30.5 -137q-13 -57 26 -57q41 0 79 55.5t59.5 139t21.5 167.5q0 94 -28.5 174t-78.5 137t-116.5 97t-143.5 59.5t-159 19.5q-147 0 -268 -49t-200.5 -133t-123 -195 t-43.5 -237q0 -264 166.5 -419.5t439.5 -155.5q260 0 463 92q3 1 9.5 4t10 4.5t9 3.5t9 2.5t7.5 0.5t6.5 -2t5 -5t3.5 -8.5t1 -12.5l-2 -90q0 -34 -16 -45q-66 -49 -219 -79.5t-316 -30.5q-253 0 -451.5 92t-311.5 263.5t-113 395.5zM758 586q0 -144 110 -144q107 0 193 120 t86 269q0 70 -23.5 102t-76.5 32q-78 0 -146 -58t-105.5 -145.5t-37.5 -175.5z" />
<glyph unicode="A" horiz-adv-x="1566" d="M-18 47v129q0 24 9.5 37t37.5 16l51 4q31 2 49 21.5t43 89.5l397 1104q8 21 17 27t39 6h311q23 0 33.5 -6t17.5 -25l410 -1092q31 -85 51 -104.5t72 -22.5l28 -2q28 -1 37.5 -11t9.5 -32v-139q0 -29 -9 -38t-38 -9h-579q-28 0 -37.5 9t-9.5 38v125q0 24 13 34t46 15 q42 6 60 18.5t18 39.5q0 25 -15 65l-36 102h-529l-41 -118q-7 -20 -8 -36t4 -26.5t11.5 -18t20 -12t25.5 -7t31 -5.5q28 -4 37.5 -15.5t9.5 -33.5v-127q0 -28 -10 -37.5t-37 -9.5h-493q-28 0 -37.5 9t-9.5 38zM559 672h367l-187 514z" />
<glyph unicode="B" horiz-adv-x="1449" d="M78 47v129q0 29 8.5 41t30.5 12q77 0 103 22.5t26 92.5v791q0 71 -27 92.5t-100 21.5q-26 0 -33.5 10t-7.5 33v140q0 28 10 37.5t37 9.5h575q155 0 266.5 -18t194 -60t123.5 -114.5t41 -176.5q0 -147 -85.5 -227t-215.5 -95v-2q174 -15 274.5 -109t100.5 -245 q0 -80 -17.5 -143.5t-48 -108.5t-80.5 -77.5t-105 -52.5t-132.5 -31t-152.5 -15t-175 -4h-563q-27 0 -37 9.5t-10 37.5zM594 231h149q47 0 84 4t74.5 16.5t61.5 34t39.5 58t15.5 86.5q0 73 -18 118.5t-58.5 68.5t-89.5 30.5t-129 7.5h-129v-424zM594 907h137 q124 0 173.5 40.5t49.5 144.5q0 47 -15.5 79t-46 48t-65 22t-82.5 6h-151v-340z" />
<glyph unicode="C" horiz-adv-x="1439" d="M51 748q0 163 52 299.5t150.5 237t249 156.5t337.5 56q128 0 226.5 -22.5t156.5 -58t95.5 -84.5t50.5 -95.5t13 -97.5q0 -94 -61.5 -150.5t-149.5 -56.5q-80 0 -136 55.5t-56 145.5q0 57 25 102q-57 14 -140 14q-93 0 -168 -27t-125.5 -73.5t-85 -112t-50 -140 t-15.5 -159.5q0 -109 27.5 -197t83 -154t146.5 -102t212 -36q84 0 153.5 9.5t124.5 28.5t81.5 31.5t68.5 34.5q19 10 31 15.5t25.5 7t20.5 -8t7 -30.5v-186q0 -33 -31 -52q-70 -46 -204.5 -83.5t-338.5 -37.5q-171 0 -311 47t-245 140.5t-162.5 242t-57.5 341.5z" />
<glyph unicode="D" horiz-adv-x="1615" d="M78 47v129q0 29 8.5 41t30.5 12q77 0 103 22.5t26 92.5v791q0 71 -27 92.5t-100 21.5q-26 0 -33.5 10t-7.5 33v140q0 28 10 37.5t37 9.5h586q431 0 640.5 -184.5t209.5 -557.5q0 -187 -58.5 -328t-170.5 -230.5t-269.5 -134t-360.5 -44.5h-577q-27 0 -37 9.5t-10 37.5z M594 252h106q258 0 376 112t118 373q0 144 -33 243t-100.5 156t-158.5 81t-218 24h-90v-989z" />
<glyph unicode="E" horiz-adv-x="1347" d="M78 47v129q0 29 8.5 41t30.5 12q77 0 103 22.5t26 92.5v791q0 71 -27 92.5t-100 21.5q-26 0 -33.5 10t-7.5 33v140q0 28 10 37.5t37 9.5h1016q59 0 75 -15t19 -82l14 -286q2 -28 -6.5 -38.5t-36.5 -10.5h-151q-24 0 -35 9.5t-14 35.5l-11 65q-9 67 -61.5 81.5 t-233.5 14.5h-106v-411h72q35 0 55 11t27 44l10 51q6 30 14.5 37.5t32.5 7.5h137q23 0 28 -9.5t5 -39.5v-430q0 -16 -0.5 -23t-3.5 -14.5t-10 -9.5t-19 -2h-137q-23 0 -32.5 9.5t-14.5 35.5l-13 51q-7 33 -26 44t-53 11h-72v-391h172q43 0 69 0.5t53.5 3.5t42.5 7t31.5 13.5 t25.5 20.5t19.5 29.5t17 39.5t15.5 52l11 37q6 25 18 35t35 10h149q29 0 34.5 -10t2.5 -39l-35 -328q-7 -65 -24.5 -80.5t-67.5 -15.5h-1038q-27 0 -37 9.5t-10 37.5z" />
<glyph unicode="F" horiz-adv-x="1310" d="M76 47v146q0 21 9 28.5t38 7.5h10q62 0 86.5 23.5t24.5 91.5v791q0 71 -27 92.5t-100 21.5q-26 0 -33.5 10t-7.5 33v140q0 28 10 37.5t37 9.5h1059q58 0 73.5 -15t18.5 -82l14 -286q2 -28 -7 -38.5t-38 -10.5h-149q-24 0 -35 9.5t-15 35.5l-10 65q-10 67 -62 81.5 t-233 14.5h-147v-432h113q34 0 54 11.5t27 44.5l11 51q6 30 14.5 37.5t32.5 7.5h137q23 0 28 -9.5t5 -39.5v-430q0 -21 -1.5 -29.5t-8.5 -14.5t-23 -6h-137q-23 0 -32.5 9.5t-14.5 35.5l-11 52q-7 33 -26.5 44t-54.5 11h-113v-252q0 -72 22.5 -93.5t85.5 -21.5h11 q31 0 40 -7.5t9 -28.5v-146q0 -29 -9.5 -38t-39.5 -9h-588q-27 0 -37 9.5t-10 37.5z" />
<glyph unicode="G" horiz-adv-x="1521" d="M51 748q0 163 52 299.5t150.5 237t249 156.5t337.5 56q137 0 242.5 -24t168.5 -61.5t103 -89.5t54.5 -101t14.5 -103q0 -94 -61.5 -150.5t-149.5 -56.5q-80 0 -136 55.5t-56 145.5q0 64 31 115q-80 22 -185 22q-116 0 -203.5 -40.5t-139.5 -112.5t-77.5 -162t-25.5 -197 q0 -109 25 -197t75.5 -154t134 -102t193.5 -36q142 0 266 57v117q0 65 -67 65h-113q-47 0 -47 56v135q0 55 45 55h475q33 0 33 -33v-241h2v-144q0 -20 -2 -30v-222q0 -33 -11 -48t-38 -15h-119q-37 0 -53 13t-33 48q-164 -84 -359 -84q-171 0 -311 47t-245 140.5t-162.5 242 t-57.5 341.5z" />
<glyph unicode="H" horiz-adv-x="1763" d="M76 47v146q0 21 9 28.5t38 7.5h10q62 0 86.5 23.5t24.5 91.5v791q0 68 -24.5 91t-86.5 23h-10q-28 0 -37.5 8t-9.5 29v146q0 28 10 37.5t37 9.5h590q27 0 37 -9.5t10 -37.5v-146q0 -21 -9.5 -29t-37.5 -8h-13q-63 0 -85.5 -21t-22.5 -93v-275h579v275q0 68 -24 91t-86 23 h-10q-28 0 -37.5 8t-9.5 29v146q0 28 10 37.5t37 9.5h589q27 0 36.5 -9t9.5 -38v-146q0 -21 -9 -29t-37 -8h-12q-64 0 -86 -21t-22 -93v-791q0 -72 22 -93.5t84 -21.5h12q30 0 40 -7.5t10 -28.5v-146q0 -28 -10.5 -37.5t-39.5 -9.5h-587q-27 0 -37 9.5t-10 37.5v146 q0 21 9 28.5t38 7.5h10q62 0 86 23.5t24 91.5v291h-579v-291q0 -72 22.5 -93.5t85.5 -21.5h11q31 0 40 -7.5t9 -28.5v-146q0 -29 -9.5 -38t-39.5 -9h-588q-27 0 -37 9.5t-10 37.5z" />
<glyph unicode="I" horiz-adv-x="835" d="M76 47v146q0 21 9 28.5t38 7.5h10q62 0 86.5 23.5t24.5 91.5v791q0 68 -24.5 91t-86.5 23h-10q-28 0 -37.5 8t-9.5 29v146q0 28 10 37.5t37 9.5h590q27 0 37 -9.5t10 -37.5v-146q0 -21 -9.5 -29t-37.5 -8h-13q-63 0 -85.5 -21t-22.5 -93v-791q0 -72 22.5 -93.5 t85.5 -21.5h11q31 0 40 -7.5t9 -28.5v-146q0 -29 -9.5 -38t-39.5 -9h-588q-27 0 -37 9.5t-10 37.5z" />
<glyph unicode="J" horiz-adv-x="1232" d="M25 383q0 95 56 154t150 59q90 0 142.5 -56.5t52.5 -150.5q0 -97 -68 -158q44 -12 95 -12q124 0 178.5 91.5t54.5 293.5v531q0 68 -24.5 91t-86.5 23h-10q-28 0 -37.5 8t-9.5 29v146q0 29 9.5 38t37.5 9h588q29 0 39 -9t10 -38v-146q0 -21 -9 -29t-40 -8h-12 q-59 0 -83.5 -19.5t-25.5 -80.5v-574q0 -282 -127.5 -437.5t-398.5 -155.5q-113 0 -199 22.5t-138.5 59t-85.5 89.5t-45.5 108.5t-12.5 121.5z" />
<glyph unicode="K" horiz-adv-x="1609" d="M76 47v146q0 21 9 28.5t38 7.5h10q62 0 86.5 23.5t24.5 91.5v791q0 68 -24.5 91t-86.5 23h-10q-28 0 -37.5 8t-9.5 29v146q0 28 10 37.5t37 9.5h590q27 0 37 -9.5t10 -37.5v-146q0 -21 -9.5 -29t-37.5 -8h-13q-63 0 -85.5 -21t-22.5 -93v-336l401 391q24 23 30 36t-2 18 t-30 5h-41q-47 0 -47 60v123q0 29 9.5 38t37.5 9h561q27 0 36 -9t9 -38v-132q0 -51 -45 -51h-92q-69 0 -149 -75l-309 -285q76 -5 129 -23.5t98 -55t83 -106.5t73 -164t79 -241q13 -29 32 -40t52 -11q24 0 62 16q17 8 23.5 0.5t6.5 -37.5v-151q0 -26 -7 -39t-29 -23 q-33 -15 -82.5 -26t-87.5 -11q-36 0 -62.5 2t-62 11.5t-62.5 26.5t-54 49t-46 77q-16 37 -38.5 102.5t-41 120.5t-45.5 118.5t-55 109.5t-67 80.5t-83 42.5l-184 -170v-203q0 -72 22.5 -93.5t85.5 -21.5h11q31 0 40 -7.5t9 -28.5v-146q0 -29 -9.5 -38t-39.5 -9h-588 q-27 0 -37 9.5t-10 37.5z" />
<glyph unicode="L" horiz-adv-x="1310" d="M78 47v129q0 29 8.5 41t30.5 12q72 0 99 19t30 76v823q-3 61 -27.5 81.5t-83.5 20.5h-10q-28 0 -37.5 8t-9.5 29v146q0 28 10 37.5t37 9.5h588q29 0 39 -9t10 -38v-146q0 -21 -9.5 -29t-39.5 -8h-13q-58 0 -80.5 -17.5t-25.5 -76.5v-930h172q43 0 69 0.5t53.5 3.5t42.5 7 t31.5 13.5t25.5 20.5t19.5 29.5t17 39.5t15.5 52l11 37q6 25 18 35t35 10h149q28 0 34 -10t3 -39l-35 -328q-7 -65 -24.5 -80.5t-67.5 -15.5h-1038q-27 0 -37 9.5t-10 37.5z" />
<glyph unicode="M" horiz-adv-x="2066" d="M66 45v150q0 20 8.5 27t34.5 7h16q33 0 51 3t32.5 13.5t19.5 30.5t5 54v819q0 19 -1 33t-3 25.5t-3 18.5t-6 12.5t-7.5 8t-11 5t-12.5 3.5t-17 2.5t-20 2.5q-27 1 -36.5 10.5t-9.5 29.5v134q0 27 9.5 36t36.5 9h456q36 0 54 -52l403 -1161l403 1168q8 26 20 35.5t42 9.5 h407q27 0 36 -9t9 -36v-125q0 -50 -45 -52l-22 -2q-17 -1 -29 -4t-27 -11.5t-24 -28.5t-10 -50v-817q0 -76 13.5 -95.5t72.5 -19.5h33q30 0 41.5 -8t11.5 -28v-148q0 -27 -12 -36t-41 -9h-551q-27 0 -37 9t-10 36v148q0 21 8.5 28.5t38.5 7.5h14q60 0 84.5 24t24.5 91v518 l-299 -848q-6 -19 -16 -24.5t-40 -5.5h-299q-22 0 -32 5.5t-17 22.5l-326 908v-590q0 -68 21 -84.5t88 -16.5h16q27 0 36 -7t9 -27v-150q0 -27 -9.5 -36t-35.5 -9h-503q-24 0 -33.5 9t-9.5 36z" />
<glyph unicode="N" horiz-adv-x="1742" d="M76 47v146q0 21 9 28.5t38 7.5h10q62 0 86.5 23.5t24.5 91.5v803q-3 61 -27.5 81.5t-83.5 20.5h-10q-28 0 -37.5 8t-9.5 29v146q0 28 10 37.5t37 9.5h336q46 0 71 -31l725 -864v551q0 72 -22.5 93t-85.5 21h-12q-30 0 -39 8t-9 29v146q0 29 10 38t38 9h507 q27 0 37.5 -9.5t10.5 -37.5v-146q0 -21 -10 -29t-38 -8h-10q-62 0 -86 -23t-24 -91v-1119q0 -19 -9.5 -25.5t-42.5 -6.5h-90q-44 0 -65 26l-805 916v-582q0 -72 22.5 -93.5t85.5 -21.5h13q30 0 38.5 -7.5t8.5 -28.5v-146q0 -29 -9.5 -38t-37.5 -9h-508q-27 0 -37 9.5 t-10 37.5z" />
<glyph unicode="O" horiz-adv-x="1667" d="M51 737q0 110 22.5 213t79.5 205t143 177t223.5 122t311.5 47q169 0 304 -42.5t223.5 -113.5t147.5 -170.5t84.5 -207.5t25.5 -230q0 -110 -22.5 -212.5t-79.5 -204.5t-143 -177.5t-224.5 -122.5t-312.5 -47q-169 0 -303.5 42.5t-223 114t-147.5 171t-84 207.5t-25 229z M420 735q0 -56 7 -110t23.5 -114.5t48 -111t75 -92t110.5 -65t150 -23.5q93 0 166 31t118.5 81.5t75.5 119.5t41.5 138.5t11.5 145.5q0 69 -9.5 134t-37.5 137.5t-72 125.5t-120.5 88t-176.5 35q-92 0 -165 -31.5t-118 -82t-75 -120t-41.5 -140t-11.5 -146.5z" />
<glyph unicode="P" horiz-adv-x="1441" d="M76 47v146q0 21 9 28.5t38 7.5h10q62 0 86.5 23.5t24.5 91.5v791q0 71 -27 92.5t-100 21.5q-26 0 -33.5 10t-7.5 33v140q0 28 10 37.5t37 9.5h547q152 0 265 -13t205 -44t149 -83t87.5 -130t30.5 -185q0 -229 -151 -348t-406 -119h-258v-213q0 -72 22.5 -93.5t85.5 -21.5 h11q31 0 40 -7.5t9 -28.5v-146q0 -29 -9.5 -38t-39.5 -9h-588q-27 0 -37 9.5t-10 37.5zM592 782h127q321 0 321 242q0 123 -81.5 176t-253.5 53h-113v-471z" />
<glyph unicode="Q" horiz-adv-x="1667" d="M51 737q0 110 22.5 213t79.5 205t143 177t223.5 122t311.5 47q169 0 304 -42.5t223.5 -113.5t147.5 -170.5t84.5 -207.5t25.5 -230q0 -101 -21 -197.5t-65.5 -191t-124 -173.5t-186.5 -128q58 -31 133 -115q26 -29 47 -40t55 -11q40 0 84 17q18 6 25.5 -1t7.5 -36v-152 q0 -25 -8 -38t-31 -23q-31 -15 -81 -26t-89 -11q-106 0 -192.5 33.5t-157.5 130.5q-3 4 -17.5 23.5t-19.5 26.5t-20 26t-23.5 28t-24 25t-28.5 26.5t-30 22t-34 20.5q-164 2 -295.5 45.5t-218 115.5t-144 170.5t-82 205.5t-24.5 227zM420 735q0 -56 7 -110t23.5 -114.5 t48 -111t75 -92t110.5 -65t150 -23.5q93 0 166 31t118.5 81.5t75.5 119.5t41.5 138.5t11.5 145.5q0 69 -9.5 134t-37.5 137.5t-72 125.5t-120.5 88t-176.5 35q-92 0 -165 -31.5t-118 -82t-75 -120t-41.5 -140t-11.5 -146.5z" />
<glyph unicode="R" horiz-adv-x="1462" d="M76 47v146q0 21 9 28.5t38 7.5h10q62 0 86.5 23.5t24.5 91.5v791q0 71 -27 92.5t-100 21.5q-26 0 -33.5 10t-7.5 33v140q0 28 10 37.5t37 9.5h547q174 0 292 -20t202.5 -69t123.5 -134t39 -212q0 -154 -77 -256t-216 -151q62 -37 111 -118t112 -240q20 -52 72 -52 q31 0 74 13q33 11 33 -23v-141q0 -25 -8 -38.5t-31 -23.5q-80 -37 -203 -37q-41 0 -69.5 4.5t-64.5 19.5t-66.5 50t-55.5 90q-13 29 -36 88t-40 102.5t-45.5 97t-57 87.5t-69.5 58t-88 24h-10v-254q0 -72 22.5 -93.5t85.5 -21.5h11q31 0 40 -7.5t9 -28.5v-146 q0 -29 -9.5 -38t-39.5 -9h-588q-27 0 -37 9.5t-10 37.5zM592 823h106q260 0 260 221q0 112 -67.5 160.5t-206.5 48.5h-92v-430z" />
<glyph unicode="S" horiz-adv-x="1302" d="M39 338q0 95 56.5 154t150.5 59q84 0 139 -57t55 -150q0 -63 -28 -108q94 -25 219 -25q115 0 183.5 41.5t68.5 130.5q0 58 -26.5 102t-72 71t-104 48t-123.5 39.5t-129.5 39.5t-123 53t-104 75t-72 110.5t-26.5 155.5q0 210 152 316t422 106t411.5 -95t141.5 -261 q0 -93 -62 -150t-149 -57q-82 0 -137.5 55.5t-55.5 145.5q0 49 23 100q-83 25 -176 25q-102 0 -161.5 -31.5t-59.5 -97.5q0 -45 27 -78t72 -55t103.5 -41t123.5 -39t130 -44.5t123.5 -63.5t103.5 -90t72 -129.5t27 -176.5q0 -121 -43.5 -208t-126.5 -137.5t-191 -74 t-249 -23.5q-285 0 -434 92.5t-150 272.5z" />
<glyph unicode="T" horiz-adv-x="1392" d="M31 1075l14 307q3 67 18.5 82t73.5 15h1118q56 0 72.5 -15t20.5 -82l14 -307q1 -17 0.5 -28t-9 -16t-28.5 -5h-158q-24 0 -35 9.5t-14 35.5l-10 66q-9 65 -53 80.5t-185 15.5v-889q0 -72 22.5 -93.5t86.5 -21.5h12q29 0 37 -7t8 -29v-146q0 -29 -8.5 -38t-36.5 -9h-590 q-27 0 -37 9.5t-10 37.5v146q0 21 9 28.5t38 7.5h11q59 0 83 20.5t27 80.5v903q-141 0 -185 -15.5t-54 -80.5l-9 -66q-4 -26 -15 -35.5t-34 -9.5h-159q-27 0 -32 9.5t-3 39.5z" />
<glyph unicode="U" horiz-adv-x="1708" d="M33 1286v146q0 28 10 37.5t37 9.5h588q29 0 39 -9t10 -38v-146q0 -21 -9.5 -29t-39.5 -8h-13q-60 0 -82.5 -19.5t-23.5 -84.5v-561q0 -164 85 -247t240 -83q165 0 256 88.5t91 245.5v567q0 56 -24 75t-87 19h-10q-29 0 -39 8t-10 29v146q0 28 11 37.5t38 9.5h526 q29 0 39 -9t10 -38v-146q0 -21 -9.5 -29t-39.5 -8h-12q-62 0 -85.5 -17.5t-23.5 -76.5v-577q0 -297 -164.5 -444.5t-476.5 -147.5q-309 0 -486 140t-177 413v596q0 68 -24.5 91t-86.5 23h-10q-28 0 -37.5 8t-9.5 29z" />
<glyph unicode="V" horiz-adv-x="1501" d="M-31 1292v140q0 29 9 38t36 9h568q30 0 39.5 -9t9.5 -38v-125q0 -24 -12.5 -33t-45.5 -17q-40 -8 -56.5 -19.5t-16.5 -37.5q0 -24 14 -65l283 -854l280 870q6 20 7.5 35.5t-3.5 26.5t-11 18t-18.5 11.5t-23.5 7t-29 5.5q-26 4 -35.5 16t-9.5 34v127q0 28 9.5 37.5 t35.5 9.5h482q27 0 35 -8.5t8 -38.5v-129q0 -17 -2 -26t-13 -17.5t-32 -10.5l-43 -4q-21 -2 -32.5 -8t-27.5 -30t-33 -72l-376 -1121q-5 -19 -13.5 -24.5t-38.5 -5.5h-315q-22 0 -30.5 5.5t-16.5 22.5l-391 1108q-31 85 -50.5 104.5t-68.5 22.5l-27 2q-26 1 -35.5 11 t-9.5 32z" />
<glyph unicode="W" horiz-adv-x="2172" d="M-18 1325v107q0 29 9 38t36 9h591q28 0 38 -9t10 -38v-136q0 -45 -43 -45q-61 0 -81 -7t-20 -34q0 -18 13 -75l186 -807l250 1106q6 29 15 37t36 8h276q15 0 23 -1.5t13.5 -9.5t7 -13t6.5 -23l251 -1004l164 723q11 50 11 61q0 26 -19 32.5t-76 6.5q-26 0 -35.5 11.5 t-9.5 33.5v136q0 33 9 40t53 7h448q25 0 33 -9t8 -38v-127q0 -54 -41 -54q-27 0 -39 -0.5t-27.5 -4.5t-21.5 -10t-14.5 -20.5t-13.5 -32t-13 -48.5l-274 -1084q-13 -47 -23 -57t-51 -10h-264q-17 0 -28 4.5t-17.5 15.5t-9.5 20t-7 27l-229 936l-203 -936q-9 -43 -19.5 -55 t-35.5 -12h-346q-24 0 -37 13t-25 54l-286 1069q-24 87 -43.5 109t-61.5 22q-49 0 -61 13.5t-12 60.5z" />
<glyph unicode="X" horiz-adv-x="1531" d="M4 47v133q0 51 47 51h31q42 0 74.5 17.5t83.5 79.5l342 407l-295 383q-59 74 -103.5 101.5t-87.5 27.5h-18q-47 0 -47 53v132q0 29 9.5 38t37.5 9h553q29 0 39 -9t10 -38v-123q0 -54 -49 -54h-8q-16 0 -16 -6q2 -10 42 -59l150 -195l164 195q20 25 21 38.5t-9.5 17 t-34.5 3.5h-20q-48 0 -48 60v123q0 29 10 38t38 9h499q28 0 37.5 -9t9.5 -38v-132q0 -51 -47 -51h-10q-42 0 -74 -14t-78 -61l-309 -373l344 -443q58 -73 102.5 -99t88.5 -26h18q47 0 47 -53v-133q0 -29 -9.5 -38t-39.5 -9h-553q-28 0 -37.5 9t-9.5 38v125q0 53 47 53h10 q15 0 15 5q1 6 -25 39q-11 14 -18 22l-195 250l-205 -250q-16 -19 -21.5 -31.5t0.5 -18.5t15.5 -8t26.5 -2h41q49 0 49 -59v-125q0 -29 -10 -38t-39 -9h-539q-28 0 -37.5 9t-9.5 38z" />
<glyph unicode="Y" horiz-adv-x="1394" d="M-20 1300v132q0 29 9.5 38t37.5 9h553q29 0 39 -9t10 -38v-123q0 -54 -49 -54h-11q-11 0 -20 -2t-18 -8t-7.5 -20t15.5 -35l196 -356l223 356q16 31 6.5 45t-28.5 14h-21q-47 0 -47 60v123q0 29 9.5 38t37.5 9h453q28 0 37.5 -9t9.5 -38v-132q0 -51 -47 -51h-31 q-21 0 -38.5 -14t-49.5 -61l-379 -551v-301q3 -57 26 -75t81 -18h12q30 0 39.5 -7.5t9.5 -28.5v-146q0 -29 -10 -38t-39 -9h-588q-27 0 -37 9.5t-10 37.5v146q0 21 9 28.5t38 7.5h11q62 0 86 23.5t24 91.5v246l-332 528q-46 74 -79.5 101.5t-65.5 27.5h-18q-47 0 -47 53z " />
<glyph unicode="Z" horiz-adv-x="1304" d="M59 45v137q0 24 9 39l712 1032h-301q-37 0 -61 -10t-43 -39t-29.5 -56.5t-30.5 -88.5q-6 -21 -18 -30t-35 -9h-156q-20 0 -28 9.5t-6 31.5l20 385q3 18 13.5 25.5t33.5 7.5h1041q24 0 31.5 -11.5t7.5 -33.5v-91q0 -38 -29 -86l-707 -1032h336q79 0 110.5 36.5t84.5 178.5 q6 21 17 30t34 9h158q40 0 34 -41l-40 -405q-6 -33 -48 -33h-1083q-16 1 -21.5 12t-5.5 33z" />
<glyph unicode="[" horiz-adv-x="706" d="M150 -258v1720q0 38 12.5 53t46.5 15h387q59 0 59 -51v-115q0 -36 -11 -47.5t-42 -11.5h-127v-1405h127q31 0 42 -12t11 -48v-114q0 -52 -59 -52h-387q-34 0 -46.5 15t-12.5 53z" />
<glyph unicode="\" horiz-adv-x="997" d="M47 1411q0 44 29.5 64t109.5 20q113 0 147 -12t54 -60l551 -1310q12 -36 12 -52q0 -84 -166 -84q-97 0 -126.5 12t-49.5 60l-549 1311q-12 27 -12 51z" />
<glyph unicode="]" horiz-adv-x="706" d="M51 -160q0 36 11 48t42 12h125v1405h-125q-31 0 -42 11.5t-11 47.5v115q0 51 58 51h387q34 0 47.5 -15t13.5 -53v-1720q0 -38 -13.5 -53t-47.5 -15h-387q-58 0 -58 52v114z" />
<glyph unicode="^" horiz-adv-x="1136" d="M88 934l313 534q29 45 59.5 57.5t108.5 12.5v-287l-188 -327q-22 -41 -42.5 -57t-50.5 -20.5t-104 -4.5q-33 0 -51.5 1.5t-37 6.5t-23.5 14.5t-2 27t18 42.5zM569 1251v287q78 0 108.5 -12.5t59.5 -57.5l312 -534q19 -31 21 -50.5t-15 -28t-38.5 -11t-62.5 -2.5 q-104 0 -134 12t-62 70z" />
<glyph unicode="_" horiz-adv-x="1658" d="M94 -117q0 64 28 80.5t99 16.5h1299q45 0 45 -132q0 -46 -12 -70t-42 -24h-1370q-47 0 -47 129z" />
<glyph unicode="`" horiz-adv-x="557" d="M14 1423l92 172q15 29 56 11l348 -166q20 -10 21 -24t-11 -38l-31 -65q-17 -38 -59 -27l-403 92q-34 8 -13 45z" />
<glyph unicode="a" horiz-adv-x="1220" d="M51 303q0 90 31.5 156.5t84 107t134.5 64.5t168.5 32.5t200.5 8.5h61v47q0 76 -37 112.5t-125 36.5q-53 0 -112 -12q0 -82 -55 -134t-132 -52q-70 0 -118 48t-48 126q0 140 116.5 205t352.5 65q98 0 170 -10t134 -37t100.5 -72t60 -116.5t21.5 -169.5v-398q3 -84 59 -84 q21 0 37.5 4.5t24.5 4.5q20 0 20 -23v-147q0 -44 -31 -56q-49 -22 -184 -22q-164 0 -223 112q-122 -112 -344 -112q-367 0 -367 315zM377 315q0 -98 131 -98q105 0 164 63t59 179v2h-61q-66 0 -116.5 -7t-91.5 -23t-63 -45t-22 -71z" />
<glyph unicode="b" horiz-adv-x="1243" d="M-33 1366v129q0 28 9 36.5t38 10.5l379 21q28 0 37.5 -13t9.5 -45v-536q43 66 125 101.5t191 35.5q206 0 319 -134.5t113 -412.5q0 -106 -17.5 -192t-58.5 -160.5t-106 -125.5t-163.5 -79.5t-226.5 -28.5q-158 0 -296 36.5t-193 74.5q-14 9 -14 41l2 1036v58 q0 50 -15.5 69.5t-54.5 22.5l-31 2q-47 2 -47 53zM434 258q28 -13 77 -23t93 -10q107 0 168.5 72.5t61.5 249.5q0 43 -2 76t-8.5 70.5t-19 64.5t-31 50t-47.5 34.5t-67 11.5q-94 0 -159 -86.5t-66 -237.5v-272z" />
<glyph unicode="c" horiz-adv-x="1163" d="M49 530q0 145 44.5 257.5t125.5 183.5t190.5 107t243.5 36q97 0 175.5 -19.5t128 -50.5t83 -72t47 -81.5t13.5 -81.5q0 -89 -51 -145t-142 -56q-89 0 -144.5 53.5t-55.5 141.5q0 38 8 65q-10 0 -31 1t-31 1q-252 0 -252 -309q0 -165 77 -237t251 -72q43 0 83.5 3.5 t78 11.5t58.5 13t55 15.5t38 11.5q47 14 60.5 8t13.5 -41v-157q0 -32 -6.5 -43t-28.5 -21q-51 -23 -159 -46t-248 -23q-625 0 -625 546z" />
<glyph unicode="d" horiz-adv-x="1302" d="M55 487q0 311 132.5 465t357.5 154q155 0 256 -78h2v205q-3 41 -18.5 58t-51.5 20l-31 2q-47 2 -47 53v129q0 28 9 36.5t38 10.5l379 21q27 0 38 -13.5t11 -44.5v-1194q3 -84 60 -84q22 0 38.5 4.5t24.5 4.5q17 0 17 -23v-147q0 -44 -29 -56q-49 -22 -184 -22 q-174 0 -230 127q-128 -142 -348 -142q-74 0 -135 15t-116 51.5t-92 94t-59 147t-22 206.5zM397 510q0 -285 176 -285q207 0 230 307v269q-26 21 -78 37t-107 16q-221 0 -221 -344z" />
<glyph unicode="e" horiz-adv-x="1150" d="M49 545q0 125 35 229t102 180t171.5 118t236.5 42q229 0 355 -95.5t126 -268.5q0 -161 -114.5 -255t-346.5 -94q-100 0 -208 19q19 -99 82.5 -144t195.5 -45q176 0 285 45q12 4 29 10.5t29 10.5t22 4q24 0 24 -33v-157q0 -35 -45 -58q-63 -32 -165.5 -49.5t-207.5 -17.5 q-127 0 -228.5 27.5t-171.5 76.5t-116.5 119.5t-68 153.5t-21.5 182zM401 637q119 -21 185 -21q190 0 190 144q0 68 -45.5 98.5t-136.5 30.5q-171 0 -193 -252z" />
<glyph unicode="f" horiz-adv-x="837" d="M45 903v105q0 36 10 50.5t37 14.5h133v113q0 205 103 311.5t334 106.5q163 0 261.5 -73.5t102.5 -221.5v-9q0 -83 -54.5 -134.5t-131.5 -51.5q-70 0 -118 48t-48 126q0 54 26 101q-76 -2 -112.5 -45.5t-36.5 -143.5v-127h192q39 0 50.5 -7t11.5 -36v-131q0 -27 -13.5 -39 t-46.5 -12h-194v-518q1 -63 25.5 -82t85.5 -19h12q29 0 37 -7t8 -29v-146q0 -29 -8.5 -38t-36.5 -9h-570q-28 0 -37.5 9t-9.5 38v146q0 21 8.5 28.5t38.5 7.5h13q63 0 85.5 21.5t22.5 93.5v504h-112q-42 0 -55 9t-13 46z" />
<glyph unicode="g" horiz-adv-x="1300" d="M55 -190q0 81 54 135.5t127 54.5q71 0 121.5 -49.5t50.5 -128.5q0 -34 -15 -72q65 -14 123 -14q291 0 291 297v57q-122 -117 -324 -117q-75 0 -136 15t-115.5 51.5t-92 94t-59 147t-21.5 206.5q0 158 36 277.5t102 193.5t154 111t198 37q155 0 256 -78h2v10q0 21 4 33.5 t14.5 18.5t28.5 6l360 -25q29 -2 38.5 -10.5t9.5 -36.5v-129q0 -43 -58 -55q-23 -8 -31.5 -12t-19.5 -13.5t-14.5 -25t-3.5 -41.5v-691q0 -146 -44.5 -255.5t-126.5 -177t-192 -101t-248 -33.5q-464 0 -469 320zM401 510q0 -139 44.5 -212t132.5 -73q108 0 163 79t66 228 v269q-26 21 -78 37t-106 16q-111 0 -166.5 -88t-55.5 -256z" />
<glyph unicode="h" horiz-adv-x="1370" d="M23 47v146q0 21 8.5 28.5t38.5 7.5h12q63 0 85.5 21.5t22.5 93.5v877q0 50 -15 69.5t-54 22.5l-31 2q-47 2 -47 53v129q0 28 9 36.5t38 10.5l379 21q28 0 38.5 -13t10.5 -45v-546q95 153 359 153q74 0 130.5 -17t103 -56t71 -111t24.5 -174v-430q0 -99 58 -99 q23 0 40.5 4.5t24.5 4.5q19 0 19 -23v-147q0 -44 -31 -56q-49 -22 -184 -22q-49 0 -91 11.5t-80.5 39t-60.5 80t-22 125.5v471q0 133 -127 133q-113 0 -172 -106t-62 -304v-116q3 -58 26 -75.5t83 -17.5h12q29 0 38 -7.5t9 -28.5v-146q0 -28 -10 -37.5t-37 -9.5h-569 q-28 0 -37.5 9t-9.5 38z" />
<glyph unicode="i" horiz-adv-x="731" d="M49 47v146q0 21 8.5 28.5t38.5 7.5h13q59 0 82 18t26 75v442q-3 41 -18.5 58t-51.5 20l-30 2q-47 2 -47 53v129q0 28 9 36.5t38 10.5l379 21q28 0 38.5 -13t10.5 -45v-714q3 -58 25.5 -75.5t82.5 -17.5h13q28 0 37.5 -7.5t9.5 -28.5v-146q0 -28 -10 -37.5t-37 -9.5h-570 q-28 0 -37.5 9t-9.5 38zM180 1384q0 93 59 152t144 59q76 0 129 -54t53 -140q0 -92 -61 -148.5t-146 -56.5q-76 0 -127 51.5t-51 136.5z" />
<glyph unicode="j" horiz-adv-x="641" d="M-240 -252q0 83 51 137t130 54q75 0 123.5 -49t48.5 -130q0 -36 -19 -84q92 34 92 170v902q0 50 -15 69.5t-54 22.5l-31 2q-47 2 -47 53v129q0 28 9 36.5t38 10.5l379 21q28 0 37.5 -13t9.5 -45v-1114q0 -212 -106 -331t-324 -119q-160 0 -241 79.5t-81 198.5zM145 1384 q0 93 59.5 152t143.5 59q77 0 130.5 -54t53.5 -140q0 -92 -61.5 -148.5t-144.5 -56.5q-76 0 -128.5 51.5t-52.5 136.5z" />
<glyph unicode="k" horiz-adv-x="1349" d="M23 47v146q0 21 8.5 28.5t38.5 7.5h6q61 0 82.5 21.5t21.5 93.5v875q0 50 -14.5 69.5t-52.5 22.5l-23 2q-47 2 -47 53v129q0 28 9 36.5t38 10.5l373 21q25 0 34 -13t9 -45v-934l250 211q25 19 31.5 33.5t-3 20.5t-28.5 6h-39q-27 0 -36 13.5t-9 37.5v133q0 29 8.5 38 t36.5 9h524q27 0 35 -8.5t8 -38.5v-133q0 -12 -1.5 -19.5t-5.5 -15.5t-13 -12t-23 -4h-31q-47 0 -72.5 -12t-86.5 -64l-195 -166l274 -242q29 -25 61 -56t45.5 -43t29 -21t30.5 -9h15q25 0 32 -7.5t7 -28.5v-146q0 -28 -10.5 -37.5t-39.5 -9.5h-540q-28 0 -37.5 9t-9.5 38 v129q0 53 47 53h2q39 0 39 10q1 13 -45 50l-250 205v-150q0 -72 13.5 -93.5t53.5 -21.5h7q27 0 36 -7.5t9 -28.5v-146q0 -29 -9 -38t-36 -9h-510q-28 0 -37.5 9t-9.5 38z" />
<glyph unicode="l" horiz-adv-x="708" d="M23 47v146q0 21 8.5 28.5t38.5 7.5h12q63 0 85.5 21.5t22.5 93.5v875q0 50 -15 69.5t-54 22.5l-31 2q-47 2 -47 53v129q0 28 9 36.5t38 10.5l379 21q28 0 38.5 -13t10.5 -45v-1161q0 -72 22.5 -93.5t86.5 -21.5h12q29 0 38 -7.5t9 -28.5v-146q0 -28 -10 -37.5t-37 -9.5 h-569q-28 0 -37.5 9t-9.5 38z" />
<glyph unicode="m" horiz-adv-x="2007" d="M53 47v146q0 21 9.5 28.5t37.5 7.5h4q60 0 83.5 23.5t23.5 91.5v406q0 52 -19 72t-88 20q-24 0 -32.5 12t-8.5 37v135q0 26 10 35.5t38 11.5l378 21q29 0 39.5 -13t10.5 -45v-80q82 158 344 158q235 0 291 -201q34 103 130 152t232 49q69 0 122.5 -17t97.5 -56t67.5 -111 t23.5 -174v-430q0 -99 60 -99q22 0 38.5 4.5t24.5 4.5q17 0 17 -23v-147q0 -44 -29 -56q-49 -22 -184 -22q-49 0 -91 11.5t-80.5 39t-60.5 80t-22 125.5v471q0 133 -111 133q-104 0 -159 -106t-58 -304v-94q0 -72 22 -93.5t82 -21.5h9q28 0 37.5 -7.5t9.5 -28.5v-146 q0 -29 -9.5 -38t-37.5 -9h-510q-29 0 -37 8.5t-8 38.5v146q0 21 8.5 28.5t36.5 7.5h4q34 0 48 18t17 70v418q-10 113 -108 113q-107 0 -162 -111.5t-55 -318.5v-74q0 -72 13.5 -93.5t51.5 -21.5h6q27 0 35 -7.5t8 -28.5v-146q0 -29 -8.5 -38t-34.5 -9h-510q-27 0 -37 9.5 t-10 37.5z" />
<glyph unicode="n" horiz-adv-x="1392" d="M47 47v146q0 21 8.5 28.5t38.5 7.5h12q59 0 82.5 18t26.5 75v428q0 52 -18.5 72t-87.5 20q-24 0 -32.5 12t-8.5 37v135q0 26 9.5 36t37.5 11l360 21q27 0 36 -13t9 -45v-123q27 69 84.5 115t131.5 66t165 20q59 0 106.5 -10t90 -35t71 -65t45.5 -103t17 -145v-430 q0 -99 57 -99q23 0 41 4.5t25 4.5q18 0 18 -23v-147q0 -44 -31 -56q-49 -22 -184 -22q-49 0 -91 11.5t-80.5 39t-60.5 80t-22 125.5v471q0 133 -127 133q-115 0 -174 -111.5t-59 -318.5v-96q3 -58 25.5 -75.5t82.5 -17.5h13q28 0 37.5 -7.5t9.5 -28.5v-146q0 -28 -10 -37.5 t-37 -9.5h-570q-28 0 -37.5 9t-9.5 38z" />
<glyph unicode="o" horiz-adv-x="1239" d="M49 545q0 93 19.5 175t63.5 155t109 125.5t161.5 83t215.5 30.5q147 0 259.5 -46t179.5 -126.5t100 -180.5t33 -216q0 -117 -33 -217t-100 -181t-179.5 -127.5t-259.5 -46.5q-119 0 -215.5 31t-161.5 83.5t-109 126t-63.5 156t-19.5 175.5zM397 543q0 -167 56.5 -255.5 t164.5 -88.5q110 0 167 88.5t57 255.5q0 168 -57 257t-167 89q-108 0 -164.5 -89t-56.5 -257z" />
<glyph unicode="p" horiz-adv-x="1310" d="M10 -317q0 21 8.5 28.5t38.5 7.5h13q63 0 85.5 21.5t22.5 93.5v916q0 52 -18.5 72t-87.5 20q-24 0 -32.5 12t-8.5 37v135q0 26 9.5 36t37.5 11l379 21q28 0 38.5 -13t10.5 -45v-84q116 154 325 154q78 0 140 -15.5t116 -53.5t90.5 -99t57 -155t20.5 -218 q0 -270 -137 -431t-360 -161q-149 0 -250 37h-2v-176q0 -72 22 -93.5t86 -21.5h13q29 0 38 -7.5t9 -28.5v-146q0 -28 -10 -37.5t-37 -9.5h-570q-28 0 -37.5 9t-9.5 38v146zM508 258q26 -13 78.5 -23t99.5 -10q62 0 108 29t71 79t36.5 107t11.5 123q0 146 -39 218.5 t-137 72.5q-110 0 -164 -78t-65 -229v-289z" />
<glyph unicode="q" horiz-adv-x="1298" d="M57 487q0 158 36 277.5t102 193.5t154 111t198 37q155 0 256 -78h2v10q0 32 9.5 45t35.5 13l360 -25q29 -2 39.5 -10.5t10.5 -36.5v-129q0 -43 -58 -55q-23 -8 -31.5 -12t-19.5 -13.5t-14.5 -25t-3.5 -41.5v-914q0 -73 17.5 -94t68.5 -21h14q29 0 38 -7.5t9 -28.5v-146 q0 -29 -9.5 -38t-37.5 -9h-590q-27 0 -37 9.5t-10 37.5v146q0 21 9 28.5t38 7.5h10q85 0 118.5 23.5t33.5 91.5v254q-123 -115 -324 -115q-74 0 -135 15t-116 51.5t-92 94t-59 147t-22 206.5zM399 510q0 -285 176 -285q207 0 230 307v269q-26 21 -78 37t-106 16 q-74 0 -124 -40t-74 -116.5t-24 -187.5z" />
<glyph unicode="r" horiz-adv-x="1097" d="M47 47v146q0 21 9.5 28.5t37.5 7.5h10q62 0 86.5 23.5t24.5 91.5v406q0 52 -18.5 72t-87.5 20q-24 0 -32.5 12t-8.5 37v135q0 26 9.5 36t37.5 11l379 21q28 0 38.5 -13t10.5 -45v-198q10 33 25 65.5t43.5 72t64.5 69t90 49.5t117 20q117 0 166 -59.5t49 -167.5 q0 -83 -55 -135t-132 -52q-68 0 -115.5 45.5t-50.5 118.5q-89 -49 -144 -185t-58 -292v-65q3 -58 25.5 -75.5t82.5 -17.5h54q28 0 37.5 -7.5t9.5 -28.5v-146q0 -28 -10.5 -37.5t-39.5 -9.5h-608q-27 0 -37 9.5t-10 37.5z" />
<glyph unicode="s" horiz-adv-x="1062" d="M66 248q0 80 44.5 130t129.5 50q80 0 120.5 -45.5t40.5 -122.5q0 -32 -10 -65q77 -17 141 -17q87 0 128.5 24t41.5 87q0 36 -26 61.5t-69 38.5t-97.5 27.5t-111.5 27t-111.5 38.5t-97.5 60.5t-69 94.5t-26 139q0 163 113 250.5t328 87.5q216 0 328 -62t112 -182 q0 -71 -43.5 -122.5t-116.5 -51.5q-79 0 -126.5 45t-47.5 125q0 25 2 37q-62 4 -92 4q-150 0 -150 -90q0 -31 26 -53t69 -33.5t97.5 -25.5t112 -27.5t112 -41.5t97.5 -64.5t69 -99t26 -144.5q0 -182 -111 -268.5t-360 -86.5q-225 0 -349 67.5t-124 207.5z" />
<glyph unicode="t" horiz-adv-x="827" d="M14 887v121q0 36 10 50.5t37 14.5h105l160 301q11 21 33.5 27t64.5 6q50 0 60 -5.5t10 -27.5v-301h219q39 0 50 -7t11 -36v-147q0 -27 -13 -39.5t-46 -12.5h-221v-403q0 -124 31 -161.5t122 -37.5q68 0 119 17q18 5 24.5 -1.5t6.5 -35.5v-133q0 -27 -7 -40.5t-30 -21.5 q-64 -26 -213 -26q-64 0 -117 9t-103.5 33.5t-84.5 63.5t-55 103t-21 149v485h-84q-42 0 -55 9.5t-13 46.5z" />
<glyph unicode="u" horiz-adv-x="1376" d="M18 891v135q0 26 10 35.5t38 11.5l378 21q28 0 38 -13t10 -45v-671q0 -62 35.5 -98t111.5 -36q117 0 176 95t59 274v168q-2 41 -22.5 57.5t-83.5 16.5q-24 0 -32.5 12t-8.5 37v135q0 26 9.5 36t37.5 11l379 21q28 0 38.5 -13t10.5 -45v-710q0 -99 58 -99q23 0 40.5 4.5 t24.5 4.5q18 0 18 -23v-147q0 -44 -30 -56q-49 -22 -185 -22q-167 0 -225 116q-106 -139 -389 -139q-79 0 -139 17t-109 56.5t-74.5 111.5t-25.5 174v426q0 52 -19 72t-88 20q-24 0 -32.5 12t-8.5 37z" />
<glyph unicode="v" horiz-adv-x="1343" d="M8 897v129q0 29 9 38t36 9h553q28 0 37.5 -9t9.5 -38v-129q0 -23 -10 -35.5t-37 -13.5l-4 -2q-35 -2 -53.5 -15t-18.5 -43q0 -18 13 -59l159 -424l162 440q20 52 1.5 73.5t-60.5 25.5l-8 2q-47 3 -47 49v131q0 28 11 37.5t38 9.5h491q28 0 37.5 -9t9.5 -38v-131 q0 -24 -9 -38t-36 -15l-24 -2q-18 -2 -27.5 -3.5t-24.5 -7.5t-25.5 -17t-23.5 -32t-26 -51l-291 -715q-4 -14 -8 -19.5t-13 -8t-28 -2.5h-266q-21 0 -30.5 5.5t-15.5 22.5l-296 703q-8 20 -15 35t-14.5 27.5t-12.5 20.5t-13.5 14.5t-12.5 9.5t-14.5 7t-16 5t-19.5 4.5 l-22 5.5q-27 7 -36 19t-9 34z" />
<glyph unicode="w" horiz-adv-x="1900" d="M8 897v131q0 27 9.5 36t37.5 9h553q27 0 36 -9t9 -36v-135q0 -42 -26 -45q-58 -5 -78.5 -14.5t-20.5 -36.5q0 -11 11 -60l106 -479l172 768q6 28 15.5 37.5t37.5 9.5h248q28 0 37 -11t14 -40l183 -758l86 488q9 54 -1 67.5t-62 24.5q-6 1 -9 2q-30 7 -37.5 16t-7.5 33 v133q0 27 9.5 36t35.5 9h485q25 0 34 -9t9 -36v-108q0 -73 -45 -78l-28 -4q-10 -2 -26.5 -3.5t-23 -3t-17.5 -7t-17 -15.5t-14.5 -27.5t-16.5 -44.5l-211 -723q-6 -22 -17.5 -26t-61.5 -4h-9.5h-9.5h-11h-243q-22 0 -31.5 5t-13.5 23l-162 617l-164 -615q-5 -20 -12.5 -25 t-36.5 -5h-274q-20 0 -28.5 5.5t-14.5 22.5l-218 711q-13 42 -22.5 64.5t-23.5 33.5t-23.5 13.5t-34.5 5.5q-48 6 -62 17t-14 40z" />
<glyph unicode="x" horiz-adv-x="1241" d="M25 39v141q0 43 30 45l37 2q49 3 88.5 22.5t93.5 74.5l193 198l-217 232q-40 42 -67.5 62.5t-39.5 24.5t-32 5l-25 2q-45 3 -45 45v143q0 37 45 37h504q21 0 28 -7.5t7 -29.5v-143q0 -33 -10 -40q-7 -5 -19 -5h-29q-13 0 -9 -10q6 -12 34 -45l63 -74l72 74q47 53 21 55 h-11q-39 0 -39 45v143q0 21 8.5 29t26.5 8h424q23 0 29 -7t6 -30v-151q0 -19 -8 -29.5t-31 -11.5l-23 -2q-38 -4 -55.5 -8.5t-52 -30t-84.5 -78.5l-150 -160l201 -229q60 -66 92.5 -85.5t71.5 -21.5l29 -2q21 -1 26.5 -11t5.5 -34v-143q0 -24 -6.5 -31.5t-27.5 -7.5h-469 q-22 0 -29.5 8t-7.5 33v143q0 21 7.5 30t29.5 9q21 0 20 10q-2 13 -29 41l-94 99l-82 -88q-53 -49 -35 -56l11 -2l35 -2q36 -2 36 -41v-145q0 -23 -7.5 -31t-28.5 -8h-474q-23 0 -30.5 8t-7.5 31z" />
<glyph unicode="y" horiz-adv-x="1298" d="M8 893v133q0 29 9 38t36 9h545q27 0 35 -8.5t8 -38.5v-133q0 -24 -8 -36.5t-35 -12.5q-43 0 -60.5 -7t-17.5 -28q0 -20 23 -84l141 -395l152 418q14 44 14 57q0 21 -17.5 29t-58.5 8h-2q-45 0 -45 49v135q0 28 9.5 37.5t35.5 9.5h479q28 0 37.5 -9t9.5 -38v-129 q0 -53 -45 -53h-22q-39 0 -65.5 -21t-53.5 -92l-360 -950q-61 -159 -156 -225t-254 -66q-127 0 -214 76t-87 203q0 82 46 136t130 54q68 0 117 -49.5t49 -128.5q0 -86 -59 -139q105 12 165 151l37 107l-342 811q-39 87 -60 108t-71 21q-45 0 -45 53z" />
<glyph unicode="z" horiz-adv-x="1171" d="M59 45v137q0 27 9 39l591 643h-157q-84 0 -118 -27t-67 -126q-8 -22 -18.5 -30.5t-32.5 -8.5h-157q-41 0 -35 41l39 344q3 33 49 33h897q24 0 31.5 -12t7.5 -34v-90q0 -53 -29 -86l-592 -643h199q45 0 67 4t45 26t39 57t43 108q8 21 19 30t33 9h155q38 0 35 -41l-41 -385 q-3 -18 -13 -25.5t-34 -7.5h-938q-16 1 -21.5 12t-5.5 33z" />
<glyph unicode="{" horiz-adv-x="741" d="M35 547v86v86q0 7 1 11t4.5 7t5 3.5t8 2.5t7.5 2q78 20 106 68.5t28 130.5v268q0 74 12.5 122.5t39 83t77 52.5t118 25.5t170.5 7.5h41q24 0 31.5 -4.5t7.5 -19.5v-125q0 -23 -37 -23q-135 0 -135 -114v-343q0 -98 -30 -158.5t-113 -80.5v-2v-2q83 -20 113 -81t30 -159 v-342q0 -115 135 -115q37 0 37 -22v-125q0 -15 -8 -20t-31 -5h-41q-103 0 -170.5 7.5t-118 25.5t-77 52.5t-39 83t-12.5 122.5v269q0 81 -28 129.5t-106 68.5q-1 0 -6.5 1.5t-6.5 2l-5 2.5t-5 4.5t-2 6.5t-1 10z" />
<glyph unicode="|" horiz-adv-x="624" d="M150 -270v1732q0 55 59 58h213q26 0 39.5 -15.5t13.5 -40.5v-1732q0 -55 -57 -58h-213q-28 0 -41.5 15.5t-13.5 40.5z" />
<glyph unicode="}" horiz-adv-x="743" d="M49 -88q0 22 35 22q135 0 135 115v342q0 63 10.5 107.5t44 81.5t91.5 51v2h342v-86q0 -7 -1.5 -11.5t-5 -7t-5.5 -3.5t-8 -3t-7 -2q-79 -20 -107 -68t-28 -130v-269q0 -74 -12 -122.5t-38.5 -83t-77 -52.5t-118 -25.5t-170.5 -7.5h-43q-22 0 -29.5 5t-7.5 20v125z M49 1354v125q0 15 7.5 19.5t29.5 4.5h43q103 0 170.5 -7.5t118 -25.5t77 -52.5t38.5 -83t12 -122.5v-268q0 -82 28 -130.5t107 -68.5l8 -3q9 -2 11 -3t5 -6.5t3 -13.5v-86h-342v2q-58 14 -91.5 51t-44 81t-10.5 107v343q0 114 -135 114q-35 0 -35 23z" />
<glyph unicode="~" horiz-adv-x="1150" d="M16 514q0 166 94 260t277 94q166 0 260 -88q28 -26 54 -37.5t75 -11.5q60 0 89 18.5t40 59.5q5 22 14 29.5t37 7.5h170q26 0 35.5 -15t9.5 -59q0 -159 -105.5 -256.5t-295.5 -97.5q-66 0 -115 14t-69 29t-43 39q-28 30 -55 43.5t-80 13.5q-60 0 -87.5 -20t-39.5 -58 q-8 -26 -15.5 -32.5t-38.5 -6.5h-161q-30 0 -40 14.5t-10 59.5z" />
<glyph unicode="&#xa2;" horiz-adv-x="1175" d="M70 551q0 214 112 362t324 187v117q0 54 59 57h213q27 0 41.5 -15.5t14.5 -39.5v-127q112 -29 196 -103l8 -8q66 -63 66 -154q0 -93 -60.5 -151t-146.5 -58q-80 0 -135 54.5t-55 142.5q0 37 10 70q-36 4 -62 4q-66 0 -113.5 -28.5t-73.5 -79t-38 -109.5t-12 -129 q0 -161 66 -239.5t223 -78.5q136 0 223 25q15 5 49 16.5t57 18t33 6.5q27 0 27 -33v-141q0 -33 -8.5 -47t-38.5 -29q-76 -40 -215 -57v-88q0 -26 -16 -41t-44 -17h-213q-28 0 -41.5 15.5t-13.5 40.5v92q-227 33 -331.5 173.5t-104.5 391.5z" />
<glyph unicode="&#xa3;" horiz-adv-x="1298" d="M82 582v135q0 26 9 34.5t38 8.5h51q-74 140 -74 264q0 231 143.5 353t395.5 122q240 -2 377 -91t137 -257q-1 -94 -61.5 -149.5t-147.5 -55.5q-80 0 -136 55.5t-56 145.5q0 38 10 67q-36 34 -123 37q-79 0 -125.5 -44.5t-46.5 -143.5q0 -30 10.5 -69t23 -69.5t34.5 -82.5 t34 -82h248q31 0 40 -8.5t9 -34.5v-135q0 -28 -8.5 -37.5t-38.5 -9.5h-202q0 -46 -4 -83t-15.5 -83t-39.5 -83.5t-70 -60.5h231q43 0 69 0.5t53.5 3.5t42.5 7t31.5 13.5t25.5 20.5t19.5 29.5t17 39.5t15.5 52l11 37q6 25 18 35t35 10h131q27 0 32.5 -10t2.5 -39l-37 -328 q-6 -65 -23 -80.5t-67 -15.5h-950q-23 0 -32 9.5t-9 37.5v129q0 29 7.5 39t26.5 10h9q27 1 48.5 7.5t36 18.5t26 24t17.5 31t10.5 32.5t5.5 35.5l1.5 33t0 31.5t-0.5 24.5q0 26 -8 72h-162q-30 0 -38.5 9.5t-8.5 37.5z" />
<glyph unicode="&#xa5;" horiz-adv-x="1572" d="M59 1300v132q0 29 9.5 38t37.5 9h574q30 0 39.5 -9t9.5 -38v-123q0 -54 -49 -54h-8q-76 0 -33 -65l201 -320l219 320q17 31 7 45t-30 14h-20q-47 0 -47 60v123q0 29 9.5 38t37.5 9h452q27 0 37.5 -9.5t10.5 -37.5v-132q0 -51 -48 -51h-32q-19 0 -35 -14t-51 -61 l-379 -512v-318q0 -72 22 -93.5t84 -21.5h13q30 0 39.5 -7.5t9.5 -28.5v-146q0 -29 -10 -38t-39 -9h-588q-27 0 -37 9.5t-10 37.5v146q0 21 9.5 28.5t37.5 7.5h10q62 0 86.5 23.5t24.5 91.5v281l-349 495q-52 73 -85 100t-64 27h-19q-47 0 -47 53z" />
<glyph unicode="&#xa9;" horiz-adv-x="1726" d="M70 748q0 165 50 302.5t146.5 240.5t250 160.5t349.5 57.5t348.5 -57.5t248.5 -160.5t145 -240t49 -301q0 -166 -50 -306.5t-147 -246t-249.5 -165t-346.5 -59.5q-156 0 -286 39t-223 109t-157.5 167t-96 213t-31.5 247zM295 758q0 -180 67.5 -320t197.5 -220.5 t304 -80.5t303.5 80.5t197 220.5t67.5 320q0 275 -153 431.5t-413 156.5q-261 0 -416 -157t-155 -431zM481 739q0 180 113.5 296t308.5 116q157 0 252 -82q55 -42 55 -115q0 -64 -41 -103.5t-100 -39.5q-56 0 -93.5 37t-37.5 98q0 26 6 47q-6 0 -20 1t-21 1 q-164 0 -164 -245q0 -104 49.5 -165t159.5 -61q42 0 78.5 8t55 16t51.5 25q43 19 49 19q22 0 22 -21v-98q0 -31 -30 -45q-115 -59 -273 -59q-198 0 -309 103t-111 267z" />
<glyph unicode="&#xad;" d="M94 580v137q0 27 9 36t38 9h594q28 0 35.5 -10.5t7.5 -34.5v-137q0 -29 -9.5 -38.5t-37.5 -9.5h-590q-27 0 -37 9.5t-10 38.5z" />
<glyph unicode="&#xae;" horiz-adv-x="1726" d="M70 748q0 165 50 302.5t146.5 240.5t250 160.5t349.5 57.5t348.5 -57.5t248.5 -160.5t145 -240t49 -301q0 -166 -50 -306.5t-147 -246t-249.5 -165t-346.5 -59.5q-156 0 -286 39t-223 109t-157.5 167t-96 213t-31.5 247zM295 758q0 -180 67.5 -320t197.5 -220.5 t304 -80.5t303.5 80.5t197 220.5t67.5 320q0 275 -153 431.5t-413 156.5q-261 0 -416 -157t-155 -431zM494 379v78q0 11 5 15.5t21 4.5h4q32 0 46 13.5t14 50.5v432q0 38 -14 50.5t-54 12.5q-14 0 -18 5.5t-4 19.5v74q0 17 5 21.5t21 4.5h332q203 0 291 -51t88 -186 q0 -88 -46.5 -145t-131.5 -81q32 -21 58.5 -62.5t62.5 -121.5q12 -25 47 -25q14 0 32 9q8 3 12.5 -1t4.5 -20v-82q0 -30 -35 -42.5t-80 -12.5q-24 0 -41 2t-40.5 10t-42 27t-32.5 49q-8 17 -24 56.5t-29 67.5t-32.5 59t-45.5 49t-57 20h-35v-139q0 -40 12.5 -52t47.5 -12h4 q17 0 21.5 -4t4.5 -16v-78q0 -17 -5.5 -22t-20.5 -5h-320q-15 0 -20.5 5t-5.5 22zM776 803h90q144 0 144 121q0 60 -37.5 87t-112.5 27h-84v-235z" />
<glyph unicode="&#xb4;" horiz-adv-x="565" d="M141 1378q-12 24 -11 38t22 24l346 166q38 18 53 -11l96 -172q7 -12 8.5 -20t-8 -16.5t-33.5 -14.5l-383 -86q-43 -10 -59 27z" />
<glyph unicode="&#x2000;" horiz-adv-x="836" />
<glyph unicode="&#x2001;" horiz-adv-x="1673" />
<glyph unicode="&#x2002;" horiz-adv-x="836" />
<glyph unicode="&#x2003;" horiz-adv-x="1673" />
<glyph unicode="&#x2004;" horiz-adv-x="557" />
<glyph unicode="&#x2005;" horiz-adv-x="418" />
<glyph unicode="&#x2006;" horiz-adv-x="278" />
<glyph unicode="&#x2007;" horiz-adv-x="278" />
<glyph unicode="&#x2008;" horiz-adv-x="209" />
<glyph unicode="&#x2009;" horiz-adv-x="334" />
<glyph unicode="&#x200a;" horiz-adv-x="92" />
<glyph unicode="&#x2010;" d="M94 580v137q0 27 9 36t38 9h594q28 0 35.5 -10.5t7.5 -34.5v-137q0 -29 -9.5 -38.5t-37.5 -9.5h-590q-27 0 -37 9.5t-10 38.5z" />
<glyph unicode="&#x2011;" d="M94 580v137q0 27 9 36t38 9h594q28 0 35.5 -10.5t7.5 -34.5v-137q0 -29 -9.5 -38.5t-37.5 -9.5h-590q-27 0 -37 9.5t-10 38.5z" />
<glyph unicode="&#x2012;" d="M94 580v137q0 27 9 36t38 9h594q28 0 35.5 -10.5t7.5 -34.5v-137q0 -29 -9.5 -38.5t-37.5 -9.5h-590q-27 0 -37 9.5t-10 38.5z" />
<glyph unicode="&#x2013;" horiz-adv-x="1062" d="M94 580v135q0 26 9 34.5t38 8.5h779q29 0 38 -8.5t9 -34.5v-135q0 -28 -9 -38t-38 -10h-779q-29 0 -38 10t-9 38z" />
<glyph unicode="&#x2014;" horiz-adv-x="1658" d="M94 580v135q0 26 9 34.5t38 8.5h1375q29 0 38 -8.5t9 -34.5v-135q0 -28 -9 -38t-38 -10h-1375q-29 0 -38 10t-9 38z" />
<glyph unicode="&#x2018;" horiz-adv-x="522" d="M55 991q0 229 279 484q14 12 20 15.5t16.5 1t24.5 -16.5l31 -29q17 -16 15.5 -26.5t-19.5 -30.5q-39 -44 -75.5 -105.5t-49.5 -112.5q66 -5 111 -58t45 -136q0 -96 -55.5 -156.5t-151.5 -60.5q-86 0 -138.5 61.5t-52.5 169.5z" />
<glyph unicode="&#x2019;" horiz-adv-x="518" d="M78 1284q0 96 55.5 156.5t151.5 60.5q86 0 138 -61t52 -170q0 -230 -278 -484q-14 -12 -20.5 -16t-17 -1t-24.5 17l-31 29q-16 16 -14.5 26.5t19.5 30.5q38 43 74.5 105t49.5 113q-66 5 -110.5 58t-44.5 136z" />
<glyph unicode="&#x201c;" horiz-adv-x="978" d="M55 991q0 229 279 484q14 12 20 15.5t16.5 1t24.5 -16.5l31 -29q17 -16 15.5 -26.5t-19.5 -30.5q-39 -44 -75.5 -105.5t-49.5 -112.5q66 -5 111 -58t45 -136q0 -96 -55.5 -156.5t-151.5 -60.5q-86 0 -138.5 61.5t-52.5 169.5zM512 991q0 229 279 484q14 12 20 15.5 t16.5 1t24.5 -16.5l31 -29q17 -16 15.5 -26.5t-19.5 -30.5q-39 -44 -75.5 -105.5t-49.5 -112.5q66 -5 110.5 -58t44.5 -136q0 -96 -55.5 -156.5t-151.5 -60.5q-86 0 -138 61t-52 170z" />
<glyph unicode="&#x201d;" horiz-adv-x="976" d="M78 1284q0 96 55.5 156.5t151.5 60.5q86 0 138 -61t52 -170q0 -230 -278 -484q-14 -12 -20.5 -16t-17 -1t-24.5 17l-31 29q-16 16 -14.5 26.5t19.5 30.5q38 43 74.5 105t49.5 113q-66 5 -110.5 58t-44.5 136zM535 1284q0 96 55 156.5t151 60.5q86 0 138.5 -61.5 t52.5 -169.5q0 -229 -279 -484q-14 -12 -20 -15.5t-16.5 -1t-24.5 16.5l-31 29q-17 16 -15.5 26.5t19.5 30.5q39 44 75.5 105.5t49.5 112.5q-66 5 -110.5 58t-44.5 136z" />
<glyph unicode="&#x2022;" horiz-adv-x="925" d="M123 721q0 166 107 276.5t251 110.5q137 0 229.5 -100.5t92.5 -264.5q0 -109 -53 -198t-135.5 -136t-174.5 -47q-135 0 -226 98t-91 261z" />
<glyph unicode="&#x2026;" horiz-adv-x="1714" d="M63 174q0 91 62.5 154t144.5 63q78 0 134.5 -55.5t56.5 -145.5q0 -93 -61 -151.5t-148 -58.5q-79 0 -134 54t-55 140zM657 174q0 91 62.5 154t144.5 63q78 0 134.5 -55.5t56.5 -145.5q0 -93 -61 -151.5t-148 -58.5q-79 0 -134 54t-55 140zM1251 174q0 91 62.5 154 t144.5 63q78 0 134.5 -55.5t56.5 -145.5q0 -93 -61 -151.5t-148 -58.5q-79 0 -134 54t-55 140z" />
<glyph unicode="&#x202f;" horiz-adv-x="334" />
<glyph unicode="&#x205f;" horiz-adv-x="418" />
<glyph unicode="&#x20ac;" horiz-adv-x="1746" d="M63 811q0 27 8 45.5t19.5 28.5t35.5 15t45 6t58 1h97q47 269 249 429.5t527 160.5q112 0 204.5 -22.5t154 -58.5t104 -83.5t61.5 -96t19 -97.5v-15q0 -94 -61.5 -150t-149.5 -56q-81 0 -137 55t-56 145q0 61 33 115q-69 16 -146 16q-181 0 -287.5 -93t-142.5 -251h506 q28 0 46.5 -12.5t26 -35t9.5 -40.5t2 -43q0 -47 -20 -70.5t-74 -23.5h-510q0 -17 4 -41h350q30 0 49 -12.5t27 -35t10 -40.5t2 -43q0 -47 -20 -70.5t-74 -23.5h-262q118 -166 381 -166q83 0 152.5 9.5t124 28.5t82.5 31.5t69 34.5q19 10 31 15.5t25.5 7t20.5 -8t7 -30.5 v-186q0 -33 -31 -52q-70 -46 -204.5 -83.5t-337.5 -37.5q-262 0 -451 110t-270 327h-215q-88 0 -88 129q0 27 8 45t19.5 28.5t35.5 15.5t45 6t59 1h84q0 7 -1 21.5t-1 21.5h-165q-87 0 -87 129z" />
<glyph unicode="&#x2122;" horiz-adv-x="2179" d="M10 1210l6 199q1 49 13.5 59.5t56.5 10.5h709q43 0 53.5 -10.5t11.5 -59.5l10 -199v-8.5v-8t-0.5 -6t-1.5 -4.5t-3.5 -2.5t-6.5 -2t-10 -0.5h-125q-18 0 -24.5 11t-12.5 38q-9 39 -31.5 52t-83.5 15v-471q1 -39 17 -50t57 -11q25 -2 25 -25v-112q0 -21 -6 -27t-27 -6 h-395q-18 0 -25.5 7t-7.5 26v112q0 23 24 25q39 0 56 12t20 49v471q-47 -1 -70 -10.5t-31 -24t-18 -51.5q-8 -30 -34 -30h-123q-6 0 -10 0.5t-6.5 2t-4 2.5t-2 5t-0.5 5.5v7.5v9zM860 623v116q0 13 6.5 18t24.5 5q36 0 49.5 13.5t13.5 60.5v458q-1 6 -2 10t-4.5 6t-6 3t-9 3 t-10.5 3q-31 0 -31 27v102q0 18 6.5 24.5t24.5 6.5h317q18 0 29 -33l217 -653v-2l229 657q3 18 10 24.5t25 6.5h279q18 0 23 -6t5 -25v-96q0 -13 -0.5 -18t-7 -11t-20.5 -6l8 -2q-13 -1 -21 -3t-19.5 -9t-17.5 -23t-6 -41v-397q0 -54 9 -67t49 -13h2q39 0 39 -23v-116 q0 -18 -9.5 -24.5t-29.5 -6.5h-336q-19 0 -26 6.5t-7 24.5v116q0 21 20 23h13q23 2 33 20t10 60v172l-148 -416q-3 -12 -7 -15t-21 -3h-234q-14 0 -19.5 3t-9.5 13l-159 459v-219q0 -49 13.5 -61.5t53.5 -12.5q19 0 25 -5.5t6 -17.5v-116q0 -19 -6 -25t-25 -6h-317 q-18 0 -24.5 6.5t-6.5 24.5z" />
<glyph unicode="&#x25fc;" horiz-adv-x="1075" d="M0 0v1075h1075v-1075h-1075z" />
</font>
</defs>
</svg>
