<?xml version="1.0" standalone="no"?>
<!DOCTYPE svg PUBLIC "-//W3C//DTD SVG 1.1//EN" "http://www.w3.org/Graphics/SVG/1.1/DTD/svg11.dtd" >
<svg xmlns="http://www.w3.org/2000/svg">
<metadata></metadata>
<defs>
<font id="cabrito_norm_medium_inormMdIt" horiz-adv-x="847" >
<font-face units-per-em="2048" ascent="1567" descent="-481" />
<missing-glyph horiz-adv-x="475" />
<glyph horiz-adv-x="2048" />
<glyph horiz-adv-x="2048" />
<glyph unicode="&#xd;" horiz-adv-x="2048" />
<glyph unicode=" "  horiz-adv-x="475" />
<glyph unicode="&#x09;" horiz-adv-x="475" />
<glyph unicode="&#xa0;" horiz-adv-x="475" />
<glyph unicode="!" horiz-adv-x="526" d="M88 96q12 55 57.5 92t94.5 37q48 0 74 -33t14 -88q-10 -54 -54.5 -89t-97.5 -35q-47 0 -72.5 31.5t-15.5 84.5zM221 381q60 281 90 488t42.5 334t29.5 208q14 63 44.5 93t82.5 30q54 0 73 -30t5 -93q-17 -83 -59 -208.5t-101.5 -333.5t-118.5 -488q-3 -14 -13.5 -20.5 t-37.5 -6.5q-26 0 -33 7t-4 20z" />
<glyph unicode="&#x22;" horiz-adv-x="774" d="M291 1092l59 374q2 19 21.5 27t72.5 8q52 0 68.5 -8t11.5 -27l-98 -374q-6 -19 -21.5 -26t-54.5 -7t-50.5 7t-8.5 26zM659 1092l62 374q2 19 21 27t71 8q54 0 70.5 -7.5t11.5 -27.5l-100 -374q-5 -19 -21 -26t-55 -7q-38 0 -50.5 7t-9.5 26z" />
<glyph unicode="#" horiz-adv-x="1714" d="M92 494q7 33 28.5 43t65.5 10h236l268 426h-254q-32 0 -41 17.5t-4 49.5q7 33 29.5 43.5t66.5 10.5h279l209 329q20 30 32.5 43t36 21t62.5 8q38 0 48 -16.5t-7 -51.5q-15 -34 -37 -67l-170 -266h440l209 329q20 30 32.5 43t36 21t62.5 8q38 0 48 -16.5t-7 -51.5 q-15 -34 -37 -67l-170 -266h209q15 0 23.5 -6t10 -17.5t1 -21t-3.5 -23.5q-5 -26 -19.5 -39.5t-45.5 -13.5h-250l-271 -426h254q10 0 17.5 -3t11 -9t5.5 -12t1.5 -15t-1.5 -15.5t-3 -15.5q-5 -25 -19 -38t-44 -13h-297l-254 -401q-13 -21 -24.5 -31t-27 -13.5t-43.5 -3.5 q-31 0 -46.5 9.5t-16 26t5.5 34t18 37.5l216 342h-443l-254 -401q-19 -30 -36.5 -39t-57.5 -9q-104 0 -39 107l215 342h-209q-60 0 -45 68zM594 547h442l269 426h-441z" />
<glyph unicode="$" horiz-adv-x="1185" d="M63 299l29 -4l-6 16q-18 35 29.5 75t97.5 40q49 0 75.5 -33.5t14.5 -87.5q-7 -38 -32.5 -68.5t-59.5 -46.5q71 -92 301 -92q361 0 418 275q18 83 1 142.5t-72.5 98.5t-103.5 59.5t-135 48.5q-44 14 -66 21.5t-61.5 22.5t-60 27t-51.5 32t-46 40t-32.5 48t-22.5 59.5 t-5 71.5t10 86q70 328 465 365l32 158q5 22 15.5 33t33.5 12h84q36 0 25 -43l-33 -158q197 -13 281.5 -99t54.5 -229q-12 -57 -56 -92t-95 -35q-48 0 -74.5 33.5t-16.5 87.5q7 34 32 65t57 46q-69 100 -283 100q-307 0 -354 -221q-14 -66 3 -115t57.5 -78.5t96 -54.5 t118 -42.5t124.5 -43.5t115.5 -57t90 -82.5t48.5 -120t-8 -170.5q-42 -199 -182.5 -298t-346.5 -114l-39 -186q-5 -21 -15.5 -31.5t-33.5 -11.5h-82q-38 0 -26 41l39 186q-200 12 -290 94.5t-59 229.5z" />
<glyph unicode="%" horiz-adv-x="1837" d="M213 1083q19 89 55 163.5t90 134.5t132.5 94t173.5 34q77 0 134 -22.5t90 -61.5t49.5 -93.5t16 -116.5t-15.5 -132q-19 -89 -55.5 -164t-91.5 -135.5t-134 -94.5t-174 -34q-76 0 -133 22.5t-89.5 62t-48.5 94t-15 116.5t16 133zM332 59q-6 19 24 54l1254 1390 q19 22 30 27t27 2q16 0 36 -15.5t19 -35.5q8 -21 -28 -62l-1254 -1388q-34 -39 -65 -27q-20 3 -33.5 18t-9.5 37zM365 1081q-18 -91 -14 -162t43.5 -114t111.5 -43q210 0 280 319q17 91 12.5 162.5t-45 115.5t-112.5 44q-100 0 -173.5 -91t-102.5 -231zM1057 410 q19 89 55 163.5t89.5 134.5t132 94t173.5 34q77 0 134 -22.5t90.5 -61.5t50 -93.5t16 -116.5t-15.5 -132q-19 -89 -55.5 -164t-91.5 -135.5t-134 -94.5t-174 -34q-76 0 -133 22.5t-89.5 62t-48.5 94t-15 116.5t16 133zM1206 408q-31 -142 3 -231t141 -89q208 0 278 320 q17 91 13 162.5t-44 115t-112 43.5q-102 0 -176 -90.5t-103 -230.5z" />
<glyph unicode="&#x26;" horiz-adv-x="1486" d="M100 406q35 170 148 267.5t260 108.5q-25 5 -47 12t-46.5 20.5t-43 31t-34.5 44t-24 58.5t-7.5 76t11.5 96q37 176 175 277.5t354 101.5q203 0 309.5 -85.5t75.5 -229.5q-11 -56 -54 -87.5t-94 -31.5t-77.5 31.5t-14.5 85.5q15 68 82 102q-78 88 -244 88 q-147 0 -234.5 -70t-113.5 -192q-57 -266 252 -266h735q31 0 39 -8.5t4 -44.5l-36 -234q-2 -19 -8 -25t-29 -6h-62q-20 0 -25 5t-5 24l14 104q1 38 -12.5 46t-73.5 8h-178l-109 -516q-10 -49 2 -63.5t55 -14.5h54q19 0 22.5 -6t-0.5 -21l-12 -61q-5 -18 -11.5 -24.5 t-23.5 -6.5h-538q-117 0 -205.5 23.5t-149.5 73t-81 126.5t1 183zM279 410q-29 -137 50 -205t255 -66h223l121 574h-226q-100 0 -183.5 -28t-150.5 -98.5t-89 -176.5z" />
<glyph unicode="'" horiz-adv-x="405" d="M291 1092l59 374q2 19 21.5 27t72.5 8q52 0 68.5 -8t11.5 -27l-98 -374q-6 -19 -21.5 -26t-54.5 -7t-50.5 7t-8.5 26z" />
<glyph unicode="(" horiz-adv-x="727" d="M143 631q58 262 242.5 481.5t480.5 364.5q20 9 29.5 6.5t15.5 -19.5q8 -19 5.5 -29.5t-17.5 -19.5q-244 -156 -394.5 -353.5t-201.5 -430.5q-96 -472 264 -785q10 -10 7.5 -20t-17.5 -29q-14 -17 -24 -19.5t-27 7.5q-234 146 -326 365.5t-37 480.5z" />
<glyph unicode=")" horiz-adv-x="727" d="M-63 -203q-7 18 -4.5 29t16.5 20q493 313 596 785q96 474 -264 784q-16 16 10 49q15 17 25.5 19.5t25.5 -6.5q235 -146 326.5 -365t36.5 -481q-58 -263 -242 -482t-481 -364q-19 -9 -28.5 -7t-16.5 19z" />
<glyph unicode="*" horiz-adv-x="909" d="M240 920q-10 24 5 49.5t48 44.5q47 24 137 49.5t143 52.5q-40 30 -118.5 58t-114.5 55q-24 19 -28 45t16 51q44 50 104 8q37 -29 84.5 -89t81.5 -89q7 48 4 139t10 138q8 33 30 55t50 22q31 0 42 -22t5 -57q-12 -53 -49 -139t-51 -138q53 28 130 89.5t128 88.5 q32 18 59.5 15t36.5 -27q10 -25 -6 -50.5t-49 -43.5q-54 -28 -144 -56.5t-141 -52.5l-2 -2q38 -24 115 -53t117 -60q26 -18 30 -44.5t-18 -53.5q-20 -24 -49 -26t-53 16q-38 29 -84 93t-84 93q-8 -50 -6.5 -137.5t-10.5 -132.5q-6 -34 -28.5 -57t-53.5 -23q-28 0 -40.5 22.5 t-6.5 55.5q12 52 51 136.5t52 133.5q-43 -26 -118.5 -85.5t-127.5 -86.5q-29 -18 -58 -14.5t-38 29.5z" />
<glyph unicode="+" horiz-adv-x="1015" d="M152 696q7 35 21 44.5t46 9.5h301l70 321q7 37 74 37q33 0 45 -9t6 -36l-68 -313h334q23 0 27 -21.5t-2 -38.5q-6 -32 -18.5 -45.5t-39.5 -13.5h-325l-72 -340q-9 -39 -74 -39q-35 0 -45 15t-4 48l68 316h-326q-31 0 -18 65z" />
<glyph unicode="," horiz-adv-x="526" d="M0 -236q-11 19 16 41q28 20 57.5 50t54.5 63t38 62q-43 3 -64.5 34t-11.5 82q12 57 55 93t97 36q51 0 75 -35.5t11 -99.5q-19 -87 -94 -175.5t-177 -164.5q-13 -8 -20.5 -10.5t-15 2t-10 7t-11.5 15.5z" />
<glyph unicode="-" d="M178 614l12 56q5 20 12 26t27 6h535q20 0 24.5 -7.5t-0.5 -24.5l-12 -56q-3 -20 -10.5 -26t-28.5 -6h-532q-20 0 -25 6t-2 26z" />
<glyph unicode="." horiz-adv-x="468" d="M57 96q12 55 57.5 92t94.5 37q48 0 74 -33t14 -88q-10 -54 -54.5 -89t-95.5 -35q-48 0 -74 31.5t-16 84.5z" />
<glyph unicode="/" horiz-adv-x="913" d="M-12 0l948 1509q14 23 23.5 30.5t23.5 4.5l107 -22q16 -6 15.5 -14.5t-15.5 -32.5l-959 -1516q-14 -21 -21.5 -26t-21.5 -1l-100 25q-11 2 -14.5 5.5t-0.5 12t15 25.5z" />
<glyph unicode="0" horiz-adv-x="1374" d="M176 762q34 161 100 296.5t159 236.5t217.5 157.5t267.5 56.5q120 0 211.5 -38.5t148.5 -107.5t85.5 -165.5t27.5 -213t-29 -249.5q-35 -163 -102 -301t-160 -241t-217 -161.5t-264 -58.5q-118 0 -209.5 39.5t-148.5 111t-86.5 170t-29 217t28.5 251.5zM348 756 q-66 -310 8.5 -486t274.5 -176q199 0 347 175.5t214 488.5q32 138 29.5 253.5t-33.5 199.5t-102 131t-177 47q-141 0 -256 -82.5t-190 -222.5t-115 -328z" />
<glyph unicode="1" horiz-adv-x="729" d="M8 41l8 47q3 20 11 26.5t28 6.5h54q86 0 116.5 14t40.5 60l232 1087q6 31 -1 36t-44 -9l-142 -47q-17 -6 -23 0t-3 22l14 68q3 17 11.5 25.5t33.5 17.5l250 82q35 12 68 12q25 0 32 -13t0 -44l-262 -1237q-10 -47 14 -60.5t111 -13.5h53q21 0 25.5 -6t1.5 -27l-10 -47 q-6 -28 -13 -34.5t-28 -6.5h-555q-20 0 -24 6t1 35z" />
<glyph unicode="2" horiz-adv-x="1175" d="M18 47l7 35q6 28 30 55.5t72 67.5l661 553q195 156 234 336q27 121 -33.5 198.5t-214.5 77.5q-94 0 -180.5 -28t-144.5 -78q28 -13 41 -42t4 -67q-11 -56 -54 -87.5t-96 -31.5q-49 0 -74.5 31.5t-15.5 85.5q33 160 182 252t363 92q120 0 207 -30.5t132 -84.5t61 -127 t-5 -157q-25 -115 -108.5 -224.5t-215.5 -220.5l-628 -520h516q73 0 96.5 12t46.5 62l53 172q8 18 18 24.5t32 6.5h61q20 0 25 -8t-3 -27l-96 -322q-10 -35 -23 -44t-46 -9h-871q-25 0 -32 9t-1 38z" />
<glyph unicode="3" horiz-adv-x="1179" d="M25 70l16 77q6 25 25 25q5 0 59 -14q160 -47 328 -47q404 0 469 299q15 67 5.5 117t-34.5 85t-68.5 57t-94 32t-112.5 10h-51q-27 0 -31.5 5.5t1.5 31.5l14 65q4 21 13 26t32 5h49q336 0 393 266q26 123 -35.5 192.5t-214.5 69.5q-173 0 -290 -86q45 -33 30 -102 q-11 -54 -54 -85.5t-93 -31.5q-49 0 -75.5 31.5t-16.5 85.5q33 151 173.5 233t346.5 82q226 0 325.5 -104t61.5 -279q-15 -71 -45.5 -128t-66.5 -92t-81 -60t-81.5 -36.5t-75.5 -17.5q143 -11 216 -109t36 -270q-45 -215 -212 -322.5t-440 -107.5q-131 0 -253.5 20 t-157.5 40q-16 9 -10 37z" />
<glyph unicode="4" horiz-adv-x="1128" d="M29 340l10 53q7 24 16 31l936 1026q29 29 62 29h102q17 0 23.5 -7.5t1 -21.5t-22.5 -33l-909 -989h454l66 305q2 11 4.5 16.5t10.5 10t22 4.5h106q19 0 23.5 -8t-0.5 -21l-66 -307h201q21 0 26.5 -5t2.5 -22l-13 -63q-6 -29 -38 -29h-203l-23 -100q-11 -55 2 -71.5 t58 -16.5h65q20 0 24 -5.5t1 -23.5l-13 -59q-3 -18 -10.5 -25.5t-25.5 -7.5h-461q-19 0 -24 6t-1 25l13 61q3 18 9.5 23.5t26.5 5.5h76q44 0 64 17.5t30 70.5l23 100h-619q-23 0 -28.5 5.5t-1.5 25.5z" />
<glyph unicode="5" horiz-adv-x="1120" d="M12 59l15 68q3 18 11.5 26t16.5 5q3 -1 34 -10t62.5 -16t93 -14t130.5 -7q217 0 344.5 82.5t167.5 273.5q37 173 -37 247t-250 74q-40 0 -148.5 -3.5t-134.5 -4.5q-20 -4 -55 -4q-24 0 -28.5 14t12.5 64l213 590q14 35 55 35h594q54 0 66.5 -15t3.5 -75l-31 -187 q-6 -43 -35 -43h-57q-14 0 -20 9t-5 36l4 66q4 53 -14 64.5t-90 11.5h-361l-161 -443q95 10 274 10q56 0 104 -6t94 -21t81 -38.5t62 -60.5t40.5 -85.5t13 -115t-17.5 -146.5q-51 -239 -226 -353t-448 -114q-104 0 -207.5 14t-144.5 29q-19 7 -23 16.5t2 26.5z" />
<glyph unicode="6" horiz-adv-x="1208" d="M162 672q90 422 294.5 625.5t522.5 203.5q91 0 254 -26q23 -7 26 -13t-2 -24l-18 -80q-4 -22 -16.5 -25.5t-38.5 2.5q-110 25 -211 25q-259 0 -410 -164t-231 -508q37 77 90 133t113 86t119.5 44t121.5 14q108 0 190 -30t136.5 -91t70 -154t-9.5 -219 q-27 -127 -83 -222.5t-134.5 -154.5t-173.5 -88t-205 -29q-129 0 -218.5 32.5t-139 90.5t-68.5 147t-13 191t34 234zM317 463q-35 -161 30 -260t226 -99q71 0 135.5 22t121 66t99 116.5t62.5 166.5q34 163 -33.5 258.5t-222.5 95.5t-269.5 -100t-148.5 -266z" />
<glyph unicode="7" horiz-adv-x="1034" d="M133 33l914 1313h-521q-73 0 -97.5 -12t-39.5 -58l-33 -107q-8 -30 -41 -30h-67q-17 0 -20 8t1 27l60 237q13 48 28.5 58t65.5 10h852q14 0 17 -5t1 -18l-10 -43q-9 -51 -67 -135l-854 -1245q-24 -33 -52 -33h-123q-15 0 -19.5 9t5.5 24z" />
<glyph unicode="8" horiz-adv-x="1273" d="M102 434q20 91 65 163t104 116t113 69.5t110 38.5q-189 79 -140 316q38 176 175 269t343 93q196 0 295.5 -84.5t79.5 -243.5q-8 -76 -45 -151q-32 -72 -91.5 -122.5t-133.5 -76.5q31 -9 59.5 -23t60 -37.5t53 -55t39 -75.5t18 -98.5t-10.5 -125.5q-26 -115 -86.5 -200 t-146.5 -135t-186 -74t-216 -24q-94 0 -171.5 15t-142 48.5t-102 87.5t-52 131t8.5 179zM274 416q-16 -86 -2 -146t59.5 -98t107.5 -55t143 -17q109 0 196.5 30t153.5 103t90 183q17 64 6.5 123t-41 104t-96 72.5t-158.5 29.5q-199 0 -313.5 -90.5t-145.5 -238.5zM520 1128 q-27 -125 36 -187t192 -62q122 0 213.5 61.5t119.5 187.5q25 123 -37 186.5t-190 63.5t-218.5 -63.5t-115.5 -186.5z" />
<glyph unicode="9" horiz-adv-x="1228" d="M68 47l20 92q3 16 12.5 20t28.5 1q159 -43 279 -43q259 0 410 156t231 499q-41 -72 -95.5 -124.5t-114 -80.5t-117.5 -40.5t-118 -12.5q-105 0 -187 33t-134 97.5t-68.5 158t8.5 215.5q46 221 205.5 352t392.5 131q124 0 211 -33t136.5 -91t69.5 -146t15 -189.5 t-32 -228.5q-91 -433 -291 -634.5t-527 -201.5q-74 0 -150.5 8t-132.5 24.5t-52 37.5zM399 1012q-36 -167 35.5 -265t222.5 -98t265 96t147 256q37 171 -31.5 269t-228.5 98q-159 0 -268 -97.5t-142 -258.5z" />
<glyph unicode=":" horiz-adv-x="483" d="M66 96q12 56 56 92.5t95 36.5q48 0 74 -33t14 -88q-10 -54 -55 -89t-96 -35q-48 0 -73 31.5t-15 84.5zM197 711q12 56 56 92.5t95 36.5q48 0 74 -33t14 -88q-12 -54 -56 -89.5t-95 -35.5q-48 0 -73 32t-15 85z" />
<glyph unicode=";" horiz-adv-x="524" d="M-35 -266q-4 10 8 18q62 48 117 109.5t82 118.5q-43 5 -64.5 36t-11.5 80q12 56 56.5 92.5t95.5 36.5q48 0 74 -33t14 -88q-3 -18 -14 -41q-60 -181 -312 -366q-15 -11 -20 -2q-28 17 -25 39zM223 711q12 56 56.5 92.5t95.5 36.5q48 0 74 -33t14 -88q-12 -54 -56.5 -89.5 t-95.5 -35.5q-48 0 -73 32t-15 85z" />
<glyph unicode="&#x3c;" horiz-adv-x="1204" d="M115 571q9 46 28.5 70t63.5 41l936 377q97 39 90 -39q-3 -27 -5 -36.5t-9.5 -23.5t-22 -22.5t-41.5 -19.5l-864 -347h4l717 -346q41 -20 45.5 -41t-10.5 -61q-26 -78 -105 -39l-778 377q-37 17 -46.5 40.5t1.5 69.5h-4z" />
<glyph unicode="=" horiz-adv-x="1110" d="M156 496q7 36 25.5 46.5t56.5 10.5h743q46 0 29 -64q-10 -57 -64 -57h-758q-43 0 -32 64zM221 801q7 36 25.5 46.5t56.5 10.5h744q27 0 31 -23t-3 -40q-11 -58 -63 -58h-758q-27 0 -34 23.5t1 40.5z" />
<glyph unicode="&#x3e;" horiz-adv-x="1206" d="M66 123q4 33 7.5 46t19.5 27.5t50 28.5l865 346h172q10 45 0.5 69.5t-45.5 41.5l-779 377q-77 38 -106 -39q-9 -33 -10 -46t9 -27.5t38 -28.5l717 -347h4h172h4q-11 -47 -30 -70t-62 -40l-938 -379q-54 -18 -72.5 -7.5t-15.5 48.5z" />
<glyph unicode="?" horiz-adv-x="1034" d="M229 1135l2 4h-2q13 62 53 122.5t105 114.5t165 87.5t218 33.5q207 0 301 -105.5t59 -269.5q-17 -80 -55.5 -151t-87.5 -124t-104.5 -101t-110 -90t-100.5 -83t-79.5 -88.5t-43.5 -97.5l-4 -20q-7 -35 -51 -35h-68q-28 0 -35.5 14t-1.5 45q12 59 46.5 114t80.5 99 t99 87.5t107 88.5t100.5 93.5t82.5 111t51 131.5q7 39 6.5 75.5t-16.5 69t-41.5 57t-69.5 38.5t-100 14q-99 0 -177.5 -35.5t-125.5 -93.5q54 -31 37 -104q-10 -54 -53.5 -86.5t-93.5 -32.5q-49 0 -76 31.5t-17 85.5zM287 90q10 52 54 85.5t93 33.5q48 0 76 -32t16 -87 t-54.5 -86t-94.5 -31q-49 0 -75.5 31.5t-14.5 85.5z" />
<glyph unicode="@" horiz-adv-x="1742" d="M164 694q34 165 123.5 310t217 251.5t295.5 168t351 61.5q152 0 274.5 -44.5t203.5 -130t112 -209.5t-2 -282q-49 -228 -196 -387.5t-304 -159.5q-82 0 -119.5 45.5t-25.5 128.5q-68 -81 -162.5 -127.5t-186.5 -46.5q-59 0 -108 20.5t-84 62.5t-45.5 106t6.5 151 q21 99 75.5 193t133 168.5t184.5 120t219 45.5q73 0 126 -17.5t82 -46.5t43 -70t12 -85t-15 -95q-16 -62 -43 -123t-78 -159q-13 -32 -20 -64q-20 -102 57 -102q90 0 190.5 135t135.5 303q28 138 1 243.5t-97.5 176.5t-170.5 107t-219 36q-153 0 -293 -56t-244.5 -151.5 t-177.5 -220.5t-102 -264q-32 -147 -7 -266t94 -202t180 -128t251 -45q107 0 236 25t221 65q20 10 30.5 14t20.5 5.5t9.5 -5t-0.5 -18.5l-11 -37q-3 -13 -4.5 -19t-9.5 -14.5t-23 -15.5q-66 -38 -211 -69t-288 -31q-230 0 -391 92t-227 263t-19 394zM649 598 q-24 -108 13 -165.5t122 -57.5q87 0 181 57.5t168.5 161.5t101.5 227q46 213 -133 213q-104 0 -202.5 -66.5t-163.5 -165.5t-87 -204z" />
<glyph unicode="A" horiz-adv-x="1415" d="M-55 31l10 53q5 21 13 29t26 8l63 2q27 0 45.5 16t51.5 74l677 1245q13 21 22 27t36 6h117q14 0 21 -2.5t11 -9t6 -19.5l156 -1237q8 -68 21 -84t63 -16l43 -2q26 0 33 -6.5t4 -26.5l-12 -55q-5 -21 -13 -27t-34 -6h-406q-26 0 -32.5 5.5t-2.5 25.5l10 55q5 19 14.5 25.5 t37.5 7.5h35q41 2 57 10.5t19 29.5t-1 58l-32 277h-553l-156 -289q-26 -53 -17.5 -67.5t60.5 -16.5l35 -2q26 -1 32 -8.5t1 -28.5l-11 -49q-5 -20 -13.5 -26.5t-33.5 -6.5h-381q-15 0 -20.5 6t-1.5 25zM514 612h475l-86 721z" />
<glyph unicode="B" horiz-adv-x="1316" d="M16 31l11 53q8 37 39 37q91 0 120 15.5t41 72.5l19 88h-2l211 987q8 37 -1 53t-40 19h-86q-16 0 -22.5 7t-2.5 26l12 59q3 19 12 25t33 6h535q244 0 347.5 -86.5t60.5 -288.5q-30 -139 -118 -220t-188 -96l-2 -2q142 -23 211 -122t33 -271q-21 -99 -67.5 -171.5 t-104 -114t-137 -66.5t-153.5 -33t-167 -8h-567q-18 0 -24.5 6.5t-2.5 24.5zM373 123h276q54 0 99.5 5t99.5 23t94 47.5t74 82.5t49 125q66 317 -305 317h-258zM528 852h265q143 0 225 64.5t110 199.5q8 50 8.5 87t-15 63.5t-36 44t-53.5 27.5t-67.5 14t-79.5 4h-250z" />
<glyph unicode="C" horiz-adv-x="1388" d="M170 745q35 163 111 300.5t186 238t258.5 157t318.5 56.5q131 0 225.5 -32.5t141.5 -85.5t63 -114.5t1 -125.5q-11 -56 -54 -87.5t-96 -31.5q-49 0 -74.5 31.5t-15.5 85.5q10 43 40 73t68 41q-77 119 -309 119q-143 0 -264 -52.5t-205.5 -144.5t-141 -206.5t-85.5 -249.5 q-19 -88 -21.5 -165t11.5 -145t48.5 -121.5t88.5 -92.5t133 -59.5t180 -20.5q81 0 155 9.5t137.5 29t98 32.5t84.5 35q35 14 41 8q5 -5 2 -22l-16 -84q-2 -10 -5 -15.5t-11.5 -12.5t-24.5 -15q-73 -38 -203 -69.5t-295 -31.5t-288 46.5t-202 141t-100 239t19 341.5z" />
<glyph unicode="D" horiz-adv-x="1484" d="M14 31l11 53q8 37 38 37q92 0 121 15t41 73l230 1075q8 37 -1.5 54t-39.5 20h-86q-17 0 -23 6t-2 25l12 59q3 19 12 25t33 6h467q409 0 567 -191t76 -577q-148 -711 -944 -711h-483q-19 0 -26 6.5t-3 24.5zM375 129h164q329 0 511.5 145t249.5 463q68 324 -54.5 470.5 t-452.5 146.5h-158z" />
<glyph unicode="E" horiz-adv-x="1259" d="M14 31l11 53q8 37 38 37q92 0 121 15t41 73l230 1075q8 37 -1.5 54t-39.5 20h-86q-17 0 -23 6t-2 25l12 59q3 19 12 25t33 6h906q59 0 71 -15t2 -82l-30 -208q-5 -31 -12 -40.5t-31 -9.5h-54q-25 0 -31 8t-3 37l10 93q7 67 -23 81.5t-141 14.5h-389l-121 -570h262 q53 0 68 58l18 78q6 21 14.5 26.5t32.5 5.5h47q23 0 27.5 -7t-0.5 -27l-82 -390q-5 -18 -12.5 -25t-26.5 -7h-51q-22 0 -28 5.5t-3 24.5l15 78q8 60 -43 60h-263l-116 -547h477q73 0 96.5 14t48.5 72l56 172q8 18 17.5 24.5t31.5 6.5h59q20 0 25.5 -8t-0.5 -27l-97 -322 q-10 -35 -24 -44t-47 -9h-973q-19 0 -26 6.5t-3 24.5z" />
<glyph unicode="F" horiz-adv-x="1216" d="M16 31l13 61q3 18 10.5 23.5t28.5 5.5h61q44 0 65 18t31 70l230 1075q8 37 -1.5 54t-41.5 20h-86q-15 0 -21 6t-2 25l12 59q3 19 11.5 25t31.5 6h934q58 0 71 -15t3 -82l-31 -208q-5 -31 -12 -40.5t-31 -9.5h-55q-24 0 -30.5 8.5t-2.5 36.5l10 93q7 67 -22.5 81.5 t-140.5 14.5h-416l-121 -576h287q52 0 67 58l21 78q4 20 12.5 25t32.5 5h47q23 0 27.5 -6t1.5 -27l-84 -389q-3 -18 -10.5 -25t-26.5 -7h-51q-22 0 -29 6t-4 24l12 78q10 60 -43 60h-287l-96 -453q-11 -55 2 -71.5t58 -16.5h65q21 0 24.5 -5.5t0.5 -23.5l-13 -59 q-3 -18 -10.5 -25.5t-25.5 -7.5h-449q-20 0 -25.5 6t-1.5 25z" />
<glyph unicode="G" horiz-adv-x="1443" d="M170 752q35 164 111 301t185.5 235.5t255 153.5t312.5 55q134 0 231.5 -30t148.5 -81.5t69 -115.5t2 -137q-11 -56 -54 -87.5t-96 -31.5q-49 0 -75.5 31t-14.5 85q9 43 40.5 74.5t72.5 40.5q-79 127 -330 127q-137 0 -254.5 -51t-202.5 -140.5t-143.5 -205.5t-87.5 -252 q-61 -288 49.5 -451t364.5 -163q191 0 379 94l71 338q8 39 -30 39h-242q-29 0 -23 28l13 64q5 18 12 25.5t22 7.5h408q34 0 27 -33l-136 -635q-6 -37 -36 -37h-60q-20 0 -28.5 7t-8.5 24l-2 32q-176 -88 -379 -88q-160 0 -283 48t-203.5 144.5t-103 242.5t18.5 342z" />
<glyph unicode="H" horiz-adv-x="1552" d="M14 31l13 61q3 17 11 23t28 6h63q44 0 64 17.5t30 70.5l226 1061q12 53 0 70.5t-56 17.5h-65q-22 0 -26.5 5.5t-0.5 25.5l12 57q3 20 11.5 26.5t29.5 6.5h447q19 0 24 -6.5t2 -26.5l-12 -57q-4 -21 -11.5 -26t-29.5 -5h-69q-44 0 -61.5 -16t-29.5 -72l-100 -473h707 l100 473q12 53 0.5 70.5t-55.5 17.5h-68q-20 0 -24.5 5.5t0.5 25.5l12 57q3 20 11.5 26.5t27.5 6.5h446q20 0 25 -6.5t2 -26.5l-12 -57q-4 -21 -11 -26t-30 -5h-68q-44 0 -61 -16t-29 -72l-225 -1061q-12 -55 1 -71.5t58 -16.5h65q20 0 24 -5.5t1 -23.5l-12 -59 q-3 -18 -11 -25.5t-26 -7.5h-449q-20 0 -25.5 6t-0.5 25l12 61q3 18 10.5 23.5t28.5 5.5h63q43 0 64 18t31 70l100 469h-707l-100 -469q-12 -55 1.5 -71.5t60.5 -16.5h63q21 0 25.5 -5.5t1.5 -23.5l-13 -59q-3 -18 -11 -25.5t-28 -7.5h-448q-20 0 -25.5 6t-1.5 25z" />
<glyph unicode="I" horiz-adv-x="679" d="M14 31l13 61q3 17 11 23t28 6h63q44 0 64 17.5t30 70.5l226 1061q12 53 0 70.5t-56 17.5h-65q-22 0 -26.5 5.5t-0.5 25.5l12 57q3 20 11.5 26.5t29.5 6.5h447q19 0 24 -6.5t2 -26.5l-12 -57q-4 -21 -11.5 -26t-29.5 -5h-69q-44 0 -61.5 -16t-29.5 -72l-225 -1061 q-12 -55 1.5 -71.5t60.5 -16.5h63q21 0 25.5 -5.5t1.5 -23.5l-13 -59q-3 -18 -11 -25.5t-28 -7.5h-448q-20 0 -25.5 6t-1.5 25z" />
<glyph unicode="J" horiz-adv-x="1064" d="M37 299q10 54 51.5 87.5t95.5 33.5q52 0 77 -32t15 -87q-10 -45 -41.5 -75t-72.5 -40q43 -82 186 -82q133 0 221 97.5t123 263.5l170 805q12 53 0.5 70.5t-55.5 17.5h-68q-20 0 -24.5 5.5t0.5 25.5l12 57q3 20 11.5 26.5t27.5 6.5h446q20 0 25 -6.5t2 -26.5l-12 -57 q-4 -21 -11 -26t-30 -5h-68q-44 0 -61 -16t-29 -72l-174 -821q-46 -217 -173.5 -342t-328.5 -125q-70 0 -126 12t-92 33.5t-61 51t-34 64.5t-11 75t9 81z" />
<glyph unicode="K" horiz-adv-x="1423" d="M14 31l13 61q3 17 11 23t28 6h63q44 0 64 17.5t30 70.5l226 1061q12 53 0 70.5t-56 17.5h-65q-22 0 -26.5 5.5t-0.5 25.5l12 57q3 20 11.5 26.5t29.5 6.5h447q19 0 24 -6.5t2 -26.5l-12 -57q-4 -21 -11.5 -26t-29.5 -5h-69q-44 0 -61.5 -16t-29.5 -72l-118 -557l665 585 q61 53 29 59q-6 1 -16 1h-58q-29 0 -20 45l10 43q3 20 10.5 26.5t26.5 6.5h422q20 0 24.5 -6t1.5 -27l-12 -51q-7 -37 -41 -37h-88q-63 0 -156 -84l-469 -408q69 -2 122 -27t87 -72t57 -102t36.5 -132t21.5 -146.5t16 -159.5q1 -19 2 -28q7 -50 26 -68t56 -18q35 0 88 26 q15 9 22.5 3t4.5 -25l-14 -60q-3 -19 -12 -29t-33 -22q-56 -29 -123 -29q-32 0 -54.5 4.5t-48 20t-42.5 50.5t-25 89q-5 33 -10.5 87t-9 100t-12 102.5t-19 101.5t-30 90t-45.5 75t-65 48.5t-88 18.5h-22l-250 -217l-72 -338q-12 -55 1.5 -71.5t60.5 -16.5h63 q21 0 25.5 -5.5t1.5 -23.5l-13 -59q-3 -18 -11 -25.5t-28 -7.5h-448q-20 0 -25.5 6t-1.5 25z" />
<glyph unicode="L" horiz-adv-x="1204" d="M14 31l11 53q8 37 38 37q92 0 121 15t41 73l226 1061q12 53 0 70.5t-56 17.5h-65q-22 0 -26.5 5.5t-0.5 25.5l12 57q3 20 11.5 26.5t29.5 6.5h447q19 0 24 -6.5t2 -26.5l-12 -57q-4 -21 -11.5 -26t-29.5 -5h-69q-40 0 -58 -13.5t-28 -54.5l-248 -1169h444q73 0 97 14.5 t49 71.5l53 172q8 18 17.5 24.5t31.5 6.5h61q20 0 25 -8t-2 -27l-94 -322q-11 -35 -25 -44t-47 -9h-940q-19 0 -26 6.5t-3 24.5z" />
<glyph unicode="M" horiz-adv-x="1906" d="M6 31l12 59q5 20 11 25.5t28 5.5h66q50 0 71.5 10.5t28.5 44.5l236 1106q4 27 -0.5 43t-19 23t-27.5 9t-39 3h-37q-21 1 -26.5 9t-2.5 24l12 53q3 20 11.5 26.5t29.5 6.5h312q16 0 25 -6.5t12.5 -15t5.5 -23.5l209 -1303l745 1315q12 20 26 26.5t48 6.5h285 q20 0 25.5 -6.5t2.5 -26.5l-12 -49q-4 -34 -41 -37h-90q-59 -5 -74 -70l-231 -1095q-10 -46 -1 -60t46 -14h88q23 0 29.5 -8t1.5 -29l-11 -51q-4 -20 -13.5 -26.5t-31.5 -6.5h-454q-21 0 -27 6.5t-2 26.5l10 51q5 21 13.5 29t29.5 8h82q40 0 58 15t28 59l213 1005 l-655 -1175q-11 -19 -23 -25t-43 -6h-123q-23 0 -33 6t-14 23l-194 1198l-222 -1045q-7 -35 7.5 -45t64.5 -10h70q21 0 25.5 -4.5t0.5 -24.5l-12 -59q-4 -20 -12.5 -26.5t-26.5 -6.5h-444q-20 0 -25.5 6t-1.5 25z" />
<glyph unicode="N" horiz-adv-x="1579" d="M12 31l13 59q5 21 11 26t27 5h58q47 0 67 11.5t27 47.5l238 1114q4 39 -9.5 51.5t-54.5 12.5h-57q-20 0 -25 6.5t0 26.5l12 57q3 18 11.5 24.5t27.5 6.5h234q42 0 55 -31l524 -1202l224 1052q7 36 -7.5 48t-60.5 12h-61q-21 0 -25.5 4t-1.5 24l14 60q3 20 11.5 26.5 t27.5 6.5h422q20 0 25.5 -6t1.5 -25l-12 -59q-4 -20 -11.5 -25.5t-29.5 -5.5h-58q-47 0 -67 -12t-27 -48l-272 -1282q-3 -18 -13 -25t-32 -7h-41q-40 0 -52 26l-546 1215l-224 -1045q-7 -36 7.5 -47.5t60.5 -11.5h61q21 0 26 -5t1 -24l-12 -59q-4 -20 -12 -26.5t-27 -6.5 h-422q-20 0 -25.5 6t-1.5 25z" />
<glyph unicode="O" horiz-adv-x="1601" d="M168 766q23 108 63.5 207t110.5 197t160.5 170t221 116.5t284.5 44.5q117 0 213 -23t163.5 -64t116 -99t75.5 -126.5t37.5 -148t5.5 -161.5t-24 -170q-24 -107 -64 -205.5t-110 -197.5t-160 -171t-221 -117t-286 -45q-118 0 -214 23t-163.5 64t-116 99.5t-75 126.5 t-36.5 148t-4.5 162t23.5 170zM342 739q-16 -74 -20 -144.5t3 -144.5t36.5 -135.5t77 -110.5t127.5 -76.5t184 -27.5q124 0 229.5 40.5t177 104t127.5 150t87 168.5t50 170q13 62 18.5 122t1.5 124.5t-19.5 121t-47.5 107.5t-79 87t-119 57.5t-162 21.5q-121 0 -225 -39 t-176 -101t-128.5 -147t-90 -170.5t-52.5 -177.5z" />
<glyph unicode="P" horiz-adv-x="1255" d="M16 31l13 61q3 18 10.5 23.5t28.5 5.5h61q44 0 65 18t31 70l230 1075q8 37 -1.5 54t-41.5 20h-86q-15 0 -21 6t-2 25l12 59q3 19 11.5 25t31.5 6h451q312 0 440.5 -111.5t73.5 -370.5q-46 -217 -212 -328.5t-411 -111.5h-235l-74 -348q-11 -55 2 -71.5t58 -16.5h65 q21 0 24.5 -5.5t0.5 -23.5l-13 -59q-3 -18 -10.5 -25.5t-25.5 -7.5h-449q-20 0 -25.5 6t-1.5 25zM492 678h182q406 0 479 346q37 181 -48 257.5t-302 76.5h-168z" />
<glyph unicode="Q" horiz-adv-x="1601" d="M168 766q23 108 63.5 207t110.5 197t160.5 170t221 116.5t284.5 44.5q117 0 213 -23t163.5 -64t116 -99t75.5 -126.5t37.5 -148t5 -161.5t-23.5 -170q-23 -106 -64 -204.5t-105 -194.5t-161 -172.5t-216 -117.5q57 -31 98 -94q5 -8 18.5 -28.5t19.5 -29.5t17.5 -25 t20 -23.5t20 -16.5t23 -12.5t24.5 -3.5q41 0 105 25q17 8 24.5 4t3.5 -25l-14 -67q-7 -34 -64 -52t-110 -18q-26 0 -49 4.5t-39.5 8.5t-35.5 17.5t-28.5 20t-28.5 29t-25.5 30.5t-28.5 38.5t-29 39.5q-55 66 -111 93t-153 38l-2 2q-152 7 -263.5 54.5t-175 121.5 t-94.5 175.5t-30.5 210t26.5 229.5zM342 739q-16 -74 -20 -144.5t3.5 -144.5t36.5 -135.5t76.5 -110.5t127.5 -76.5t184 -27.5q124 0 229.5 40.5t177 104t127.5 150t87 168.5t50 170q13 62 18.5 122t1.5 124.5t-19.5 121t-47.5 107.5t-79 87t-119 57.5t-162 21.5 q-121 0 -225 -39t-176 -101t-128.5 -147t-90 -170.5t-52.5 -177.5z" />
<glyph unicode="R" horiz-adv-x="1290" d="M14 31l13 61q3 17 11 23t28 6h63q44 0 64 17.5t30 70.5l230 1075q8 37 -1.5 54t-39.5 20h-86q-17 0 -23 6t-2 25l12 59q3 19 12 25t33 6h449q277 0 388.5 -109.5t59.5 -351.5q-34 -161 -134.5 -259.5t-248.5 -137.5q57 -42 89 -136t67 -292q10 -51 28 -67.5t54 -16.5 q43 0 88 22q21 9 27.5 5t3.5 -19l-15 -60q-3 -19 -12 -29t-35 -20q-60 -31 -133 -31q-32 0 -54 4.5t-47.5 20t-43.5 50.5t-29 89q-4 22 -11 65.5t-12 75t-15.5 75t-21.5 74.5t-29 64.5t-40 54.5t-53 34.5t-68 13.5h-137l-84 -389q-12 -55 1.5 -71.5t60.5 -16.5h63 q21 0 25.5 -5.5t1.5 -23.5l-13 -59q-3 -18 -11 -25.5t-28 -7.5h-448q-20 0 -25.5 6t-1.5 25zM498 719h176q171 0 271 78.5t136 246.5q35 164 -37.5 239t-248.5 75h-162z" />
<glyph unicode="S" horiz-adv-x="1177" d="M61 299q12 58 53 92.5t97 34.5q54 0 78.5 -30.5t11.5 -88.5q-7 -40 -33.5 -68.5t-62.5 -41.5q72 -99 317 -99q355 0 412 275q14 69 2.5 121.5t-43.5 86t-77.5 60.5t-100 44t-111.5 38t-110.5 42t-98 55.5t-74 78t-38 111t9.5 153.5q73 336 504 336q255 0 366.5 -87.5 t75.5 -242.5q-11 -56 -53.5 -87t-93.5 -31t-78 31t-15 85q7 37 32.5 66t60.5 43q-75 98 -297 98q-304 0 -351 -221q-6 -29 -6.5 -55t5 -48.5t12 -40.5t23.5 -35t29 -29.5t37.5 -26t40.5 -22t46.5 -20.5t47.5 -18t51 -18q51 -18 77 -28t72.5 -30t71 -38t58 -46t48.5 -60.5 t28.5 -74t12 -93.5t-14.5 -114q-78 -383 -575 -383q-255 0 -368.5 83t-78.5 243z" />
<glyph unicode="T" horiz-adv-x="1234" d="M229 1167l70 258q10 37 22 45.5t44 8.5h983q31 0 39 -8.5t2 -45.5l-37 -258q-3 -22 -10.5 -29.5t-32.5 -7.5h-56q-23 0 -30 6.5t-4 26.5l18 135q4 37 -14 45.5t-88 8.5h-224l-243 -1143q-12 -55 1.5 -71.5t59.5 -16.5h64q21 0 24.5 -6t-0.5 -23l-12 -59 q-3 -18 -10.5 -25.5t-26.5 -7.5h-449q-20 0 -25.5 6t-0.5 25l12 61q3 17 11 23t28 6h64q44 0 64 17.5t30 70.5l243 1143h-237q-60 0 -79 -8.5t-32 -45.5l-41 -135q-6 -22 -14 -27.5t-31 -5.5h-57q-23 0 -27.5 7.5t2.5 29.5z" />
<glyph unicode="U" horiz-adv-x="1548" d="M262 539l156 731q12 53 0 70.5t-56 17.5h-65q-21 0 -25.5 5.5t0.5 25.5l13 57q3 20 11.5 26.5t27.5 6.5h446q19 0 24.5 -6.5t2.5 -26.5l-13 -57q-4 -21 -11 -26t-30 -5h-69q-44 0 -61 -16t-29 -72l-152 -715q-46 -219 26.5 -324.5t268.5 -105.5q397 0 492 434l151 719 q10 49 -1.5 64.5t-55.5 15.5h-68q-20 0 -24.5 5.5t0.5 25.5l12 57q3 20 11.5 26.5t27.5 6.5h428q20 0 24.5 -6t1.5 -27l-12 -57q-4 -21 -11 -26t-30 -5h-67q-44 0 -62 -15t-28 -65l-156 -729q-118 -563 -655 -563q-283 0 -391 144t-52 409z" />
<glyph unicode="V" horiz-adv-x="1413" d="M213 1391l12 55q3 20 11.5 26.5t33.5 6.5h404q26 0 32.5 -5.5t2.5 -25.5l-13 -55q-5 -19 -13.5 -25.5t-35.5 -7.5h-35q-58 -2 -70.5 -20t-4.5 -78l131 -1115l612 1127q25 53 15.5 67.5t-62.5 16.5l-31 2q-27 1 -33.5 8.5t-3.5 28.5l13 49q3 20 12.5 26.5t34.5 6.5h387 q17 0 22.5 -6t1.5 -25l-12 -53q-5 -20 -13.5 -28.5t-27.5 -8.5l-67 -2q-27 0 -45 -16t-50 -74l-682 -1252q-11 -20 -19.5 -25t-35.5 -5h-117q-20 0 -28 5.5t-11 22.5l-153 1243q-11 69 -23.5 85t-62.5 16l-43 2q-26 0 -32 6t-1 27z" />
<glyph unicode="W" horiz-adv-x="2052" d="M221 1397l12 53q3 17 9.5 23t23.5 6h430q20 0 24 -5.5t1 -23.5l-14 -64q-3 -15 -10 -21.5t-23 -6.5h-45t-32 -2l-25 -2.5t-14.5 -7.5t-10.5 -10.5t-4 -18t-2.5 -23t0.5 -32.5l61 -1102l569 1267q14 34 22 43t26 9h122q16 0 20 -8t5 -35v-11l55 -1218l502 1053 q21 44 23 57q6 27 -16.5 34t-94.5 7q-18 0 -23.5 7t-1.5 24l13 61q5 20 11.5 24.5t31.5 4.5h385q19 0 22.5 -5.5t-0.5 -25.5l-12 -57q-3 -11 -5 -17t-10 -11t-22 -5q-85 0 -109.5 -16t-62.5 -95l-586 -1220q-13 -28 -23.5 -34.5t-35.5 -6.5h-98q-24 0 -31.5 9t-9.5 32 l-56 1194l-532 -1194q-12 -29 -21.5 -36t-33.5 -7h-136q-19 0 -27 8.5t-9 32.5l-80 1230q-4 72 -22.5 87.5t-96.5 15.5q-26 0 -32 7.5t-1 31.5z" />
<glyph unicode="X" horiz-adv-x="1316" d="M-55 33l10 53q11 37 39 37h55q33 0 57 13.5t68 64.5l485 561l-229 508q-29 57 -48.5 71.5t-64.5 14.5h-43q-31 0 -24 30l14 66q4 17 11.5 22t25.5 5h383q17 0 23 -5t2 -22l-13 -61q-6 -31 -39 -31h-55q-20 0 -22 -10t10 -33l188 -416l346 402q28 37 25 46t-33 9h-51 q-29 0 -21 31l13 59q3 18 10 24.5t25 6.5h376q17 0 21.5 -6t1.5 -25l-12 -57q-7 -33 -37 -33h-47q-35 0 -59.5 -13t-67.5 -57l-437 -508l254 -561q29 -61 50 -78.5t53 -17.5h43q17 0 25 -4.5t9 -12.5t-1 -18l-13 -51q-3 -21 -11 -29t-30 -8h-372q-25 0 -30.5 7.5t-2.5 29.5 l10 49q4 13 7 18.5t13 11t27 5.5h47q22 0 25 8.5t-14 52.5l-207 459l-396 -463q-23 -26 -26.5 -38t4.5 -14.5t31 -2.5h59q16 0 22 -10.5t1 -26.5l-11 -53q-4 -20 -11.5 -26.5t-25.5 -6.5h-389q-18 0 -24 7t-2 26z" />
<glyph unicode="Y" horiz-adv-x="1288" d="M223 1393l13 55q3 19 10.5 25t27.5 6h398q21 0 25.5 -5.5t0.5 -25.5l-12 -53q-5 -22 -11.5 -28.5t-27.5 -6.5h-49q-35 0 -45 -12t2 -52l170 -565l432 567q28 40 24 50t-38 10h-49q-19 0 -23.5 8.5t-1.5 30.5l12 51q4 20 12 25.5t27 5.5h369q19 0 23 -7t1 -24l-12 -53 q-5 -21 -13 -29t-28 -8h-55q-28 0 -44 -11.5t-58 -64.5l-519 -651l-94 -438q-7 -44 7.5 -58t58.5 -14h63q21 0 25.5 -5.5t1.5 -23.5l-12 -59q-6 -33 -39 -33h-449q-20 0 -25.5 6t-1.5 25l13 61q3 17 11 23t28 6h63q41 0 60.5 15t29.5 57l88 407l-223 668q-18 55 -35 71.5 t-51 16.5h-53q-20 0 -26 8t-1 29z" />
<glyph unicode="Z" horiz-adv-x="1208" d="M16 43l9 53q7 28 18 39l1067 1223h-539q-33 0 -53 -5t-37 -15t-32 -39.5t-28.5 -62t-37.5 -99.5q-12 -39 -41 -39h-74q-24 0 -8 45l82 303q9 33 45 33h922q21 0 26 -13t-2 -32l-8 -41q-4 -21 -39 -66l-1057 -1206h598q31 0 46.5 4t37 28t41 62t58.5 119q12 23 20 31t27 8 h61q29 0 15 -41l-99 -301q-8 -18 -17.5 -24.5t-29.5 -6.5h-958q-22 3 -13 43z" />
<glyph unicode="[" horiz-adv-x="575" d="M43 -258l365 1720q9 39 24.5 53.5t48.5 14.5h219q31 0 43 -8.5t9 -24.5l-11 -45q-6 -27 -17.5 -35t-43.5 -8h-125l-344 -1614h125q31 0 40.5 -9t4.5 -32l-10 -45q-8 -35 -64 -35h-219q-34 0 -44 15t-1 53z" />
<glyph unicode="\" horiz-adv-x="860" d="M287 1407q-5 25 0 49q6 39 73 39q56 0 70.5 -12.5t24.5 -59.5l276 -1335q25 -111 -80 -111q-46 0 -61 13.5t-23 58.5z" />
<glyph unicode="]" horiz-adv-x="577" d="M-70 -291l11 45q4 23 16.5 32t40.5 9h125l344 1614h-125q-32 0 -41.5 8t-3.5 35l10 45q7 33 64 33h219q34 0 44 -15t1 -53l-365 -1720q-9 -38 -25 -53t-48 -15h-215q-33 0 -43.5 9.5t-8.5 25.5z" />
<glyph unicode="^" horiz-adv-x="1128" d="M211 909l498 584q23 30 43.5 37.5t60.5 7.5q39 0 56.5 -7.5t25.5 -37.5l252 -584q14 -37 -3 -52t-59 -15q-50 0 -64 9.5t-30 47.5l-211 479l-418 -479q-33 -38 -50.5 -47.5t-67.5 -9.5q-90 0 -33 67z" />
<glyph unicode="_" horiz-adv-x="1718" d="M27 -92q7 35 29 46t67 11h1343q40 0 29 -65q-6 -32 -19.5 -46t-43.5 -14h-1373q-46 0 -32 68z" />
<glyph unicode="`" horiz-adv-x="559" d="M276 1458l58 74q11 12 21 12.5t34 -12.5l252 -143q14 -9 14.5 -18.5t-10.5 -24.5l-20 -29q-17 -23 -54 -8l-280 104q-21 10 -24.5 21t9.5 24z" />
<glyph unicode="a" horiz-adv-x="1224" d="M117 522q57 268 219.5 429t394.5 161q148 0 262 -88q5 37 19 54.5t43 17.5l245 -19q19 -2 24.5 -7.5t2.5 -22.5l-14 -66q-4 -20 -37 -27l-84 -2q-31 -3 -45.5 -15t-22.5 -50l-145 -684q-21 -88 43 -88q16 0 28.5 2t26.5 5.5t23 4.5q15 3 21 -0.5t3 -17.5l-14 -64 q-6 -30 -37 -37q-55 -18 -125 -18q-26 0 -47 4t-43 15.5t-33.5 31t-17.5 50t4 73.5q-146 -191 -389 -191q-198 0 -280.5 139t-24.5 410zM283 502q-18 -82 -18 -151t18.5 -126.5t67 -90t124.5 -32.5q140 0 245 108t169 322l76 361q-35 38 -100 64t-140 26q-89 0 -165 -40 t-130 -109.5t-90.5 -153t-56.5 -178.5z" />
<glyph unicode="b" horiz-adv-x="1167" d="M96 86q21 98 120.5 561t152.5 711q9 37 -0.5 52t-40.5 15h-90q-18 1 -22 9.5t-1 27.5l10 49q6 23 13 29t26 8l260 15q28 1 35 -13t0 -45l-135 -628q142 235 387 235q421 0 309 -557q-19 -94 -48 -174.5t-79.5 -157.5t-116 -130.5t-161 -86.5t-211.5 -33 q-139 0 -242.5 23.5t-148.5 46.5q-23 12 -17 43zM266 141q113 -39 240 -39q97 0 174 35.5t129 100.5t85.5 143t53.5 176q90 426 -184 426q-137 0 -243.5 -110.5t-168.5 -325.5z" />
<glyph unicode="c" horiz-adv-x="1075" d="M121 543q56 264 230 417.5t423 153.5q66 0 120.5 -12t90 -32t61.5 -47.5t36.5 -58t14.5 -63.5t-5 -65q-11 -51 -49 -83t-89 -32q-47 0 -70.5 30t-13.5 80q6 33 26.5 60.5t49.5 42.5q-59 53 -196 53q-96 0 -175.5 -35.5t-134.5 -98.5t-92 -141.5t-57 -172.5 q-88 -420 305 -420q153 0 324 69q34 14 42.5 10.5t2.5 -28.5l-17 -70q-3 -16 -7.5 -21.5t-18.5 -12.5q-56 -30 -154.5 -56t-216.5 -26q-141 0 -239 40t-146.5 113.5t-61.5 176.5t17 229z" />
<glyph unicode="d" horiz-adv-x="1214" d="M117 508q60 276 221.5 440t392.5 164q88 0 145.5 -21.5t116.5 -66.5l70 334q9 37 -0.5 52t-40.5 15h-88q-19 1 -23 10.5t0 26.5l11 49q6 23 12.5 29.5t26.5 7.5l258 15q28 1 35 -12t1 -46l-276 -1302q-21 -88 43 -88q16 0 28.5 2t26.5 5.5t23 4.5q14 3 19.5 -0.5 t2.5 -17.5l-14 -64q-3 -16 -10 -24.5t-25 -12.5q-55 -18 -125 -18q-174 0 -137 178q-75 -95 -179.5 -145t-215.5 -50q-192 0 -273 139.5t-26 395.5zM283 502q-18 -83 -18 -153t20 -126.5t68 -88.5t122 -32q282 0 414 430l76 361q-35 41 -97 65.5t-143 24.5q-89 0 -165 -40 t-130 -109.5t-90.5 -153t-56.5 -178.5z" />
<glyph unicode="e" horiz-adv-x="1079" d="M121 549q57 262 209.5 413.5t376.5 151.5q206 0 295 -93.5t51 -266.5q-34 -157 -155.5 -244.5t-332.5 -87.5q-162 0 -289 47q-29 -191 38.5 -274.5t232.5 -83.5q140 0 278 49q23 8 46.5 18t35 14.5t17.5 4.5q15 0 12 -23l-14 -65q-4 -19 -15 -30t-39 -24 q-53 -26 -150.5 -48.5t-195.5 -22.5q-266 0 -361.5 149t-39.5 416zM299 586q136 -47 279 -47q282 0 329 231q24 114 -29 168.5t-182 54.5q-145 0 -245 -105.5t-152 -301.5z" />
<glyph unicode="f" horiz-adv-x="735" d="M-303 -311q10 48 48.5 79t80.5 31t66 -28.5t14 -75.5q-12 -59 -66 -90q29 -13 62 -13q90 0 147.5 63.5t81.5 174.5l238 1122h-148q-23 0 -28 5.5t0 27.5l10 51q5 20 13 28.5t26 8.5h153l25 113q44 212 150.5 315t279.5 103q133 0 191 -65t34 -175q-10 -46 -48.5 -77.5 t-80.5 -31.5t-64 28.5t-12 76.5q12 65 76 96q-34 31 -106 31q-100 0 -164 -68.5t-96 -218.5l-27 -127h256q21 0 27.5 -4.5t3.5 -21.5l-13 -64q-7 -31 -43 -31h-258l-231 -1091q-38 -178 -137 -277.5t-258 -99.5q-117 0 -169 58.5t-34 146.5z" />
<glyph unicode="g" horiz-adv-x="1214" d="M-23 -227q9 45 46.5 74.5t80.5 29.5q42 0 66.5 -26.5t15.5 -71.5q-15 -62 -73 -92q61 -70 237 -70q347 0 426 375l37 176q-76 -96 -179 -145.5t-216 -49.5q-191 0 -271.5 139.5t-27.5 395.5q60 276 222 440t392 164q88 0 145.5 -21.5t116.5 -66.5q5 38 19 55t45 17 l244 -17q19 -2 24.5 -7.5t1.5 -22.5l-12 -62q-4 -22 -39 -29h-82q-33 -4 -47 -18t-23 -51l-188 -887q-57 -261 -216 -386.5t-396 -125.5q-64 0 -118 8t-103.5 28.5t-81.5 52t-45 81t-1 113.5zM285 502q-18 -83 -18 -153t20 -126.5t68 -88.5t122 -32q140 0 245 108t169 322 l76 361q-35 41 -97 65.5t-143 24.5q-89 0 -165 -40t-130 -109.5t-90.5 -153t-56.5 -178.5z" />
<glyph unicode="h" horiz-adv-x="1253" d="M141 31l283 1329q8 36 -1.5 50.5t-39.5 14.5l-88 2q-20 1 -24 9.5t-1 27.5l13 49q5 22 10.5 28t25.5 7l261 15q27 1 33.5 -12.5t0.5 -45.5l-127 -592q66 100 164.5 150.5t214.5 50.5q165 0 241 -89t38 -269q-106 -490 -119 -553q-21 -88 43 -88q16 0 29 2t26.5 5.5 t22.5 4.5q14 3 19.5 -0.5t2.5 -17.5l-14 -64q-3 -16 -10 -24.5t-23 -12.5q-56 -18 -127 -18q-174 0 -135 186l117 553q25 120 -17 184t-155 64q-147 0 -246.5 -111t-146.5 -315l-111 -520q-4 -19 -12 -25t-27 -6h-94q-19 0 -25 6.5t-2 24.5z" />
<glyph unicode="i" horiz-adv-x="620" d="M209 176l151 713q8 36 -1.5 50.5t-39.5 14.5l-90 2q-19 1 -22.5 10.5t2.5 26.5l10 49q5 22 10.5 28t24.5 7l260 15q28 1 35 -13t0 -45l-176 -831q-21 -88 45 -88q16 0 28.5 2t26 5.5t21.5 4.5q16 3 21.5 -0.5t2.5 -17.5l-14 -64q-3 -16 -10 -24.5t-25 -12.5 q-55 -18 -127 -18q-172 0 -133 186zM430 1434q12 57 56 93t96 36q47 0 71.5 -33t12.5 -86q-12 -57 -55.5 -91t-96.5 -34q-46 0 -70 31t-14 84z" />
<glyph unicode="j" horiz-adv-x="540" d="M-326 -311q10 48 47.5 79t81.5 31q42 0 65 -28t13 -76q-12 -59 -65 -90q32 -13 63 -13q90 0 146 63.5t81 174.5l226 1063q8 35 -1 50t-38 15l-90 3q-19 1 -23.5 9t0.5 25l10 49q4 22 11.5 28.5t27.5 8.5l258 15q27 1 35 -13t0 -45l-250 -1177q-38 -178 -137 -277.5 t-258 -99.5q-117 0 -169 58.5t-34 146.5zM399 1434q12 57 55 93t97 36q46 0 71 -33t13 -86q-12 -56 -56.5 -90.5t-97.5 -34.5q-45 0 -68.5 31t-13.5 84z" />
<glyph unicode="k" horiz-adv-x="1167" d="M139 31l281 1327q9 37 -0.5 52t-40.5 15h-90q-17 1 -21 10.5t0 26.5l11 49q6 24 11.5 30t24.5 7l260 15q28 1 35 -13t0 -45l-194 -917l409 309q65 50 24 57l-22 2h-47q-39 0 -28 37l10 54q5 19 11.5 24.5t25.5 5.5h440q14 0 19.5 -1.5t9 -8t-1.5 -20.5l-13 -56 q-3 -18 -11.5 -26.5t-27.5 -8.5h-69q-40 0 -72.5 -15t-93.5 -60l-418 -312l283 -342q62 -74 83.5 -93t47.5 -19q15 0 28 2t27.5 5.5t22.5 4.5q16 3 21.5 -0.5t2.5 -17.5l-14 -64q-11 -55 -154 -55q-57 0 -88.5 22.5t-103.5 114.5l-283 348l-35 39l-102 -483q-5 -19 -12 -25 t-27 -6h-94q-19 0 -24 6t-1 25z" />
<glyph unicode="l" horiz-adv-x="540" d="M133 176l250 1182q9 37 -0.5 52t-40.5 15h-90q-18 1 -22 9.5t-1 27.5l11 49q6 23 13 29t26 8l260 15q28 1 34.5 -13t-0.5 -45l-276 -1302q-15 -88 43 -88q16 0 29.5 2t27 5.5t21.5 4.5q15 3 21 -0.5t3 -17.5l-14 -64q-3 -16 -10 -24.5t-25 -12.5q-55 -18 -127 -18 q-172 0 -133 186z" />
<glyph unicode="m" horiz-adv-x="1894" d="M166 31l182 862q10 44 -11.5 53.5t-119.5 9.5q-17 0 -22 6.5t-2 24.5l12 57q4 20 12.5 26.5t28.5 8.5l256 15q28 0 35.5 -13t1.5 -45l-23 -106q126 184 369 184q111 0 178.5 -50.5t79.5 -152.5q132 203 395 203q148 0 217 -89.5t31 -268.5l-117 -553q-21 -88 43 -88 q16 0 29.5 2t27 5.5t21.5 4.5q15 3 21.5 -0.5t3.5 -17.5l-15 -64q-6 -29 -35 -37q-55 -18 -127 -18q-174 0 -135 186l117 553q24 115 -12 180.5t-142 65.5q-144 0 -237 -100t-133 -289l-117 -555q-4 -19 -12 -25t-27 -6h-94q-19 0 -25 6.5t-2 24.5l148 698q24 115 -12 180.5 t-142 65.5q-144 0 -237.5 -100t-133.5 -289l-116 -555q-4 -19 -12 -25t-27 -6h-94q-19 0 -25 6.5t-2 24.5z" />
<glyph unicode="n" horiz-adv-x="1277" d="M174 31l182 862q10 44 -11.5 53.5t-119.5 9.5q-17 0 -22 6.5t-2 24.5l12 57q4 20 12.5 26.5t28.5 8.5l250 15q27 0 34 -13t1 -45l-29 -139q62 109 164.5 163t224.5 54q163 0 238 -89t37 -269l-117 -553q-21 -88 45 -88q16 0 28.5 2t26 5.5t21.5 4.5q16 3 21.5 -0.5 t2.5 -17.5l-14 -68q-6 -20 -23 -29q-58 -22 -139 -22q-172 0 -133 186l117 553q25 120 -17 184t-155 64q-152 0 -253.5 -116t-146.5 -331l-106 -499q-5 -19 -12 -25t-27 -6h-94q-19 0 -24 6t-1 25z" />
<glyph unicode="o" horiz-adv-x="1171" d="M125 571q24 118 70.5 214t118 171t175.5 116.5t232 41.5q110 0 192.5 -30t131.5 -83.5t75 -128t24 -164t-22 -190.5q-24 -118 -71 -214t-118.5 -171.5t-175.5 -117.5t-233 -42q-91 0 -163.5 21t-121.5 60.5t-81 93t-44.5 121t-9.5 143t21 159.5zM291 545 q-97 -451 237 -451q174 0 281 120t152 331q23 100 20.5 182.5t-28.5 141.5t-84.5 91.5t-147.5 32.5q-334 0 -430 -448z" />
<glyph unicode="p" horiz-adv-x="1232" d="M-147 -479l10 61q3 17 11 23t28 6h67q46 0 66.5 14t30.5 60l256 1208q10 44 -11.5 53.5t-117.5 9.5q-19 0 -24.5 7t-2.5 24l12 57q4 20 12.5 26.5t30.5 8.5l254 15q28 0 35.5 -13t1.5 -45l-33 -155q153 231 420 231q410 0 289 -573q-58 -278 -208 -422t-376 -144 q-166 0 -303 72l-76 -360q-10 -46 4 -60t62 -14h67q20 0 25 -5.5t2 -23.5l-12 -61q-4 -19 -12 -25t-27 -6h-457q-18 0 -23 6.5t-1 24.5zM332 186q39 -35 112 -59.5t154 -24.5q329 0 426 461q15 71 20.5 127.5t-1 113t-28 94.5t-66.5 61.5t-111 23.5q-297 0 -428 -430z" />
<glyph unicode="q" horiz-adv-x="1214" d="M117 508q58 276 220 440t394 164q89 0 146 -22t116 -68q5 38 18.5 56t43.5 18l245 -17q18 -2 23.5 -7.5t1.5 -22.5l-12 -62q-4 -22 -39 -29h-82q-33 -4 -47 -18t-23 -51l-256 -1204q-10 -46 4.5 -60t67.5 -14h53q19 0 24.5 -7t2.5 -24l-12 -53q-5 -23 -12 -30t-27 -7 h-478q-19 0 -24.5 7t-1.5 30l12 53q5 31 39 31h57q69 0 97.5 14.5t38.5 59.5l102 483q-76 -96 -179 -145.5t-216 -49.5q-192 0 -272 139.5t-25 395.5zM281 502q-18 -83 -18 -153t20 -126.5t68 -88.5t122 -32q284 0 416 430l76 361q-80 90 -240 90q-89 0 -165.5 -40.5 t-130.5 -109.5t-91 -152.5t-57 -178.5z" />
<glyph unicode="r" horiz-adv-x="974" d="M-6 33l12 59q3 18 10 23.5t27 5.5h66q47 0 68.5 15t31.5 59l147 698q10 44 -11.5 53.5t-119.5 9.5q-17 0 -22 6.5t-2 24.5l12 57q5 20 12 27t29 8l256 15q27 0 34 -13t1 -45l-47 -223q18 36 40.5 71.5t61 79t81 75t102.5 53.5t124 22q103 0 145.5 -49.5t24.5 -134.5 q-10 -46 -48.5 -77.5t-80.5 -31.5t-64 28.5t-12 76.5q6 38 31 63q-20 4 -35 4q-61 0 -123 -33.5t-112 -87.5t-93 -121.5t-71.5 -137t-42.5 -132.5l-59 -286q-10 -46 3.5 -60t61.5 -14h109q21 0 25 -5.5t1 -23.5l-14 -63q-3 -18 -10 -23.5t-25 -5.5h-498q-20 0 -25 6.5 t-1 26.5z" />
<glyph unicode="s" horiz-adv-x="987" d="M59 233q9 48 43.5 78.5t81.5 30.5q43 0 64.5 -27.5t11.5 -74.5q-9 -54 -57 -84q73 -70 237 -70q117 0 195 50t98 143q11 50 -2 86.5t-44 58t-73.5 39.5t-91 30t-96 30t-89 39.5t-70.5 58t-39.5 86.5t3.5 124q28 136 132 209.5t272 73.5q202 0 292.5 -66.5t63.5 -187.5 q-9 -45 -45 -75.5t-80 -30.5q-43 0 -65 27t-13 75q13 55 56 84q-71 61 -217 61q-210 0 -246 -167q-12 -59 14 -98.5t76.5 -60.5t112.5 -38t123 -40t108 -57.5t67 -99t1 -155.5q-32 -153 -151.5 -232.5t-309.5 -79.5q-187 0 -289 67.5t-74 192.5z" />
<glyph unicode="t" horiz-adv-x="710" d="M164 983l10 57q9 37 39 37h135l107 254q6 20 20 26.5t45 6.5q34 0 40 -5.5t3 -27.5l-55 -254h260q22 0 29 -5t4 -21l-17 -70q-6 -31 -41 -31h-262l-131 -620q-12 -55 -12.5 -93.5t8 -61.5t28 -36.5t41.5 -17.5t54 -4q79 0 141 24q19 8 25 3.5t2 -23.5l-14 -66 q-3 -16 -11 -25t-26 -16q-66 -26 -166 -26q-144 0 -208.5 70t-29.5 233l140 659h-129q-23 0 -28 5.5t-1 27.5z" />
<glyph unicode="u" horiz-adv-x="1253" d="M154 987l12 57q5 20 12 27t29 8l256 15q27 0 34 -13t1 -45l-146 -686q-50 -237 168 -237q154 0 258 102t144 287l82 391q10 44 -12.5 53.5t-119.5 9.5q-17 0 -22 6.5t-2 24.5l12 57q5 20 12 27t29 8l256 15q27 0 34 -13t1 -45l-176 -833q-21 -88 43 -88q16 0 29.5 2 t27 5.5t21.5 4.5q16 3 21.5 -0.5t2.5 -17.5l-14 -64q-3 -16 -10 -24.5t-25 -12.5q-56 -18 -127 -18q-151 0 -141 143q-144 -153 -387 -153q-172 0 -239.5 86t-24.5 286l114 541q10 44 -11.5 53.5t-117.5 9.5q-18 0 -22.5 6.5t-1.5 24.5z" />
<glyph unicode="v" horiz-adv-x="1181" d="M152 989l14 62q3 15 9.5 20.5t23.5 5.5h391q18 0 22.5 -6t1.5 -22l-12 -60q-7 -31 -39 -31h-28q-53 -1 -71 -17t-13 -56l92 -744l415 756q19 34 5 46.5t-72 12.5l-25 2q-17 0 -21 6.5t-1 22.5l12 60q4 19 11 24.5t24 5.5h395q18 0 23 -5.5t2 -20.5l-13 -58 q-5 -22 -11 -29t-25 -8h-41q-33 -1 -48 -4t-31.5 -16.5t-33.5 -42.5l-496 -879q-11 -20 -19.5 -25t-33.5 -5h-110q-18 0 -26 5.5t-9 22.5l-125 875q-7 45 -20.5 54.5t-63.5 14.5h-31q-18 3 -21.5 9t-0.5 24z" />
<glyph unicode="w" horiz-adv-x="1820" d="M158 989l12 60q5 17 11.5 22.5t23.5 5.5h405q27 0 21 -28l-13 -60q-7 -31 -30 -31q-95 -1 -112.5 -11t-12.5 -60l53 -764l453 899q20 40 27 47.5t28 7.5h102q19 0 23.5 -10t7.5 -49l62 -891l356 729q35 71 34 84t-40 16l-72 2q-18 3 -21.5 8.5t-0.5 20.5l12 60 q5 19 11 24.5t24 5.5h411q17 0 22.5 -5t2.5 -19l-12 -58q-7 -37 -37 -39h-70q-42 -3 -59.5 -18.5t-57.5 -95.5l-432 -828q-10 -21 -21.5 -25.5t-54.5 -4.5h-98q-20 0 -28.5 6t-8.5 22l-73 836l-420 -834q-9 -20 -17.5 -25t-33.5 -5h-117q-19 0 -26 5.5t-7 22.5l-90 871 q-4 49 -21.5 60t-83.5 13q-25 1 -30 7t-2 26z" />
<glyph unicode="x" horiz-adv-x="1165" d="M-41 29l12 59q3 17 9.5 24.5t21.5 8.5h66q39 2 75.5 23t98.5 83l303 310l-197 358q-26 42 -43 51.5t-61 11.5h-43q-18 0 -23 7.5t-2 23.5l12 60q4 18 12 23t25 5h406q18 0 22 -6t0 -24l-12 -60q-2 -10 -4.5 -15t-9 -9.5t-17.5 -4.5h-43q-51 0 -56.5 -9t17.5 -52l129 -244 l244 248q40 40 38 48.5t-46 8.5h-33q-28 0 -22 29l12 60q7 30 37 30h358q17 0 21 -5.5t0 -24.5l-13 -62q-6 -27 -36 -29h-46q-43 -2 -75 -22t-115 -103l-270 -278l170 -311q39 -79 60.5 -99t57.5 -22h62q16 0 20 -7t0 -22l-14 -63q-3 -18 -10 -23.5t-25 -5.5h-385 q-18 0 -23 6.5t-1 24.5l10 55q4 20 12 26.5t27 6.5q70 0 81.5 9.5t-10.5 49.5l-143 260l-242 -250q-53 -53 -43 -62q7 -5 43 -5h48q25 -3 20 -27l-14 -65q-5 -29 -31 -29h-395q-18 0 -24 6t-3 23z" />
<glyph unicode="y" horiz-adv-x="1253" d="M16 -236q10 48 48 79.5t81 31.5q40 0 63.5 -28t14.5 -76q-15 -60 -69 -90q67 -64 237 -64q161 0 272 88.5t148 263.5l35 160q-149 -149 -385 -149q-172 0 -239.5 86t-24.5 286l114 541q10 44 -11.5 53.5t-117.5 9.5q-18 0 -22.5 6.5t-1.5 24.5l12 57q5 20 12 27t29 8 l256 15q27 0 34 -13t1 -45l-146 -686q-50 -237 168 -237q154 0 258 102t144 287l84 403q6 35 -18.5 43t-114.5 8q-17 0 -22.5 7t-2.5 24l12 57q5 20 12 27t29 8l256 15q27 0 34 -13t1 -45l-223 -1054q-54 -251 -214 -371.5t-401 -120.5q-60 0 -113 8t-102 28.5t-81 50.5 t-45.5 78.5t-0.5 108.5z" />
<glyph unicode="z" horiz-adv-x="1040" d="M6 31l12 59q7 29 17 39l803 836h-357q-34 0 -50.5 -3t-35.5 -22.5t-33.5 -49.5t-42.5 -95q-11 -24 -18.5 -31.5t-24.5 -7.5h-69q-26 0 -14 35l81 260q8 32 52 32h723q18 0 22 -7.5t2 -22.5l-8 -39q-9 -36 -41 -68l-791 -825h410q27 0 40 0.5t30 8.5t25.5 17.5t26 37 t31.5 57t40 86.5q9 26 34 26h70q16 0 19 -6.5t-3 -21.5l-98 -293q-11 -33 -51 -33h-782q-25 3 -19 31z" />
<glyph unicode="{" horiz-adv-x="653" d="M109 590l18 86q1 8 5 13.5t6.5 6.5t10.5 3.5t9 2.5q84 20 121 65t53 126l67 319q35 161 126 226t251 65h23q22 0 27.5 -4.5t2.5 -19.5l-12 -56q-3 -14 -11.5 -18t-27.5 -4q-179 -5 -217 -187l-74 -340q-20 -96 -64 -157.5t-132 -81.5v-4q55 -14 81 -50t25 -84t-12 -106 l-72 -340q-41 -186 138 -186q19 0 26 -4.5t4 -18.5l-12 -55q-3 -15 -11 -20t-30 -5h-22q-160 0 -223 65t-29 226l67 320q10 49 9 86t-25.5 63.5t-75.5 40.5q-1 0 -6 1.5t-6 2t-4.5 3t-3.5 4.5t-1.5 6.5t1.5 9.5z" />
<glyph unicode="|" horiz-adv-x="507" d="M53 -227l363 1704q5 21 16 31.5t33 11.5h82q35 0 28 -41l-362 -1704q-5 -22 -15.5 -33t-33.5 -12h-84q-34 0 -27 43z" />
<glyph unicode="}" horiz-adv-x="653" d="M-51 -213l6 25q3 16 10 19t29 3q198 5 244 217l71 340q22 97 65.5 158.5t131.5 81.5v4q-55 14 -81 50t-24.5 83.5t11.5 105.5l73 340q45 218 -151 218q-16 0 -21 0.5t-8.5 5.5t-1.5 16l6 25q3 15 12 19.5t31 4.5h13q118 0 175.5 -70t24.5 -221l-71 -342q-10 -49 -8.5 -85 t25.5 -61.5t75 -39.5q2 -1 6.5 -2t5.5 -1.5l5 -2.5t4 -4.5t1.5 -7t-0.5 -9.5l-10 -49q-2 -8 -6.5 -13.5t-7 -7t-10.5 -3.5t-9 -2q-83 -21 -119.5 -64t-52.5 -123l-74 -342q-32 -151 -119.5 -221t-205.5 -70h-12q-22 0 -29 5t-4 20z" />
<glyph unicode="~" horiz-adv-x="917" d="M98 543q23 113 101.5 176t199.5 63q60 0 99 -18t52.5 -37.5t22.5 -46.5q10 -24 18 -36t30.5 -22t60.5 -10q118 0 145 109q10 20 29 20h80q26 0 18 -34q-25 -114 -104.5 -176t-206.5 -62q-84 0 -120.5 25.5t-51.5 68.5q-8 23 -11 29.5t-14.5 21.5t-29.5 20t-47 5 q-117 0 -146 -109q-7 -20 -33 -20h-75q-15 0 -18 5t1 28z" />
<glyph unicode="&#xa2;" horiz-adv-x="1093" d="M131 539q54 249 202.5 401t373.5 170l28 141q9 40 51 43h82q36 0 29 -41l-33 -149q140 -18 213 -109q35 -47 25 -98q-12 -54 -55.5 -87.5t-92.5 -33.5q-47 0 -72.5 31.5t-15.5 85.5q7 35 27 55q-63 45 -150 45q-174 0 -288 -122t-158 -334q-23 -97 -18.5 -177 t34.5 -137.5t98.5 -89t172.5 -31.5q110 0 202 25q24 6 77 23.5t67 21.5t17.5 -1t0.5 -17l-12 -66q-4 -20 -12.5 -28.5t-34.5 -20.5q-132 -54 -268 -62l-31 -143q-3 -21 -13.5 -31.5t-33.5 -11.5h-82q-38 0 -31 41l31 148q-437 39 -330 559z" />
<glyph unicode="&#xa3;" horiz-adv-x="1245" d="M41 31l12 59q3 18 11 24.5t28 6.5h10q196 72 250 313q13 73 0 148h-184q-26 0 -23 24l17 72q3 12 9 17t19 5h127q-15 41 -23 69.5t-15 70.5t-5 88t13 96q49 231 201 353t374 122q188 -3 285 -79t84 -220q5 -17 -2 -45q-11 -56 -54 -87.5t-94 -31.5q-49 0 -75.5 31.5 t-16.5 85.5q11 53 66 94q-34 122 -219 125q-139 0 -238.5 -83.5t-134.5 -254.5q-8 -38 -10 -73t4 -73.5t10.5 -60.5t17.5 -67t17 -60h346q26 0 20 -22l-16 -72q-3 -24 -31 -24h-299q3 -59 -8 -119q-25 -111 -87 -203.5t-146 -138.5h516q79 0 113 8t54.5 31.5t43.5 83.5 l45 135q9 14 12.5 19t12.5 8.5t24 3.5h49q20 0 25.5 -8t-2.5 -27l-87 -279q-19 -65 -39 -80.5t-69 -15.5h-905q-25 0 -31.5 6t-1.5 25z" />
<glyph unicode="&#xa5;" horiz-adv-x="1468" d="M283 1393l12 55q3 19 13 25t36 6h410q29 0 37 -7t2 -32l-9 -39q-5 -22 -16 -31.5t-39 -9.5h-45q-10 0 -16 -0.5t-16.5 -4t-13 -10t-6 -18.5t4.5 -31l158 -606l473 606q21 31 12.5 45.5t-29.5 14.5h-49q-27 0 -34.5 11.5t-2.5 33.5l11 47q3 19 14 25t39 6h375 q27 0 35.5 -7.5t5.5 -23.5l-13 -55q-5 -21 -16 -29t-39 -8h-59q-23 0 -45 -14.5t-60 -61.5l-571 -717l-80 -370q-7 -44 6.5 -58t56.5 -14h66q21 0 24.5 -6t-0.5 -23l-12 -59q-3 -18 -11 -25.5t-26 -7.5h-448q-20 0 -25.5 6t-1.5 25l12 61q3 18 10.5 23.5t28.5 5.5h62 q41 0 61.5 15t30.5 57l76 352l-211 725q-18 51 -40.5 68.5t-49.5 17.5h-54q-25 0 -32 8t-2 29z" />
<glyph unicode="&#xa9;" horiz-adv-x="1716" d="M176 748q35 163 115.5 302t198 241t276.5 160t340 58q145 0 260.5 -37.5t190.5 -105.5t120 -162.5t49.5 -209t-20.5 -244.5q-35 -166 -113 -306.5t-193.5 -246t-275 -165t-346.5 -59.5q-126 0 -229 27.5t-175 77t-123.5 120t-73.5 156.5t-24 186t23 208zM305 756 q-43 -203 0.5 -356.5t171.5 -239.5t324 -86q292 0 503.5 187.5t276.5 496.5q42 193 -4.5 340.5t-174 229t-317.5 81.5q-290 0 -503.5 -179.5t-276.5 -473.5zM557 739q38 180 175.5 296t332.5 116q161 0 235 -84q32 -32 23 -80q-10 -46 -46.5 -76t-80.5 -30q-39 0 -61 27.5 t-13 70.5q7 34 27 57q-49 17 -105 17q-138 0 -229 -86.5t-119 -216.5q-15 -60 -7 -111.5t33.5 -90t80.5 -60t135 -21.5q70 0 117.5 12.5t103.5 38.5q47 19 53 19q25 0 19 -21l-8 -43q-9 -31 -41 -45q-124 -59 -285 -59q-198 0 -286.5 103t-53.5 267z" />
<glyph unicode="&#xad;" d="M178 614l12 56q5 20 12 26t27 6h535q20 0 24.5 -7.5t-0.5 -24.5l-12 -56q-3 -20 -10.5 -26t-28.5 -6h-532q-20 0 -25 6t-2 26z" />
<glyph unicode="&#xae;" horiz-adv-x="1716" d="M176 748q35 163 115.5 302t198 241t276.5 160t340 58q145 0 260.5 -37.5t190.5 -105.5t120 -162.5t49.5 -209t-20.5 -244.5q-35 -166 -113 -306.5t-193.5 -246t-275 -165t-346.5 -59.5q-126 0 -229 27.5t-175 77t-123.5 120t-73.5 156.5t-24 186t23 208zM305 756 q-43 -203 0.5 -356.5t171.5 -239.5t324 -86q292 0 503.5 187.5t276.5 496.5q42 193 -4.5 340.5t-174 229t-317.5 81.5q-290 0 -503.5 -179.5t-276.5 -473.5zM539 379l8 43q3 11 9 15.5t22 4.5h4q32 0 49 13.5t24 50.5l107 504q9 38 -2 50.5t-51 12.5q-16 0 -18.5 5t-0.5 20 l8 37q4 17 10.5 21.5t22.5 4.5h256q188 0 259.5 -51t41.5 -186q-36 -177 -217 -228q74 -54 90 -215q3 -39 43 -39q19 0 49 13q8 3 12 -1t1 -20l-11 -43q-6 -25 -28 -35q-28 -16 -70 -16q-106 0 -113 94q-3 32 -9.5 62t-19 65t-30 60t-45.5 42t-63 17h-68l-37 -174 q-9 -40 0.5 -52t44.5 -12h4q18 0 22 -4.5t1 -15.5l-8 -43q-4 -17 -11 -22t-22 -5h-244q-15 0 -19.5 5.5t-0.5 21.5zM827 766h86q217 0 248 158q18 81 -26.5 115t-157.5 34h-84z" />
<glyph unicode="&#xb4;" horiz-adv-x="565" d="M287 1343q-6 13 -1 23t25 18l307 148q28 12 39 12t17 -12l31 -74q16 -28 -31 -43l-330 -106q-29 -9 -36.5 -6.5t-14.5 14.5z" />
<glyph unicode="&#x2000;" horiz-adv-x="849" />
<glyph unicode="&#x2001;" horiz-adv-x="1698" />
<glyph unicode="&#x2002;" horiz-adv-x="849" />
<glyph unicode="&#x2003;" horiz-adv-x="1698" />
<glyph unicode="&#x2004;" horiz-adv-x="566" />
<glyph unicode="&#x2005;" horiz-adv-x="424" />
<glyph unicode="&#x2006;" horiz-adv-x="283" />
<glyph unicode="&#x2007;" horiz-adv-x="283" />
<glyph unicode="&#x2008;" horiz-adv-x="212" />
<glyph unicode="&#x2009;" horiz-adv-x="339" />
<glyph unicode="&#x200a;" horiz-adv-x="94" />
<glyph unicode="&#x2010;" d="M178 614l12 56q5 20 12 26t27 6h535q20 0 24.5 -7.5t-0.5 -24.5l-12 -56q-3 -20 -10.5 -26t-28.5 -6h-532q-20 0 -25 6t-2 26z" />
<glyph unicode="&#x2011;" d="M178 614l12 56q5 20 12 26t27 6h535q20 0 24.5 -7.5t-0.5 -24.5l-12 -56q-3 -20 -10.5 -26t-28.5 -6h-532q-20 0 -25 6t-2 26z" />
<glyph unicode="&#x2012;" d="M178 614l12 56q5 20 12 26t27 6h535q20 0 24.5 -7.5t-0.5 -24.5l-12 -56q-3 -20 -10.5 -26t-28.5 -6h-532q-20 0 -25 6t-2 26z" />
<glyph unicode="&#x2013;" horiz-adv-x="1067" d="M176 606l17 72q6 24 28 24h768q27 0 21 -24l-17 -72q-3 -24 -30 -24h-764q-26 0 -23 24z" />
<glyph unicode="&#x2014;" horiz-adv-x="1716" d="M176 606l17 72q6 24 28 24h1417q27 0 21 -24l-17 -72q-3 -24 -28 -24h-1415q-26 0 -23 24z" />
<glyph unicode="&#x2018;" horiz-adv-x="458" d="M262 1126q19 87 94.5 175.5t178.5 164.5q15 11 26 10t14.5 -5t14.5 -19q14 -19 -17 -41q-43 -32 -86 -81.5t-63 -92.5q43 -3 64.5 -34.5t11.5 -82.5q-12 -57 -55 -93t-97 -36q-51 0 -75 35.5t-11 99.5z" />
<glyph unicode="&#x2019;" horiz-adv-x="456" d="M256 1024q-14 20 16 41q43 32 87 82t63 92q-43 3 -64.5 34.5t-11.5 82.5q12 57 55 93t97 36q51 0 75 -35.5t11 -99.5q-19 -87 -94.5 -175.5t-178.5 -164.5q-15 -11 -26 -10t-14.5 5t-14.5 19z" />
<glyph unicode="&#x201c;" horiz-adv-x="782" d="M262 1126q19 87 94.5 175.5t178.5 164.5q15 11 26 10t14.5 -5t14.5 -19q14 -19 -17 -41q-43 -32 -86 -81.5t-63 -92.5q43 -3 64.5 -34.5t11.5 -82.5q-12 -57 -55 -93t-97 -36q-51 0 -75 35.5t-11 99.5zM588 1126q19 87 94 176t178 164q15 11 26 10t14.5 -5t14.5 -19 q14 -20 -16 -41q-43 -32 -86 -81.5t-63 -92.5q42 -3 63.5 -34.5t11.5 -82.5q-12 -57 -54.5 -93t-96.5 -36q-51 0 -75 35.5t-11 99.5z" />
<glyph unicode="&#x201d;" horiz-adv-x="782" d="M256 1024q-14 20 16 41q43 32 87 82t63 92q-43 3 -64.5 34.5t-11.5 82.5q12 57 55 93t97 36q51 0 75 -35.5t11 -99.5q-19 -87 -94.5 -175.5t-178.5 -164.5q-15 -11 -26 -10t-14.5 5t-14.5 19zM578 1024q-14 20 16 41q43 32 86 81.5t63 92.5q-42 3 -63.5 34.5t-11.5 82.5 q12 57 54.5 93t96.5 36q51 0 75 -35.5t11 -99.5q-19 -87 -94 -176t-178 -164q-15 -11 -26 -10t-14.5 5t-14.5 19z" />
<glyph unicode="&#x2022;" horiz-adv-x="657" d="M244 727q17 79 79 131.5t130 52.5q66 0 100.5 -47t17.5 -125q-17 -79 -80.5 -131.5t-130.5 -52.5q-66 0 -99.5 47t-16.5 125z" />
<glyph unicode="&#x2026;" horiz-adv-x="1658" d="M59 96q12 56 56.5 92.5t95.5 36.5q48 0 74 -33t14 -88q-10 -54 -55.5 -89t-96.5 -35q-48 0 -73 31.5t-15 84.5zM653 96q12 56 56.5 92.5t95.5 36.5q48 0 74 -33t14 -88q-10 -54 -55.5 -89t-96.5 -35q-48 0 -73 31.5t-15 84.5zM1247 96q12 56 56.5 92.5t95.5 36.5 q48 0 74 -33t14 -88q-10 -54 -55.5 -89t-96.5 -35q-48 0 -73 31.5t-15 84.5z" />
<glyph unicode="&#x202f;" horiz-adv-x="339" />
<glyph unicode="&#x205f;" horiz-adv-x="424" />
<glyph unicode="&#x20ac;" horiz-adv-x="1624" d="M106 522q7 37 25.5 47.5t56.5 10.5h152q2 40 18 139h-165q-27 0 -34 23t1 40q7 35 26 46.5t56 11.5h147q89 297 312 477t536 180q131 0 225.5 -32.5t141.5 -85.5t63 -114t2 -126q-11 -56 -54.5 -87.5t-96.5 -31.5q-49 0 -75 31.5t-16 85.5q9 41 40 72t69 42 q-34 55 -111.5 87t-195.5 32q-127 0 -237 -41t-191 -114.5t-140 -167.5t-96 -207h621q27 0 31 -23.5t-3 -40.5q-10 -57 -63 -57h-619v-2q-17 -82 -20 -137h483q27 0 31.5 -23.5t-2.5 -40.5q-10 -55 -63 -55h-449q38 -348 459 -348q82 0 155 9.5t137.5 29.5t92 30.5 t78.5 32.5q33 16 46 14t7 -32l-14 -72q-4 -29 -39 -47q-73 -38 -203 -69.5t-295 -31.5q-268 0 -423.5 121t-172.5 363h-203q-26 0 -32.5 22t1.5 39z" />
<glyph unicode="&#x2122;" horiz-adv-x="1947" d="M229 1276l45 162q7 28 16 34.5t32 6.5h614q24 0 29.5 -6t1.5 -33l-25 -164q-1 -10 -3 -14.5t-7.5 -7.5t-16.5 -3h-53q-13 0 -16.5 4.5t-3.5 18.5l8 67q1 28 -13 33.5t-73 5.5h-88l-137 -639q-7 -35 1.5 -46t39.5 -11h28q15 0 19 -3.5t2 -14.5l-13 -52q-2 -12 -7.5 -17 t-18.5 -5h-297q-12 0 -16 4.5t-1 17.5l13 52q2 11 5.5 14.5t16.5 3.5h29q27 0 40.5 8.5t22.5 34.5l140 653h-97q-53 0 -69.5 -6.5t-26.5 -34.5l-20 -65q-8 -23 -33 -23h-51q-16 0 -18.5 5.5t1.5 19.5zM836 614l12 52q1 12 5.5 15t18.5 3h31q32 0 46 8t20 35l129 610 q4 14 0.5 24t-4 15t-8.5 8t-13 3.5t-16 1.5l-21 2q-19 0 -16 20l10 45q3 14 8 18.5t17 4.5h219q20 0 24 -27l115 -756v-2l430 762q5 13 13.5 18t27.5 5h195q12 0 16.5 -5t1.5 -18l-10 -41q-3 -23 -27 -26h-43q-41 -5 -49 -50l-129 -602q-8 -34 -3 -43.5t32 -9.5h43 q15 0 20 -5t2 -17l-10 -48q-5 -22 -31 -22h-286q-12 0 -16 4.5t-1 17.5l10 48q3 13 7.5 17.5t17.5 4.5h37q25 0 38 11.5t19 41.5l109 512l-361 -645q-6 -11 -13.5 -14.5t-25.5 -3.5h-106q-21 0 -29 16l-102 672l-117 -547q-6 -28 3 -35.5t42 -7.5h31q15 0 18.5 -3t1.5 -15 l-12 -52q-3 -13 -8 -17.5t-19 -4.5h-276q-13 0 -17 4.5t-1 17.5z" />
<glyph unicode="&#x25fc;" horiz-adv-x="1075" d="M0 0v1075h1075v-1075h-1075z" />
</font>
</defs>
</svg>
