<?xml version="1.0" standalone="no"?>
<!DOCTYPE svg PUBLIC "-//W3C//DTD SVG 1.1//EN" "http://www.w3.org/Graphics/SVG/1.1/DTD/svg11.dtd" >
<svg xmlns="http://www.w3.org/2000/svg">
<metadata></metadata>
<defs>
<font id="cabrito_norm_demi_inormdemiIt" horiz-adv-x="854" >
<font-face units-per-em="2048" ascent="1567" descent="-481" />
<missing-glyph horiz-adv-x="464" />
<glyph horiz-adv-x="2048" />
<glyph horiz-adv-x="2048" />
<glyph unicode="&#xd;" horiz-adv-x="2048" />
<glyph unicode=" "  horiz-adv-x="464" />
<glyph unicode="&#x09;" horiz-adv-x="464" />
<glyph unicode="&#xa0;" horiz-adv-x="464" />
<glyph unicode="!" horiz-adv-x="555" d="M88 117q13 64 65 107.5t111 43.5q57 0 88.5 -38t18.5 -103q-13 -64 -66.5 -105.5t-114.5 -41.5q-57 0 -86 37.5t-16 99.5zM242 416q41 193 62.5 359.5t24 257.5t9 185.5t20.5 161.5q17 80 57.5 117t110.5 37t94 -37t7 -117q-14 -67 -47.5 -161.5t-69 -185.5t-84.5 -257.5 t-90 -359.5q-7 -31 -55 -31q-29 0 -36 7.5t-3 23.5z" />
<glyph unicode="&#x22;" horiz-adv-x="813" d="M279 1063l61 395q2 25 27 34t92 9t87.5 -9t14.5 -34l-108 -395q-4 -22 -24 -29.5t-71 -7.5t-66.5 7.5t-12.5 29.5zM659 1063l60 395q3 25 28 34t93 9q67 0 87.5 -9t14.5 -34l-108 -395q-6 -22 -25 -29.5t-70 -7.5q-52 0 -67.5 7.5t-12.5 29.5z" />
<glyph unicode="#" horiz-adv-x="1757" d="M92 496q8 41 35 53t84 12h219l244 385h-236q-65 0 -49 84q8 40 35 52t84 12h258l209 329q28 44 55 58t98 14q48 0 62.5 -17.5t-0.5 -54.5q-8 -18 -33 -63l-170 -266h393l209 329q28 44 55.5 58t98.5 14q48 0 62 -17.5t-1 -54.5q-12 -27 -32 -63l-170 -266h194 q19 0 29.5 -7.5t12 -22t0.5 -26t-5 -28.5q-7 -32 -23.5 -48t-52.5 -16h-248l-243 -385h233q19 0 29 -7.5t11.5 -23t0.5 -25.5t-4 -28q-6 -31 -24 -47t-54 -16h-287l-239 -383q-23 -35 -44 -44.5t-77 -9.5q-48 0 -71 14.5t-17 43.5q4 20 27 57l200 322h-393l-240 -383 q-23 -35 -44 -44.5t-76 -9.5q-48 0 -71 14.5t-17 43.5q5 23 26 57l201 322h-197q-64 0 -47 82zM651 561h393l244 385h-393z" />
<glyph unicode="$" horiz-adv-x="1228" d="M63 309l33 -4l-8 19q-14 28 9 61t64 54.5t79 21.5q56 0 88 -40t18 -104q-14 -75 -84 -120q84 -70 281 -70q334 0 387 248q14 65 2 115.5t-44 82.5t-78 58t-100.5 42.5t-112 36.5t-111.5 39.5t-99 51.5t-75.5 72t-40 102t7.5 141q36 169 157.5 262.5t313.5 114.5l32 152 q9 44 56 47h116q44 0 33 -45l-31 -152q193 -17 277.5 -104.5t54.5 -227.5q-13 -67 -65 -109t-111 -42t-90 39.5t-18 103.5q14 70 79 117q-80 74 -256 74q-286 0 -329 -199q-12 -54 1.5 -96t47 -69t80 -49.5t101.5 -39t112.5 -37.5t111 -44t97.5 -59.5t73 -83.5t37.5 -116.5 t-10.5 -157.5q-28 -132 -107 -223.5t-184 -135.5t-240 -56l-36 -177q-9 -44 -56 -47h-116q-42 0 -31 45l37 176q-204 15 -294 99t-59 233z" />
<glyph unicode="%" horiz-adv-x="1914" d="M213 1083q19 89 55.5 163.5t93 134.5t139 94t183.5 34q82 0 143 -22.5t96 -61.5t55 -93t18 -117t-15 -132q-19 -89 -56.5 -164t-95 -135.5t-141 -94.5t-184.5 -34q-81 0 -141.5 22.5t-96 62t-52.5 94.5t-16.5 116.5t15.5 132.5zM369 78q-2 15 28 55l1229 1366 q20 23 33.5 29.5t32.5 3.5q24 0 48.5 -19.5t20.5 -48.5q3 -25 -32 -65l-1231 -1362q-22 -23 -37.5 -30.5t-32.5 -2.5q-27 3 -46 22.5t-13 51.5zM403 1081q-17 -88 -13 -154.5t39.5 -105.5t100.5 -39q101 0 164.5 80t93.5 219q29 137 -2.5 219t-128.5 82q-92 0 -158.5 -82.5 t-95.5 -218.5zM1092 410q19 89 56 163.5t93.5 134.5t139.5 94t184 34q81 0 142.5 -22.5t96 -61.5t54 -93t17.5 -117t-15 -132q-19 -89 -56.5 -164t-94.5 -135.5t-140.5 -94.5t-184.5 -34q-81 0 -141.5 22.5t-96 62t-53 94t-17 116.5t15.5 133zM1282 408q-29 -137 2 -218 t127 -81q99 0 163 80t93 219q29 138 -1.5 219.5t-127.5 81.5q-94 0 -160.5 -82.5t-95.5 -218.5z" />
<glyph unicode="&#x26;" horiz-adv-x="1503" d="M92 410q25 115 87 198t142.5 124.5t174.5 49.5q-34 5 -63.5 17.5t-60.5 37.5t-47.5 61.5t-23.5 91t10 126.5q39 180 179.5 281.5t361.5 101.5q210 0 318.5 -89t76.5 -239q-13 -65 -64.5 -103t-113.5 -38q-57 0 -87 37.5t-17 101.5q15 67 69 109q-74 61 -203 61 q-131 0 -209 -62.5t-102 -170.5q-27 -127 33 -186.5t190 -59.5h742q38 0 47 -10t0 -55l-39 -248q-3 -23 -8 -29t-27 -6h-88q-22 0 -29 6t-6 25l11 88q3 44 -14.5 53.5t-92.5 9.5h-117l-98 -463q-12 -53 1.5 -68.5t61.5 -15.5h39q22 0 26 -5t1 -23l-18 -84q-5 -21 -12 -28 t-27 -7h-557q-119 0 -210 24t-153 72.5t-84 128t0 185.5zM328 416q-27 -126 44 -185t234 -57h191l110 520h-200q-64 0 -122 -15t-111.5 -46t-92 -86.5t-53.5 -130.5z" />
<glyph unicode="'" horiz-adv-x="432" d="M279 1063l61 395q2 25 27 34t92 9t87.5 -9t14.5 -34l-108 -395q-4 -22 -24 -29.5t-71 -7.5t-66.5 7.5t-12.5 29.5z" />
<glyph unicode="(" horiz-adv-x="722" d="M135 631q58 263 244.5 482t488.5 364q22 10 29.5 7.5t15.5 -20.5q9 -20 7 -30t-17 -21q-465 -324 -565 -782q-94 -465 233 -783q9 -10 7 -20.5t-19 -30.5q-15 -18 -23.5 -20t-27.5 8q-240 146 -334 365t-39 481z" />
<glyph unicode=")" horiz-adv-x="720" d="M-72 -203q-6 20 -3.5 30t16.5 21q462 322 563 783q93 460 -232 782q-9 11 -6.5 20.5t17.5 30.5q16 18 25 20.5t28 -7.5q239 -146 332.5 -365t38.5 -481q-58 -263 -244 -482t-488 -364q-15 -7 -23 -8t-13.5 3.5t-10.5 16.5z" />
<glyph unicode="*" horiz-adv-x="892" d="M231 920q-12 28 5 57.5t53 50.5q48 25 137.5 44.5t138.5 43.5q-39 28 -118.5 49t-114.5 49q-30 21 -33 51t23 60q26 33 63 33q30 0 55 -19q35 -26 76.5 -89.5t75.5 -92.5q7 48 -3 133.5t1 132.5q8 37 34.5 61.5t59.5 24.5q35 0 50 -25.5t7 -62.5q-11 -53 -53.5 -136 t-56.5 -134l2 2q48 28 121 94t123 92q35 20 66.5 15t41.5 -35q12 -28 -6.5 -59t-54.5 -50q-48 -26 -137 -47.5t-140 -46.5l-2 -2q38 -24 117 -46.5t117 -51.5q26 -20 29.5 -50.5t-21.5 -62.5q-24 -29 -57.5 -33t-59.5 17q-38 27 -78.5 95.5t-75.5 96.5q-5 -46 3.5 -133.5 t-5.5 -128.5q-8 -37 -34.5 -62.5t-61.5 -25.5q-33 0 -49 24.5t-8 61.5q11 52 55 133t57 127q-42 -26 -112 -88t-119 -88q-33 -20 -65.5 -14.5t-45.5 35.5z" />
<glyph unicode="+" horiz-adv-x="1007" d="M147 698q8 42 27.5 54t61.5 12h272l63 299q9 45 93 45q36 0 49.5 -11t7.5 -42l-62 -291h314q47 0 26 -80q-6 -35 -21 -51.5t-46 -16.5h-305l-64 -317q-11 -47 -94 -47q-42 0 -52.5 22.5t1.5 63.5l57 278h-309q-38 0 -19 82z" />
<glyph unicode="," horiz-adv-x="528" d="M-10 -250q-18 18 14 43q45 35 90.5 88.5t65.5 98.5q-49 3 -73 40t-11 97q14 66 62 108.5t112 42.5q62 0 90.5 -41.5t11.5 -117.5q-40 -182 -299 -377q-19 -13 -28 -14.5t-21 12.5z" />
<glyph unicode="-" d="M168 606l16 76q5 22 13.5 29.5t31.5 7.5h549q23 0 28 -9t-1 -28l-17 -76q-4 -23 -12.5 -30t-30.5 -7h-546q-22 0 -28.5 7t-2.5 30z" />
<glyph unicode="." horiz-adv-x="485" d="M51 117q13 64 65 107.5t109 43.5t88.5 -38t18.5 -103q-13 -64 -65.5 -105.5t-112.5 -41.5q-57 0 -86.5 37.5t-16.5 99.5z" />
<glyph unicode="/" horiz-adv-x="956" d="M-12 8l950 1512q14 22 23 28.5t26 3.5l146 -28q11 -3 14 -9t0 -13.5t-12 -24.5l-961 -1516q-11 -20 -19.5 -25.5t-23.5 -1.5l-139 31q-16 5 -17 11.5t13 31.5z" />
<glyph unicode="0" horiz-adv-x="1386" d="M166 758q35 162 103 298t163.5 237.5t223.5 158.5t274 57q122 0 215 -38t151 -107t87.5 -165t29 -212t-28.5 -248q-35 -164 -103 -302.5t-163.5 -242.5t-222.5 -162.5t-272 -58.5q-120 0 -213.5 39.5t-151.5 110t-90 169t-30 216t28 250.5zM391 760q-64 -306 1.5 -472.5 t250.5 -166.5q183 0 318.5 166.5t201.5 474.5q36 184 25 317.5t-82 208t-197 74.5q-190 0 -324 -160.5t-194 -441.5z" />
<glyph unicode="1" horiz-adv-x="784" d="M8 41l15 76q3 20 11.5 26.5t31.5 6.5h40q101 0 132.5 15t42.5 68l213 1002q6 32 -0.5 38t-42.5 -5l-146 -43q-21 -6 -28.5 0t-4.5 24l21 94q3 18 12.5 26.5t34.5 16.5l295 91q40 12 78 12q27 0 34 -12.5t1 -44.5l-254 -1199q-12 -54 11 -68.5t124 -14.5h43q23 0 28 -6 t2 -27l-16 -74q-6 -28 -14 -35.5t-31 -7.5h-606q-23 0 -27.5 6.5t0.5 34.5z" />
<glyph unicode="2" horiz-adv-x="1193" d="M14 47l11 53q4 30 28 59t72 68l641 531q191 156 227 329q25 112 -29.5 181t-197.5 69q-155 0 -268 -69q47 -38 32 -115q-13 -66 -63.5 -104.5t-112.5 -38.5q-58 0 -87.5 38t-16.5 101q33 167 182.5 257.5t376.5 90.5q101 0 179.5 -20t127.5 -56t79 -85.5t33.5 -109.5 t-9.5 -128q-25 -120 -112.5 -232t-232.5 -233l-563 -465h408q96 0 125.5 14t58.5 74l45 135q9 21 19.5 28t33.5 7h91q22 0 26.5 -8.5t-2.5 -30.5l-100 -321q-13 -43 -28.5 -54.5t-53.5 -11.5h-887q-25 0 -32 9t-1 38z" />
<glyph unicode="3" horiz-adv-x="1185" d="M25 74l22 104q5 29 27 29q3 0 57 -14q176 -48 324 -48q369 0 428 271q13 78 1 130.5t-53 85t-95.5 46.5t-125.5 14h-59q-25 0 -30 6t-1 31l23 100q4 21 13 26t32 5h57q313 0 365 246q24 109 -30 171t-196 62q-141 0 -247 -61q32 -40 20 -102q-14 -66 -65.5 -105 t-112.5 -39q-57 0 -88.5 38t-18.5 101q34 160 179.5 244t363.5 84q231 0 334 -104t65 -279q-15 -70 -46 -127t-67.5 -92.5t-82 -60.5t-83 -37t-75.5 -17q144 -13 217 -108t37 -266q-46 -218 -217 -326.5t-446 -108.5q-130 0 -252.5 20t-161.5 40q-19 9 -12 41z" />
<glyph unicode="4" horiz-adv-x="1155" d="M27 348l12 66q6 28 20 39l916 993q19 20 32 26.5t35 6.5h150q18 0 25 -7t0.5 -22t-27.5 -37l-885 -954h395l60 274q2 11 4.5 16.5t10.5 10t22 4.5h155q19 0 23.5 -8t-0.5 -21l-60 -276h189q26 0 33.5 -5.5t3.5 -25.5l-19 -82q-6 -37 -47 -37h-190l-15 -65 q-13 -59 0.5 -76.5t65.5 -17.5h49q22 0 27 -5.5t2 -25.5l-19 -82q-3 -21 -11.5 -29t-29.5 -8h-501q-22 0 -28.5 7t-2.5 28l18 84q3 18 11.5 24.5t31.5 6.5h68q45 0 66.5 15.5t33.5 61.5l19 82h-607q-29 0 -35.5 6.5t-0.5 32.5z" />
<glyph unicode="5" horiz-adv-x="1140" d="M8 61l19 99q4 17 12.5 26t15.5 7q5 -1 35 -10t62 -16.5t93 -14.5t130 -7q208 0 328 74.5t157 247.5q34 158 -39.5 226.5t-245.5 68.5q-73 0 -268 -10q-24 -4 -55 -4q-24 0 -29.5 14t10.5 63l222 619q14 35 53 35h622q55 0 68 -15t4 -75l-37 -222q-5 -23 -13.5 -33 t-25.5 -10h-75q-17 0 -23.5 9t-5.5 36l4 58q3 59 -17.5 71.5t-99.5 12.5h-321l-146 -408q88 10 248 10q58 0 107.5 -6t97.5 -21t84 -39t64.5 -61.5t43 -86.5t14 -116t-17.5 -149q-51 -236 -230.5 -348.5t-463.5 -112.5q-105 0 -212 14t-148 29q-20 7 -23.5 17t2.5 28z" />
<glyph unicode="6" horiz-adv-x="1216" d="M154 672q91 423 300 626t537 203q109 0 258 -26q22 -7 25.5 -13t-0.5 -26l-25 -113q-4 -22 -17 -26.5t-40 1.5q-107 23 -205 23q-250 0 -391.5 -147.5t-222.5 -471.5q37 74 87.5 127t107.5 81.5t112 41.5t113 13q224 0 331.5 -125.5t55.5 -368.5q-54 -251 -212.5 -372.5 t-392.5 -121.5q-133 0 -225.5 32.5t-144 89.5t-72 146t-14 191.5t34.5 235.5zM356 463q-33 -149 26.5 -237.5t201.5 -88.5q133 0 234 84t136 250q33 149 -27 236.5t-198 87.5t-240 -90.5t-133 -241.5z" />
<glyph unicode="7" horiz-adv-x="1058" d="M121 37l891 1274h-430q-93 0 -124.5 -12.5t-49.5 -63.5l-31 -96q-8 -20 -17 -27.5t-28 -7.5h-92q-20 0 -23 8.5t4 30.5l66 260q13 53 29.5 64.5t66.5 11.5h874q17 0 21.5 -6t1.5 -23l-10 -49q-12 -60 -86 -170l-822 -1194q-13 -22 -24.5 -29.5t-30.5 -7.5h-164 q-20 0 -26.5 9t4.5 28z" />
<glyph unicode="8" horiz-adv-x="1286" d="M94 438q15 70 47 129t69.5 99.5t84.5 72.5t88 50.5t84 31.5q-80 37 -114 115t-9 197q38 179 177.5 272.5t352.5 93.5q196 0 299.5 -80t96.5 -233q-18 -105 -37 -150q-56 -151 -217 -217q30 -11 57 -26t55.5 -39.5t48 -55.5t34.5 -74t14.5 -94.5t-11.5 -117.5 q-25 -115 -86.5 -201t-148.5 -137t-189 -76t-219 -25q-123 0 -218.5 25.5t-164 79t-94 145t-0.5 215.5zM317 420q-14 -77 -1 -131.5t53.5 -89t96.5 -50.5t128 -16q149 0 257.5 71t139.5 216q15 58 6 112.5t-36 96t-86.5 67.5t-143.5 27q-177 0 -281.5 -84.5t-132.5 -218.5z M555 1120q-25 -114 31 -171.5t170 -57.5q107 0 189.5 57t107.5 172q24 113 -31.5 171.5t-167.5 58.5q-113 0 -194 -58.5t-105 -171.5z" />
<glyph unicode="9" horiz-adv-x="1234" d="M76 45l26 125q4 18 13.5 22t29.5 1q9 -2 46.5 -10.5t61 -13t65.5 -9t83 -4.5q251 0 391.5 141t219.5 461q-72 -130 -185 -187t-239 -57q-215 0 -319.5 130.5t-53.5 367.5q50 232 210.5 360.5t403.5 128.5q197 0 304 -80t128.5 -233t-24.5 -377q-91 -431 -296.5 -632.5 t-539.5 -201.5q-128 0 -229.5 19t-95.5 49zM440 1012q-33 -151 30 -239.5t198 -88.5q134 0 235 87t133 233q32 156 -28 241.5t-201 85.5t-238.5 -85.5t-128.5 -233.5z" />
<glyph unicode=":" horiz-adv-x="505" d="M61 117q13 64 65.5 107.5t111.5 43.5q57 0 88 -38t18 -103q-13 -64 -66 -105.5t-114 -41.5q-57 0 -86.5 37.5t-16.5 99.5zM190 731q15 65 68 108.5t111 43.5q57 0 87.5 -38.5t16.5 -103.5q-13 -64 -65.5 -105.5t-112.5 -41.5q-57 0 -87 37.5t-18 99.5z" />
<glyph unicode=";" horiz-adv-x="536" d="M-49 -272q-4 10 8 18q67 48 126.5 112.5t88.5 121.5q-51 5 -76 41.5t-12 95.5q13 64 65 107.5t109 43.5q58 0 90 -38t19 -103q-6 -27 -23 -51q-67 -191 -340 -393q-12 -9 -22 -2q-30 22 -33 47zM211 731q15 65 67 108.5t109 43.5q58 0 89 -38.5t16 -103.5 q-13 -64 -65 -105.5t-112 -41.5q-57 0 -86.5 37.5t-17.5 99.5z" />
<glyph unicode="&#x3c;" horiz-adv-x="1200" d="M115 571q11 55 30.5 80t71.5 45l916 361q38 14 61 14q44 0 37 -67q-10 -62 -25.5 -83.5t-77.5 -43.5l-774 -306h4l646 -303q51 -23 58 -47.5t-11 -81.5q-10 -31 -22.5 -46.5t-36.5 -20t-60 13.5l-764 360q-42 20 -52 45.5t3 79.5h-4z" />
<glyph unicode="=" horiz-adv-x="1095" d="M145 485q8 42 33.5 55t77.5 13h705q57 0 36 -82q-7 -32 -23 -48.5t-52 -16.5h-736q-56 0 -41 79zM215 817q10 44 34.5 56t76.5 12h704q55 0 39 -82q-7 -32 -24.5 -49t-53.5 -17h-735q-56 0 -41 80z" />
<glyph unicode="&#x3e;" horiz-adv-x="1202" d="M66 139q5 35 8.5 49.5t14.5 31t28 25.5t49 21l776 305h236q11 54 1 79.5t-53 45.5l-764 361q-35 18 -59 13.5t-36.5 -20t-22.5 -46.5q-16 -57 -9.5 -81t56.5 -46l647 -306h4h236h4q-12 -55 -32.5 -80t-72.5 -45l-917 -360q-64 -21 -82.5 -7.5t-11.5 60.5z" />
<glyph unicode="?" horiz-adv-x="1069" d="M229 1139q13 61 54 122t107 115t168.5 87.5t223.5 33.5q218 0 318 -108.5t65 -276.5q-19 -90 -67.5 -168.5t-106.5 -131.5t-124.5 -105.5t-122 -93t-97.5 -91.5t-53 -104l-4 -21q-6 -23 -20 -31t-40 -8h-98q-29 0 -38 14.5t-3 47.5q12 56 45 108t77.5 93.5t96 82.5 t103.5 84t97 88t79.5 104t48.5 124q12 45 4 87t-29.5 74.5t-68 52t-111.5 19.5q-155 0 -252 -90q43 -43 29 -112q-13 -66 -63.5 -105t-112.5 -39q-61 0 -89.5 40.5t-13.5 107.5h-2zM287 113q13 63 65 103t111 40q58 0 89.5 -38.5t16.5 -102.5q-13 -65 -64 -103.5t-112 -38.5 q-57 0 -88 38t-18 102z" />
<glyph unicode="@" horiz-adv-x="1765" d="M160 694q34 165 125.5 310t222.5 251.5t304 168t362 61.5q154 0 279 -45t207 -130.5t113.5 -208.5t-1.5 -280q-32 -150 -114.5 -277t-191.5 -199.5t-217 -72.5q-86 0 -125 46t-28 131q-69 -83 -158 -130t-180 -47q-59 0 -108 20.5t-84.5 62.5t-47 106t5.5 151 q21 99 76.5 193t135.5 168.5t188 120t225 45.5q79 0 135 -18t87 -48t44 -72.5t10 -88.5t-18 -99q-34 -108 -119 -278q-28 -75 -17.5 -106.5t48.5 -31.5q82 0 174.5 129.5t126.5 288.5q27 133 1.5 235t-94 170t-165.5 103t-213 35q-151 0 -288.5 -54.5t-239.5 -147t-173 -214 t-100 -256.5q-31 -144 -7 -259.5t91.5 -196.5t176.5 -124t247 -43q110 0 237.5 24.5t225.5 66.5q21 9 30 12.5t20.5 5t10.5 -6t0 -20.5l-14 -51q-3 -13 -4.5 -18.5t-9 -13.5t-21.5 -15q-68 -40 -217 -71t-297 -31q-236 0 -401.5 92t-234 263t-21.5 394zM690 596 q-21 -99 11.5 -151t109.5 -52q83 0 172 56.5t159 157t95 216.5q43 193 -117 193q-97 0 -190.5 -64.5t-155.5 -160t-84 -195.5z" />
<glyph unicode="A" horiz-adv-x="1454" d="M-61 35l16 74q5 21 13.5 30.5t27.5 10.5l59 2q29 2 48.5 18.5t52.5 77.5l669 1208q11 21 20.5 27t37.5 6h168q20 0 28.5 -6t12.5 -25l159 -1200q5 -39 9 -57.5t14.5 -30.5t23.5 -14.5t41 -3.5l39 -2q27 0 33.5 -7t1.5 -28l-16 -78q-5 -24 -13 -30.5t-34 -6.5h-449 q-27 0 -34 6t-3 29l17 74q3 19 13 26t40 10h29q57 4 73.5 26t3.5 79l-28 231h-547l-131 -243q-26 -54 -16 -71t61 -20h29q25 -3 31 -11.5t3 -29.5l-16 -69q-4 -23 -13 -30t-34 -7h-414q-19 0 -24.5 6.5t-1.5 28.5zM547 629h446l-84 667z" />
<glyph unicode="B" horiz-adv-x="1351" d="M16 35l17 74q8 41 39 41q89 0 118.5 16.5t42.5 77.5l11 53h-2l202 948q8 42 -2 60.5t-43 21.5h-77q-19 0 -24 7.5t-1 27.5l16 82q4 21 13.5 28t33.5 7h545q263 0 376.5 -87t70.5 -292q-15 -72 -50 -130t-80.5 -94.5t-94 -58.5t-99.5 -29l-2 -2q150 -21 222.5 -119.5 t35.5 -263.5q-22 -102 -69 -176t-107 -117t-145.5 -68.5t-166 -33.5t-186.5 -8h-565q-20 0 -26.5 7t-2.5 28zM424 152h242q53 0 96 5t93.5 21t87 43.5t67.5 76t45 114.5q34 158 -41 225.5t-248 67.5h-223zM575 866h230q138 0 214.5 58.5t104.5 185.5q7 45 7 78.5t-14.5 57.5 t-33.5 40t-49.5 25t-63 12.5t-73.5 3.5h-223z" />
<glyph unicode="C" horiz-adv-x="1400" d="M164 756q33 161 109.5 296.5t188 234.5t262.5 154.5t325 55.5q78 0 144.5 -11.5t114 -31.5t85 -47t59 -59t35.5 -67t13.5 -71t-5.5 -71q-14 -65 -65.5 -103.5t-112.5 -38.5q-58 0 -89 38t-18 102q9 39 36 72t63 53q-88 75 -271 75q-136 0 -250 -49t-194 -135.5 t-133.5 -195t-81.5 -236.5q-19 -99 -20 -185.5t27 -158t79 -123t136.5 -79.5t199.5 -28q82 0 155.5 9.5t134.5 27.5t96.5 31.5t82.5 34.5q27 14 42.5 13t10.5 -30l-23 -114q-7 -29 -43 -45q-72 -37 -201.5 -67t-301.5 -30q-169 0 -296 47t-208.5 143t-103.5 242.5t18 346.5z " />
<glyph unicode="D" horiz-adv-x="1519" d="M14 35l17 74q8 41 39 41q89 0 118.5 16.5t42.5 77.5l213 1003q8 40 -2.5 59.5t-42.5 22.5h-77q-19 0 -24 6.5t-1 26.5l16 82q4 21 13.5 28t33.5 7h500q415 0 576.5 -192t79.5 -580q-74 -355 -315 -531t-638 -176h-520q-20 0 -26.5 7t-2.5 28zM426 162h147 q311 0 484 136.5t237 438.5q66 313 -51.5 450.5t-429.5 137.5h-139z" />
<glyph unicode="E" horiz-adv-x="1282" d="M14 35l17 74q8 41 39 41q89 0 118.5 16.5t42.5 77.5l213 1001q8 42 -2 61.5t-43 22.5h-77q-19 0 -24 6.5t-1 26.5l16 82q4 21 13.5 28t33.5 7h936q58 0 71 -15t1 -82l-35 -229q-3 -30 -11 -39.5t-34 -9.5h-80q-24 0 -30.5 8t-3.5 37l10 86q6 67 -29 81.5t-166 14.5h-313 l-113 -528h211q57 0 74 57l18 70q7 23 16 29t33 6h72q22 0 27 -7.5t0 -29.5l-86 -400q-3 -21 -10 -28.5t-27 -7.5h-76q-22 0 -29 6.5t-6 27.5l11 70q8 59 -48 59h-211l-108 -508h391q95 0 126 17.5t63 91.5l45 135q9 21 19.5 28t33.5 7h90q22 0 27 -8.5t-2 -30.5l-101 -321 q-13 -43 -28.5 -54.5t-53.5 -11.5h-991q-20 0 -26.5 7t-2.5 28z" />
<glyph unicode="F" horiz-adv-x="1241" d="M14 35l19 84q3 18 11.5 24.5t31.5 6.5h47q45 0 67.5 16t34.5 61l217 1018q8 43 -1.5 62t-43.5 22h-78q-18 0 -23 6.5t-1 26.5l16 82q4 21 13.5 28t33.5 7h969q57 0 69.5 -15t2.5 -82l-35 -229q-5 -31 -12.5 -40t-34.5 -9h-80q-23 0 -30.5 8.5t-4.5 36.5l10 86 q6 67 -28 81.5t-164 14.5h-346l-115 -538h242q56 0 73 57l21 70q7 23 16 28.5t33 5.5h72q22 0 26.5 -7t-0.5 -29l-86 -400q-3 -20 -12 -28.5t-29 -8.5h-73q-23 0 -29.5 6.5t-3.5 28.5l8 70q8 59 -49 59h-242l-84 -401q-13 -59 1.5 -76.5t66.5 -17.5h49q24 0 29 -5.5t2 -25.5 l-19 -82q-3 -21 -12.5 -29t-30.5 -8h-483q-22 0 -28.5 7t-2.5 28z" />
<glyph unicode="G" horiz-adv-x="1464" d="M160 762q34 161 110.5 296t188.5 232.5t261.5 152t321.5 54.5q97 0 176 -14.5t131.5 -40.5t91 -61t55 -76t22 -86t-6.5 -91q-14 -65 -65.5 -103t-112.5 -38q-58 0 -88.5 37.5t-17.5 101.5q10 43 38.5 76t67.5 51q-92 86 -297 86q-105 0 -199 -31.5t-166.5 -87.5 t-131 -133.5t-97.5 -167.5t-61 -192q-58 -271 44.5 -426.5t346.5 -155.5q182 0 354 88l58 277q11 45 -37 45h-209q-33 0 -25 35l17 82q9 41 39 41h426q35 0 28 -33l-135 -637q-9 -43 -45 -43h-76q-24 0 -34 7.5t-11 27.5l-2 26q-172 -86 -366 -86q-165 0 -292.5 48 t-211.5 146t-108 245.5t18 347.5z" />
<glyph unicode="H" horiz-adv-x="1607" d="M12 35l19 84q3 18 11.5 24.5t31.5 6.5h49q49 0 71.5 18.5t34.5 75.5l211 991q12 57 -2 75.5t-63 18.5h-53q-22 0 -27 6.5t0 26.5l16 80q4 23 13 30t30 7h486q22 0 27 -7t1 -30l-16 -80q-4 -21 -12.5 -27t-32.5 -6h-53q-49 0 -69 -17.5t-32 -76.5l-90 -422h672l90 422 q12 57 -2 75.5t-63 18.5h-52q-23 0 -28 6t0 27l16 80q4 22 14 29.5t31 7.5h485q21 0 26 -7t1 -30l-16 -80q-4 -22 -12 -27.5t-31 -5.5h-54q-51 0 -69.5 -17t-30.5 -77l-211 -991q-13 -59 1.5 -76.5t64.5 -17.5h51q22 0 27 -5.5t2 -25.5l-19 -82q-3 -20 -12 -28.5t-29 -8.5 h-485q-22 0 -28.5 7t-2.5 28l19 84q3 18 11.5 24.5t31.5 6.5h49q48 0 70 19t34 75l90 422h-672l-90 -422q-13 -59 1.5 -76.5t64.5 -17.5h51q22 0 27 -5.5t2 -25.5l-19 -82q-3 -21 -11.5 -29t-29.5 -8h-485q-22 0 -28.5 7t-2.5 28z" />
<glyph unicode="I" horiz-adv-x="720" d="M12 35l19 84q3 18 11.5 24.5t31.5 6.5h49q49 0 71.5 18.5t34.5 75.5l211 991q12 57 -2 75.5t-63 18.5h-53q-22 0 -27 6.5t0 26.5l16 80q4 23 13 30t30 7h486q22 0 27 -7t1 -30l-16 -80q-4 -21 -12.5 -27t-32.5 -6h-53q-49 0 -69 -17.5t-32 -76.5l-211 -991 q-13 -59 1.5 -76.5t64.5 -17.5h51q22 0 27 -5.5t2 -25.5l-19 -82q-3 -21 -11.5 -29t-29.5 -8h-485q-22 0 -28.5 7t-2.5 28z" />
<glyph unicode="J" horiz-adv-x="1107" d="M35 322q13 64 62 103.5t114 39.5q62 0 90.5 -37.5t15.5 -103.5q-10 -49 -42 -83t-76 -48q52 -58 170 -58q131 0 214 95t119 270l158 735q12 57 -2 75.5t-63 18.5h-52q-23 0 -28 6t0 27l16 80q4 23 13.5 30t31.5 7h484q22 0 27 -7t1 -30l-16 -80q-4 -22 -12 -27.5 t-33 -5.5h-53q-49 0 -69 -17.5t-32 -76.5l-160 -752q-52 -236 -185 -368.5t-351 -132.5q-78 0 -138.5 13t-99.5 36t-65.5 55t-36 69.5t-11.5 80t9 86.5z" />
<glyph unicode="K" horiz-adv-x="1472" d="M12 35l19 84q3 18 11.5 24.5t31.5 6.5h49q49 0 71.5 18.5t34.5 75.5l211 991q12 57 -2 75.5t-63 18.5h-53q-22 0 -27 6.5t0 26.5l16 80q4 23 13 30t30 7h486q22 0 27 -7t1 -30l-16 -80q-4 -21 -12.5 -27t-32.5 -6h-53q-49 0 -69 -17.5t-32 -76.5l-106 -496l616 531 q61 50 31 57q-8 2 -20 2h-52q-37 0 -24 49l12 64q4 23 13.5 30t31.5 7h459q21 0 26 -7t0 -30l-14 -72q-5 -20 -14.5 -30.5t-30.5 -10.5h-90q-61 0 -158 -82l-444 -375q41 -2 76.5 -11t63.5 -26.5t51 -37.5t41 -52t32 -61.5t25 -74.5t18.5 -82t14 -93.5t11 -99.5t9.5 -109 q9 -44 27 -61t53 -17q26 0 80 25q19 9 25.5 2.5t2.5 -29.5l-18 -84q-5 -21 -14.5 -32t-34.5 -21q-64 -31 -135 -31q-34 0 -58 4.5t-51.5 20t-46 50.5t-27.5 89q-6 35 -12 98t-11.5 114.5t-15.5 114t-28 110t-44.5 89t-68.5 63.5t-96 22h-10l-242 -203l-64 -305 q-13 -59 1.5 -76.5t64.5 -17.5h51q22 0 27 -5.5t2 -25.5l-19 -82q-3 -21 -11.5 -29t-29.5 -8h-485q-22 0 -28.5 7t-2.5 28z" />
<glyph unicode="L" horiz-adv-x="1232" d="M14 35l17 74q8 41 39 41q89 0 118.5 16.5t42.5 77.5l211 991q12 57 -2 75.5t-63 18.5h-53q-22 0 -27 6.5t0 26.5l16 80q4 23 13 30t30 7h486q22 0 27 -7t1 -30l-16 -80q-4 -21 -12.5 -27t-32.5 -6h-53q-49 0 -69 -17.5t-32 -76.5l-231 -1088h367q95 0 125.5 17.5 t62.5 91.5l43 135q11 21 21.5 28t33.5 7h90q21 0 26 -8.5t-3 -30.5l-98 -321q-13 -43 -28.5 -54.5t-53.5 -11.5h-967q-20 0 -26.5 7t-2.5 28z" />
<glyph unicode="M" horiz-adv-x="1949" d="M6 35l17 84q5 20 11.5 25.5t28.5 5.5h54q54 0 75.5 12t30.5 53l219 1036q8 52 -8.5 66t-64.5 16h-33q-21 1 -27.5 9t-3.5 26l17 76q4 21 14 28t31 7h346q23 0 31 -11.5t10 -33.5l196 -1266l725 1276q12 21 27 28t47 7h317q22 0 27.5 -6.5t1.5 -28.5l-14 -70 q-7 -39 -45 -41l-72 -2q-67 0 -82 -78l-217 -1020q-12 -54 -3 -68.5t52 -14.5h74q24 0 31 -8t2 -29l-17 -78q-4 -21 -14 -28t-33 -7h-481q-22 0 -28.5 7t-2.5 28l17 78q5 22 13 29.5t32 7.5h63q46 0 67 16.5t31 66.5l187 877l-608 -1087q-13 -20 -23 -25.5t-41 -5.5h-170 q-24 0 -33 5.5t-12 22.5l-180 1125l-197 -930q-9 -42 7 -53.5t71 -11.5h53q24 0 29.5 -5.5t1.5 -25.5l-18 -84q-4 -21 -13 -28t-30 -7h-459q-20 0 -25.5 6.5t-1.5 28.5z" />
<glyph unicode="N" horiz-adv-x="1622" d="M10 35l19 82q3 20 11.5 26.5t31.5 6.5h45q51 0 74 15t32 58l219 1039q6 40 -8 53.5t-57 13.5h-51q-22 0 -27 6.5t0 26.5l16 82q4 21 13.5 28t29.5 7h260q47 0 60 -31l526 -1129l199 936q9 46 -7 60t-67 14h-49q-23 0 -27.5 5.5t0.5 25.5l17 82q4 23 13 30t30 7h444 q23 0 29 -6.5t0 -28.5l-17 -82q-5 -20 -13.5 -26.5t-31.5 -6.5h-45q-51 0 -73 -15.5t-31 -58.5l-264 -1239q-3 -19 -12.5 -25.5t-34.5 -6.5h-54q-43 0 -53 26l-561 1153l-199 -940q-10 -46 4.5 -59.5t65.5 -13.5h49q24 0 29.5 -5.5t1.5 -25.5l-19 -82q-4 -23 -12.5 -30 t-30.5 -7h-444q-22 0 -28.5 6.5t-2.5 28.5z" />
<glyph unicode="O" horiz-adv-x="1619" d="M160 774q22 106 62.5 203.5t111 195t162 168.5t224 115.5t288.5 44.5q122 0 221.5 -23t170 -64.5t121.5 -100t79 -127.5t39.5 -150t6.5 -164t-24 -172q-19 -87 -51 -169t-80.5 -166t-117.5 -153t-155 -123.5t-201 -85t-247 -30.5q-122 0 -221.5 23t-169.5 64.5 t-120.5 100t-78 127.5t-38.5 150t-6 164t24 172zM383 739q-18 -85 -21.5 -164t14.5 -162t60.5 -143.5t126 -99.5t201.5 -39q116 0 214.5 38t166 98t120.5 141.5t83.5 160.5t48.5 164q12 58 17.5 114.5t2 118t-17.5 115t-44 102.5t-74 84t-111.5 55.5t-153.5 20.5 q-113 0 -210.5 -37t-165.5 -96t-121.5 -140.5t-85 -162t-50.5 -168.5z" />
<glyph unicode="P" horiz-adv-x="1304" d="M14 35l19 84q3 18 11.5 24.5t31.5 6.5h47q49 0 71.5 18.5t34.5 75.5l213 1001q8 43 -1.5 62t-43.5 22h-78q-18 0 -23 6.5t-1 26.5l16 82q4 21 13.5 28t33.5 7h478q93 0 168 -7.5t139.5 -24.5t110 -43.5t79.5 -65t49 -88.5t17 -114.5t-17 -142.5q-46 -214 -213.5 -325 t-412.5 -111h-248l-66 -313q-13 -59 1.5 -76.5t66.5 -17.5h49q24 0 29 -5.5t2 -25.5l-19 -82q-3 -21 -12.5 -29t-30.5 -8h-483q-22 0 -28.5 7t-2.5 28zM541 705h170q382 0 450 319q35 165 -46.5 236t-285.5 71h-155z" />
<glyph unicode="Q" horiz-adv-x="1619" d="M160 774q22 106 62.5 203.5t111 195t162 168.5t224 115.5t288.5 44.5q122 0 221.5 -23t170 -64.5t121.5 -100t79 -127.5t39.5 -150t6.5 -164t-24 -172q-23 -103 -64 -199t-105 -190t-160 -169t-214 -117q57 -36 99 -99q46 -70 69 -90q29 -24 62 -24q36 0 96 22q19 8 26 3 t3 -27l-21 -91q-7 -38 -68 -57.5t-120 -19.5q-66 0 -114.5 22t-82 57t-80.5 103q-48 65 -99 99t-136 50l-2 2q-111 6 -201.5 32.5t-154.5 69t-109.5 101t-71 126t-34.5 146t-3.5 158.5t23.5 166zM383 739q-18 -85 -21.5 -164t14.5 -162t60.5 -143.5t126 -99.5t201.5 -39 q116 0 214.5 38t166 98t120.5 141.5t83.5 160.5t48.5 164q12 58 17.5 114.5t2 118t-17.5 115t-44 102.5t-74 84t-111.5 55.5t-153.5 20.5q-113 0 -210.5 -37t-165.5 -96t-121.5 -140.5t-85 -162t-50.5 -168.5z" />
<glyph unicode="R" horiz-adv-x="1335" d="M12 35l19 84q3 18 11.5 24.5t31.5 6.5h49q49 0 71.5 18.5t34.5 75.5l213 1001q8 42 -2 61.5t-43 22.5h-78q-19 0 -23.5 6.5t-0.5 26.5l16 82q4 21 13.5 28t33.5 7h476q296 0 413 -107.5t64 -357.5q-33 -155 -132 -252t-247 -137q55 -40 86.5 -130.5t66.5 -279.5 q7 -44 24.5 -60t49.5 -16q37 0 86 21q36 16 29 -17l-17 -82q-4 -20 -14 -30.5t-35 -22.5q-67 -31 -153 -31q-28 0 -47 2.5t-43 12t-40.5 26t-32 48t-24.5 75.5q-5 25 -13 75.5t-15 86.5t-19 85t-28.5 82.5t-39.5 64.5t-56.5 47t-75.5 16h-103l-76 -354q-13 -59 1.5 -76.5 t64.5 -17.5h51q22 0 27 -5.5t2 -25.5l-19 -82q-3 -21 -11.5 -29t-29.5 -8h-485q-22 0 -28.5 7t-2.5 28zM549 745h158q162 0 255 73t125 226q32 151 -36 219t-234 68h-143z" />
<glyph unicode="S" horiz-adv-x="1210" d="M55 309q13 67 61 108.5t113 41.5q61 0 91.5 -38t15.5 -104q-14 -76 -86 -118q86 -72 293 -72q336 0 389 248q13 64 0.5 113t-45 79.5t-79.5 56t-102 42.5t-112 38t-111 42.5t-98.5 57t-73.5 81t-37 114.5t11 158q36 174 173.5 258t358.5 84q266 0 382.5 -89t80.5 -247 q-13 -66 -64.5 -104.5t-113.5 -38.5q-57 0 -87.5 38t-17.5 101q15 73 80 115q-83 72 -264 72q-291 0 -334 -199q-14 -65 3.5 -114t58.5 -78.5t96.5 -55.5t118.5 -44.5t125.5 -46.5t115.5 -61t89.5 -87t47.5 -126t-10 -178q-78 -383 -596 -383q-269 0 -388.5 85t-84.5 251z " />
<glyph unicode="T" horiz-adv-x="1275" d="M217 1143l72 270q13 45 26 55.5t52 10.5h1017q39 0 49 -10.5t1 -55.5l-41 -270q-3 -24 -9.5 -31.5t-31.5 -7.5h-84q-24 0 -31 7t-4 28l14 116q3 45 -21 55.5t-116 10.5h-160l-229 -1077q-13 -59 1 -76.5t64 -17.5h52q22 0 26.5 -5.5t1.5 -25.5l-18 -82q-3 -21 -11.5 -29 t-29.5 -8h-485q-22 0 -28.5 7t-2.5 28l18 84q3 18 11.5 24.5t31.5 6.5h49q45 0 68.5 16t34.5 61l233 1094h-172q-84 0 -111.5 -10.5t-41.5 -55.5l-37 -116q-7 -23 -16 -29t-33 -6h-84q-24 0 -28 8t3 31z" />
<glyph unicode="U" horiz-adv-x="1589" d="M256 539l150 696q12 57 -2.5 75.5t-63.5 18.5h-51q-23 0 -28.5 6t-0.5 27l16 80q4 22 14.5 29.5t31.5 7.5h483q22 0 27.5 -7t1.5 -30l-17 -80q-4 -22 -12 -27.5t-33 -5.5h-53q-49 0 -69 -17.5t-32 -76.5l-143 -672q-44 -204 28 -303.5t259 -99.5q182 0 303.5 98.5 t165.5 308.5l145 678q10 51 -4 67.5t-63 16.5h-52q-23 0 -28 6t0 27l16 80q4 23 13.5 30t31.5 7h453q22 0 27.5 -7t1.5 -30l-17 -80q-4 -22 -12 -27.5t-33 -5.5h-53q-49 0 -68.5 -15.5t-29.5 -68.5l-148 -688q-121 -571 -686 -571q-289 0 -407 143t-62 410z" />
<glyph unicode="V" horiz-adv-x="1452" d="M201 1364l16 78q4 23 14 30t35 7h445q27 0 32.5 -6t-0.5 -29l-14 -74q-5 -20 -14 -27t-37 -10h-29q-59 -5 -72.5 -24.5t-5.5 -79.5l127 -1049l578 1061q28 54 17.5 70.5t-60.5 19.5h-29q-27 3 -33.5 11.5t-1.5 29.5l15 70q4 23 14.5 30t36.5 7h420q20 0 26 -6.5t0 -28.5 l-14 -74q-5 -22 -14 -31t-33 -10l-64 -2q-29 -2 -47 -18t-53 -78l-668 -1217q-13 -20 -21 -25t-36 -5h-170q-20 0 -28 5.5t-11 22.5l-160 1209q-11 72 -24 88.5t-64 17.5l-38 2q-26 0 -33 7t-2 28z" />
<glyph unicode="W" horiz-adv-x="2084" d="M215 1378l14 68q3 20 10.5 26.5t26.5 6.5h467q21 0 26.5 -6t2.5 -27l-19 -84q-7 -33 -38 -33h-54t-35 -4.5t-23 -7.5t-10 -17t-5 -25v-39v-7l49 -1026l553 1227q14 33 21.5 41t27.5 8h164h8.5t6.5 -1.5l5 -2.5t3.5 -4t2 -4.5t1.5 -7t1 -8.5t1 -11t1 -13l43 -1161l459 965 q21 44 23 57q6 26 -16 33.5t-89 7.5q-18 0 -23.5 8.5t-2.5 26.5l18 82q5 23 11.5 28t37.5 5h402q21 0 25 -6t-1 -29l-16 -76q-2 -12 -5.5 -19.5t-12 -13.5t-23.5 -6q-81 0 -105.5 -16t-60.5 -96l-565 -1184q-17 -33 -27.5 -40t-40.5 -7h-141q-26 0 -33.5 10.5t-9.5 36.5 l-49 1128l-498 -1128q-13 -32 -24 -40.5t-35 -8.5h-191q-21 0 -29.5 9.5t-9.5 37.5l-76 1190q-4 77 -21 92.5t-87 15.5q-30 0 -36 10t1 39z" />
<glyph unicode="X" horiz-adv-x="1372" d="M-55 37l16 74q7 41 41 41h49q35 0 62 14t77 67l472 523l-228 475q-34 64 -56.5 80t-68.5 16h-37q-33 0 -26 37l18 82q4 21 12 27t29 6h422q21 0 27 -5.5t2 -25.5l-19 -80q-7 -37 -41 -37h-45q-10 0 -15 -2t-4.5 -8.5t4 -14.5t11.5 -24l170 -354l311 346q22 24 25.5 36 t-4.5 15.5t-29 3.5h-45q-32 0 -24 39l16 76q4 21 13 28t28 7h410q20 0 24.5 -6.5t-0.5 -28.5l-16 -78q-3 -19 -12 -28t-29 -9h-37q-37 0 -63 -13t-74 -59l-424 -473l254 -528q33 -65 57.5 -84.5t58.5 -19.5h37q43 0 33 -39l-14 -74q-5 -23 -14 -31t-33 -8h-414 q-25 0 -31.5 8t-1.5 31l15 70q3 20 13 29t36 9h37q15 0 20 3.5t1.5 17.5t-17.5 43l-193 399l-362 -403q-24 -26 -27.5 -38t4.5 -14.5t31 -2.5h55q34 0 27 -43l-17 -72q-4 -23 -12 -30t-29 -7h-428q-21 0 -26.5 7t-1.5 30z" />
<glyph unicode="Y" horiz-adv-x="1316" d="M211 1368l16 76q4 21 13.5 28t31.5 7h435q22 0 27 -6t-1 -29l-14 -72q-5 -23 -13 -32t-30 -9h-41q-16 0 -25.5 -2t-18.5 -9t-7.5 -19t8.5 -33l158 -514l401 516q20 24 22.5 37.5t-6.5 17.5t-30 4h-41q-22 0 -27.5 12.5t0.5 32.5l14 70q6 22 15 28.5t30 6.5h392 q21 0 26 -8t0 -27l-14 -74q-5 -22 -15 -31.5t-32 -9.5h-49q-26 0 -43.5 -12.5t-57.5 -63.5l-512 -622l-82 -387q-13 -59 0.5 -76.5t65.5 -17.5h49q24 0 29 -5.5t2 -25.5l-19 -82q-3 -21 -12.5 -29t-30.5 -8h-483q-22 0 -28.5 7t-2.5 28l19 84q3 18 11.5 24.5t31.5 6.5h47 q45 0 67.5 16t34.5 61l80 373l-223 629q-21 59 -40.5 78.5t-53.5 19.5h-43q-22 0 -28 9.5t-3 31.5z" />
<glyph unicode="Z" horiz-adv-x="1234" d="M10 43l15 76q8 31 16 39l1034 1173h-475q-76 0 -109.5 -38t-87.5 -177q-8 -21 -17.5 -30t-27.5 -9h-94q-16 0 -18.5 10.5t4.5 32.5l88 326q9 33 47 33h952q22 0 27 -13t-2 -32l-10 -54q-8 -34 -41 -71l-1022 -1162h530q33 0 51.5 5t41.5 30t43.5 62.5t60.5 117.5 q12 23 21 31t28 8h88q17 0 20.5 -9.5t-4.5 -31.5l-106 -329q-6 -17 -16.5 -24t-30.5 -7h-991q-24 3 -15 43z" />
<glyph unicode="[" horiz-adv-x="610" d="M37 -258l364 1720q9 39 25 53.5t49 14.5h264q59 0 49 -37l-12 -63q-6 -30 -18.5 -39t-44.5 -9h-125l-332 -1560h125q31 0 40 -9t3 -36l-12 -64q-10 -39 -66 -39h-264q-34 0 -44 15t-1 53z" />
<glyph unicode="\" horiz-adv-x="897" d="M283 1395q-12 52 12 76t84 24q49 0 71.5 -6.5t31 -19.5t16.5 -46l272 -1329q8 -38 6 -55q-13 -62 -112 -62q-59 0 -77 13.5t-26 58.5z" />
<glyph unicode="]" horiz-adv-x="610" d="M-72 -287l13 64q6 27 18.5 36t40.5 9h125l332 1560h-125q-32 0 -40.5 9t-2.5 39l12 63q10 37 66 37h264q34 0 44 -15t1 -53l-365 -1720q-9 -38 -25 -53t-48 -15h-261q-33 0 -42.5 10t-6.5 29z" />
<glyph unicode="^" horiz-adv-x="1130" d="M211 915l479 572q26 33 50.5 42t72.5 9q50 0 72 -9t33 -42l237 -572q16 -43 -4.5 -58t-73.5 -15q-63 0 -81.5 10.5t-37.5 52.5l-186 438l-373 -438q-35 -42 -57.5 -52.5t-85.5 -10.5q-26 0 -41 3t-24 10.5t-4 22.5t24 37z" />
<glyph unicode="_" horiz-adv-x="1701" d="M18 -98q10 43 36 55t83 12h1311q55 0 39 -84q-8 -36 -24.5 -51.5t-53.5 -15.5h-1352q-53 0 -39 84z" />
<glyph unicode="`" horiz-adv-x="559" d="M266 1450l78 98q11 14 22 14.5t33 -12.5l267 -147q18 -12 17.5 -20t-13.5 -29l-27 -37q-11 -14 -22 -17.5t-35 3.5l-307 102q-38 13 -13 45z" />
<glyph unicode="a" horiz-adv-x="1245" d="M109 522q59 275 222 431.5t394 156.5q145 0 256 -86q5 37 18.5 54.5t42.5 17.5l275 -19q20 -2 25 -8.5t1 -28.5l-16 -82q-5 -25 -43 -34h-63q-36 -7 -51.5 -22t-26.5 -68l-127 -598q-18 -91 43 -91q17 0 29.5 1.5t24.5 5t20 4.5q14 2 19.5 -2.5t2.5 -18.5l-18 -86 q-7 -31 -39 -41q-56 -18 -144 -18q-72 0 -117 33.5t-40 119.5q-141 -170 -375 -170q-201 0 -286.5 135.5t-26.5 413.5zM319 504q-18 -76 -16.5 -143t19 -117.5t61.5 -79.5t111 -29q265 0 383 397l71 336q-33 34 -93 57t-132 23q-80 0 -148.5 -35.5t-118 -97.5t-84 -140.5 t-53.5 -170.5z" />
<glyph unicode="b" horiz-adv-x="1187" d="M88 96l262 1225q8 40 -1.5 56.5t-41.5 17.5l-74 2q-20 1 -25 11.5t1 29.5l14 69q4 24 12 30.5t31 8.5l291 17q28 1 35 -13t0 -45l-129 -604q138 209 375 209q207 0 288 -138.5t25 -420.5q-120 -578 -629 -578q-149 0 -264 26.5t-158 53.5q-12 7 -14 16.5t2 26.5zM305 172 q98 -37 221 -37q314 0 404 420q17 83 20 149t-11.5 123.5t-59 89t-117.5 31.5q-125 0 -223.5 -103.5t-153.5 -301.5z" />
<glyph unicode="c" horiz-adv-x="1097" d="M113 541q57 269 236.5 421t434.5 152q70 0 127.5 -12.5t95 -33.5t65 -49t38 -59.5t15 -65t-4.5 -65.5q-14 -61 -58.5 -100t-105.5 -39q-59 0 -87.5 36.5t-16.5 96.5q12 64 63 105q-61 28 -161 28q-89 0 -162.5 -32.5t-124 -90t-84 -129.5t-51.5 -159q-40 -191 28 -291 t263 -100q153 0 325 67q38 13 47.5 9t3.5 -33l-20 -93q-3 -19 -10 -26.5t-23 -14.5q-52 -29 -154 -54t-225 -25q-290 0 -400.5 146t-53.5 411z" />
<glyph unicode="d" horiz-adv-x="1239" d="M109 504q60 284 222.5 445t393.5 161q85 0 142.5 -21.5t113.5 -66.5l63 299q7 40 -2.5 56t-40.5 18l-73 2q-20 1 -25.5 11.5t0.5 29.5l15 69q4 24 12 30.5t31 8.5l290 17q27 1 34 -12.5t1 -45.5l-274 -1284q-12 -76 49 -76q16 0 28 1.5t24 5t20 4.5q14 2 19.5 -2.5 t2.5 -18.5l-18 -86q-7 -31 -39 -41q-52 -18 -144 -18q-169 0 -157 157q-154 -174 -385 -174q-193 0 -276.5 134t-26.5 397zM319 504q-18 -77 -16 -144t20 -117t61.5 -79t109.5 -29q265 0 383 397l71 336q-34 36 -93 58t-132 22q-80 0 -148.5 -35.5t-118 -97.5t-84 -140.5 t-53.5 -170.5z" />
<glyph unicode="e" horiz-adv-x="1097" d="M113 557q55 257 210 407t386 150q219 0 314.5 -93.5t57.5 -266.5q-34 -158 -158.5 -248t-340.5 -90q-146 0 -271 39q-20 -166 43.5 -239t220.5 -73q145 0 283 47q18 6 42 15.5t35.5 13.5t18.5 4q19 0 13 -24l-19 -90q-5 -19 -15.5 -30t-39.5 -24q-59 -28 -159 -49.5 t-197 -21.5q-141 0 -238 41.5t-144.5 117t-59.5 181t18 233.5zM340 598q121 -39 256 -39q255 0 299 209q42 199 -197 199q-130 0 -220.5 -95.5t-137.5 -273.5z" />
<glyph unicode="f" horiz-adv-x="761" d="M-305 -295q12 56 55.5 93.5t93.5 37.5q49 0 78 -34.5t17 -90.5q-15 -61 -62 -96q5 0 14.5 -1t14.5 -1q174 0 221 221l233 1092h-139q-29 0 -36 6.5t-3 30.5l15 67q6 24 15.5 33.5t29.5 9.5h149l25 113q43 209 154.5 313.5t299.5 104.5q141 0 205.5 -68.5t38.5 -189.5 q-12 -57 -57 -93t-96 -36t-77 33t-14 89q12 69 76 107q-40 14 -86 14q-94 0 -153.5 -61.5t-88.5 -198.5l-26 -127h237q26 0 34 -5.5t5 -25.5l-18 -81q-6 -35 -47 -35h-242l-223 -1049q-40 -188 -146.5 -292.5t-281.5 -104.5q-126 0 -181 64.5t-34 160.5z" />
<glyph unicode="g" horiz-adv-x="1236" d="M-33 -215q10 51 55.5 86t96.5 35q49 0 77.5 -31.5t18.5 -83.5q-11 -58 -65 -98q73 -45 208 -45q333 0 408 354l29 139q-154 -168 -381 -168q-193 0 -275.5 134t-25.5 397q59 283 221.5 444.5t392.5 161.5q86 0 144.5 -21.5t111.5 -66.5q5 38 18 56t43 18l275 -19 q22 -2 28 -8.5t3 -26.5l-19 -79q-3 -16 -12.5 -23t-30.5 -12l-61 -2q-36 -5 -51.5 -20t-24.5 -54l-178 -836q-29 -136 -88.5 -238t-144 -164.5t-187 -93t-223.5 -30.5q-67 0 -123 8t-107 29t-84 53.5t-47 84.5t-2 120zM324 504q-18 -77 -16 -144t19.5 -117t61 -79t109.5 -29 q263 0 381 397l71 336q-34 36 -92 58t-131 22q-105 0 -190 -62.5t-136 -160t-77 -221.5z" />
<glyph unicode="h" horiz-adv-x="1284" d="M135 35l275 1288q8 40 -1.5 56.5t-41.5 17.5h-74q-35 2 -25 41l15 71q6 24 13.5 30.5t29.5 8.5l290 15q28 1 35 -13t0 -45l-125 -581q65 95 166 142.5t219 47.5q161 0 235.5 -87t35.5 -271l-111 -520q-18 -91 43 -91q17 0 29 1.5t24.5 5t20.5 4.5q13 2 18 -2.5t2 -18.5 l-18 -86q-7 -31 -37 -41q-55 -18 -143 -18q-24 0 -45 3.5t-42.5 12t-35.5 23.5t-24.5 37.5t-10.5 54.5t8 74l113 530q22 103 -16.5 160t-139.5 57q-138 0 -234.5 -110t-142.5 -312l-102 -485q-5 -22 -12 -28.5t-29 -6.5h-133q-21 0 -27 7t-2 28z" />
<glyph unicode="i" horiz-adv-x="649" d="M201 967l14 71q6 24 13.5 30.5t29.5 8.5l293 15q27 1 34 -12.5t1 -45.5l-170 -798q-18 -91 43 -91q17 0 28.5 1.5t24 5t20.5 4.5q13 2 18.5 -2.5t2.5 -18.5l-18 -86q-7 -31 -37 -41q-56 -18 -144 -18q-30 0 -54 5t-48.5 18t-37 36t-18.5 59t7 87l139 657q8 40 -1 56.5 t-40 17.5h-74q-22 1 -27 12.5t1 28.5zM422 1421q13 66 64.5 108t113.5 42q54 0 82.5 -38.5t15.5 -100.5q-13 -65 -65 -105.5t-113 -40.5q-54 0 -82.5 37t-15.5 98z" />
<glyph unicode="j" horiz-adv-x="567" d="M-334 -295q12 57 55 94t97 37q48 0 76 -34.5t16 -90.5q-15 -59 -62 -96q8 -2 31 -2q172 0 219 221l217 1020q9 40 0 56.5t-41 17.5h-73q-21 1 -26 11t-1 30l14 71q6 24 13.5 30.5t31.5 8.5l289 17q28 0 36.5 -13.5t0.5 -44.5l-246 -1161q-40 -188 -147.5 -292.5 t-282.5 -104.5q-128 0 -183 64.5t-34 160.5zM389 1421q13 66 64 108t112 42q54 0 83 -38.5t16 -100.5q-13 -65 -64.5 -105.5t-112.5 -40.5q-55 0 -83 36.5t-15 98.5z" />
<glyph unicode="k" horiz-adv-x="1212" d="M133 35l275 1286q8 40 -2 57t-41 17l-76 2q-20 1 -25.5 11.5t0.5 29.5l15 69q4 24 12 30.5t31 8.5l292 17q27 1 34 -12.5t1 -45.5l-192 -905l362 268q71 50 22 59q-9 1 -20 1h-39q-40 0 -32 41l16 73q3 20 12 27.5t29 7.5h467q23 0 29 -6.5t2 -28.5l-17 -77 q-5 -19 -14 -28t-31 -9h-69q-38 0 -70.5 -15.5t-95.5 -60.5l-375 -274l262 -316q74 -91 91 -104q18 -15 40 -15q15 0 28 2t27 6t21 5q16 2 20.5 -2t1.5 -19l-18 -86q-13 -59 -168 -59q-69 0 -102.5 23.5t-108.5 123.5l-254 324q-7 8 -20.5 22.5t-16.5 18.5l-100 -467 q-4 -22 -12.5 -28.5t-30.5 -6.5h-131q-21 0 -27 7t-2 28z" />
<glyph unicode="l" horiz-adv-x="565" d="M125 195l240 1126q8 40 -1.5 56.5t-41.5 17.5l-74 2q-20 1 -25.5 11.5t0.5 29.5l15 69q4 24 12 30.5t31 8.5l292 17q27 1 33.5 -13t-0.5 -45l-270 -1269q-12 -91 45 -91q17 0 28.5 1.5t24 5t19.5 4.5q14 2 19.5 -2.5t2.5 -18.5l-18 -86q-7 -31 -37 -41q-56 -18 -144 -18 q-30 0 -54 5t-48.5 18t-37 36t-18.5 59t7 87z" />
<glyph unicode="m" horiz-adv-x="1925" d="M160 35l174 821q11 45 -10.5 57.5t-108.5 12.5q-19 0 -24.5 8.5t-2.5 26.5l17 79q4 21 13.5 28t31.5 9l291 17q27 0 33.5 -13t0.5 -45l-20 -98q126 176 371 176q110 0 177 -49.5t77 -151.5q66 101 169 151t230 50q148 0 215.5 -87.5t28.5 -270.5l-111 -520 q-18 -91 45 -91q17 0 29 1.5t24.5 5t20.5 4.5q13 2 18 -2.5t2 -18.5l-18 -86q-7 -31 -37 -41q-55 -18 -143 -18q-24 0 -45 3.5t-42.5 12t-36 23.5t-25.5 37.5t-10.5 54.5t7.5 74l113 530q21 101 -11 158t-126 57q-134 0 -223.5 -102.5t-129.5 -294.5l-108 -508 q-4 -22 -12.5 -28.5t-30.5 -6.5h-131q-21 0 -27 7t-2 28l148 690q21 100 -11.5 157.5t-126.5 57.5q-134 0 -223 -102t-129 -295l-109 -508q-4 -22 -12.5 -28.5t-30.5 -6.5h-131q-21 0 -26.5 7t-1.5 28z" />
<glyph unicode="n" horiz-adv-x="1306" d="M166 35l174 821q11 45 -10 57.5t-109 12.5q-18 0 -23.5 8.5t-2.5 26.5l16 79q4 21 13.5 28t31.5 9l281 17q28 0 34.5 -13.5t-0.5 -44.5l-28 -135q63 105 168 159t231 54q161 0 234.5 -87t33.5 -271l-110 -520q-18 -91 45 -91q17 0 29 1.5t24.5 5t20.5 4.5q13 2 18 -2.5 t2 -18.5l-20 -88q-3 -27 -25 -35q-58 -22 -154 -22q-30 0 -54 5t-48.5 18t-37 36t-18.5 59t7 87l112 530q22 104 -15.5 160.5t-137.5 56.5q-141 0 -238.5 -114.5t-142.5 -327.5l-98 -465q-5 -22 -12 -28.5t-29 -6.5h-133q-21 0 -27 7t-2 28z" />
<glyph unicode="o" horiz-adv-x="1189" d="M115 575q24 116 72 211t121 170t179.5 116.5t237.5 41.5q115 0 202 -30.5t138 -85t79.5 -130t27 -165t-20.5 -189.5q-19 -91 -53 -170.5t-86.5 -148t-119.5 -117.5t-157.5 -77t-195.5 -28q-114 0 -200.5 31t-137.5 86t-79.5 130.5t-27 165t20.5 189.5zM328 545 q-43 -201 7.5 -312.5t207.5 -111.5t255.5 111.5t141.5 312.5q25 129 15.5 222.5t-68 146.5t-164.5 53q-157 0 -255 -111.5t-140 -310.5z" />
<glyph unicode="p" horiz-adv-x="1253" d="M-152 -475l17 84q3 18 11.5 24.5t31.5 6.5h51q52 0 73.5 16t33.5 68l239 1132q11 45 -10 57.5t-109 12.5q-18 0 -23.5 8.5t-2.5 26.5l16 79q4 21 13.5 28t31.5 9l291 17q28 0 35.5 -13t1.5 -45l-27 -129q154 203 402 203q134 0 211 -58.5t101.5 -186t-19.5 -330.5 q-58 -270 -213.5 -416t-380.5 -146q-156 0 -287 64l-66 -313q-12 -52 2.5 -68t67.5 -16h53q22 0 28 -6.5t3 -24.5l-18 -84q-4 -21 -13.5 -28t-30.5 -7h-485q-21 0 -27 7t-2 28zM373 205q34 -29 101.5 -49.5t139.5 -20.5q83 0 150.5 33t114 93t77.5 134.5t50 167.5 q14 67 19.5 120.5t-0.5 104.5t-26 85t-60.5 54.5t-100.5 20.5q-275 0 -392 -397z" />
<glyph unicode="q" horiz-adv-x="1234" d="M111 504q59 283 221.5 444.5t392.5 161.5q86 0 144.5 -21.5t111.5 -66.5q5 38 18 56t43 18l275 -19q22 -2 28 -8.5t3 -26.5l-19 -79q-3 -16 -12.5 -23t-30.5 -12l-63 -2q-38 -4 -52.5 -21.5t-25.5 -70.5l-125 -590h-2l-111 -520q-12 -52 2.5 -68t65.5 -16h45 q21 0 27.5 -7t3.5 -26l-17 -78q-6 -25 -14.5 -32t-30.5 -7h-508q-21 0 -27.5 7.5t-0.5 31.5l16 78q3 19 12 26t31 7h45q73 0 104 16.5t41 67.5l89 415q-155 -166 -379 -166q-193 0 -275.5 134t-25.5 397zM322 504q-18 -77 -16 -144t19.5 -117t61 -79t109.5 -29 q263 0 381 397l71 336q-34 36 -92 58t-131 22q-105 0 -190 -62.5t-136 -160t-77 -221.5z" />
<glyph unicode="r" horiz-adv-x="1007" d="M-8 37l18 82q3 19 10.5 25t28.5 6h51q52 0 75.5 16.5t33.5 66.5l131 623q11 45 -10 57.5t-109 12.5q-18 0 -23.5 8.5t-2.5 26.5l16 79q4 21 13.5 28t31.5 9l291 17q27 0 34 -13t1 -45l-45 -217q17 35 39.5 70t60 77.5t80.5 73.5t102 52.5t123 21.5q108 0 149 -51.5 t21 -142.5q-12 -57 -58.5 -94.5t-97.5 -37.5t-76.5 33.5t-13.5 89.5q6 27 23 54h-2q-96 0 -189.5 -84t-154.5 -199.5t-86 -230.5l-45 -218q-12 -52 3 -67.5t68 -15.5h95q22 0 27.5 -6.5t2.5 -24.5l-18 -86q-4 -20 -12.5 -26.5t-30.5 -6.5h-527q-21 0 -26.5 7t-1.5 30z" />
<glyph unicode="s" horiz-adv-x="1007" d="M53 238q12 57 52 92t96 35q55 0 79 -32t13 -87q-11 -48 -49 -86q71 -49 211 -49q108 0 177.5 44t88.5 126q12 57 -13.5 95t-75 59t-111.5 37.5t-123 39.5t-108 56.5t-68 96.5t-3 152q29 143 140 220t292 77q205 0 298.5 -66t66.5 -186q-11 -51 -52 -87t-94 -36 q-52 0 -78 31.5t-14 87.5q8 42 41 80q-73 39 -180 39q-100 0 -157 -40.5t-68 -107.5q-10 -47 9 -80t58.5 -50.5t91 -34.5t106 -31t104 -40t85 -61.5t49 -95t-3.5 -141.5q-67 -322 -483 -322q-196 0 -300 68.5t-77 196.5z" />
<glyph unicode="t" horiz-adv-x="741" d="M154 956l16 76q5 24 14 34.5t29 10.5h127l137 266q10 19 27 26t49 7q38 0 46 -6t3 -27l-57 -266h250q26 0 32 -5t2 -25l-18 -93q-9 -34 -47 -34h-252l-121 -564q-11 -54 -11.5 -92t7 -61t26 -36t41 -17.5t56.5 -4.5q68 0 135 23q19 7 24 2t1 -27l-17 -84 q-5 -18 -13.5 -28t-27.5 -17q-69 -26 -180 -26q-58 0 -102.5 9.5t-82 31.5t-56.5 58.5t-25.5 90.5t10.5 127l131 615h-117q-29 0 -35.5 6t-0.5 30z" />
<glyph unicode="u" horiz-adv-x="1286" d="M147 961l17 79q4 22 12.5 28.5t30.5 8.5l293 17q27 0 34 -13t1 -45l-146 -682q-44 -211 154 -211q145 0 242.5 101t136.5 284l69 328q11 45 -10.5 57.5t-108.5 12.5q-19 0 -25 8.5t-3 26.5l16 79q4 21 13.5 28t31.5 9l291 17q28 0 35.5 -13t1.5 -45l-174 -815 q-12 -76 47 -76q17 0 29 1.5t24.5 5t20.5 4.5q14 2 19.5 -2.5t2.5 -18.5l-18 -86q-7 -31 -39 -41q-53 -18 -144 -18q-154 0 -159 133q-139 -148 -391 -148q-170 0 -239 85t-28 284l109 512q11 45 -10.5 57.5t-108.5 12.5q-19 0 -24.5 8.5t-2.5 26.5z" />
<glyph unicode="v" horiz-adv-x="1224" d="M145 965l17 79q4 20 12 26.5t27 6.5h428q20 0 25.5 -7t2.5 -28l-16 -77q-10 -35 -45 -35l-23 -2q-52 -2 -70 -20t-11 -64l83 -658l375 672q22 40 8 54t-69 16h-19q-20 1 -25.5 9t-2.5 26l16 77q6 23 14.5 30t28.5 7h426q21 0 26.5 -7t2.5 -26l-17 -77q-5 -22 -13 -31 t-30 -10h-36q-32 -1 -47.5 -4.5t-34 -20t-39.5 -51.5l-484 -836q-11 -20 -19.5 -25t-33.5 -5h-151q-19 0 -27.5 5.5t-9.5 22.5l-131 830q-5 29 -9.5 44t-17 23.5t-22.5 10.5t-39 6l-25 2q-21 3 -26 11.5t1 25.5z" />
<glyph unicode="w" horiz-adv-x="1841" d="M150 965l16 79q4 20 12 26.5t27 6.5h440q18 0 23 -7t2 -26l-19 -81q-7 -33 -30 -33q-40 -1 -60 -3.5t-35.5 -6t-20.5 -14t-7 -22t-2 -36.5l45 -690l426 864q15 36 24.5 45.5t32.5 9.5h139q23 0 28 -11t5 -48l47 -854l313 665q31 66 29 78.5t-43 18.5l-57 2 q-21 4 -25.5 10.5t-1.5 24.5l19 79q5 22 12 28.5t27 6.5h436q19 0 24.5 -6t1.5 -24l-14 -72q-10 -44 -43 -49l-61 -2q-41 -3 -54 -11q-24 -15 -67 -100l-414 -799q-10 -21 -23 -25.5t-63 -4.5h-137q-20 0 -28.5 6t-8.5 22l-61 779l-388 -777q-11 -20 -19.5 -25t-33.5 -5 h-157q-19 0 -26.5 5.5t-8.5 22.5l-84 830q-4 56 -21 68.5t-78 15.5q-30 3 -36.5 10.5t-1.5 28.5z" />
<glyph unicode="x" horiz-adv-x="1189" d="M-39 31l14 82q5 19 12 26.5t23 7.5l58 3q42 2 81 22.5t101 79.5l287 280l-191 326q-32 48 -51 59t-59 11l-39 2q-34 0 -27 33l18 84q4 18 12.5 24t26.5 6h435q18 0 23 -6.5t1 -26.5l-18 -81q-3 -11 -5 -17t-9 -11t-19 -5h-39q-42 0 -46.5 -10.5t19.5 -51.5l109 -194 l205 198q49 45 38 53q-6 5 -34 5h-29q-31 0 -24 33l18 81q4 20 12.5 26.5t26.5 6.5h375q20 0 24.5 -6.5t-0.5 -26.5l-18 -86q-6 -28 -39 -30l-39 -2q-48 -2 -81.5 -21t-119.5 -102l-248 -246l166 -291q40 -74 64 -94t61 -22h56q18 -1 21.5 -8.5t0.5 -24.5l-18 -86 q-4 -19 -12.5 -25t-28.5 -6h-408q-18 0 -24 7t-2 26l16 80q4 20 13 27t28 7q57 0 66.5 9.5t-11.5 46.5l-127 213l-205 -203q-57 -50 -46 -58q6 -5 36 -5l43 -3q31 0 25 -28l-19 -88q-7 -31 -37 -31h-417q-18 0 -23.5 6.5t-1.5 24.5z" />
<glyph unicode="y" horiz-adv-x="1286" d="M14 -229q12 57 57 95t97 38q48 0 76 -34.5t16 -90.5q-12 -53 -57 -92q76 -39 217 -39q146 0 250.5 85t140.5 249l27 133q-140 -140 -383 -140q-170 0 -239 85t-28 284l109 512q11 45 -10.5 57.5t-108.5 12.5q-19 0 -24 8t-2 27l16 79q4 22 12.5 28.5t30.5 8.5l293 17 q27 0 34 -13t1 -45l-146 -682q-44 -211 154 -211q140 0 236.5 96t138.5 271l77 358q5 35 -19 46.5t-103 11.5q-35 0 -29 35l16 79q4 21 13.5 28t31.5 9l291 17q28 0 35.5 -13t1.5 -45l-223 -1050q-54 -253 -218.5 -374.5t-416.5 -121.5q-64 0 -120 8.5t-108.5 29t-87 51.5 t-49 80.5t-0.5 111.5z" />
<glyph unicode="z" horiz-adv-x="1075" d="M2 35l16 80q6 25 17 39l778 784h-299q-36 0 -54.5 -3.5t-39 -22.5t-37 -48.5t-45.5 -91.5q-9 -23 -18 -31t-27 -8h-94q-31 0 -19 37l92 281q8 32 52 32h768q20 0 24 -7.5t2 -24.5l-12 -52q-7 -35 -41 -73l-764 -779h344q28 0 42 1t32 9t27.5 18t26.5 36.5t32 56.5t41 84 q14 29 43 29h94q17 0 20 -7t-2 -24l-106 -317q-11 -33 -51 -33h-824q-25 2 -18 35z" />
<glyph unicode="{" horiz-adv-x="675" d="M98 578l25 110q1 7 3 11.5t6.5 7t6.5 3.5t9 3t8 2q83 20 119 65t55 127l63 305q36 165 128.5 228t275.5 63h26q23 0 29.5 -4.5t3.5 -19.5l-16 -74q-5 -23 -41 -23q-168 -6 -201 -168l-74 -340q-20 -96 -64 -157.5t-132 -81.5v-4q55 -14 81 -50t25 -84t-12 -106l-72 -340 q-36 -168 129 -168q20 0 28 -4.5t5 -17.5l-16 -74q-3 -15 -11.5 -20t-31.5 -5h-27q-183 0 -249 63t-30 228l66 305q9 50 8.5 87.5t-25 64.5t-75.5 41q-2 1 -5 1.5t-4.5 1t-4 1.5t-4 2t-3.5 3t-2 4.5t-0.5 6t0.5 7.5z" />
<glyph unicode="|" horiz-adv-x="538" d="M45 -240l363 1713q9 44 55 47h117q39 0 32 -45l-364 -1713q-9 -44 -53 -47h-117q-44 0 -33 45z" />
<glyph unicode="}" horiz-adv-x="677" d="M-51 -213l6 25q3 16 10 19t29 3q198 5 244 217l71 340q22 97 65.5 158.5t131.5 81.5v4q-55 14 -81 50t-24.5 83.5t11.5 105.5l73 340q45 218 -151 218q-16 0 -21 0.5t-8.5 5.5t-1.5 16l6 25q3 15 12 19.5t31 4.5h13q118 0 175.5 -70t24.5 -221l-71 -342q-10 -49 -8.5 -85 t25.5 -61.5t75 -39.5q2 -1 6.5 -2t5.5 -1.5l5 -2.5t4 -4.5t1.5 -7t-0.5 -9.5l-10 -49q-2 -8 -6.5 -13.5t-7 -7t-10.5 -3.5t-9 -2q-84 -20 -120 -63.5t-52 -123.5l-74 -342q-32 -151 -119.5 -221t-205.5 -70h-12q-22 0 -29 5t-4 20z" />
<glyph unicode="~" horiz-adv-x="978" d="M84 537q27 125 115.5 196.5t224.5 71.5q48 0 84.5 -9t57 -26t31 -30.5t19.5 -32.5q11 -22 20 -33t31.5 -20t59.5 -9q114 0 147 98q6 25 35 25h105q15 0 19.5 -8.5t0.5 -34.5q-27 -127 -118.5 -198.5t-235.5 -71.5q-60 0 -100 15.5t-54.5 32.5t-27.5 44q-10 24 -18.5 35.5 t-31.5 22.5t-61 11q-110 0 -143 -98q-6 -18 -11.5 -22t-25.5 -4h-98q-20 0 -25.5 8.5t0.5 36.5z" />
<glyph unicode="&#xa2;" horiz-adv-x="1116" d="M129 541q51 242 197 393t370 174l31 139q9 44 55 47h115q44 0 33 -45l-31 -147q134 -25 201 -109q40 -47 28 -114q-13 -64 -64.5 -104t-109.5 -40q-57 0 -87 37t-17 100q6 32 24 60q-56 32 -124 35q-162 0 -266 -117t-146 -313q-21 -91 -16.5 -165t33 -126.5t93 -81.5 t162.5 -29q118 0 207 25q24 6 78 23.5t70 21.5q13 1 16.5 -5.5t-0.5 -17.5l-18 -86q-4 -24 -13 -33.5t-39 -23.5q-120 -51 -256 -62l-30 -143q-9 -44 -56 -47h-116q-38 0 -31 45l31 148q-434 48 -324 561z" />
<glyph unicode="&#xa3;" horiz-adv-x="1259" d="M41 35l16 78q5 20 13 27t28 7h8q96 23 155.5 102.5t82.5 192.5q14 64 4 127h-180q-19 0 -24.5 7t-0.5 24l19 88q3 16 10.5 22.5t24.5 6.5h108q-14 40 -21.5 67t-14.5 67t-5 83t12 90q49 231 205.5 353t386.5 122q192 -2 295.5 -76t96.5 -213q4 -32 -3 -55 q-13 -66 -63.5 -104.5t-112.5 -38.5q-57 0 -88 38t-18 101q12 54 53 92q-37 93 -192 96q-124 0 -212 -73t-120 -224q-8 -35 -9 -68.5t4.5 -69t11 -60.5t16.5 -65.5t16 -61.5h321q18 0 23 -6.5t2 -22.5l-19 -88q-5 -18 -11.5 -24.5t-24.5 -6.5h-271q-4 -57 -10 -86 q-23 -107 -80.5 -198t-142.5 -138h440q122 0 160.5 21.5t77.5 114.5l36 108q12 21 23 28t33 7h69q21 0 26 -8.5t-1 -30.5l-94 -291q-19 -65 -39 -80.5t-70 -15.5h-917q-24 0 -30.5 7t-2.5 28z" />
<glyph unicode="&#xa5;" horiz-adv-x="1495" d="M276 1368l17 76q4 22 14 28.5t37 6.5h453q29 0 37 -7t2 -34l-15 -62q-3 -22 -15.5 -33.5t-39.5 -11.5h-35q-9 0 -14 -0.5t-13.5 -2t-13 -5.5t-8.5 -10.5t-3.5 -18t5.5 -26.5l154 -525l422 525q15 19 15 33t-9.5 20t-20.5 6h-43q-27 0 -34 12.5t-3 36.5l15 68 q4 21 15.5 28t39.5 7h395q27 0 35.5 -8t3.5 -27l-16 -76q-3 -21 -15.5 -31t-40.5 -10h-51q-22 0 -43 -14t-61 -62l-549 -655l-74 -352q-13 -59 1.5 -76.5t64.5 -17.5h51q22 0 27 -5.5t2 -25.5l-19 -82q-3 -21 -11.5 -29t-29.5 -8h-485q-22 0 -28.5 7t-2.5 28l19 84 q3 18 11.5 24.5t31.5 6.5h49q49 0 71.5 18.5t34.5 75.5l70 327l-221 660q-36 96 -99 96h-43q-26 0 -33 9.5t-4 31.5z" />
<glyph unicode="&#xa9;" horiz-adv-x="1718" d="M170 748q35 164 115.5 302.5t198.5 241t278.5 160t345.5 57.5q148 0 265.5 -37.5t193 -105.5t120.5 -162.5t49.5 -209t-20.5 -244.5q-35 -166 -113.5 -306.5t-194.5 -246t-277.5 -165t-350.5 -59.5q-127 0 -231 27.5t-177 77t-125 120t-74.5 156.5t-25 186t22.5 208z M326 756q-64 -298 65 -482t414 -184t490.5 184t269.5 484q62 289 -69.5 462t-412.5 173q-186 0 -343.5 -78t-265 -223t-148.5 -336zM557 739q18 87 63 162.5t110 131t152 87t185 31.5q53 0 98.5 -10t81 -29.5t58.5 -46.5l4 -4q7 -11 6 -12q18 -33 10 -70q-10 -51 -50 -84 t-87 -33q-44 0 -68 30.5t-14 78.5q6 31 24 55q-38 12 -88 12q-124 0 -205 -82t-108 -206q-25 -123 26 -196t195 -73q46 0 87.5 8t65 17t62.5 26q47 19 54 19q21 0 18 -21l-12 -57q-9 -31 -41 -45q-127 -59 -285 -59q-198 0 -287.5 103.5t-54.5 266.5z" />
<glyph unicode="&#xad;" d="M168 606l16 76q5 22 13.5 29.5t31.5 7.5h549q23 0 28 -9t-1 -28l-17 -76q-4 -23 -12.5 -30t-30.5 -7h-546q-22 0 -28.5 7t-2.5 30z" />
<glyph unicode="&#xae;" horiz-adv-x="1718" d="M170 748q35 164 115.5 302.5t198.5 241t278.5 160t345.5 57.5q148 0 265.5 -37.5t193 -105.5t120.5 -162.5t49.5 -209t-20.5 -244.5q-35 -166 -113.5 -306.5t-194.5 -246t-277.5 -165t-350.5 -59.5q-127 0 -231 27.5t-177 77t-125 120t-74.5 156.5t-25 186t22.5 208z M326 756q-64 -298 65 -482t414 -184t490.5 184t269.5 484q62 289 -69.5 462t-412.5 173q-186 0 -343.5 -78t-265 -223t-148.5 -336zM528 379l11 51q3 12 8.5 16.5t21.5 4.5h4q33 0 50 13t24 50l103 485q9 38 -2.5 51t-51.5 13q-16 0 -18.5 6t0.5 18l10 48q4 17 10.5 21.5 t22.5 4.5h274q54 0 96.5 -3.5t79.5 -11t62 -20t44.5 -31t27 -43t9 -56.5t-8.5 -72q-12 -59 -43 -105t-75 -76t-102 -47q64 -46 86 -207q5 -34 46 -34q17 0 45 12q4 2 7.5 1.5t5 -6t-0.5 -16.5l-12 -55q-6 -26 -35.5 -38.5t-69.5 -12.5q-110 0 -123 92q-4 29 -8 51 t-11.5 53.5t-19 54.5t-27.5 44.5t-39 33t-52 11.5h-60l-35 -166q-9 -40 0.5 -51.5t44.5 -11.5h4q18 0 23 -5t2 -16l-10 -51q-4 -17 -11.5 -22t-23.5 -5h-262q-16 0 -20.5 5t-0.5 22zM838 776h88q69 0 116.5 17t74 49.5t36.5 81.5q17 76 -24.5 108.5t-145.5 32.5h-84z" />
<glyph unicode="&#xb4;" horiz-adv-x="565" d="M305 1352q-7 17 -2 27.5t27 19.5l327 151q25 12 36.5 11.5t17.5 -13.5l39 -98q8 -14 1 -25.5t-36 -19.5l-348 -102q-30 -8 -39.5 -4.5t-12.5 18.5z" />
<glyph unicode="&#x2000;" horiz-adv-x="846" />
<glyph unicode="&#x2001;" horiz-adv-x="1692" />
<glyph unicode="&#x2002;" horiz-adv-x="846" />
<glyph unicode="&#x2003;" horiz-adv-x="1692" />
<glyph unicode="&#x2004;" horiz-adv-x="564" />
<glyph unicode="&#x2005;" horiz-adv-x="423" />
<glyph unicode="&#x2006;" horiz-adv-x="282" />
<glyph unicode="&#x2007;" horiz-adv-x="282" />
<glyph unicode="&#x2008;" horiz-adv-x="211" />
<glyph unicode="&#x2009;" horiz-adv-x="338" />
<glyph unicode="&#x200a;" horiz-adv-x="94" />
<glyph unicode="&#x2010;" d="M168 606l16 76q5 22 13.5 29.5t31.5 7.5h549q23 0 28 -9t-1 -28l-17 -76q-4 -23 -12.5 -30t-30.5 -7h-546q-22 0 -28.5 7t-2.5 30z" />
<glyph unicode="&#x2011;" d="M168 606l16 76q5 22 13.5 29.5t31.5 7.5h549q23 0 28 -9t-1 -28l-17 -76q-4 -23 -12.5 -30t-30.5 -7h-546q-22 0 -28.5 7t-2.5 30z" />
<glyph unicode="&#x2012;" d="M168 606l16 76q5 22 13.5 29.5t31.5 7.5h549q23 0 28 -9t-1 -28l-17 -76q-4 -23 -12.5 -30t-30.5 -7h-546q-22 0 -28.5 7t-2.5 30z" />
<glyph unicode="&#x2013;" horiz-adv-x="1064" d="M168 600l18 88q3 16 11 22.5t26 6.5h770q18 0 23 -6.5t2 -22.5l-19 -88q-5 -18 -12.5 -24.5t-25.5 -6.5h-766q-19 0 -25 7t-2 24z" />
<glyph unicode="&#x2014;" horiz-adv-x="1701" d="M168 600l18 88q3 16 11 22.5t26 6.5h1407q18 0 23 -6.5t2 -22.5l-19 -88q-5 -18 -13 -24.5t-26 -6.5h-1402q-19 0 -25 7t-2 24z" />
<glyph unicode="&#x2018;" horiz-adv-x="475" d="M246 1092q37 182 299 376q19 13 26.5 14.5t20.5 -12.5l16 -20q9 -12 5.5 -20t-19.5 -23q-45 -35 -91 -88t-67 -98q50 -3 74 -40t12 -98q-14 -66 -63 -108.5t-113 -42.5q-61 0 -89 42t-11 118z" />
<glyph unicode="&#x2019;" horiz-adv-x="473" d="M240 971q-16 18 16 43q45 36 91 89t65 97q-50 3 -74 39.5t-12 97.5q14 66 63 109t113 43q61 0 89 -42t11 -118q-38 -183 -299 -377q-17 -13 -26 -14.5t-21 12.5z" />
<glyph unicode="&#x201c;" horiz-adv-x="833" d="M246 1092q37 182 299 376q19 13 26.5 14.5t20.5 -12.5l16 -20q9 -12 5.5 -20t-19.5 -23q-45 -35 -91 -88t-67 -98q50 -3 74 -40t12 -98q-14 -66 -63 -108.5t-113 -42.5q-61 0 -89 42t-11 118zM606 1092q37 182 299 376q19 13 26.5 14.5t20.5 -12.5l17 -20q9 -12 5.5 -20 t-20.5 -23q-45 -34 -90.5 -87.5t-66.5 -98.5q50 -3 74 -40t12 -98q-14 -66 -63 -108.5t-113 -42.5q-62 0 -90 42t-11 118z" />
<glyph unicode="&#x201d;" horiz-adv-x="833" d="M240 971q-16 18 16 43q45 36 91 89t65 97q-50 3 -74 39.5t-12 97.5q14 66 63 109t113 43q61 0 89 -42t11 -118q-38 -183 -299 -377q-17 -13 -26 -14.5t-21 12.5zM598 971q-16 18 16 43q45 36 91 89t65 97q-50 3 -74 39.5t-12 97.5q14 66 63 109t113 43q62 0 90 -42 t11 -118q-38 -183 -299 -377q-17 -13 -26.5 -14.5t-21.5 12.5z" />
<glyph unicode="&#x2022;" horiz-adv-x="727" d="M231 727q21 101 101.5 168.5t169.5 67.5q86 0 130 -61t21 -163q-21 -101 -102.5 -168t-169.5 -67q-84 0 -127.5 60.5t-22.5 162.5z" />
<glyph unicode="&#x2026;" horiz-adv-x="1673" d="M51 117q13 64 65 107.5t111 43.5q57 0 88.5 -38t18.5 -103q-13 -64 -66 -105.5t-114 -41.5q-57 0 -86.5 37.5t-16.5 99.5zM645 117q13 64 65 107.5t111 43.5q57 0 88.5 -38t18.5 -103q-13 -64 -66 -105.5t-114 -41.5q-57 0 -86.5 37.5t-16.5 99.5zM1239 117 q13 64 65 107.5t111 43.5q57 0 88.5 -38t18.5 -103q-13 -64 -66.5 -105.5t-114.5 -41.5q-57 0 -86 37.5t-16 99.5z" />
<glyph unicode="&#x202f;" horiz-adv-x="338" />
<glyph unicode="&#x205f;" horiz-adv-x="423" />
<glyph unicode="&#x20ac;" horiz-adv-x="1656" d="M104 528q10 43 35 55.5t76 12.5h133q2 32 14 115h-163q-58 0 -37 80q8 42 32 54.5t76 12.5h129q90 289 317 464t544 175q78 0 144.5 -11.5t114 -31.5t85 -47t59 -59t35.5 -67t13.5 -71t-5.5 -71q-14 -65 -65.5 -103.5t-112.5 -38.5q-59 0 -89.5 38t-17.5 102 q17 81 99 125q-88 75 -271 75q-118 0 -219.5 -36.5t-177.5 -103t-132 -152t-93 -189.5h594q53 0 36 -80q-7 -32 -24 -49.5t-53 -17.5h-592q-15 -72 -17 -113h449q57 0 41 -82q-13 -65 -78 -65h-405q24 -143 131.5 -222.5t302.5 -79.5q107 0 208 20t142.5 35.5t107.5 43.5 q33 18 50 16.5t10 -35.5l-21 -106q-3 -12 -5 -16.5t-11 -14t-25 -16.5q-72 -37 -201.5 -67t-301.5 -30q-269 0 -430 118t-185 354h-205q-56 0 -41 79z" />
<glyph unicode="&#x2122;" horiz-adv-x="2009" d="M219 1257l47 175q9 32 18.5 39.5t37.5 7.5h641q29 0 34.5 -7t-0.5 -40l-26 -175q-3 -15 -7 -19.5t-20 -4.5h-74q-13 0 -16.5 4.5t-3.5 19.5l6 54q0 33 -19.5 40t-93.5 7h-45l-125 -590q-9 -39 2 -51t46 -12h18q16 0 20 -4.5t0 -16.5l-14 -68q-3 -24 -31 -24h-321 q-14 0 -19 5t-2 19l15 68q6 21 30 21h19q30 0 45 9.5t25 39.5l126 604h-49q-70 0 -92 -7.5t-35 -41.5l-16 -54q-7 -22 -35 -22h-69q-16 0 -18.5 5.5t1.5 18.5zM856 616l14 68q5 21 31 21h21q35 0 48.5 9t20.5 42l119 563q2 12 2.5 20t-2 13.5t-4.5 9t-8 5t-10 2t-13 1.5 t-14 2q-25 0 -21 21l13 61q5 15 11 20t19 5h244q21 0 25 -29l106 -726l410 730q8 14 16.5 19.5t26.5 5.5h217q14 0 18 -5t0 -20l-10 -55q-7 -29 -31 -29l-30 -2q-43 0 -56 -45l-118 -559q-9 -38 -3.5 -48.5t37.5 -10.5h31q17 0 22.5 -5.5t2.5 -17.5l-15 -66 q-3 -14 -10.5 -19t-23.5 -5h-300q-14 0 -18.5 5t-1.5 19l14 66q6 23 31 23h25q27 0 39.5 12t19.5 47l90 424l-328 -584q-6 -12 -12.5 -15t-25.5 -3h-140q-14 0 -18.5 3t-7.5 13l-92 615l-99 -461q-7 -34 3 -42.5t46 -8.5h23q14 0 18 -4t2 -15l-16 -70q-3 -15 -9 -19.5 t-20 -4.5h-288q-14 0 -19 5t-2 19z" />
<glyph unicode="&#x25fc;" horiz-adv-x="1075" d="M0 0v1075h1075v-1075h-1075z" />
</font>
</defs>
</svg>
