<?xml version="1.0" standalone="no"?>
<!DOCTYPE svg PUBLIC "-//W3C//DTD SVG 1.1//EN" "http://www.w3.org/Graphics/SVG/1.1/DTD/svg11.dtd" >
<svg xmlns="http://www.w3.org/2000/svg">
<metadata>
This is a custom SVG webfont generated by Fontspring.
Designer    : httpwwwinsignedesigncom
Foundry     : Jeremy Dooley
Foundry URL : httpwwwinsignedesigncom
</metadata>
<defs>
<font id="AvianoSansBlack" horiz-adv-x="744" >
<font-face units-per-em="1000" ascent="750" descent="-250" />
<missing-glyph horiz-adv-x="350" />
<glyph unicode=" "  horiz-adv-x="350" />
<glyph unicode="&#x09;" horiz-adv-x="350" />
<glyph unicode="&#xa0;" horiz-adv-x="350" />
<glyph unicode="!" horiz-adv-x="344" d="M207 164h-89l-37 394h164zM163 -5q-26 0 -45.5 18.5t-19.5 43.5t19.5 44.5t45.5 19.5q25 0 44 -19t19 -44t-19 -44t-44 -19z" />
<glyph unicode="&#x22;" horiz-adv-x="368" d="M127 271h-38l-44 150v138h126v-133zM279 271h-38l-44 150v138h126v-133z" />
<glyph unicode="#" horiz-adv-x="611" d="M410 -9h-129l32 174h-65l-31 -174h-128l31 174h-79v126h102l13 57h-106v127h127l31 171h128l-30 -171h62l30 171h130l-30 -171h72v-127h-96l-12 -57h99v-126h-121zM333 291l13 57h-63l-12 -57h62z" />
<glyph unicode="$" horiz-adv-x="667" d="M392 -92h-118v73q-158 8 -225 46v118q124 -46 262 -46q9 0 19.5 0.5t35.5 1.5t46 4.5t42.5 9t34 15t12.5 21.5q0 25 -33 38.5t-82.5 17t-107.5 14t-107.5 27t-82.5 57t-33 101.5q0 147 219 168v83h118v-80q99 -8 174 -39v-114q-88 35 -209 35q-160 0 -160 -47 q0 -25 33 -40t82.5 -21t107 -17.5t107 -27.5t82.5 -53.5t33 -93.5q0 -160 -250 -177v-74z" />
<glyph unicode="%" horiz-adv-x="997" d="M938 139q0 -75 -55 -117t-130 -42t-130 42t-55 117t55 117t130 42t130 -42t55 -117zM315 -1h-151l514 554h151zM753 64q21 0 32.5 22.5t11.5 52.5q0 29 -11.5 50.5t-32.5 21.5t-32.5 -20t-11.5 -49q0 -31 12 -54.5t32 -23.5zM429 419q0 -75 -55 -117t-130 -42t-130 42 t-55 117t55 117t130 42t130 -42t55 -117zM244 344q21 0 32.5 22.5t11.5 52.5q0 29 -11.5 50.5t-32.5 21.5t-32.5 -20t-11.5 -49q0 -31 12 -54.5t32 -23.5z" />
<glyph unicode="&#x26;" horiz-adv-x="775" d="M670 -20l-108 58q-85 -58 -200 -58q-139 0 -209.5 40.5t-70.5 131.5q0 72 78 146q-36 47 -36 92q0 94 64 141t179 47q111 0 176 -22v-128q-93 30 -167 30q-56 0 -83 -16t-27 -41q0 -28 58.5 -76.5t200.5 -131.5q14 27 14 55q0 22 -8 56h127q10 -45 10 -77q0 -56 -28 -106 l30 -19v-122zM433 109q-144 78 -186 107q-24 -33 -24 -43q0 -32 36.5 -53.5t103.5 -21.5q33 0 70 11z" />
<glyph unicode="'" horiz-adv-x="216" d="M127 244h-37l-45 150v138h126v-133z" />
<glyph unicode="(" horiz-adv-x="356" d="M329 -155l-52 -46q-106 78 -164.5 191t-58.5 236t58.5 236t164.5 191l52 -46q-151 -154 -151 -381t151 -381z" />
<glyph unicode=")" horiz-adv-x="356" d="M79 -201l-52 46q151 154 151 381t-151 381l52 46q106 -78 164.5 -191t58.5 -236t-58.5 -236t-164.5 -191z" />
<glyph unicode="*" horiz-adv-x="461" d="M425 424l-85 -77l-79 46l8 -91h-117l10 92l-78 -48l-83 78l109 56l-109 57l82 79l79 -48l-10 91h117l-8 -90l79 46l84 -77l-113 -58z" />
<glyph unicode="+" horiz-adv-x="573" d="M359 25h-115v202h-199v113h199v201h115v-201h200v-113h-200v-202z" />
<glyph unicode="," horiz-adv-x="269" d="M124 -134h-103l63 208h130z" />
<glyph unicode="-" horiz-adv-x="381" d="M322 165h-263v118h263v-118z" />
<glyph unicode="." horiz-adv-x="254" d="M127 -15q-29 0 -51 22t-22 51q0 30 22 51.5t51 21.5t51 -22t22 -51q0 -30 -22 -51.5t-51 -21.5z" />
<glyph unicode="/" horiz-adv-x="430" d="M148 -82h-123l239 705h124z" />
<glyph unicode="0" horiz-adv-x="681" d="M631 279q0 -80 -25 -140t-68 -93.5t-92.5 -49.5t-105.5 -16t-105.5 16t-92 49.5t-67.5 93.5t-25 140t25 140t67.5 93.5t92.5 49.5t106 16t105.5 -16t92 -49.5t67.5 -93.5t25 -140zM200 279q0 -99 39.5 -140.5t100.5 -41.5t101 41.5t40 140.5q0 98 -40 140t-101 42 t-100.5 -41.5t-39.5 -140.5z" />
<glyph unicode="1" horiz-adv-x="370" d="M290 0h-140v387l-53 -61l-87 82l150 150h130v-558z" />
<glyph unicode="2" horiz-adv-x="586" d="M536 0h-506v120q190 96 244 131q108 70 108 128q0 44 -29.5 61.5t-86.5 17.5q-107 0 -203 -45v125q93 40 203 40q127 0 196.5 -49t69.5 -150q0 -34 -12.5 -64t-38.5 -55.5t-49.5 -44t-64.5 -39t-62 -30t-62 -26.5h293v-120z" />
<glyph unicode="3" horiz-adv-x="597" d="M292 225h-106v120h106q36 0 62 14t26 45q0 33 -32 43.5t-95 10.5q-52 0 -113 -10t-74 -20v120q74 30 187 30q41 0 71.5 -2.5t70.5 -12.5t66 -28t44 -51.5t18 -80.5q0 -38 -25 -69t-50 -35q51 -9 75 -50t24 -82q0 -49 -19 -85t-46 -55t-69.5 -30t-78 -14t-81.5 -3 q-56 0 -120.5 11.5t-102.5 32.5v118q106 -42 223 -42q83 0 117 16.5t34 49.5q0 59 -112 59z" />
<glyph unicode="4" horiz-adv-x="620" d="M500 0h-140v91h-335v118l335 349h140v-349h85v-118h-85v-91zM360 209v190l-183 -190h183z" />
<glyph unicode="5" horiz-adv-x="612" d="M513 439h-286l-12 -86q59 9 107 9q127 0 191 -43.5t64 -142.5q0 -53 -24.5 -92t-65.5 -61t-88 -32t-99 -10q-172 0 -250 44v104q110 -33 226 -33q159 0 159 78q0 22 -10.5 37t-25.5 23t-38.5 12t-41 5t-42.5 1q-108 0 -210 -22l48 328h398v-119z" />
<glyph unicode="6" horiz-adv-x="612" d="M451 493l-191 -148q52 33 107 33q83 0 151.5 -55.5t68.5 -138.5q0 -58 -28 -100.5t-72.5 -63.5t-88.5 -30t-88 -9q-33 0 -66.5 4.5t-73.5 17.5t-70 34.5t-50 59.5t-20 88q0 137 145 250l183 144zM445 184q0 79 -136 79q-22 0 -42.5 -3t-43.5 -10.5t-37 -24t-14 -40.5 q0 -79 138 -79q135 0 135 78z" />
<glyph unicode="7" horiz-adv-x="526" d="M546 558l-368 -558h-170l302 439h-300v119h536z" />
<glyph unicode="8" horiz-adv-x="635" d="M490 296q48 -11 81.5 -43t33.5 -85q0 -100 -80.5 -144t-207.5 -44q-82 0 -143 16t-102.5 59.5t-41.5 112.5q0 53 33.5 85t81.5 43q-28 10 -52.5 43.5t-24.5 70.5q0 60 36 99t89.5 54t123.5 15t124 -15t90 -54t36 -99q0 -37 -24.5 -70.5t-52.5 -43.5zM455 165 q0 31 -36.5 48.5t-101.5 17.5q-137 -2 -137 -66q0 -31 36 -48t101 -17t101.5 17t36.5 48zM417 405q0 53 -100 53q-99 0 -99 -53q0 -54 99 -54q100 0 100 54z" />
<glyph unicode="9" horiz-adv-x="612" d="M161 67l191 148q-52 -33 -107 -33q-83 0 -151.5 55.5t-68.5 138.5q0 58 28 100.5t72.5 63.5t88.5 30t88 9q33 0 66.5 -4.5t73.5 -17.5t70 -34.5t50 -59.5t20 -88q0 -137 -145 -250l-183 -144zM167 376q0 -79 136 -79q22 0 42.5 3t43.5 10.5t37 24t14 40.5q0 79 -138 79 q-135 0 -135 -78z" />
<glyph unicode=":" horiz-adv-x="264" d="M132 291q-29 0 -51 22t-22 51q0 30 22 51.5t51 21.5t51 -22t22 -51q0 -30 -22 -51.5t-51 -21.5zM132 -20q-29 0 -51 22t-22 51q0 30 22 51.5t51 21.5t51 -22t22 -51q0 -30 -22 -51.5t-51 -21.5z" />
<glyph unicode=";" horiz-adv-x="284" d="M122 -134h-103l63 208h130zM151 295q-29 0 -51 22t-22 51q0 30 22 51.5t51 21.5t51 -22t22 -51q0 -30 -22 -51.5t-51 -21.5z" />
<glyph unicode="&#x3c;" horiz-adv-x="588" d="M556 26l-515 226v84l515 225v-118l-343 -149l343 -150v-118z" />
<glyph unicode="=" horiz-adv-x="612" d="M558 325h-513v112h513v-112zM558 149h-513v112h513v-112z" />
<glyph unicode="&#x3e;" horiz-adv-x="576" d="M556 252l-515 -226v118l343 150l-343 149v118l515 -225v-84z" />
<glyph unicode="?" horiz-adv-x="458" d="M239 140h-135v31q0 43 18 72.5t44 44.5t52.5 28.5t44.5 34t18 51.5q0 30 -30.5 44t-76.5 14q-73 0 -137 -35l-2 114q63 39 160 39q96 0 157.5 -47.5t61.5 -137.5q0 -38 -13 -66.5t-32.5 -43.5t-42 -29t-42 -23t-32.5 -24.5t-13 -35.5v-31zM171 -15q-26 0 -45 19t-19 44 q0 26 19 45.5t45 19.5q25 0 44.5 -19.5t19.5 -44.5t-19.5 -44.5t-44.5 -19.5z" />
<glyph unicode="@" horiz-adv-x="963" d="M682 29v-113q-93 -29 -184 -29q-111 0 -209 43t-160.5 124.5t-62.5 181.5q0 70 27.5 129t72 98.5t102 67t116.5 39.5t116 12q74 0 144.5 -20.5t128.5 -59t93.5 -101.5t35.5 -141q0 -80 -60 -143.5t-160 -63.5q-63 0 -102 26q-46 -23 -120 -23q-77 0 -139.5 44.5 t-62.5 124.5q0 64 44 113.5t102.5 71.5t116.5 22q50 0 89 -9.5t65 -37.5t17 -72l-20 -101q-7 -34 4 -39q4 -2 9 -2q41 0 65 23.5t24 60.5q0 100 -80 154.5t-194 54.5q-130 0 -218.5 -70t-88.5 -161q0 -50 21 -90.5t54 -65.5t74.5 -42t80.5 -23.5t75 -6.5q121 0 184 24z M536 194l22 107q-1 5 -4 8.5t-11 4.5t-11 1h-15q-50 0 -91.5 -23t-41.5 -66q0 -27 24 -40.5t56 -13.5q53 0 72 22z" />
<glyph unicode="A" d="M744 0h-164l-52 87h-313l-52 -87h-163l372 578zM457 207l-85 144l-86 -144h171z" />
<glyph unicode="B" horiz-adv-x="753" d="M471 0h-390v558h371q109 0 159 -36.5t50 -130.5q0 -29 -14.5 -53t-35.5 -36q41 -7 69 -45t28 -86q0 -91 -51.5 -131t-185.5 -40zM471 222h-250v-103h250q48 0 67.5 12.5t19.5 39.5t-19 39t-68 12zM452 438h-231v-96h230q61 0 61 49q0 47 -60 47z" />
<glyph unicode="C" horiz-adv-x="786" d="M711 185v-132q-106 -73 -266 -73q-176 0 -283 86t-107 213t107 213.5t283 86.5q161 0 266 -74v-132q-131 87 -266 87q-104 0 -172 -52.5t-68 -128.5t68 -128t172 -52q136 0 266 86z" />
<glyph unicode="D" horiz-adv-x="818" d="M396 0h-315v558h315q81 0 144.5 -13.5t115 -44t79.5 -86.5t28 -135t-28 -135t-79.5 -86.5t-115 -44t-144.5 -13.5zM221 119h175q32 0 57.5 2.5t57 12t52.5 25.5t35.5 47t14.5 73t-14.5 72.5t-35.5 47t-52.5 26t-56.5 11.5t-58 2h-175v-319z" />
<glyph unicode="E" horiz-adv-x="704" d="M649 0h-568v558h568v-120h-427v-93h350v-119h-351v-107h428v-119z" />
<glyph unicode="F" horiz-adv-x="676" d="M572 212h-351v-212h-140v558h568v-120h-427v-107h350v-119z" />
<glyph unicode="G" horiz-adv-x="841" d="M645 199h-172v119h328q4 -28 4 -39q0 -126 -101 -212.5t-260 -86.5q-176 0 -283 86t-107 213q0 126 106.5 212.5t282.5 86.5q161 0 266 -74v-132q-91 60 -186 79q-75 15 -148 -0.5t-122 -61.5t-49 -110q0 -76 68.5 -128t171.5 -52q73 0 125 27t76 73z" />
<glyph unicode="H" horiz-adv-x="834" d="M753 0h-140v229h-392v-229h-140v558h140v-210h392v210h140v-558z" />
<glyph unicode="I" horiz-adv-x="302" d="M221 0h-140v558h140v-558z" />
<glyph unicode="J" horiz-adv-x="310" d="M-50 -183l2 129q2 0 30 -6.5t45 -6.5q24 0 43 18.5t19 53.5v553h140v-526q0 -70 -15 -118t-43.5 -71t-58.5 -32t-70 -9q-44 0 -92 15z" />
<glyph unicode="K" horiz-adv-x="743" d="M709 558l-253 -226l267 -332h-167l-198 245l-137 -122v-123h-140v558h140v-279l316 279h172z" />
<glyph unicode="L" horiz-adv-x="637" d="M617 0h-537v558h140v-439h397v-119z" />
<glyph unicode="M" horiz-adv-x="1069" d="M1055 0h-150l-111 307l-252 -327l-251 327l-111 -307h-150l216 578l296 -382l297 382z" />
<glyph unicode="N" horiz-adv-x="837" d="M756 -20l-534 351v-331h-141v578l534 -360v340h141v-578z" />
<glyph unicode="O" horiz-adv-x="891" d="M836 279q0 -134 -104 -216.5t-287 -82.5q-178 0 -284 83.5t-106 215.5t106 216t284 84t284.5 -84t106.5 -216zM686 279q0 81 -67.5 131t-173.5 50t-173 -50t-67 -131t67 -130.5t173 -49.5q107 0 174 49t67 131z" />
<glyph unicode="P" horiz-adv-x="704" d="M456 177h-234v-177h-141v558h375q56 0 98.5 -19t65 -49.5t33 -61.5t10.5 -60t-10.5 -60t-33 -61.5t-65 -50t-98.5 -19.5zM420 438h-198v-141h198q53 0 74.5 22t21.5 49q0 26 -21.5 48t-74.5 22z" />
<glyph unicode="Q" horiz-adv-x="889" d="M835 279q0 -102 -62 -171.5t-170 -104.5l175 -97l-78 -113l-175 107l-38 24l-35 22l-29 16q-16 9 -27.5 13.5t-20.5 6.5q-147 29 -234 101.5t-87 195.5q0 124 114.5 212t275.5 88q162 0 276.5 -88t114.5 -212zM685 279q0 76 -68.5 128.5t-172.5 52.5q-103 0 -171.5 -52.5 t-68.5 -128.5t68.5 -128t171.5 -52q105 0 173 51.5t68 128.5z" />
<glyph unicode="R" horiz-adv-x="721" d="M671 0h-162l-104 177h-183v-177h-141v558h375q56 0 98.5 -19t65 -49.5t33 -61.5t10.5 -60q0 -48 -26.5 -97t-81.5 -74zM420 438h-198v-141h198q53 0 74.5 22t21.5 49q0 26 -21.5 48t-74.5 22z" />
<glyph unicode="S" horiz-adv-x="688" d="M594 538l-5 -119q-108 40 -218 40q-37 0 -59 -1t-52.5 -6t-46 -17t-15.5 -31q0 -27 45.5 -39t111 -18.5t131 -19.5t111 -54t45.5 -110q0 -45 -17.5 -78t-45.5 -53t-71 -32t-86.5 -16t-98.5 -4q-127 0 -269 37v127q158 -45 264 -45q93 0 138.5 14.5t45.5 49.5q0 23 -33 35 t-82 15t-107 13t-107 25t-82 54t-33 99q0 44 19.5 77t48.5 51t73 29t83.5 14t88.5 3q107 0 223 -40z" />
<glyph unicode="T" horiz-adv-x="688" d="M413 0h-140v438h-253v120h648v-120h-255v-438z" />
<glyph unicode="U" horiz-adv-x="768" d="M558 256v302h140v-302q0 -137 -86.5 -206.5t-228.5 -69.5q-141 0 -227 69.5t-86 206.5v302h140v-302q0 -83 49 -120t124 -37q76 0 125.5 37t49.5 120z" />
<glyph unicode="V" d="M372 -20l-372 578h164l208 -351l209 351h163z" />
<glyph unicode="W" horiz-adv-x="1004" d="M686 -20l-184 328l-184 -328l-318 578h159l160 -323l183 343l183 -343l160 323h159z" />
<glyph unicode="X" horiz-adv-x="715" d="M710 0h-178l-175 204l-176 -204h-176l265 284l-254 274h176l165 -193l164 193h178l-256 -274z" />
<glyph unicode="Y" horiz-adv-x="753" d="M445 0h-140v224l-305 334h185l190 -224l193 224h185l-308 -334v-224z" />
<glyph unicode="Z" horiz-adv-x="648" d="M628 0h-618l350 439h-303v119h559l-349 -439h361v-119z" />
<glyph unicode="[" horiz-adv-x="309" d="M281 -113h-236v819h237v-68h-107v-680h106v-71z" />
<glyph unicode="\" horiz-adv-x="389" d="M371 -83h-109l-249 736h108z" />
<glyph unicode="]" horiz-adv-x="309" d="M264 -113h-236v71h108v680h-109v68h237v-819z" />
<glyph unicode="^" horiz-adv-x="456" d="M430 360h-119l-82 141l-83 -141h-119l202 332z" />
<glyph unicode="_" horiz-adv-x="507" d="M507 -112h-506v108h506v-108z" />
<glyph unicode="`" horiz-adv-x="333" d="M372 635h-123l-177 170l101 49z" />
<glyph unicode="a" horiz-adv-x="703" d="M703 0h-150l-43 61h-318l-42 -61h-150l351 522zM440 161l-89 127l-89 -127h178z" />
<glyph unicode="b" horiz-adv-x="697" d="M444 0h-363v502h323q212 0 212 -148q0 -23 -16 -46t-34 -31q30 -5 60.5 -40.5t30.5 -79.5q0 -54 -35 -91.5t-81 -51.5t-97 -14zM442 205h-226v-98h226q70 0 70 49t-70 49zM414 395h-198v-92h198q25 0 41 12.5t16 33.5t-16 33.5t-41 12.5z" />
<glyph unicode="c" horiz-adv-x="683" d="M611 172v-140q-92 -50 -201 -50q-97 0 -177.5 30t-131.5 92.5t-51 146.5q0 125 105 197.5t255 72.5q112 0 201 -51v-138q-29 28 -83.5 49t-117.5 21q-92 0 -153.5 -41.5t-61.5 -109.5t61.5 -109t153.5 -41q63 0 118 21.5t83 49.5z" />
<glyph unicode="d" horiz-adv-x="755" d="M383 0h-303v502h303q42 0 84 -7t86 -25t77 -45.5t54 -72.5t21 -101t-21 -101t-54 -72.5t-77 -45.5t-86 -25t-84 -7zM215 117h151q194 0 194 134t-194 134h-151v-268z" />
<glyph unicode="e" horiz-adv-x="645" d="M590 0h-509v502h509v-107h-374v-95h304v-98h-304v-95h374v-107z" />
<glyph unicode="f" horiz-adv-x="622" d="M520 162h-304v-162h-135v502h509v-120h-373v-110h303v-110z" />
<glyph unicode="g" horiz-adv-x="775" d="M582 177h-168v100h319q2 -18 2 -25q0 -61 -29.5 -113.5t-77.5 -86.5t-107.5 -53t-120.5 -19q-142 0 -246 80.5t-104 190.5q0 111 103.5 191t246.5 80q138 0 238 -70v-119q-74 48 -171 63q-37 5 -67 5q-89 0 -147 -43t-58 -107q0 -63 58 -107.5t147 -44.5q126 0 182 78z " />
<glyph unicode="h" horiz-adv-x="760" d="M680 0h-135v192h-330v-192h-135v502h135v-192h330v192h135v-502z" />
<glyph unicode="i" horiz-adv-x="297" d="M216 0h-135v502h135v-502z" />
<glyph unicode="j" horiz-adv-x="299" d="M-57 -188l-1 124q30 -8 65 -8q18 0 28 2t22 10t17.5 28.5t5.5 53.5v480h135v-480q0 -66 -10.5 -110.5t-32 -68t-48.5 -33t-65 -9.5q-65 0 -116 11z" />
<glyph unicode="k" horiz-adv-x="687" d="M665 502l-231 -206l238 -296h-156l-177 211l-123 -110v-101h-135v502h135v-255l276 255h173z" />
<glyph unicode="l" horiz-adv-x="585" d="M560 0h-480v502h135v-385h345v-117z" />
<glyph unicode="m" horiz-adv-x="899" d="M894 0h-142l-97 266l-206 -286l-205 286l-97 -266h-142l208 522l236 -333l237 333z" />
<glyph unicode="n" horiz-adv-x="738" d="M658 -20l-443 303v-283h-135v522l443 -303v283h135v-522z" />
<glyph unicode="o" horiz-adv-x="800" d="M750 251q0 -123 -100.5 -197t-249.5 -74q-147 0 -248.5 74.5t-101.5 196.5q0 123 101 197t249 74q149 0 249.5 -74t100.5 -197zM605 251q0 69 -57 110.5t-148 41.5t-148 -41.5t-57 -110.5q0 -68 57 -110t148 -42t148 42t57 110z" />
<glyph unicode="p" horiz-adv-x="693" d="M432 141h-216v-141h-135v502h351q46 0 82.5 -12t58.5 -31t37 -43.5t21 -47.5t6 -46q0 -29 -10 -58.5t-32 -58t-64.5 -46.5t-98.5 -18zM401 382h-185v-121h185q91 0 91 61q0 60 -91 60z" />
<glyph unicode="q" horiz-adv-x="800" d="M750 251q0 -83 -48 -145t-130 -95l120 -68l-66 -95l-196 112q-26 15 -61 21q-137 9 -228 81.5t-91 188.5q0 123 101 197t249 74q149 0 249.5 -74t100.5 -197zM605 251q0 69 -57 110.5t-148 41.5t-148 -41.5t-57 -110.5q0 -68 57 -110t148 -42t148 42t57 110z" />
<glyph unicode="r" horiz-adv-x="703" d="M649 0h-150l-92 141h-191v-141h-135v502h351q46 0 82.5 -12t58.5 -31t37 -43.5t21 -47.5t6 -46q0 -44 -23 -88.5t-72 -69.5zM411 382h-195v-121h195q81 0 81 61q0 60 -81 60z" />
<glyph unicode="s" horiz-adv-x="634" d="M535 487l-5 -119q-96 35 -192 35h-34q-12 0 -32.5 -1.5t-32 -4t-24.5 -6.5t-18.5 -11.5t-5.5 -17.5q0 -19 29 -29t72 -12.5t94 -11.5t94 -23t72 -49.5t29 -88.5q0 -51 -22 -85.5t-64.5 -52t-90.5 -24t-114 -6.5q-111 0 -245 31v127q149 -39 240 -39q82 0 119.5 11.5 t37.5 37.5q0 21 -40 29t-97.5 13t-115 17t-97.5 51t-40 104q0 41 17.5 71.5t44.5 47t67 26t75.5 12.5t81.5 3q88 0 197 -35z" />
<glyph unicode="t" horiz-adv-x="632" d="M384 0h-135v385h-224v117h582v-117h-223v-385z" />
<glyph unicode="u" horiz-adv-x="722" d="M517 248v254h135v-254q0 -71 -26 -124.5t-69 -84t-92.5 -45t-103.5 -14.5t-103.5 14.5t-92.5 45t-69 84t-26 124.5v254h135v-254q0 -78 46 -113.5t110 -35.5t110 35.5t46 113.5z" />
<glyph unicode="v" horiz-adv-x="685" d="M341 -20l-341 522h159l182 -305l185 305h159z" />
<glyph unicode="w" horiz-adv-x="914" d="M631 -19l-174 285l-174 -285l-278 521h154l132 -285l166 305l166 -306l132 286h154z" />
<glyph unicode="x" horiz-adv-x="670" d="M665 0h-176l-156 177l-156 -177h-172l242 254l-235 248h172l149 -170l149 170h176l-237 -248z" />
<glyph unicode="y" horiz-adv-x="652" d="M394 0h-136v170l-263 332h166l165 -218l165 218h166l-263 -332v-170z" />
<glyph unicode="z" horiz-adv-x="613" d="M593 0h-588l320 385h-278v117h532l-319 -385h333v-117z" />
<glyph unicode="{" horiz-adv-x="338" d="M284 -164h-43q-49 0 -79.5 20.5t-41 53.5t-13.5 72.5t-2.5 79.5t-2.5 73t-19 53.5t-47 20.5v62q36 0 52 27.5t15.5 69t1.5 90t8.5 90t38.5 69t89 27.5h43v-82q-33 -2 -42.5 -15.5t-9.5 -51.5q0 -236 -63 -255q53 -17 61 -167q1 -25 1.5 -53t1 -41t2 -27t7 -19.5 t15.5 -9.5t27 -5v-82z" />
<glyph unicode="|" horiz-adv-x="252" d="M190 -193h-116v860h116v-860z" />
<glyph unicode="}" horiz-adv-x="338" d="M97 -164h-43v82q37 3 44.5 19t7.5 71v15q0 76 14 141t49 76q-63 19 -63 255q0 38 -9.5 51.5t-42.5 15.5v82h43q57 0 89 -27.5t38.5 -69t8.5 -90t1.5 -90t15.5 -69t52 -27.5v-62q-31 0 -47 -20.5t-19 -53.5t-2.5 -73t-2.5 -79.5t-13.5 -72.5t-41 -53.5t-79.5 -20.5z" />
<glyph unicode="~" horiz-adv-x="589" d="M472 381l83 -36q-11 -51 -37.5 -90.5t-65.5 -54.5q-22 -8 -44 -8q-48 0 -123.5 34t-98.5 34q-38 0 -61 -72l-82 33q25 120 104 149q22 8 47 8q29 0 113 -34.5t109 -34.5q37 0 56 72z" />
<glyph unicode="&#xa1;" horiz-adv-x="344" d="M226 458q0 -25 -19 -43.5t-44 -18.5q-26 0 -45.5 19t-19.5 44t19.5 44t45.5 19q25 0 44 -19.5t19 -44.5zM118 353h89l38 -380h-164z" />
<glyph unicode="&#xa2;" horiz-adv-x="692" d="M440 -135h-116v127q-113 25 -189 97t-76 162t76 162.5t189 96.5v125h116v-115q100 -4 180 -50v-138q-29 28 -83.5 49t-117.5 21q-90 0 -152.5 -44t-62.5 -107t62.5 -106.5t152.5 -43.5q63 0 118 21.5t83 49.5v-140q-83 -45 -180 -49v-118z" />
<glyph unicode="&#xa3;" horiz-adv-x="586" d="M537 0h-490v118q51 22 74 48q18 19 22 43h-88v119h63q-12 39 -12 67q0 87 64 140t172 53q30 0 82 -9t75 -24v-122q-78 37 -134 37q-52 0 -77 -26.5t-25 -71.5q0 -25 5 -44h178v-119h-153q-7 -31 -27 -56q-17 -21 -36 -35h307v-118z" />
<glyph unicode="&#xa4;" horiz-adv-x="588" d="M554 76l-53 -48l-71 70q-61 -42 -137 -42t-137 42l-71 -70l-53 48l73 75q-41 56 -41 125t41 125l-73 75l53 48l71 -70q61 42 137 42t137 -42l71 70l53 -48l-73 -75q41 -56 41 -125t-41 -125zM394 276q0 43 -29.5 67t-70.5 24t-71.5 -24t-30.5 -67t29.5 -67t70.5 -24 t71.5 24t30.5 67z" />
<glyph unicode="&#xa5;" horiz-adv-x="753" d="M445 0h-140v63h-191v61h191v35h-191v62h191v3l-305 334h185l190 -224l193 224h185l-308 -334v-3h191v-62h-191v-35h191v-61h-191v-63z" />
<glyph unicode="&#xa6;" horiz-adv-x="241" d="M183 299h-119v352h119v-352zM183 -182h-119v349h119v-349z" />
<glyph unicode="&#xa7;" horiz-adv-x="600" d="M51 -160v128q34 -26 106 -43t138 -17q26 0 49 3.5t37 8.5t24.5 11t15 10.5t4.5 7.5q0 28 -40 40t-97 16.5t-114 15t-97 47.5t-40 101q0 63 56 103q-59 38 -59 120q0 48 40.5 85t94.5 53.5t108 16.5q81 0 126.5 -5.5t99.5 -26.5v-128q-69 42 -202 42q-19 0 -45 -2 t-60 -13.5t-34 -30.5t40 -28.5t96.5 -16t113 -18.5t96.5 -47t40 -92q0 -74 -59 -118q63 -44 63 -105q0 -85 -73 -126.5t-186 -41.5q-170 0 -242 50zM421 172q0 20 -33.5 31t-81.5 11q-57 0 -99.5 -14.5t-42.5 -39.5q0 -21 38 -33.5t88 -12.5q54 0 92.5 15t38.5 43z" />
<glyph unicode="&#xa8;" horiz-adv-x="383" d="M356 706q0 -28 -22 -49.5t-51 -21.5t-50.5 21t-21.5 50t21.5 51t49.5 22q30 0 52 -21.5t22 -51.5zM171 706q0 -29 -21.5 -50t-51.5 -21q-28 0 -49.5 21.5t-21.5 49.5q0 29 21.5 51t49.5 22q30 0 51.5 -21.5t21.5 -51.5z" />
<glyph unicode="&#xa9;" horiz-adv-x="849" d="M803 333q0 -80 -32 -145t-86 -105.5t-120 -62t-137 -21.5q-97 0 -180.5 36.5t-138.5 114t-55 183.5q0 107 55 185t138.5 114t180.5 36q71 0 137 -21.5t120 -62t86 -105.5t32 -146zM728 333q0 83 -44.5 143.5t-111 88.5t-144.5 28q-120 0 -209 -69t-89 -191t89 -191 t209 -69q78 0 144.5 28t111 88.5t44.5 143.5zM638 285v-106q-99 -66 -193 -66q-68 0 -130.5 24.5t-105.5 75.5t-43 118q0 100 89.5 161.5t200.5 61.5q96 0 182 -57v-108q-80 65 -184 65q-62 0 -115 -31t-53 -93q0 -58 49.5 -85.5t110.5 -27.5q53 0 97.5 12.5t94.5 55.5z" />
<glyph unicode="&#xaa;" horiz-adv-x="394" d="M378 343h-80l-23 32h-169l-22 -32h-80l187 278zM232 438l-41 58l-42 -58h83z" />
<glyph unicode="&#xab;" horiz-adv-x="485" d="M451 41l-60 -30l-191 204l189 192l69 -14l-113 -177zM277 41l-60 -30l-190 204l187 192l71 -14l-114 -177z" />
<glyph unicode="&#xad;" horiz-adv-x="381" d="M322 165h-263v118h263v-118z" />
<glyph unicode="&#xae;" horiz-adv-x="883" d="M823 333q0 -80 -33.5 -145t-89.5 -105.5t-123.5 -62t-138.5 -21.5q-72 0 -139.5 21.5t-122.5 62t-88.5 105.5t-33.5 145q0 81 33.5 146.5t88.5 105.5t122.5 61.5t139.5 21.5q71 0 138.5 -21.5t123.5 -62t89.5 -106t33.5 -145.5zM438 73q119 0 205 61h-63l-72 113h-170 v-113h-104q86 -61 204 -61zM748 333q0 82 -47 143t-116 89t-147 28q-112 0 -198 -57h287q124 0 156 -97q8 -26 8 -47q0 -36 -19.5 -72t-60.5 -56l67 -101q70 68 70 170zM130 333q0 -124 100 -196v392q-100 -73 -100 -196zM502 440h-164v-97h164q73 0 73 49q0 48 -73 48z" />
<glyph unicode="&#xaf;" horiz-adv-x="360" d="M342 636h-324v94h324v-94z" />
<glyph unicode="&#xb0;" horiz-adv-x="389" d="M197 364q-64 0 -109.5 45.5t-45.5 109.5q0 63 46 109t109 46t108 -46t45 -109q0 -64 -45 -109.5t-108 -45.5zM197 443q30 0 52.5 22.5t22.5 53.5q0 30 -22.5 52t-52.5 22q-31 0 -53.5 -22t-22.5 -52q0 -31 22.5 -53.5t53.5 -22.5z" />
<glyph unicode="&#xb1;" horiz-adv-x="608" d="M45 -27v106h515v-106h-515zM359 101h-115v202h-199v113h199v201h115v-201h200v-113h-200v-202z" />
<glyph unicode="&#xb2;" horiz-adv-x="586" d="M536 0h-506v120q190 96 244 131q108 70 108 128q0 44 -29.5 61.5t-86.5 17.5q-107 0 -203 -45v125q93 40 203 40q127 0 196.5 -49t69.5 -150q0 -34 -12.5 -64t-38.5 -55.5t-49.5 -44t-64.5 -39t-62 -30t-62 -26.5h293v-120z" />
<glyph unicode="&#xb3;" horiz-adv-x="597" d="M292 225h-106v120h106q36 0 62 14t26 45q0 33 -32 43.5t-95 10.5q-52 0 -113 -10t-74 -20v120q74 30 187 30q41 0 71.5 -2.5t70.5 -12.5t66 -28t44 -51.5t18 -80.5q0 -38 -25 -69t-50 -35q51 -9 75 -50t24 -82q0 -49 -19 -85t-46 -55t-69.5 -30t-78 -14t-81.5 -3 q-56 0 -120.5 11.5t-102.5 32.5v118q106 -42 223 -42q83 0 117 16.5t34 49.5q0 59 -112 59z" />
<glyph unicode="&#xb4;" horiz-adv-x="331" d="M346 795l-182 -161h-101l183 228z" />
<glyph unicode="&#xb5;" horiz-adv-x="969" d="M927 0h-142l-97 266l-206 -286l-205 286l-97 -266h-142l208 522l236 -333l237 333z" />
<glyph unicode="&#x3bc;" horiz-adv-x="969" d="M927 0h-142l-97 266l-206 -286l-205 286l-97 -266h-142l208 522l236 -333l237 333z" />
<glyph unicode="&#xb6;" horiz-adv-x="567" d="M459 -167h-96v646h-59v-646h-95v298q-96 5 -144.5 62.5t-48.5 161.5q0 110 53 157t164 47h226v-726z" />
<glyph unicode="&#xb7;" horiz-adv-x="276" d="M145 190q-29 0 -51 22t-22 51q0 30 22 51.5t51 21.5t51 -22t22 -51q0 -30 -22 -51.5t-51 -21.5z" />
<glyph unicode="&#xb8;" horiz-adv-x="297" d="M64 -211l20 38q23 -13 53 -13q25 0 42.5 12t17.5 38q0 40 -61 40q-4 0 -10 -0.5t-9 -0.5l53 104h58l-28 -58q39 -2 68 -25.5t29 -57.5q0 -54 -35.5 -78.5t-88.5 -24.5q-62 0 -109 26z" />
<glyph unicode="&#xb9;" horiz-adv-x="370" d="M290 0h-140v387l-53 -61l-87 82l150 150h130v-558z" />
<glyph unicode="&#xba;" horiz-adv-x="378" d="M349 494q0 -66 -47 -107.5t-115 -41.5q-66 0 -112 40t-46 104q0 65 49 107t115 42t111 -40t45 -104zM197 398q50 0 50 90q0 38 -15.5 66.5t-44.5 28.5q-28 0 -41 -25t-13 -61q0 -41 16 -70t48 -29z" />
<glyph unicode="&#xbb;" horiz-adv-x="485" d="M94 11l-60 30l106 175l-113 177l69 14l189 -192zM268 11l-60 30l106 175l-114 177l71 14l187 -192z" />
<glyph unicode="&#xbc;" horiz-adv-x="1107" d="M308 215h-105v290l-39 -46l-66 62l113 112h97v-418zM953 0h-105v68h-251v89l251 261h105v-261h64v-89h-64v-68zM848 157v142l-137 -142h137zM423 -82h-123l239 705h124z" />
<glyph unicode="&#xbd;" horiz-adv-x="1097" d="M309 215h-105v290l-39 -46l-66 62l113 112h97v-418zM1019 0h-380v90q156 79 199 109q65 46 65 85q0 33 -22 46t-65 13q-80 0 -152 -33v93q70 30 152 30q200 0 200 -149q0 -30 -15.5 -57.5t-35 -45.5t-54.5 -38t-55 -29l-57 -24h220v-90zM414 -82h-123l239 705h124z" />
<glyph unicode="&#xbe;" horiz-adv-x="1202" d="M1037 0h-105v68h-251v89l251 261h105v-261h64v-89h-64v-68zM932 157v142l-137 -142h137zM507 -82h-123l239 705h124zM235 384h-80v90h80q66 0 66 44q0 25 -24 32.5t-71 7.5q-40 0 -85.5 -7t-55.5 -15v90q54 22 141 22q30 0 53.5 -2t53 -9.5t49 -20.5t33 -38.5t13.5 -60.5 q0 -28 -19 -51.5t-37 -26.5q39 -7 56.5 -37.5t17.5 -61.5q0 -46 -19.5 -75.5t-55 -42.5t-68.5 -17.5t-77 -4.5q-109 0 -168 33v88q80 -31 168 -31q113 0 113 49q0 45 -84 45z" />
<glyph unicode="&#xbf;" horiz-adv-x="457" d="M215 360h135v-31q0 -43 -18 -72.5t-44 -44.5t-52.5 -28.5t-44.5 -34t-18 -51.5q0 -30 30.5 -44t76.5 -14q73 0 137 35l2 -114q-63 -39 -160 -39q-96 0 -157.5 47.5t-61.5 137.5q0 38 13 66.5t32.5 43.5t42 29t42 23t32.5 24.5t13 35.5v31zM283 515q26 0 45 -19t19 -44 q0 -26 -19 -45.5t-45 -19.5q-25 0 -44.5 19.5t-19.5 44.5t19.5 44.5t44.5 19.5z" />
<glyph unicode="&#xc0;" d="M744 0h-164l-52 87h-313l-52 -87h-163l372 578zM457 207l-85 144l-86 -144h171zM469 635h-123l-177 170l101 49z" />
<glyph unicode="&#xc1;" d="M744 0h-164l-52 87h-313l-52 -87h-163l372 578zM457 207l-85 144l-86 -144h171zM617 795l-182 -161h-101l183 228z" />
<glyph unicode="&#xc2;" d="M744 0h-164l-52 87h-313l-52 -87h-163l372 578zM457 207l-85 144l-86 -144h171zM544 636h-87l-85 78l-85 -78h-87l172 223z" />
<glyph unicode="&#xc3;" d="M744 0h-164l-52 87h-313l-52 -87h-163l372 578zM457 207l-85 144l-86 -144h171zM466 774h73q-2 -29 -3.5 -44t-7 -36.5t-15.5 -31.5t-28.5 -18t-45.5 -8q-33 0 -78 19t-54 19q-8 0 -11.5 -1t-8 -7.5t-6.5 -20.5h-75q0 32 3 53.5t13 42.5t32 31.5t56 10.5q18 0 62 -20 t60 -20q10 0 15 1t10.5 8t8.5 22z" />
<glyph unicode="&#xc4;" d="M744 0h-164l-52 87h-313l-52 -87h-163l372 578zM457 207l-85 144l-86 -144h171zM537 706q0 -28 -22 -49.5t-51 -21.5t-50.5 21t-21.5 50t21.5 51t49.5 22q30 0 52 -21.5t22 -51.5zM352 706q0 -29 -21.5 -50t-51.5 -21q-29 0 -50 21.5t-21 49.5q0 29 21.5 51t49.5 22 q30 0 51.5 -21.5t21.5 -51.5z" />
<glyph unicode="&#xc5;" d="M744 0h-164l-52 87h-313l-52 -87h-163l372 578zM457 207l-85 144l-86 -144h171zM372 616q-52 0 -89 32.5t-37 83.5q0 49 37.5 82.5t88.5 33.5q52 0 89 -33t37 -82q0 -52 -36.5 -84.5t-89.5 -32.5zM372 702q12 0 20 9t8 22q0 10 -9 18.5t-19 8.5q-11 0 -19.5 -8.5 t-8.5 -18.5q0 -13 8.5 -22t19.5 -9z" />
<glyph unicode="&#xc6;" horiz-adv-x="1108" d="M1033 0h-452v87h-315l-85 -87h-163l563 558h452v-120h-337v-87h270v-119h-271v-113h338v-119zM581 207v203l-200 -203h200z" />
<glyph unicode="&#xc7;" horiz-adv-x="785" d="M276 -211l20 38q23 -13 53 -13q25 0 42.5 12t17.5 38q0 40 -61 40q-4 0 -10 -0.5t-9 -0.5l41 82q-145 18 -230.5 100t-85.5 194q0 127 107 213.5t283 86.5q161 0 266 -74v-132q-54 36 -125 61.5t-141 25.5q-104 0 -172 -52.5t-68 -128.5t68 -128t172 -52q136 0 266 86 v-132q-106 -73 -266 -73q-3 0 -9 0.5t-8 0.5l-15 -32q39 -2 68 -25.5t29 -57.5q0 -54 -35.5 -78.5t-88.5 -24.5q-62 0 -109 26z" />
<glyph unicode="&#xc8;" horiz-adv-x="704" d="M649 0h-568v558h568v-120h-427v-93h350v-119h-351v-107h428v-119zM465 666h-123l-177 170l101 49z" />
<glyph unicode="&#xc9;" horiz-adv-x="704" d="M649 0h-568v558h568v-120h-427v-93h350v-119h-351v-107h428v-119zM613 826l-182 -161h-101l183 228z" />
<glyph unicode="&#xca;" horiz-adv-x="704" d="M649 0h-568v558h568v-120h-427v-93h350v-119h-351v-107h428v-119zM540 667h-87l-85 78l-85 -78h-87l172 223z" />
<glyph unicode="&#xcb;" horiz-adv-x="704" d="M649 0h-568v558h568v-120h-427v-93h350v-119h-351v-107h428v-119zM533 737q0 -28 -22 -49.5t-51 -21.5t-50.5 21t-21.5 50t21.5 51t49.5 22q30 0 52 -21.5t22 -51.5zM348 737q0 -29 -21.5 -50t-51.5 -21q-29 0 -50 21t-21 50t21.5 51t49.5 22q30 0 51.5 -21.5t21.5 -51.5 z" />
<glyph unicode="&#xcc;" horiz-adv-x="302" d="M221 0h-140v558h140v-558zM246 665h-123l-177 170l101 49z" />
<glyph unicode="&#xcd;" horiz-adv-x="302" d="M221 0h-140v558h140v-558zM394 825l-182 -161h-101l183 228z" />
<glyph unicode="&#xce;" horiz-adv-x="302" d="M221 0h-140v558h140v-558zM321 666h-87l-85 78l-85 -78h-87l172 223z" />
<glyph unicode="&#xcf;" horiz-adv-x="302" d="M221 0h-140v558h140v-558zM314 736q0 -28 -22 -49.5t-51 -21.5t-50.5 21t-21.5 50t21.5 51t49.5 22q30 0 52 -21.5t22 -51.5zM129 736q0 -29 -21.5 -50t-51.5 -21q-28 0 -49.5 21.5t-21.5 49.5q0 29 21.5 51t49.5 22q30 0 51.5 -21.5t21.5 -51.5z" />
<glyph unicode="&#xd0;" horiz-adv-x="789" d="M352 0h-288v219h-63v119h63v220h288q187 0 291.5 -80t104.5 -199t-105 -199t-291 -80zM192 119h156q123 0 189.5 46.5t66.5 113.5q0 65 -67.5 112t-188.5 47h-156v-100h54v-119h-54v-100z" />
<glyph unicode="&#xd1;" horiz-adv-x="837" d="M756 -20l-534 351v-331h-141v578l534 -360v340h141v-578zM512 804h73q-2 -29 -3.5 -44t-7 -36.5t-15.5 -31.5t-28.5 -18t-45.5 -8q-33 0 -78 19t-54 19q-8 0 -11.5 -1t-8 -7.5t-6.5 -20.5h-75q0 32 3 53.5t13 42.5t32 31.5t56 10.5q18 0 62 -20t60 -20q10 0 15 1t10.5 8 t8.5 22z" />
<glyph unicode="&#xd2;" horiz-adv-x="891" d="M836 279q0 -134 -104 -216.5t-287 -82.5q-178 0 -284 83.5t-106 215.5t106 216t284 84t284.5 -84t106.5 -216zM686 279q0 81 -67.5 131t-173.5 50t-173 -50t-67 -131t67 -130.5t173 -49.5q107 0 174 49t67 131zM534 626h-123l-177 170l101 49z" />
<glyph unicode="&#xd3;" horiz-adv-x="891" d="M836 279q0 -134 -104 -216.5t-287 -82.5q-178 0 -284 83.5t-106 215.5t106 216t284 84t284.5 -84t106.5 -216zM686 279q0 81 -67.5 131t-173.5 50t-173 -50t-67 -131t67 -130.5t173 -49.5q107 0 174 49t67 131zM718 789l-182 -161h-101l183 228z" />
<glyph unicode="&#xd4;" horiz-adv-x="891" d="M836 279q0 -134 -104 -216.5t-287 -82.5q-178 0 -284 83.5t-106 215.5t106 216t284 84t284.5 -84t106.5 -216zM686 279q0 81 -67.5 131t-173.5 50t-173 -50t-67 -131t67 -130.5t173 -49.5q107 0 174 49t67 131zM623 626h-87l-85 78l-85 -78h-87l172 223z" />
<glyph unicode="&#xd5;" horiz-adv-x="891" d="M836 279q0 -134 -104 -216.5t-287 -82.5q-178 0 -284 83.5t-106 215.5t106 216t284 84t284.5 -84t106.5 -216zM686 279q0 81 -67.5 131t-173.5 50t-173 -50t-67 -131t67 -130.5t173 -49.5q107 0 174 49t67 131zM543 768h73q-2 -29 -3.5 -44t-7 -36.5t-15.5 -31.5 t-28.5 -18t-45.5 -8q-32 0 -78 19t-54 19t-11.5 -1t-8 -7.5t-6.5 -20.5h-75q0 32 3 53.5t13 42.5t32 31.5t56 10.5q19 0 63 -20t59 -20q10 0 15 1t10.5 8t8.5 22z" />
<glyph unicode="&#xd6;" horiz-adv-x="891" d="M836 279q0 -134 -104 -216.5t-287 -82.5q-178 0 -284 83.5t-106 215.5t106 216t284 84t284.5 -84t106.5 -216zM686 279q0 81 -67.5 131t-173.5 50t-173 -50t-67 -131t67 -130.5t173 -49.5q107 0 174 49t67 131zM613 697q0 -28 -22 -49.5t-51 -21.5t-50.5 21t-21.5 50 t21.5 51t49.5 22q30 0 52 -21.5t22 -51.5zM428 697q0 -29 -21.5 -50t-51.5 -21q-29 0 -50 21t-21 50t21.5 51t49.5 22q30 0 51.5 -21.5t21.5 -51.5z" />
<glyph unicode="&#xd7;" horiz-adv-x="597" d="M479 36l-168 165l-165 -166l-80 84l163 165l-163 164l80 83l167 -167l164 166l83 -82l-167 -164l167 -166z" />
<glyph unicode="&#xd8;" horiz-adv-x="899" d="M412 -78h-123l25 73q-120 28 -187.5 103.5t-67.5 180.5q0 132 106 216t284 84q32 0 62 -3l17 51h124l-26 -76q101 -35 157.5 -106.5t56.5 -165.5q0 -134 -104 -216.5t-287 -82.5h-18zM209 279q0 -61 38.5 -105t105.5 -63l118 348q-7 1 -22 1q-106 0 -173 -50t-67 -131z M690 279q0 103 -105 153l-113 -333q98 6 158 54.5t60 125.5z" />
<glyph unicode="&#xd9;" horiz-adv-x="751" d="M560 256v302h140v-302q0 -137 -86.5 -206.5t-228.5 -69.5q-141 0 -227 69.5t-86 206.5v302h140v-302q0 -83 49 -120t124 -37q76 0 125.5 37t49.5 120zM470 623h-123l-177 170l101 49z" />
<glyph unicode="&#xda;" horiz-adv-x="751" d="M560 256v302h140v-302q0 -137 -86.5 -206.5t-228.5 -69.5q-141 0 -227 69.5t-86 206.5v302h140v-302q0 -83 49 -120t124 -37q76 0 125.5 37t49.5 120zM654 786l-182 -161h-101l183 228z" />
<glyph unicode="&#xdb;" horiz-adv-x="751" d="M560 256v302h140v-302q0 -137 -86.5 -206.5t-228.5 -69.5q-141 0 -227 69.5t-86 206.5v302h140v-302q0 -83 49 -120t124 -37q76 0 125.5 37t49.5 120zM559 623h-87l-85 78l-85 -78h-87l172 223z" />
<glyph unicode="&#xdc;" horiz-adv-x="751" d="M560 256v302h140v-302q0 -137 -86.5 -206.5t-228.5 -69.5q-141 0 -227 69.5t-86 206.5v302h140v-302q0 -83 49 -120t124 -37q76 0 125.5 37t49.5 120zM549 694q0 -28 -22 -49.5t-51 -21.5t-50.5 21t-21.5 50t21.5 51t49.5 22q30 0 52 -21.5t22 -51.5zM364 694 q0 -29 -21.5 -50t-51.5 -21q-29 0 -50 21.5t-21 49.5q0 29 21.5 51t49.5 22q30 0 51.5 -21.5t21.5 -51.5z" />
<glyph unicode="&#xdd;" horiz-adv-x="753" d="M445 0h-140v224l-305 334h185l190 -224l193 224h185l-308 -334v-224zM627 825l-182 -161h-101l183 228z" />
<glyph unicode="&#xde;" horiz-adv-x="691" d="M393 140h-169v-140h-128v559h128v-113h169q107 0 158 -43.5t51 -109.5t-51 -109.5t-158 -43.5zM393 328h-169v-69h169q38 0 59.5 10t21.5 24q0 15 -21.5 25t-59.5 10z" />
<glyph unicode="&#xdf;" horiz-adv-x="753" d="M406 0h-122v118h148q79 0 100 9q28 12 28 46q0 24 -8 39t-25.5 21t-30 7t-37.5 1h-8h-167v119h115h26q7 0 24 1.5t24.5 5t18 9.5t14.5 16.5t4 24.5q0 32 -87 32h-115q-100 0 -100 -32v-417h-127v419q0 32 10.5 56.5t24 40t39.5 26.5t43 16t50 7.5t45 2.5h42h48h43 q13 0 48.5 -2.5t54.5 -7.5t47.5 -16t44 -26.5t27 -40t11.5 -56.5q0 -36 -13 -58t-39 -46q101 -52 101 -142q0 -36 -11 -64t-26 -46t-42 -31t-48 -19t-56.5 -9t-54 -3.5t-53.5 -0.5h-11z" />
<glyph unicode="&#xe0;" horiz-adv-x="703" d="M703 0h-150l-43 61h-318l-42 -61h-150l351 522zM440 161l-89 127l-89 -127h178zM448 600h-123l-177 170l101 49z" />
<glyph unicode="&#xe1;" horiz-adv-x="703" d="M703 0h-150l-43 61h-318l-42 -61h-150l351 522zM440 161l-89 127l-89 -127h178zM596 760l-182 -161h-101l183 228z" />
<glyph unicode="&#xe2;" horiz-adv-x="703" d="M703 0h-150l-43 61h-318l-42 -61h-150l351 522zM440 161l-89 127l-89 -127h178zM523 601h-87l-85 78l-85 -78h-87l172 223z" />
<glyph unicode="&#xe3;" horiz-adv-x="703" d="M703 0h-150l-43 61h-318l-42 -61h-150l351 522zM440 161l-89 127l-89 -127h178zM445 739h73q-2 -29 -3.5 -44t-7 -36.5t-15.5 -31.5t-28.5 -18t-45.5 -8q-32 0 -78 19t-54 19t-11.5 -1t-8 -7.5t-6.5 -20.5h-75q0 32 3 53.5t13 42.5t32 31.5t56 10.5q19 0 63 -20t59 -20 q10 0 15 1t10.5 8t8.5 22z" />
<glyph unicode="&#xe4;" horiz-adv-x="703" d="M703 0h-150l-43 61h-318l-42 -61h-150l351 522zM440 161l-89 127l-89 -127h178zM516 671q0 -28 -22 -49.5t-51 -21.5t-50.5 21t-21.5 50t21.5 51t49.5 22q30 0 52 -21.5t22 -51.5zM331 671q0 -29 -21.5 -50t-51.5 -21q-28 0 -49.5 21t-21.5 50t21.5 51t49.5 22 q30 0 51.5 -21.5t21.5 -51.5z" />
<glyph unicode="&#xe5;" horiz-adv-x="703" d="M703 0h-150l-43 61h-318l-42 -61h-150l351 522zM440 161l-89 127l-89 -127h178zM351 581q-52 0 -89 32.5t-37 83.5q0 49 37.5 82.5t88.5 33.5q52 0 89 -33t37 -82q0 -52 -36.5 -84.5t-89.5 -32.5zM351 667q12 0 20 9t8 22q0 10 -9 18.5t-19 8.5q-11 0 -19.5 -8.5 t-8.5 -18.5q0 -12 8.5 -21.5t19.5 -9.5z" />
<glyph unicode="&#xe6;" horiz-adv-x="988" d="M-9 0l552 502h395v-117h-269v-65h211v-118h-212v-85h270v-117h-395v61h-334l-68 -61h-150zM543 351l-221 -190h221v190z" />
<glyph unicode="&#xe7;" horiz-adv-x="683" d="M225 -211l20 38q23 -13 53 -13q25 0 42.5 12t17.5 38q0 40 -61 40q-4 0 -10 -0.5t-9 -0.5l44 86q-120 20 -196 88t-76 174q0 125 105 197.5t255 72.5q112 0 201 -51v-138q-29 28 -83.5 49t-117.5 21q-92 0 -153.5 -41.5t-61.5 -109.5t61.5 -109t153.5 -41q63 0 118 21.5 t83 49.5v-140q-92 -50 -201 -50q-6 0 -17 0.5t-16 0.5l-16 -34q39 -2 68 -25.5t29 -57.5q0 -54 -35.5 -78.5t-88.5 -24.5q-62 0 -109 26z" />
<glyph unicode="&#xe8;" horiz-adv-x="635" d="M590 0h-509v502h509v-107h-374v-95h304v-98h-304v-95h374v-107zM453 577h-123l-177 170l101 49z" />
<glyph unicode="&#xe9;" horiz-adv-x="635" d="M590 0h-509v502h509v-107h-374v-95h304v-98h-304v-95h374v-107zM583 736l-182 -161h-101l183 228z" />
<glyph unicode="&#xea;" horiz-adv-x="635" d="M590 0h-509v502h509v-107h-374v-95h304v-98h-304v-95h374v-107zM514 577h-87l-85 78l-85 -78h-87l172 223z" />
<glyph unicode="&#xeb;" horiz-adv-x="635" d="M590 0h-509v502h509v-107h-374v-95h304v-98h-304v-95h374v-107zM510 647q0 -28 -22 -49.5t-51 -21.5t-50.5 21t-21.5 50t21.5 51t49.5 22q30 0 52 -21.5t22 -51.5zM325 647q0 -29 -21.5 -50t-51.5 -21q-28 0 -49.5 21t-21.5 50t21.5 51t49.5 22q30 0 51.5 -21.5 t21.5 -51.5z" />
<glyph unicode="&#xec;" horiz-adv-x="336" d="M220 0h-135v502h135v-502zM269 575h-123l-177 170l101 49z" />
<glyph unicode="&#xed;" horiz-adv-x="333" d="M216 0h-135v502h135v-502zM389 735l-182 -161h-101l183 228z" />
<glyph unicode="&#xee;" horiz-adv-x="324" d="M223 0h-135v502h135v-502zM330 576h-87l-85 78l-85 -78h-87l172 223z" />
<glyph unicode="&#xef;" horiz-adv-x="321" d="M229 0h-135v502h135v-502zM325 646q0 -28 -22 -49.5t-51 -21.5t-50.5 21t-21.5 50t21.5 51t49.5 22q30 0 52 -21.5t22 -51.5zM140 646q0 -29 -21.5 -50t-51.5 -21q-29 0 -50 21.5t-21 49.5q0 29 21.5 51t49.5 22q30 0 51.5 -21.5t21.5 -51.5z" />
<glyph unicode="&#xf0;" horiz-adv-x="680" d="M414 519l-26 -27l85 -75q145 -129 145 -242q0 -58 -29 -99t-76 -60.5t-89.5 -27t-85.5 -7.5q-44 0 -88 9t-88.5 29t-72.5 60.5t-28 95.5q0 79 71.5 131t158.5 52q40 0 67 -13l-59 52l-30 -31l-64 61l28 29l-36 32l93 91l32 -29l28 29zM203 174q0 -40 43.5 -58.5 t92.5 -18.5q21 0 42.5 3.5t44 11.5t36.5 24.5t14 38.5q0 37 -41.5 56.5t-95.5 19.5q-33 0 -62 -6.5t-51.5 -25t-22.5 -45.5z" />
<glyph unicode="&#xf1;" horiz-adv-x="738" d="M658 -20l-443 303v-283h-135v522l443 -303v283h135v-522zM464 739h73q-2 -29 -3.5 -44t-7 -36.5t-15.5 -31.5t-28.5 -18t-45.5 -8q-33 0 -78 19t-54 19q-8 0 -11.5 -1t-8 -7.5t-6.5 -20.5h-75q0 32 3 53.5t13 42.5t32 31.5t56 10.5q18 0 62 -20t60 -20q10 0 15 1t10.5 8 t8.5 22z" />
<glyph unicode="&#xf2;" horiz-adv-x="800" d="M750 251q0 -123 -100.5 -197t-249.5 -74q-147 0 -248.5 74.5t-101.5 196.5q0 123 101 197t249 74q149 0 249.5 -74t100.5 -197zM605 251q0 69 -57 110.5t-148 41.5t-148 -41.5t-57 -110.5q0 -68 57 -110t148 -42t148 42t57 110zM497 600h-123l-177 170l101 49z" />
<glyph unicode="&#xf3;" horiz-adv-x="800" d="M750 251q0 -123 -100.5 -197t-249.5 -74q-147 0 -248.5 74.5t-101.5 196.5q0 123 101 197t249 74q149 0 249.5 -74t100.5 -197zM605 251q0 69 -57 110.5t-148 41.5t-148 -41.5t-57 -110.5q0 -68 57 -110t148 -42t148 42t57 110zM645 760l-182 -161h-101l183 228z" />
<glyph unicode="&#xf4;" horiz-adv-x="800" d="M750 251q0 -123 -100.5 -197t-249.5 -74q-147 0 -248.5 74.5t-101.5 196.5q0 123 101 197t249 74q149 0 249.5 -74t100.5 -197zM605 251q0 69 -57 110.5t-148 41.5t-148 -41.5t-57 -110.5q0 -68 57 -110t148 -42t148 42t57 110zM572 601h-87l-85 78l-85 -78h-87l172 223z " />
<glyph unicode="&#xf5;" horiz-adv-x="800" d="M750 251q0 -123 -100.5 -197t-249.5 -74q-147 0 -248.5 74.5t-101.5 196.5q0 123 101 197t249 74q149 0 249.5 -74t100.5 -197zM605 251q0 69 -57 110.5t-148 41.5t-148 -41.5t-57 -110.5q0 -68 57 -110t148 -42t148 42t57 110zM494 739h73q-2 -29 -3.5 -44t-7 -36.5 t-15.5 -31.5t-28.5 -18t-45.5 -8q-33 0 -78 19t-54 19q-8 0 -11.5 -1t-8 -7.5t-6.5 -20.5h-75q0 32 3 53.5t13 42.5t32 31.5t56 10.5q18 0 62 -20t60 -20q10 0 15 1t10.5 8t8.5 22z" />
<glyph unicode="&#xf6;" horiz-adv-x="800" d="M750 251q0 -123 -100.5 -197t-249.5 -74q-147 0 -248.5 74.5t-101.5 196.5q0 123 101 197t249 74q149 0 249.5 -74t100.5 -197zM605 251q0 69 -57 110.5t-148 41.5t-148 -41.5t-57 -110.5q0 -68 57 -110t148 -42t148 42t57 110zM565 671q0 -28 -22 -49.5t-51 -21.5 t-50.5 21t-21.5 50t21.5 51t49.5 22q30 0 52 -21.5t22 -51.5zM380 671q0 -29 -21.5 -50t-51.5 -21q-29 0 -50 21t-21 50t21.5 51t49.5 22q30 0 51.5 -21.5t21.5 -51.5z" />
<glyph unicode="&#xf7;" horiz-adv-x="572" d="M369 447q0 -28 -22 -50t-51 -22q-30 0 -52.5 21.5t-22.5 51.5t22.5 52t52.5 22q29 0 51 -22t22 -53zM553 227h-514v113h514v-113zM297 46q-31 0 -53.5 21.5t-22.5 50.5q0 30 22.5 52t53.5 22q28 0 50.5 -22t22.5 -51q0 -28 -22.5 -50.5t-50.5 -22.5z" />
<glyph unicode="&#xf8;" horiz-adv-x="800" d="M341 -93h-123l32 96q-91 31 -145.5 95.5t-54.5 152.5q0 123 101 197t249 74q17 0 26 -1l31 91h124l-38 -111q94 -30 150.5 -95t56.5 -155q0 -123 -100.5 -197t-249.5 -74q-23 0 -34 1zM605 251q0 95 -102 134l-97 -286q89 2 144 43t55 109zM195 251q0 -44 25 -78.5 t70 -53.5l96 283q-86 -3 -138.5 -44t-52.5 -107z" />
<glyph unicode="&#xf9;" horiz-adv-x="722" d="M517 248v254h135v-254q0 -71 -26 -124.5t-69 -84t-92.5 -45t-103.5 -14.5t-103.5 14.5t-92.5 45t-69 84t-26 124.5v254h135v-254q0 -78 46 -113.5t110 -35.5t110 35.5t46 113.5zM448 558h-123l-177 170l101 49z" />
<glyph unicode="&#xfa;" horiz-adv-x="722" d="M517 248v254h135v-254q0 -71 -26 -124.5t-69 -84t-92.5 -45t-103.5 -14.5t-103.5 14.5t-92.5 45t-69 84t-26 124.5v254h135v-254q0 -78 46 -113.5t110 -35.5t110 35.5t46 113.5zM632 721l-182 -161h-101l183 228z" />
<glyph unicode="&#xfb;" horiz-adv-x="722" d="M517 248v254h135v-254q0 -71 -26 -124.5t-69 -84t-92.5 -45t-103.5 -14.5t-103.5 14.5t-92.5 45t-69 84t-26 124.5v254h135v-254q0 -78 46 -113.5t110 -35.5t110 35.5t46 113.5zM537 558h-87l-85 78l-85 -78h-87l172 223z" />
<glyph unicode="&#xfc;" horiz-adv-x="722" d="M517 248v254h135v-254q0 -71 -26 -124.5t-69 -84t-92.5 -45t-103.5 -14.5t-103.5 14.5t-92.5 45t-69 84t-26 124.5v254h135v-254q0 -78 46 -113.5t110 -35.5t110 35.5t46 113.5zM527 629q0 -28 -22 -49.5t-51 -21.5t-50.5 21t-21.5 50t21.5 51t49.5 22q30 0 52 -21.5 t22 -51.5zM342 629q0 -29 -21.5 -50t-51.5 -21q-29 0 -50 21t-21 50t21.5 51t49.5 22q30 0 51.5 -21.5t21.5 -51.5z" />
<glyph unicode="&#xfd;" horiz-adv-x="662" d="M399 0h-136v170l-263 332h166l165 -218l165 218h166l-263 -332v-170zM576 760l-182 -161h-101l183 228z" />
<glyph unicode="&#xfe;" horiz-adv-x="601" d="M362 128h-169v-128h-125v552h125v-122h169q105 0 156 -43t51 -108t-51 -108t-156 -43zM362 312h-169v-66h169q36 0 57.5 10t21.5 23q0 14 -21 23.5t-58 9.5z" />
<glyph unicode="&#xff;" horiz-adv-x="662" d="M399 0h-136v170l-263 332h166l165 -218l165 218h166l-263 -332v-170zM496 671q0 -28 -22 -49.5t-51 -21.5t-50.5 21t-21.5 50t21.5 51t49.5 22q30 0 52 -21.5t22 -51.5zM311 671q0 -29 -21.5 -50t-51.5 -21q-28 0 -49.5 21t-21.5 50t21.5 51t49.5 22q30 0 51.5 -21.5 t21.5 -51.5z" />
<glyph unicode="&#x152;" horiz-adv-x="1141" d="M1118 19h-538q-65 -22 -139 -22q-160 0 -273.5 87.5t-113.5 210.5q0 124 113.5 212t273.5 88q65 0 127 -18h550v-120h-427v-87h360v-119h-361v-113h428v-119zM563 139v312q-64 26 -122 26q-108 0 -183.5 -53t-75.5 -129q0 -75 75.5 -127.5t183.5 -52.5q59 0 122 24z" />
<glyph unicode="&#x153;" horiz-adv-x="1006" d="M956 0h-454q-60 -17 -116 -17q-142 0 -243.5 78.5t-101.5 188.5t101.5 189t243.5 79q57 0 111 -16h459v-117h-373v-65h315v-118h-316v-85h374v-117zM457 110v282q-47 9 -71 9q-90 0 -153.5 -44.5t-63.5 -106.5t63.5 -105.5t153.5 -43.5q32 0 71 9z" />
<glyph unicode="&#x178;" horiz-adv-x="753" d="M445 0h-140v224l-305 334h185l190 -224l193 224h185l-308 -334v-224zM547 736q0 -28 -22 -49.5t-51 -21.5t-50.5 21t-21.5 50t21.5 51t49.5 22q30 0 52 -21.5t22 -51.5zM362 736q0 -29 -21.5 -50t-51.5 -21q-29 0 -50 21.5t-21 49.5q0 29 21.5 51t49.5 22 q30 0 51.5 -21.5t21.5 -51.5z" />
<glyph unicode="&#x2c6;" horiz-adv-x="366" d="M355 636h-87l-85 78l-85 -78h-87l172 223z" />
<glyph unicode="&#x2dc;" horiz-adv-x="387" d="M287 774h73q-2 -29 -3.5 -44t-7 -36.5t-15.5 -31.5t-28.5 -18t-45.5 -8q-32 0 -78 19t-54 19t-11.5 -1t-8 -7.5t-6.5 -20.5h-75q0 32 3 53.5t13 42.5t32 31.5t56 10.5q19 0 63 -20t59 -20q10 0 15 1t10.5 8t8.5 22z" />
<glyph unicode="&#x2000;" horiz-adv-x="446" />
<glyph unicode="&#x2001;" horiz-adv-x="893" />
<glyph unicode="&#x2002;" horiz-adv-x="446" />
<glyph unicode="&#x2003;" horiz-adv-x="893" />
<glyph unicode="&#x2004;" horiz-adv-x="297" />
<glyph unicode="&#x2005;" horiz-adv-x="223" />
<glyph unicode="&#x2006;" horiz-adv-x="148" />
<glyph unicode="&#x2007;" horiz-adv-x="148" />
<glyph unicode="&#x2008;" horiz-adv-x="111" />
<glyph unicode="&#x2009;" horiz-adv-x="178" />
<glyph unicode="&#x200a;" horiz-adv-x="49" />
<glyph unicode="&#x2010;" horiz-adv-x="381" d="M322 165h-263v118h263v-118z" />
<glyph unicode="&#x2011;" horiz-adv-x="381" d="M322 165h-263v118h263v-118z" />
<glyph unicode="&#x2012;" horiz-adv-x="381" d="M322 165h-263v118h263v-118z" />
<glyph unicode="&#x2013;" horiz-adv-x="584" d="M525 165h-466v118h466v-118z" />
<glyph unicode="&#x2014;" horiz-adv-x="1034" d="M975 165h-916v118h916v-118z" />
<glyph unicode="&#x2018;" horiz-adv-x="283" d="M135 558h103l-63 -208h-130z" />
<glyph unicode="&#x2019;" horiz-adv-x="283" d="M148 350h-103l63 208h130z" />
<glyph unicode="&#x201a;" horiz-adv-x="187" d="M73 -134h-103l63 208h130z" />
<glyph unicode="&#x201c;" horiz-adv-x="442" d="M295 558h103l-63 -208h-130zM136 558h103l-63 -208h-130z" />
<glyph unicode="&#x201d;" horiz-adv-x="442" d="M307 350h-103l63 208h130zM151 350h-103l63 208h130z" />
<glyph unicode="&#x201e;" horiz-adv-x="348" d="M234 -134h-103l63 208h130zM76 -134h-103l63 208h130z" />
<glyph unicode="&#x2022;" horiz-adv-x="414" d="M215 105q-63 0 -108.5 45.5t-45.5 107.5q0 64 45 109.5t109 45.5q63 0 108.5 -45.5t45.5 -108.5t-46 -108.5t-108 -45.5z" />
<glyph unicode="&#x2026;" horiz-adv-x="759" d="M130 -15q-31 0 -53.5 21.5t-22.5 51.5q0 31 22.5 53t53.5 22q29 0 51.5 -22t22.5 -52t-22 -52t-52 -22zM380 -15q-31 0 -53 21.5t-22 51.5q0 31 22 53t53 22q30 0 52 -22t22 -52q0 -31 -22 -52.5t-52 -21.5zM631 -15q-31 0 -53 21.5t-22 51.5q0 31 22 53t53 22 q30 0 52 -22t22 -52q0 -31 -22 -52.5t-52 -21.5z" />
<glyph unicode="&#x202f;" horiz-adv-x="178" />
<glyph unicode="&#x2039;" horiz-adv-x="312" d="M278 41l-60 -30l-191 204l189 192l69 -14l-113 -177z" />
<glyph unicode="&#x203a;" horiz-adv-x="301" d="M77 11l-50 30l103 170l-103 170l50 30l197 -200z" />
<glyph unicode="&#x205f;" horiz-adv-x="223" />
<glyph unicode="&#x20ac;" horiz-adv-x="816" d="M493 271h-210q0 -9 4 -25h206v-98h-133q70 -49 173 -49q126 0 256 86v-132q-106 -73 -266 -73q-113 0 -207 46t-143 122h-146v98h108l-2 25h-106v98h124q39 92 141.5 151t230.5 59q161 0 266 -74v-132q-131 87 -256 87q-70 0 -127.5 -24.5t-90.5 -66.5h178v-98z" />
<glyph unicode="&#x2122;" horiz-adv-x="877" d="M220 256h-97v215h-127v92h353v-92h-129v-215zM865 256h-101l-51 145l-119 -162l-118 162l-54 -145h-101l129 320l143 -191l147 190z" />
<glyph unicode="&#xe000;" horiz-adv-x="500" d="M0 500h500v-500h-500v500z" />
<glyph unicode="&#xfb01;" horiz-adv-x="919" d="M838 0h-135v502h135v-502zM520 162h-304v-162h-135v502h509v-120h-373v-110h303v-110z" />
<glyph unicode="&#xfb02;" horiz-adv-x="1207" d="M1182 0h-480v502h135v-385h345v-117zM520 162h-304v-162h-135v502h509v-120h-373v-110h303v-110z" />
<glyph unicode="&#xfb03;" horiz-adv-x="1541" d="M1460 0h-135v502h135v-502zM1142 162h-304v-162h-135v502h509v-120h-373v-110h303v-110zM520 162h-304v-162h-135v502h509v-120h-373v-110h303v-110z" />
<glyph unicode="&#xfb04;" horiz-adv-x="1829" d="M1804 0h-480v502h135v-385h345v-117zM1142 162h-304v-162h-135v502h509v-120h-373v-110h303v-110zM520 162h-304v-162h-135v502h509v-120h-373v-110h303v-110z" />
</font>
</defs>
</svg>
