<?xml version="1.0" encoding="UTF-8" standalone="no"?>
<svg width="384px" height="113px" viewBox="0 0 384 113" version="1.1" xmlns="http://www.w3.org/2000/svg" xmlns:xlink="http://www.w3.org/1999/xlink" xmlns:sketch="http://www.bohemiancoding.com/sketch/ns">
    <!-- Generator: Sketch 3.4 (15575) - http://www.bohemiancoding.com/sketch -->
    <title>WATP fff</title>
    <desc>Created with Sketch.</desc>
    <defs>
        <filter x="-50%" y="-50%" width="200%" height="200%" filterUnits="objectBoundingBox" id="filter-1">
            <feOffset dx="0.200000003" dy="0.1" in="SourceAlpha" result="shadowOffsetOuter1"></feOffset>
            <feGaussianBlur stdDeviation="0.100000001" in="shadowOffsetOuter1" result="shadowBlurOuter1"></feGaussianBlur>
            <feColorMatrix values="0 0 0 0 0   0 0 0 0 0   0 0 0 0 0  0 0 0 0.199054574 0" in="shadowBlurOuter1" type="matrix" result="shadowMatrixOuter1"></feColorMatrix>
            <feMerge>
                <feMergeNode in="shadowMatrixOuter1"></feMergeNode>
                <feMergeNode in="SourceGraphic"></feMergeNode>
            </feMerge>
        </filter>
    </defs>
    <g id="Symbols" stroke="none" stroke-width="1" fill="none" fill-rule="evenodd" sketch:type="MSPage">
        <g id="rp-visuals" sketch:type="MSArtboardGroup" transform="translate(-1006.000000, -831.000000)" filter="url(#filter-1)" fill="#FFFFFF">
            <g id="WATP-fff" sketch:type="MSLayerGroup" transform="translate(1006.000000, 831.000000)">
                <g id="We-are-tennis-people-Copy-7" sketch:type="MSShapeGroup">
                    <path d="M141.875001,96.4535828 L141.658001,97.4455828 L141.534001,97.4455828 L141.286001,96.4535828 L136.140001,81.2635828 L134.683001,81.2635828 L141.131001,99.8635828 L142.185001,99.8635828 L146.494001,84.7355828 L146.587001,84.2085828 L146.680001,84.2085828 L146.773001,84.7355828 L151.020001,99.8635828 L152.136001,99.8635828 L158.553001,81.2635828 L157.096001,81.2635828 L151.981001,96.4535828 L151.733001,97.4455828 L151.609001,97.4455828 L151.423001,96.4535828 L147.176001,81.2635828 L146.153001,81.2635828 L141.875001,96.4535828 Z M168.790001,97.9725828 C168.790001,97.9725828 167.519001,98.9955828 165.287001,98.9955828 C162.869001,98.9955828 160.761001,97.4455828 160.730001,94.5935828 L170.030001,94.5935828 L170.030001,94.1595828 C170.030001,91.0595828 168.139001,88.8895828 164.791001,88.8895828 C161.691001,88.8895828 159.397001,91.0905828 159.397001,94.5625828 C159.397001,97.9105828 161.877001,100.111583 165.287001,100.111583 C167.860001,100.111583 169.286001,98.9335828 169.286001,98.9335828 L168.790001,97.9725828 Z M164.760001,90.0055828 C167.178001,90.0055828 168.542001,91.5865828 168.697001,93.5395828 L160.792001,93.5395828 C161.164001,91.2455828 162.776001,90.0055828 164.760001,90.0055828 L164.760001,90.0055828 Z M180.367001,96.6705828 C180.367001,98.5305828 181.793001,100.111583 184.924001,100.111583 C187.993001,100.111583 189.202001,98.6235828 189.388001,98.3445828 L189.481001,98.3445828 L189.667001,99.8635828 L190.597001,99.8635828 L190.597001,93.9115828 C190.597001,91.0905828 189.233001,88.8895828 185.575001,88.8895828 C182.785001,88.8895828 181.452001,89.8815828 181.452001,89.8815828 L181.948001,90.9355828 C181.948001,90.9355828 183.188001,90.0365828 185.327001,90.0365828 C188.241001,90.0365828 189.295001,91.5555828 189.295001,93.7565828 L189.295001,94.6865828 L189.140001,94.6865828 C188.737001,94.3145828 187.497001,93.4465828 185.048001,93.4465828 C181.855001,93.4465828 180.367001,94.9035828 180.367001,96.6705828 L180.367001,96.6705828 Z M181.700001,96.6705828 C181.700001,95.3685828 182.816001,94.4075828 185.172001,94.4075828 C187.373001,94.4075828 189.264001,95.3685828 189.264001,96.6395828 C189.264001,97.6935828 187.497001,99.0575828 185.172001,99.0575828 C182.754001,99.0575828 181.700001,98.0035828 181.700001,96.6705828 L181.700001,96.6705828 Z M201.454001,89.4475828 C201.454001,89.4475828 200.710001,89.0135828 199.625001,89.0135828 C197.672001,89.0135828 196.835001,90.2225828 196.401001,91.0285828 L196.339001,91.0285828 L196.153001,89.1375828 L195.223001,89.1375828 L195.223001,99.8635828 L196.556001,99.8635828 L196.556001,93.7255828 C196.556001,92.0205828 197.641001,90.1915828 199.532001,90.1915828 C200.400001,90.1915828 200.958001,90.5325828 200.958001,90.5325828 L201.454001,89.4475828 Z M212.435,97.9725828 C212.435,97.9725828 211.164,98.9955828 208.932,98.9955828 C206.514,98.9955828 204.406,97.4455828 204.375,94.5935828 L213.675,94.5935828 L213.675,94.1595828 C213.675,91.0595828 211.784,88.8895828 208.436,88.8895828 C205.336,88.8895828 203.042,91.0905828 203.042,94.5625828 C203.042,97.9105828 205.522,100.111583 208.932,100.111583 C211.505,100.111583 212.931,98.9335828 212.931,98.9335828 L212.435,97.9725828 Z M208.405,90.0055828 C210.823,90.0055828 212.187,91.5865828 212.342,93.5395828 L204.437,93.5395828 C204.809,91.2455828 206.421,90.0055828 208.405,90.0055828 L208.405,90.0055828 Z M222.989,89.1375828 L222.989,90.2535828 L225.221,90.2535828 L225.221,95.3995828 C225.221,98.5615828 226.647,100.111583 229.344,100.111583 C230.677,100.111583 231.545,99.4605828 231.545,99.4605828 L231.08,98.4995828 C231.08,98.4995828 230.336,98.9335828 229.499,98.9335828 C227.546,98.9335828 226.554,97.8795828 226.554,95.3685828 L226.554,90.2535828 L231.142,90.2535828 L231.142,89.1375828 L226.554,89.1375828 L226.554,85.8825828 L225.221,85.8825828 L225.221,89.1375828 L222.989,89.1375828 Z M243.146,97.9725828 C243.146,97.9725828 241.875,98.9955828 239.643,98.9955828 C237.225,98.9955828 235.117,97.4455828 235.086,94.5935828 L244.386,94.5935828 L244.386,94.1595828 C244.386,91.0595828 242.495,88.8895828 239.147,88.8895828 C236.047,88.8895828 233.753,91.0905828 233.753,94.5625828 C233.753,97.9105828 236.233,100.111583 239.643,100.111583 C242.216,100.111583 243.642,98.9335828 243.642,98.9335828 L243.146,97.9725828 Z M239.116,90.0055828 C241.534,90.0055828 242.898,91.5865828 243.053,93.5395828 L235.148,93.5395828 C235.52,91.2455828 237.132,90.0055828 239.116,90.0055828 L239.116,90.0055828 Z M248.206,99.8635828 L249.539,99.8635828 L249.539,93.3535828 C249.57,92.0515828 250.686,90.0365828 253.352,90.0365828 C255.801,90.0365828 257.01,91.7415828 257.01,94.0045828 L257.01,99.8635828 L258.374,99.8635828 L258.374,93.8495828 C258.374,90.9355828 256.638,88.8895828 253.6,88.8895828 C250.841,88.8895828 249.756,90.5015828 249.415,91.0285828 L249.322,91.0285828 L249.136,89.1375828 L248.206,89.1375828 L248.206,99.8635828 Z M262.969,99.8635828 L264.302,99.8635828 L264.302,93.3535828 C264.333,92.0515828 265.449,90.0365828 268.115,90.0365828 C270.564,90.0365828 271.773,91.7415828 271.773,94.0045828 L271.773,99.8635828 L273.137,99.8635828 L273.137,93.8495828 C273.137,90.9355828 271.401,88.8895828 268.363,88.8895828 C265.604,88.8895828 264.519,90.5015828 264.178,91.0285828 L264.085,91.0285828 L263.899,89.1375828 L262.969,89.1375828 L262.969,99.8635828 Z M278.476,84.4565828 C279.034,84.4565828 279.468,84.0535828 279.468,83.4955828 C279.468,82.9375828 279.034,82.5035828 278.476,82.5035828 C277.918,82.5035828 277.484,82.9375828 277.484,83.4955828 C277.484,84.0535828 277.918,84.4565828 278.476,84.4565828 L278.476,84.4565828 Z M277.825,99.8635828 L279.158,99.8635828 L279.158,89.1375828 L277.825,89.1375828 L277.825,99.8635828 Z M283.133,98.9645828 C283.133,98.9645828 284.621,100.111583 287.752,100.111583 C291.131,100.111583 292.464,98.7165828 292.464,97.0425828 C292.464,92.8885828 284.559,94.5625828 284.559,91.8345828 C284.559,90.5325828 285.768,90.0055828 287.845,90.0055828 C290.201,90.0055828 291.503,90.8425828 291.503,90.8425828 L292.03,89.7265828 C292.03,89.7265828 290.542,88.8895828 287.721,88.8895828 C284.714,88.8895828 283.257,90.0985828 283.257,91.8345828 C283.257,95.7095828 291.162,94.2215828 291.162,97.0735828 C291.162,98.1895828 290.046,98.9955828 287.69,98.9955828 C285.334,98.9955828 283.722,98.0035828 283.722,98.0035828 L283.133,98.9645828 Z M305.312,97.7865828 C305.312,97.7865828 306.273,100.111583 309.776,100.111583 C312.752,100.111583 315.17,97.8485828 315.17,94.5005828 C315.17,91.1215828 312.752,88.8895828 309.745,88.8895828 C306.242,88.8895828 305.188,91.3385828 305.188,91.3385828 L305.064,91.3385828 L304.847,89.1375828 L303.917,89.1375828 L303.917,105.815583 L305.25,105.815583 L305.25,97.7865828 L305.312,97.7865828 Z M305.157,94.5005828 C305.157,91.6795828 307.203,90.0365828 309.559,90.0365828 C311.946,90.0365828 313.806,91.8655828 313.806,94.5005828 C313.806,97.1355828 311.946,98.9645828 309.559,98.9645828 C307.203,98.9645828 305.157,97.3215828 305.157,94.5005828 L305.157,94.5005828 Z M327.763,97.9725828 C327.763,97.9725828 326.492,98.9955828 324.26,98.9955828 C321.842,98.9955828 319.734,97.4455828 319.703,94.5935828 L329.003,94.5935828 L329.003,94.1595828 C329.003,91.0595828 327.112,88.8895828 323.764,88.8895828 C320.664,88.8895828 318.37,91.0905828 318.37,94.5625828 C318.37,97.9105828 320.85,100.111583 324.26,100.111583 C326.833,100.111583 328.259,98.9335828 328.259,98.9335828 L327.763,97.9725828 Z M323.733,90.0055828 C326.151,90.0055828 327.515,91.5865828 327.67,93.5395828 L319.765,93.5395828 C320.137,91.2455828 321.749,90.0055828 323.733,90.0055828 L323.733,90.0055828 Z M343.425,94.5625828 C343.425,91.1215828 340.852,88.8895828 337.721,88.8895828 C334.559,88.8895828 331.986,91.1215828 331.986,94.5625828 C331.986,98.0035828 334.559,100.111583 337.721,100.111583 C340.852,100.111583 343.425,98.0035828 343.425,94.5625828 L343.425,94.5625828 Z M337.721,98.9955828 C335.396,98.9955828 333.319,97.3215828 333.319,94.5625828 C333.319,91.7725828 335.396,90.0055828 337.721,90.0055828 C340.046,90.0055828 342.092,91.7725828 342.092,94.5625828 C342.092,97.3215828 340.046,98.9955828 337.721,98.9955828 L337.721,98.9955828 Z M348.795,97.7865828 C348.795,97.7865828 349.756,100.111583 353.259,100.111583 C356.235,100.111583 358.653,97.8485828 358.653,94.5005828 C358.653,91.1215828 356.235,88.8895828 353.228,88.8895828 C349.725,88.8895828 348.671,91.3385828 348.671,91.3385828 L348.547,91.3385828 L348.33,89.1375828 L347.4,89.1375828 L347.4,105.815583 L348.733,105.815583 L348.733,97.7865828 L348.795,97.7865828 Z M348.64,94.5005828 C348.64,91.6795828 350.686,90.0365828 353.042,90.0365828 C355.429,90.0365828 357.289,91.8655828 357.289,94.5005828 C357.289,97.1355828 355.429,98.9645828 353.042,98.9645828 C350.686,98.9645828 348.64,97.3215828 348.64,94.5005828 L348.64,94.5005828 Z M362.752,99.8635828 L364.085,99.8635828 L364.085,79.1555828 L362.752,79.1555828 L362.752,99.8635828 Z M377.546,97.9725828 C377.546,97.9725828 376.275,98.9955828 374.043,98.9955828 C371.625,98.9955828 369.517,97.4455828 369.486,94.5935828 L378.786,94.5935828 L378.786,94.1595828 C378.786,91.0595828 376.895,88.8895828 373.547,88.8895828 C370.447,88.8895828 368.153,91.0905828 368.153,94.5625828 C368.153,97.9105828 370.633,100.111583 374.043,100.111583 C376.616,100.111583 378.042,98.9335828 378.042,98.9335828 L377.546,97.9725828 Z M373.516,90.0055828 C375.934,90.0055828 377.298,91.5865828 377.453,93.5395828 L369.548,93.5395828 C369.92,91.2455828 371.532,90.0055828 373.516,90.0055828 L373.516,90.0055828 Z M381.273,98.9645828 C381.273,99.6155828 381.769,100.111583 382.42,100.111583 C383.04,100.111583 383.567,99.6155828 383.567,98.9645828 C383.567,98.3135828 383.04,97.8175828 382.42,97.8175828 C381.769,97.8175828 381.273,98.3135828 381.273,98.9645828 Z M367.83565,69.2577926 C363.25165,69.2737926 358.69065,66.3127926 357.51865,61.7577926 C358.38665,61.5307926 358.62065,61.4007926 359.23865,62.0667926 C359.72465,62.5877926 360.16165,63.0667926 360.74565,63.4897926 C362.28665,64.6097926 364.12965,65.1877926 366.03665,64.9847926 C369.42265,64.6227926 372.11065,61.9687926 373.06465,58.7847926 C374.07965,55.4027926 373.33165,51.6837926 370.52365,49.4097926 C367.95365,47.3297926 364.49665,46.2187926 362.85665,43.1467926 C362.78365,47.4747926 361.31165,51.6857926 359.26265,55.4587926 C357.31465,59.0487926 354.81765,62.4337926 351.55465,64.9337926 C351.17465,64.2697926 351.12865,64.3417926 351.66165,63.7027926 C352.12165,63.1537926 352.53465,62.5667926 352.90765,61.9527926 C353.70265,60.6467926 354.32465,59.2347926 354.85865,57.8047926 C355.93865,54.9117926 356.60265,51.8747926 356.96265,48.8107926 C357.13465,47.3417926 357.27165,45.8497926 357.18865,44.3687926 C357.10665,42.9337926 356.74265,41.5097926 356.73965,40.0717926 C356.73765,38.9397926 357.14765,37.9077926 358.22365,37.4097926 C359.35965,36.8847926 360.67865,37.0567926 361.58065,37.9337926 C362.42165,38.7517926 362.86065,39.8557926 363.46565,40.8377926 C364.18965,42.0137926 365.12765,43.0757926 366.22365,43.9177926 C368.37965,45.5717926 371.10565,46.1617926 373.46665,47.4397926 C375.69265,48.6447926 377.73165,50.4197926 378.81065,52.7497926 C379.98165,55.2777926 379.95565,58.2967926 379.11865,60.9177926 C378.97165,61.3807926 378.83565,61.7127926 378.77665,61.8557926 C377.04165,66.0547926 372.55365,69.2417926 367.83565,69.2577926 Z M304.38565,44.6167926 C305.80565,42.6777926 308.70665,40.8007926 311.17965,41.8907926 C314.35665,43.2907926 313.46765,48.1247926 311.90965,50.3787926 C309.94665,53.2207926 306.36765,54.6897926 302.98865,54.6897926 L301.78565,54.6897926 C301.78565,51.2267926 302.28565,47.4827926 304.38565,44.6167926 M223.574991,63.542913 C223.895031,67.5959025 224.475279,71.6546681 225.71065,75.5237926 C226.93965,79.3727926 229.52165,84.4117926 234.25565,84.4117926 C236.06065,84.4117926 235.75765,82.6487926 235.33565,81.4417926 C234.58365,79.2887926 233.74365,77.1757926 233.05265,75.0017926 C231.49765,70.1147926 230.33065,65.1017926 229.59065,60.0277926 C237.47165,61.3767926 245.41365,60.5507926 252.31565,56.3217926 C258.14065,52.7557926 262.64665,47.2107926 264.97465,40.7927926 C268.30465,31.6127926 267.35565,20.7167926 261.74865,12.6127926 C256.18565,4.56879259 246.22365,0.288792586 236.55765,0.925792586 C231.60565,1.25179259 227.03965,2.97279259 222.96265,5.77379259 C218.62865,8.74779259 214.62065,12.9177926 213.38865,18.1797926 C212.80865,20.6617926 212.60565,23.7947926 213.78365,26.1427926 C214.80665,28.1797926 217.26365,29.1797926 219.04965,27.3297926 C221.19865,25.1077926 218.89865,22.2867926 218.33165,19.9277926 C217.65565,17.1077926 218.17565,14.2187926 219.59065,11.7107926 C222.05465,7.34579259 226.67165,4.43779259 231.43765,3.18579259 C236.83265,1.76979259 242.59365,2.89679259 247.24165,5.92179259 C255.81865,11.5057926 260.16165,22.4157926 259.80265,32.3927926 C259.46065,41.8597926 254.87265,51.6897926 246.20765,56.2187926 C241.34765,58.7597926 235.39765,59.4217926 230.15365,57.7087926 C229.40165,57.4627926 229.25265,57.3907926 229.17165,56.6367926 C229.09365,55.8887926 229.02265,55.1407926 228.95865,54.3927926 C228.82965,52.8497926 228.73165,51.3047926 228.67165,49.7577926 C228.54265,46.4607926 228.56465,43.1577926 228.65865,39.8617926 C228.726577,37.4769888 228.838725,35.0931288 228.998558,32.7124896 C230.573827,32.4291802 232.143318,32.1093391 233.70165,31.7457926 C233.58865,31.2757926 233.75965,30.8947926 233.16365,30.9847926 C232.45065,31.0937926 231.73165,31.1697926 231.01365,31.2377926 C230.374138,31.2979124 229.733589,31.3478981 229.092322,31.3897136 C229.365544,27.7296915 229.753116,24.0782885 230.26765,20.4437926 C230.50565,18.7617926 230.77065,17.0817926 231.06265,15.4077926 C231.18465,14.7047926 231.26765,13.9687926 231.45665,13.2787926 C231.55565,12.9237926 231.81065,12.4177926 231.64065,12.0467926 C230.99265,10.6347926 230.00165,13.3707926 229.87965,13.6387926 C229.26465,14.9977926 228.71665,16.3867926 228.21465,17.7907926 C226.614112,22.2704911 225.503479,26.8870729 224.744905,31.5705207 C223.683647,31.5951926 222.622412,31.6096717 221.56265,31.6227926 C215.03865,31.7007926 208.51565,31.5197926 202.00665,31.0737926 C202.77165,23.8107926 204.42365,16.6697926 206.47965,9.67179259 C205.81865,9.67179259 205.80965,9.65379259 205.48465,10.2807926 C205.21765,10.7987926 204.95765,11.3197926 204.70565,11.8457926 C204.24165,12.8087926 203.80165,13.7827926 203.38465,14.7677926 C202.44565,16.9807926 201.61865,19.2397926 200.88065,21.5277926 C200.13165,23.8497926 199.47265,26.1987926 198.90765,28.5717926 C198.75865,29.1987926 198.61565,29.8257926 198.48065,30.4547926 C198.35565,31.0307926 198.15265,30.8147926 197.63565,30.7757926 C197.38165,30.7557926 197.12665,30.7347926 196.87265,30.7147926 C195.72765,30.6247926 194.58265,30.5307926 193.43865,30.4357926 C191.10265,30.2377926 183.78265,28.6597926 185.38965,33.3687926 C186.03765,35.2717926 188.67165,35.5857926 190.35865,35.6427926 C192.74065,35.7207926 195.15265,35.6717926 197.53365,35.5937926 C196.75665,40.7377926 196.49965,45.9877926 197.12165,51.1637926 C197.66265,55.6677926 198.87565,60.4157926 201.75565,64.0277926 C204.30265,67.2187926 208.17165,69.0897926 212.25965,69.0647926 C216.47965,69.0387926 220.41365,66.9877926 223.24065,63.9237926 C224.18665,62.8967926 220.22965,67.1877926 223.24065,63.9237926 C223.33065,63.8257926 223.42165,63.7287926 223.51165,63.6287926 C223.33165,63.8257926 223.15065,64.0217926 222.96965,64.2167926 C223.175537,63.9953893 223.377467,63.7708598 223.574991,63.542913 Z M223.463926,61.9852107 C223.431895,61.4861476 223.40305,60.9875528 223.37665,60.4897926 C223.34265,59.8517926 223.31565,59.2147926 223.29765,58.5757926 C223.28165,58.0077926 222.38165,57.8927926 221.88465,57.6797926 C220.87065,57.2457926 219.86265,56.7847926 218.91465,56.2187926 C217.33265,55.2737926 215.46565,53.7847926 215.36065,51.7807926 C215.26765,49.9917926 216.68865,48.9767926 218.35665,49.5687926 C220.36465,50.2807926 221.70265,52.1167926 223.24165,53.4867926 C223.24165,46.821698 223.518865,40.074454 224.460701,33.441835 C219.585014,34.138175 214.667999,34.5789405 209.76165,34.9337926 C208.22265,35.0447926 206.68365,35.1427926 205.14365,35.2287926 C204.37165,35.2717926 203.59965,35.3127926 202.82765,35.3497926 C202.44065,35.3667926 202.05565,35.3847926 201.66965,35.4027926 C201.61965,35.9027926 201.59565,36.4057926 201.58365,36.9097926 C201.54065,38.7717926 201.57865,40.6407926 201.67965,42.4997926 C202.00665,48.5877926 202.93265,55.6077926 206.91865,60.4917926 C208.84265,62.8497926 211.51865,64.3557926 214.55565,64.6697926 C216.76365,64.8987926 218.92765,64.5157926 220.92065,63.5347926 C221.812679,63.0956524 222.657616,62.5662541 223.463926,61.9852107 Z M348.93965,52.7497926 C347.85965,50.4197926 345.82165,48.6447926 343.59565,47.4397926 C341.23365,46.1617926 338.50865,45.5717926 336.35265,43.9177926 C335.25665,43.0757926 334.31765,42.0137926 333.59465,40.8377926 C332.98965,39.8557926 332.55065,38.7517926 331.70965,37.9337926 C330.80765,37.0567926 329.48865,36.8847926 328.35265,37.4097926 C327.27565,37.9077926 326.86665,38.9397926 326.86865,40.0717926 C326.87165,41.5097926 327.98365,43.2677926 327.09165,48.8107926 C325.86865,56.4027926 321.00465,65.1287926 313.01465,65.1287926 C310.29065,65.1287926 307.41665,64.5057926 305.27665,62.7187926 C303.31665,61.0817926 302.28465,58.6127926 301.93065,56.1307926 C307.37065,56.1307926 314.34365,55.4647926 317.90165,50.7637926 C319.82965,48.2187926 320.30065,44.5737926 318.44965,41.8437926 C316.47465,38.9297926 312.65765,38.4877926 309.43965,38.9707926 C304.58365,39.6957926 300.17765,42.5837926 297.64565,46.8027926 C295.01765,51.1817926 294.33765,57.1077926 296.64065,61.7657926 C296.99965,62.4917926 297.43365,63.1577926 297.91765,63.7787926 C296.04465,65.0387926 293.64765,65.5037926 291.42765,65.0917926 C287.81165,64.4197926 286.81965,60.7437926 286.78065,57.5367926 C286.75265,55.1347926 287.17465,52.7617926 287.77465,50.4437926 C288.26565,48.5467926 289.35665,46.3397926 288.05365,44.5097926 C286.82365,42.7827926 284.22765,42.4467926 282.29165,42.2347926 C280.40765,42.0257926 278.44165,41.9547926 276.60165,41.4827926 C275.54165,41.2107926 274.50465,40.7327926 273.81265,39.8557926 C273.21165,39.0957926 272.96465,37.9977926 272.13065,37.4317926 C271.17565,36.7827926 269.69065,37.2537926 268.93365,38.0057926 C267.96765,38.9627926 268.07965,40.4097926 268.35565,41.6307926 C268.70665,43.1897926 269.20865,44.7207926 269.34065,46.3217926 C269.46165,47.8007926 269.29765,49.3277926 269.05865,50.7867926 C268.57165,53.7417926 267.62665,56.6697926 266.32565,59.3667926 C265.66965,60.7267926 264.89765,62.0347926 263.97665,63.2307926 C263.82765,63.4237926 263.05665,64.0957926 263.25065,64.3767926 C263.50665,64.7457926 263.60465,64.7537926 263.92465,64.5097926 C265.81265,63.0687926 267.47265,61.2497926 268.91865,59.3787926 C272.29065,55.0157926 274.71365,49.6387926 274.80765,44.0587926 C276.04565,45.5057926 277.99965,46.0387926 279.75365,46.5607926 C280.30665,46.7267926 281.38665,46.8207926 281.59965,47.4767926 C281.85765,48.2717926 281.22865,49.5137926 281.04465,50.2907926 C280.05665,54.4727926 279.68865,59.3687926 281.42065,63.4097926 C282.84065,66.7227926 286.04965,68.8047926 289.62565,68.9527926 C293.16465,69.0997926 296.36365,67.3807926 298.83665,64.8317926 C301.42165,67.4507926 305.12865,68.8867926 308.81365,69.1677926 C315.60665,69.6857926 322.84865,64.8067926 326.26165,60.2987926 C327.83365,58.2227926 328.47865,57.1427926 329.39165,55.4587926 C331.43965,51.6857926 332.91265,47.4747926 332.98565,43.1467926 C334.62565,46.2187926 338.08265,47.3297926 340.65265,49.4097926 C343.46065,51.6837926 344.20865,55.4027926 343.19365,58.7847926 C342.23965,61.9687926 339.55165,64.6227926 336.16565,64.9847926 C334.25865,65.1877926 332.41565,64.6097926 330.87465,63.4897926 C330.29065,63.0667926 329.85365,62.5877926 329.36765,62.0667926 C328.74965,61.4007926 328.51565,61.5307926 327.64765,61.7577926 C328.81965,66.3127926 333.38065,69.2737926 337.96465,69.2577926 C342.68265,69.2417926 347.17065,66.0547926 348.90565,61.8557926 C348.96465,61.7127926 349.10065,61.3807926 349.24765,60.9177926 C350.08465,58.2967926 350.10965,55.2777926 348.93965,52.7497926 Z M176.11365,43.6897926 C177.99765,41.6937926 182.14965,40.3187926 183.72465,43.4607926 C184.81765,45.6447926 184.12165,48.7247926 182.70665,50.6017926 C180.68065,53.2887926 177.25965,54.6897926 173.94465,54.6897926 L172.74265,54.6897926 C172.74265,50.8827926 173.39565,46.5687926 176.11365,43.6897926 M194.80265,62.1307926 C193.63965,62.8257926 192.40965,63.4057926 191.13965,63.8747926 C188.50865,64.8437926 185.67365,65.2787926 182.87365,65.0837926 C180.39165,64.9117926 177.86465,64.2047926 175.98365,62.5017926 C174.17365,60.8627926 173.22665,58.5097926 172.88665,56.1307926 C178.75165,56.1307926 187.08765,55.1327926 189.88665,49.0467926 C191.13065,46.3397926 190.72965,42.8497926 188.48965,40.7757926 C186.11965,38.5817926 182.53065,38.5217926 179.53965,39.1187926 C174.29165,40.1677926 169.79565,43.7307926 167.65265,48.6427926 C165.72765,53.0567926 165.56765,58.6947926 168.21065,62.8597926 C168.35065,63.0797926 168.51865,63.2717926 168.66965,63.4787926 C167.44865,64.0857926 166.12865,64.4607926 164.72265,64.4547926 C162.59065,64.4467926 160.54065,63.5307926 159.47665,61.6167926 C158.23565,59.3867926 158.23865,56.5957926 158.37165,54.1187926 C158.53565,51.0687926 158.95365,48.0567926 159.61665,45.0737926 C159.96865,43.4937926 160.36665,41.9257926 160.82165,40.3727926 C160.88465,40.1597926 160.73965,39.5097926 160.36365,39.6147926 C160.19365,39.6637926 160.02865,39.9357926 159.92765,40.0627926 C157.03365,43.6717926 154.79765,48.0757926 153.48965,52.4957926 C152.67565,55.2457926 152.18965,58.2247926 152.59665,61.0877926 C152.73165,62.0447926 150.46265,62.7307926 149.77165,62.9827926 C148.48165,63.4507926 147.04165,63.6837926 145.67565,63.4687926 C140.38465,62.6387926 139.55865,55.2517926 140.07065,51.0647926 C140.40665,48.3277926 141.28665,45.6657926 142.53165,43.2107926 C142.87265,42.5367926 143.24365,41.8787926 143.64265,41.2367926 C143.82165,40.9467926 144.44365,40.4667926 144.24565,40.0707926 C143.76365,39.1097926 141.82065,41.2637926 141.41765,41.6367926 C137.59965,45.1657926 134.82965,49.8907926 134.25665,55.1097926 C133.78065,59.4297926 134.85365,64.2807926 138.74065,66.7597926 C143.68065,69.9077926 149.52165,67.7287926 153.32765,63.9237926 C154.48065,67.0387926 157.18565,69.3627926 160.61665,69.2457926 C164.08365,69.1287926 167.31565,67.1967926 169.78965,64.8027926 C172.38365,67.4527926 176.07365,68.8767926 179.76965,69.1677926 C185.16665,69.5937926 190.55065,67.6817926 194.57265,64.0817926 C195.72365,63.0347926 196.77565,61.8887926 197.65565,60.6037926 C197.12365,60.1147926 195.30865,61.8297926 194.80265,62.1307926 M195.14565,64.0237926 C195.12265,64.0427926 195.09665,64.0607926 195.07265,64.0817926 C194.99365,64.1537926 194.91765,64.2307926 194.83765,64.3007926 C194.95865,64.1917926 195.06465,64.0957926 195.14565,64.0237926 M194.81265,64.3237926 C194.92565,64.2247926 195.03765,64.1207926 195.14965,64.0197926 C195.03165,64.1247926 194.92465,64.2227926 194.81965,64.3167926 C194.81665,64.3207926 194.81465,64.3217926 194.81265,64.3237926 M194.83765,64.3007926 C194.83165,64.3067926 194.82565,64.3127926 194.81965,64.3167926 C192.11465,66.7637926 193.89865,65.1507926 194.83765,64.3007926 M195.14565,64.0237926 C195.14765,64.0217926 195.14865,64.0197926 195.14965,64.0197926 C195.39265,63.8007926 195.33865,63.8477926 195.14565,64.0237926 M141.11665,105.579793 C139.92365,107.532793 137.39665,108.480793 135.10965,108.004793 C132.81365,107.526793 131.01865,105.716793 129.79765,103.363793 C126.73665,97.4637926 126.58365,89.7907926 126.56065,84.3557926 C126.53465,78.0897926 126.60665,71.8047926 127.51365,65.5937926 C127.93665,62.6917926 128.55565,59.8067926 129.54165,57.0407926 C130.01565,55.7127926 130.64965,54.4937926 131.23665,53.2207926 C131.39865,52.8687926 130.96065,52.4877926 130.64265,52.4137926 C130.34665,52.3437926 129.81365,53.2327926 129.67165,53.4097926 C128.71465,54.6097926 127.89465,55.9137926 127.15565,57.2577926 C126.46865,58.5097926 125.70965,59.4337926 124.63265,60.3867926 C122.72465,62.0737926 120.44365,63.4567926 117.83465,63.5667926 C112.39565,63.7967926 111.31065,57.5797926 111.96365,53.3767926 C112.60165,49.2697926 114.83865,44.7717926 118.67265,42.8027926 C120.65265,41.7847926 123.38665,41.3257926 125.04365,43.1507926 C125.96465,44.1657926 126.45065,45.5687926 126.46365,46.9297926 C126.46965,47.5427926 126.38865,48.2457926 126.05065,48.7717926 C125.91065,48.9877926 125.52565,49.7947926 126.12665,49.7597926 C126.58765,49.7327926 127.08865,49.2697926 127.47265,49.0407926 C128.01065,48.7207926 128.53465,48.3627926 128.98765,47.9277926 C129.78665,47.1617926 130.33965,46.1367926 130.44865,45.0277926 C130.69765,42.5137926 128.63165,40.6717926 126.39265,40.0287926 C121.50465,38.6287926 116.31465,41.3357926 112.88665,44.6697926 C109.51565,47.9487926 106.96365,52.3257926 106.19265,56.9977926 C105.80665,59.3437926 105.98565,61.8357926 106.90965,63.9317926 C105.57165,64.5017926 104.17565,64.9417926 102.75365,65.2307926 C98.0336497,66.1897926 92.7896497,65.3357926 89.8976497,61.1367926 C87.3926497,57.5017926 87.4986497,52.5507926 89.2156497,48.6117926 C90.8326497,44.9007926 94.2936497,41.8827926 98.5296497,42.1507926 C100.05665,42.2457926 101.83765,42.9177926 101.67765,44.7497926 C101.56665,46.0097926 100.70165,47.0057926 99.6816497,47.6777926 C99.1236497,48.0447926 98.5096497,48.3187926 97.8816497,48.5407926 C97.1386497,48.8047926 97.1566497,48.7247926 97.1566497,49.4457926 C100.49865,48.8907926 105.28665,46.9607926 104.43365,42.7127926 C103.63665,38.7437926 98.5906497,38.4667926 95.4036497,39.0217926 C90.0926497,39.9457926 85.7106497,43.8167926 83.4136497,48.5977926 C81.3796497,52.8297926 80.6976497,58.2677926 82.9256497,62.5607926 C81.9126497,63.2697926 80.8156497,63.8237926 79.5026497,64.1017926 C77.3626497,64.5547926 74.7746497,64.3767926 73.1146497,62.7967926 C71.4016497,61.1677926 71.1066497,58.5347926 71.0626497,56.2967926 C71.0266497,54.5077926 71.2546497,52.8257926 71.6416497,51.0937926 C71.7736497,50.5017926 72.0646497,49.7637926 72.0306497,49.1507926 C72.0116497,48.8047926 71.3876497,48.8597926 71.2346497,49.0257926 C70.8006497,49.4957926 70.4236497,50.0347926 70.0606497,50.5627926 C68.3796497,52.9977926 67.0996497,55.8007926 66.4746497,58.6987926 C66.2976497,59.5157926 66.1816497,60.3457926 66.1546497,61.1817926 C65.6046497,61.5997926 65.0216497,61.9767926 64.4116497,62.3047926 C63.4176497,62.8377926 62.3396497,63.2397926 61.2266497,63.4397926 C58.8506497,63.8667926 56.5066497,63.1287926 55.3446497,60.8987926 C53.0286497,56.4507926 54.9206497,50.0917926 57.5316497,46.2167926 C58.8966497,44.1917926 60.8756497,42.3147926 63.3886497,41.9627926 C64.8136497,41.7637926 66.2886497,42.0367926 67.5426497,42.7457926 C68.3746497,43.2147926 69.5806497,44.1167926 70.4506497,43.2417926 C70.8206497,42.8217926 70.9786497,42.3297926 70.8086497,41.7757926 C70.0146497,39.1817926 65.9406497,39.4177926 63.9086497,39.8437926 C61.1656497,40.4157926 58.6556497,41.8687926 56.5296497,43.6597926 C52.7406497,46.8517926 49.7166497,51.5097926 48.7546497,56.4077926 C47.9656497,60.4257926 48.6626497,65.2367926 52.4436497,67.5347926 C57.2536497,70.4587926 62.9516497,67.4607926 66.4916497,63.9237926 C67.0606497,66.0217926 68.4536497,67.9997926 70.5286497,68.8107926 C72.7116497,69.6637926 75.2086497,69.2367926 77.3256497,68.3967926 C79.4596497,67.5467926 81.3966497,66.2067926 83.0076497,64.5777926 C83.2426497,64.3397926 83.4556497,64.0817926 83.6776497,63.8317926 C88.9726497,71.6387926 100.57265,70.1947926 107.79065,65.4807926 C107.81165,65.5097926 107.83065,65.5407926 107.85365,65.5697926 C107.68265,65.7067926 107.71065,65.6857926 107.85365,65.5697926 C108.68765,66.6967926 109.82265,67.6147926 111.31465,68.1937926 C115.98065,69.9957926 121.17265,66.9847926 124.29865,63.6347926 C122.29965,69.1117926 121.23665,74.8867926 120.59865,80.6657926 C119.99965,86.0857926 119.80065,92.6717926 121.10665,99.0717926 C122.15865,104.231793 124.40565,109.556793 128.69165,111.804793 C130.28765,112.642793 132.00565,112.881793 133.66065,112.634793 C136.23765,112.248793 138.66365,110.742793 140.23865,108.722793 C140.66765,108.171793 140.91965,107.809793 141.29665,107.196793 C141.98365,106.081793 141.94365,106.340793 141.11665,105.579793 M67.9276497,43.2777926 C67.9656497,43.2367926 68.0036497,43.1967926 68.0406497,43.1557926 C68.0776497,43.1167926 68.0596497,43.1367926 67.9826497,43.2167926 C67.9726497,43.2287926 67.9606497,43.2327926 67.9506497,43.2417926 C67.9366497,43.2577926 67.9276497,43.2757926 67.9126497,43.2907926 C67.3666497,43.8727926 67.7366497,43.4807926 67.9276497,43.2777926 M22.6656497,13.7245132 C21.7396497,16.5025132 20.0926497,18.9885132 19.3166497,21.8225132 C18.4616497,24.9495132 17.8656497,28.1385132 17.3336497,31.3345132 C16.2626497,37.7595132 15.6896497,44.2615132 15.4106497,50.7675132 C15.3946497,51.1605132 15.2206497,51.5115132 15.7246497,51.6295132 C16.3936497,51.7855132 17.0556497,51.9745132 17.7036497,52.2035132 C19.1706497,52.7165132 20.5356497,53.4495132 21.8276497,54.3085132 C23.0316497,55.1095132 24.1796497,55.9965132 25.2736497,56.9415132 C25.6496497,57.2675132 25.6676497,57.4845132 26.1616497,57.2715132 C26.5086497,57.1215132 26.8526497,56.9665132 27.1946497,56.8065132 C27.9916497,56.4355132 28.7766497,56.0355132 29.5476497,55.6095132 C34.2476497,53.0045132 38.3896497,49.3345132 41.2786497,44.7835132 C44.3416497,39.9615132 46.0246497,34.2075132 46.0346497,28.4965132 C46.0456497,22.8375132 44.0566497,17.4235132 40.7876497,12.8395132 C37.7106497,8.52551318 33.4686497,4.88651318 28.3546497,3.27751318 C23.3426497,1.69951318 17.9156497,2.51351318 13.3786497,5.08951318 C8.88064967,7.64251318 5.03764967,12.1445132 5.03764967,17.5465132 C5.03764967,18.9105132 5.40964967,20.2285132 5.90464967,21.4865132 C6.41164967,22.7715132 7.19564967,24.0665132 6.96464967,25.5045132 C6.66364967,27.3675132 4.55464967,28.6465132 2.76164967,28.0455132 C0.569649674,27.3085132 0.0506496742,24.3515132 0.00464967425,22.3655132 C-0.0523503258,19.8965132 0.413649674,17.4335132 1.46164967,15.1955132 C3.65564967,10.5055132 7.94464967,6.73051318 12.3916497,4.22051318 C21.4196497,-0.874486824 32.6796497,-0.00948682367 41.1956497,5.72851318 C49.7596497,11.4985132 54.5346497,21.5465132 53.3646497,31.8455132 C51.8086497,45.5485132 40.1546497,55.3145132 27.5956497,59.1505132 C34.5436497,66.0975132 40.8416497,73.8105132 48.3566497,80.1685132 C51.7736497,83.0565132 55.5696497,85.5255132 59.7396497,87.1795132 C62.0036497,88.0805132 64.3666497,88.7345132 66.7826497,89.0525132 C69.1196497,89.3595132 71.6156497,89.5975132 73.9106497,88.9215132 C74.0146497,89.3375132 74.3066497,89.8105132 73.8496497,90.0805132 C73.4666497,90.3045132 73.0116497,90.4335132 72.6016497,90.5975132 C71.1926497,91.1585132 69.7106497,91.5135132 68.2106497,91.7225132 C65.1006497,92.1545132 61.9056497,91.9925132 58.8066497,91.5415132 C53.1426497,90.7165132 47.7246497,88.4625132 43.1426497,85.0335132 C38.4016497,81.4845132 34.4986497,76.9555132 30.8896497,72.2955132 C28.8786497,69.6995132 26.9226497,67.0585132 24.9406497,64.4395132 C24.0576497,63.2715132 23.1056497,62.1055132 22.3306497,60.8615132 C22.0626497,60.4275132 21.7686497,60.5465132 21.2966497,60.6195132 C20.4106497,60.7545132 19.5216497,60.8655132 18.6296497,60.9535132 C18.0966497,61.0055132 15.1466497,60.9025132 15.2006497,61.5255132 C15.3396497,63.0765132 15.2556497,64.6665132 15.2886497,66.2225132 C15.3576497,69.4475132 15.5096497,72.6685132 15.6896497,75.8865132 C15.7746497,77.4455132 15.8676497,79.0045132 15.9666497,80.5605132 C16.0156497,81.3305132 16.0656497,82.0975132 16.1166497,82.8675132 C16.1376497,83.1715132 16.3166497,83.8925132 15.9526497,84.0885132 C15.8146497,84.1625132 15.6526497,84.1955132 15.5046497,84.2385132 C15.1056497,84.3515132 15.1356497,83.9215132 15.0156497,83.5955132 C14.7546497,82.8865132 14.5106497,82.1715132 14.2816497,81.4515132 C13.7876497,79.8925132 13.3666497,78.3125132 13.0036497,76.7205132 C12.3046497,73.6525132 11.8156497,70.5415132 11.4146497,67.4215132 C11.2186497,65.9005132 11.0426497,64.3775132 10.8916497,62.8495132 C10.8376497,62.3045132 10.8856497,61.6625132 10.7556497,61.1325132 C10.6506497,60.7055132 9.31464967,60.6685132 8.95764967,60.5845132 C6.67964967,60.0375132 4.04164967,58.6365132 3.85564967,55.9885132 C3.65364967,53.1345132 6.80564967,51.7365132 9.13664967,51.3145132 C10.3066497,51.1015132 10.2246497,51.1425132 10.2006497,50.0175132 C10.1766497,48.8965132 10.1806497,47.7755132 10.1826497,46.6545132 C10.1856497,44.2135132 10.1926497,41.7735132 10.2586497,39.3325132 C10.3866497,34.6175132 10.7446497,29.9085132 11.5936497,25.2635132 C12.2856497,21.4765132 13.2836497,17.2915132 15.9076497,14.3325132 C17.0736497,13.0175132 18.7556497,11.8595132 20.5246497,11.5975132 C22.0456497,11.3735132 23.1686497,12.2015132 22.6436497,13.7915132 C22.6506497,13.7695132 22.7266497,13.5435132 22.6656497,13.7245132 C21.7376497,16.5075132 22.7456497,13.4825132 22.6656497,13.7245132 M5.95081014,57.2204534 C7.02481014,58.5354534 8.97781014,59.0194534 10.5678101,59.3354534 C10.4758101,57.7794534 10.4108101,56.2224534 10.3308101,54.6644534 C10.3048101,54.1624534 10.3708101,53.5684534 10.2738101,53.0764534 C10.1998101,52.7014534 9.14981014,52.9314534 8.90681014,52.9534534 C7.79281014,53.0544534 6.63281014,53.4104534 5.95081014,54.3594534 C5.32281014,55.2284534 5.35381014,56.4864534 6.02581014,57.3124534 C5.99081014,57.2694534 5.75981014,56.9864534 5.95081014,57.2204534 C7.02481014,58.5354534 5.66181014,56.8674534 5.95081014,57.2204534 M18.1855609,59.5885828 C19.1395609,59.4595828 20.0875609,59.2835828 21.0235609,59.0585828 C19.4865609,56.9665828 17.6975609,54.9655828 15.2995609,53.8635828 C15.2365609,55.8345828 15.2515609,57.8065828 15.2515609,59.7795828 C16.3265609,59.7795828 17.3985609,59.7015828 18.4625609,59.5505828 C18.2785609,59.5765828 18.0925609,59.6015828 17.9085609,59.6255828 C18.0005609,59.6135828 18.0925609,59.5995828 18.1855609,59.5885828 C19.1395609,59.4595828 17.2235609,59.7155828 18.1855609,59.5885828"></path>
                </g>
            </g>
        </g>
    </g>
</svg>