<?xml version="1.0" encoding="UTF-8" standalone="no"?>
<svg width="381px" height="112px" viewBox="0 0 381 112" version="1.1" xmlns="http://www.w3.org/2000/svg" xmlns:xlink="http://www.w3.org/1999/xlink" xmlns:sketch="http://www.bohemiancoding.com/sketch/ns">
    <!-- Generator: Sketch 3.4 (15575) - http://www.bohemiancoding.com/sketch -->
    <title>RP logo fff</title>
    <desc>Created with Sketch.</desc>
    <defs></defs>
    <g id="Symbols" stroke="none" stroke-width="1" fill="none" fill-rule="evenodd" sketch:type="MSPage">
        <g id="asset-dump" sketch:type="MSArtboardGroup" transform="translate(-557.000000, -781.000000)" fill="#FFFFFF">
            <g id="RP-logo-fff" sketch:type="MSLayerGroup" transform="translate(557.000000, 781.000000)">
                <path d="M367.83565,68.3942098 C363.25165,68.4102098 358.69065,65.4492098 357.51865,60.8942098 C358.38665,60.6672098 358.62065,60.5372098 359.23865,61.2032098 C359.72465,61.7242098 360.16165,62.2032098 360.74565,62.6262098 C362.28665,63.7462098 364.12965,64.3242098 366.03665,64.1212098 C369.42265,63.7592098 372.11065,61.1052098 373.06465,57.9212098 C374.07965,54.5392098 373.33165,50.8202098 370.52365,48.5462098 C367.95365,46.4662098 364.49665,45.3552098 362.85665,42.2832098 C362.78365,46.6112098 361.31165,50.8222098 359.26265,54.5952098 C357.31465,58.1852098 354.81765,61.5702098 351.55465,64.0702098 C351.17465,63.4062098 351.12865,63.4782098 351.66165,62.8392098 C352.12165,62.2902098 352.53465,61.7032098 352.90765,61.0892098 C353.70265,59.7832098 354.32465,58.3712098 354.85865,56.9412098 C355.93865,54.0482098 356.60265,51.0112098 356.96265,47.9472098 C357.13465,46.4782098 357.27165,44.9862098 357.18865,43.5052098 C357.10665,42.0702098 356.74265,40.6462098 356.73965,39.2082098 C356.73765,38.0762098 357.14765,37.0442098 358.22365,36.5462098 C359.35965,36.0212098 360.67865,36.1932098 361.58065,37.0702098 C362.42165,37.8882098 362.86065,38.9922098 363.46565,39.9742098 C364.18965,41.1502098 365.12765,42.2122098 366.22365,43.0542098 C368.37965,44.7082098 371.10565,45.2982098 373.46665,46.5762098 C375.69265,47.7812098 377.73165,49.5562098 378.81065,51.8862098 C379.98165,54.4142098 379.95565,57.4332098 379.11865,60.0542098 C378.97165,60.5172098 378.83565,60.8492098 378.77665,60.9922098 C377.04165,65.1912098 372.55365,68.3782098 367.83565,68.3942098 M304.38565,43.7532098 C305.80565,41.8142098 308.70665,39.9372098 311.17965,41.0272098 C314.35665,42.4272098 313.46765,47.2612098 311.90965,49.5152098 C309.94665,52.3572098 306.36765,53.8262098 302.98865,53.8262098 L301.78565,53.8262098 C301.78565,50.3632098 302.28565,46.6192098 304.38565,43.7532098 M223.574991,62.6793302 C223.895031,66.7323197 224.475279,70.7910852 225.71065,74.6602098 C226.93965,78.5092098 229.52165,83.5482098 234.25565,83.5482098 C236.06065,83.5482098 235.75765,81.7852098 235.33565,80.5782098 C234.58365,78.4252098 233.74365,76.3122098 233.05265,74.1382098 C231.49765,69.2512098 230.33065,64.2382098 229.59065,59.1642098 C237.47165,60.5132098 245.41365,59.6872098 252.31565,55.4582098 C258.14065,51.8922098 262.64665,46.3472098 264.97465,39.9292098 C268.30465,30.7492098 267.35565,19.8532098 261.74865,11.7492098 C256.18565,3.70520976 246.22365,-0.574790235 236.55765,0.0622097648 C231.60565,0.388209765 227.03965,2.10920976 222.96265,4.91020976 C218.62865,7.88420976 214.62065,12.0542098 213.38865,17.3162098 C212.80865,19.7982098 212.60565,22.9312098 213.78365,25.2792098 C214.80665,27.3162098 217.26365,28.3162098 219.04965,26.4662098 C221.19865,24.2442098 218.89865,21.4232098 218.33165,19.0642098 C217.65565,16.2442098 218.17565,13.3552098 219.59065,10.8472098 C222.05465,6.48220976 226.67165,3.57420976 231.43765,2.32220976 C236.83265,0.906209765 242.59365,2.03320976 247.24165,5.05820976 C255.81865,10.6422098 260.16165,21.5522098 259.80265,31.5292098 C259.46065,40.9962098 254.87265,50.8262098 246.20765,55.3552098 C241.34765,57.8962098 235.39765,58.5582098 230.15365,56.8452098 C229.40165,56.5992098 229.25265,56.5272098 229.17165,55.7732098 C229.09365,55.0252098 229.02265,54.2772098 228.95865,53.5292098 C228.82965,51.9862098 228.73165,50.4412098 228.67165,48.8942098 C228.54265,45.5972098 228.56465,42.2942098 228.65865,38.9982098 C228.726577,36.613406 228.838725,34.229546 228.998558,31.8489068 C230.573827,31.5655974 232.143318,31.2457563 233.70165,30.8822098 C233.58865,30.4122098 233.75965,30.0312098 233.16365,30.1212098 C232.45065,30.2302098 231.73165,30.3062098 231.01365,30.3742098 C230.374138,30.4343295 229.733589,30.4843153 229.092322,30.5261308 C229.365544,26.8661087 229.753116,23.2147057 230.26765,19.5802098 C230.50565,17.8982098 230.77065,16.2182098 231.06265,14.5442098 C231.18465,13.8412098 231.26765,13.1052098 231.45665,12.4152098 C231.55565,12.0602098 231.81065,11.5542098 231.64065,11.1832098 C230.99265,9.77120976 230.00165,12.5072098 229.87965,12.7752098 C229.26465,14.1342098 228.71665,15.5232098 228.21465,16.9272098 C226.614112,21.4069083 225.503479,26.02349 224.744905,30.7069379 C223.683647,30.7316098 222.622412,30.7460889 221.56265,30.7592098 C215.03865,30.8372098 208.51565,30.6562098 202.00665,30.2102098 C202.77165,22.9472098 204.42365,15.8062098 206.47965,8.80820976 C205.81865,8.80820976 205.80965,8.79020976 205.48465,9.41720976 C205.21765,9.93520976 204.95765,10.4562098 204.70565,10.9822098 C204.24165,11.9452098 203.80165,12.9192098 203.38465,13.9042098 C202.44565,16.1172098 201.61865,18.3762098 200.88065,20.6642098 C200.13165,22.9862098 199.47265,25.3352098 198.90765,27.7082098 C198.75865,28.3352098 198.61565,28.9622098 198.48065,29.5912098 C198.35565,30.1672098 198.15265,29.9512098 197.63565,29.9122098 C197.38165,29.8922098 197.12665,29.8712098 196.87265,29.8512098 C195.72765,29.7612098 194.58265,29.6672098 193.43865,29.5722098 C191.10265,29.3742098 183.78265,27.7962098 185.38965,32.5052098 C186.03765,34.4082098 188.67165,34.7222098 190.35865,34.7792098 C192.74065,34.8572098 195.15265,34.8082098 197.53365,34.7302098 C196.75665,39.8742098 196.49965,45.1242098 197.12165,50.3002098 C197.66265,54.8042098 198.87565,59.5522098 201.75565,63.1642098 C204.30265,66.3552098 208.17165,68.2262098 212.25965,68.2012098 C216.47965,68.1752098 220.41365,66.1242098 223.24065,63.0602098 C224.18665,62.0332098 220.22965,66.3242098 223.24065,63.0602098 C223.33065,62.9622098 223.42165,62.8652098 223.51165,62.7652098 C223.33165,62.9622098 223.15065,63.1582098 222.96965,63.3532098 C223.175537,63.1318064 223.377467,62.907277 223.574991,62.6793302 Z M223.463926,61.1216279 C223.431895,60.6225648 223.40305,60.12397 223.37665,59.6262098 C223.34265,58.9882098 223.31565,58.3512098 223.29765,57.7122098 C223.28165,57.1442098 222.38165,57.0292098 221.88465,56.8162098 C220.87065,56.3822098 219.86265,55.9212098 218.91465,55.3552098 C217.33265,54.4102098 215.46565,52.9212098 215.36065,50.9172098 C215.26765,49.1282098 216.68865,48.1132098 218.35665,48.7052098 C220.36465,49.4172098 221.70265,51.2532098 223.24165,52.6232098 C223.24165,45.9581151 223.518865,39.2108712 224.460701,32.5782522 C219.585014,33.2745922 214.667999,33.7153577 209.76165,34.0702098 C208.22265,34.1812098 206.68365,34.2792098 205.14365,34.3652098 C204.37165,34.4082098 203.59965,34.4492098 202.82765,34.4862098 C202.44065,34.5032098 202.05565,34.5212098 201.66965,34.5392098 C201.61965,35.0392098 201.59565,35.5422098 201.58365,36.0462098 C201.54065,37.9082098 201.57865,39.7772098 201.67965,41.6362098 C202.00665,47.7242098 202.93265,54.7442098 206.91865,59.6282098 C208.84265,61.9862098 211.51865,63.4922098 214.55565,63.8062098 C216.76365,64.0352098 218.92765,63.6522098 220.92065,62.6712098 C221.812679,62.2320695 222.657616,61.7026713 223.463926,61.1216279 Z M348.93965,51.8862098 C347.85965,49.5562098 345.82165,47.7812098 343.59565,46.5762098 C341.23365,45.2982098 338.50865,44.7082098 336.35265,43.0542098 C335.25665,42.2122098 334.31765,41.1502098 333.59465,39.9742098 C332.98965,38.9922098 332.55065,37.8882098 331.70965,37.0702098 C330.80765,36.1932098 329.48865,36.0212098 328.35265,36.5462098 C327.27565,37.0442098 326.86665,38.0762098 326.86865,39.2082098 C326.87165,40.6462098 327.98365,42.4042098 327.09165,47.9472098 C325.86865,55.5392098 321.00465,64.2652098 313.01465,64.2652098 C310.29065,64.2652098 307.41665,63.6422098 305.27665,61.8552098 C303.31665,60.2182098 302.28465,57.7492098 301.93065,55.2672098 C307.37065,55.2672098 314.34365,54.6012098 317.90165,49.9002098 C319.82965,47.3552098 320.30065,43.7102098 318.44965,40.9802098 C316.47465,38.0662098 312.65765,37.6242098 309.43965,38.1072098 C304.58365,38.8322098 300.17765,41.7202098 297.64565,45.9392098 C295.01765,50.3182098 294.33765,56.2442098 296.64065,60.9022098 C296.99965,61.6282098 297.43365,62.2942098 297.91765,62.9152098 C296.04465,64.1752098 293.64765,64.6402098 291.42765,64.2282098 C287.81165,63.5562098 286.81965,59.8802098 286.78065,56.6732098 C286.75265,54.2712098 287.17465,51.8982098 287.77465,49.5802098 C288.26565,47.6832098 289.35665,45.4762098 288.05365,43.6462098 C286.82365,41.9192098 284.22765,41.5832098 282.29165,41.3712098 C280.40765,41.1622098 278.44165,41.0912098 276.60165,40.6192098 C275.54165,40.3472098 274.50465,39.8692098 273.81265,38.9922098 C273.21165,38.2322098 272.96465,37.1342098 272.13065,36.5682098 C271.17565,35.9192098 269.69065,36.3902098 268.93365,37.1422098 C267.96765,38.0992098 268.07965,39.5462098 268.35565,40.7672098 C268.70665,42.3262098 269.20865,43.8572098 269.34065,45.4582098 C269.46165,46.9372098 269.29765,48.4642098 269.05865,49.9232098 C268.57165,52.8782098 267.62665,55.8062098 266.32565,58.5032098 C265.66965,59.8632098 264.89765,61.1712098 263.97665,62.3672098 C263.82765,62.5602098 263.05665,63.2322098 263.25065,63.5132098 C263.50665,63.8822098 263.60465,63.8902098 263.92465,63.6462098 C265.81265,62.2052098 267.47265,60.3862098 268.91865,58.5152098 C272.29065,54.1522098 274.71365,48.7752098 274.80765,43.1952098 C276.04565,44.6422098 277.99965,45.1752098 279.75365,45.6972098 C280.30665,45.8632098 281.38665,45.9572098 281.59965,46.6132098 C281.85765,47.4082098 281.22865,48.6502098 281.04465,49.4272098 C280.05665,53.6092098 279.68865,58.5052098 281.42065,62.5462098 C282.84065,65.8592098 286.04965,67.9412098 289.62565,68.0892098 C293.16465,68.2362098 296.36365,66.5172098 298.83665,63.9682098 C301.42165,66.5872098 305.12865,68.0232098 308.81365,68.3042098 C315.60665,68.8222098 322.84865,63.9432098 326.26165,59.4352098 C327.83365,57.3592098 328.47865,56.2792098 329.39165,54.5952098 C331.43965,50.8222098 332.91265,46.6112098 332.98565,42.2832098 C334.62565,45.3552098 338.08265,46.4662098 340.65265,48.5462098 C343.46065,50.8202098 344.20865,54.5392098 343.19365,57.9212098 C342.23965,61.1052098 339.55165,63.7592098 336.16565,64.1212098 C334.25865,64.3242098 332.41565,63.7462098 330.87465,62.6262098 C330.29065,62.2032098 329.85365,61.7242098 329.36765,61.2032098 C328.74965,60.5372098 328.51565,60.6672098 327.64765,60.8942098 C328.81965,65.4492098 333.38065,68.4102098 337.96465,68.3942098 C342.68265,68.3782098 347.17065,65.1912098 348.90565,60.9922098 C348.96465,60.8492098 349.10065,60.5172098 349.24765,60.0542098 C350.08465,57.4332098 350.10965,54.4142098 348.93965,51.8862098 Z M176.11365,42.8262098 C177.99765,40.8302098 182.14965,39.4552098 183.72465,42.5972098 C184.81765,44.7812098 184.12165,47.8612098 182.70665,49.7382098 C180.68065,52.4252098 177.25965,53.8262098 173.94465,53.8262098 L172.74265,53.8262098 C172.74265,50.0192098 173.39565,45.7052098 176.11365,42.8262098 M194.80265,61.2672098 C193.63965,61.9622098 192.40965,62.5422098 191.13965,63.0112098 C188.50865,63.9802098 185.67365,64.4152098 182.87365,64.2202098 C180.39165,64.0482098 177.86465,63.3412098 175.98365,61.6382098 C174.17365,59.9992098 173.22665,57.6462098 172.88665,55.2672098 C178.75165,55.2672098 187.08765,54.2692098 189.88665,48.1832098 C191.13065,45.4762098 190.72965,41.9862098 188.48965,39.9122098 C186.11965,37.7182098 182.53065,37.6582098 179.53965,38.2552098 C174.29165,39.3042098 169.79565,42.8672098 167.65265,47.7792098 C165.72765,52.1932098 165.56765,57.8312098 168.21065,61.9962098 C168.35065,62.2162098 168.51865,62.4082098 168.66965,62.6152098 C167.44865,63.2222098 166.12865,63.5972098 164.72265,63.5912098 C162.59065,63.5832098 160.54065,62.6672098 159.47665,60.7532098 C158.23565,58.5232098 158.23865,55.7322098 158.37165,53.2552098 C158.53565,50.2052098 158.95365,47.1932098 159.61665,44.2102098 C159.96865,42.6302098 160.36665,41.0622098 160.82165,39.5092098 C160.88465,39.2962098 160.73965,38.6462098 160.36365,38.7512098 C160.19365,38.8002098 160.02865,39.0722098 159.92765,39.1992098 C157.03365,42.8082098 154.79765,47.2122098 153.48965,51.6322098 C152.67565,54.3822098 152.18965,57.3612098 152.59665,60.2242098 C152.73165,61.1812098 150.46265,61.8672098 149.77165,62.1192098 C148.48165,62.5872098 147.04165,62.8202098 145.67565,62.6052098 C140.38465,61.7752098 139.55865,54.3882098 140.07065,50.2012098 C140.40665,47.4642098 141.28665,44.8022098 142.53165,42.3472098 C142.87265,41.6732098 143.24365,41.0152098 143.64265,40.3732098 C143.82165,40.0832098 144.44365,39.6032098 144.24565,39.2072098 C143.76365,38.2462098 141.82065,40.4002098 141.41765,40.7732098 C137.59965,44.3022098 134.82965,49.0272098 134.25665,54.2462098 C133.78065,58.5662098 134.85365,63.4172098 138.74065,65.8962098 C143.68065,69.0442098 149.52165,66.8652098 153.32765,63.0602098 C154.48065,66.1752098 157.18565,68.4992098 160.61665,68.3822098 C164.08365,68.2652098 167.31565,66.3332098 169.78965,63.9392098 C172.38365,66.5892098 176.07365,68.0132098 179.76965,68.3042098 C185.16665,68.7302098 190.55065,66.8182098 194.57265,63.2182098 C195.72365,62.1712098 196.77565,61.0252098 197.65565,59.7402098 C197.12365,59.2512098 195.30865,60.9662098 194.80265,61.2672098 M195.14565,63.1602098 C195.12265,63.1792098 195.09665,63.1972098 195.07265,63.2182098 C194.99365,63.2902098 194.91765,63.3672098 194.83765,63.4372098 C194.95865,63.3282098 195.06465,63.2322098 195.14565,63.1602098 M194.81265,63.4602098 C194.92565,63.3612098 195.03765,63.2572098 195.14965,63.1562098 C195.03165,63.2612098 194.92465,63.3592098 194.81965,63.4532098 C194.81665,63.4572098 194.81465,63.4582098 194.81265,63.4602098 M194.83765,63.4372098 C194.83165,63.4432098 194.82565,63.4492098 194.81965,63.4532098 C192.11465,65.9002098 193.89865,64.2872098 194.83765,63.4372098 M195.14565,63.1602098 C195.14765,63.1582098 195.14865,63.1562098 195.14965,63.1562098 C195.39265,62.9372098 195.33865,62.9842098 195.14565,63.1602098 M141.11665,104.71621 C139.92365,106.66921 137.39665,107.61721 135.10965,107.14121 C132.81365,106.66321 131.01865,104.85321 129.79765,102.50021 C126.73665,96.6002098 126.58365,88.9272098 126.56065,83.4922098 C126.53465,77.2262098 126.60665,70.9412098 127.51365,64.7302098 C127.93665,61.8282098 128.55565,58.9432098 129.54165,56.1772098 C130.01565,54.8492098 130.64965,53.6302098 131.23665,52.3572098 C131.39865,52.0052098 130.96065,51.6242098 130.64265,51.5502098 C130.34665,51.4802098 129.81365,52.3692098 129.67165,52.5462098 C128.71465,53.7462098 127.89465,55.0502098 127.15565,56.3942098 C126.46865,57.6462098 125.70965,58.5702098 124.63265,59.5232098 C122.72465,61.2102098 120.44365,62.5932098 117.83465,62.7032098 C112.39565,62.9332098 111.31065,56.7162098 111.96365,52.5132098 C112.60165,48.4062098 114.83865,43.9082098 118.67265,41.9392098 C120.65265,40.9212098 123.38665,40.4622098 125.04365,42.2872098 C125.96465,43.3022098 126.45065,44.7052098 126.46365,46.0662098 C126.46965,46.6792098 126.38865,47.3822098 126.05065,47.9082098 C125.91065,48.1242098 125.52565,48.9312098 126.12665,48.8962098 C126.58765,48.8692098 127.08865,48.4062098 127.47265,48.1772098 C128.01065,47.8572098 128.53465,47.4992098 128.98765,47.0642098 C129.78665,46.2982098 130.33965,45.2732098 130.44865,44.1642098 C130.69765,41.6502098 128.63165,39.8082098 126.39265,39.1652098 C121.50465,37.7652098 116.31465,40.4722098 112.88665,43.8062098 C109.51565,47.0852098 106.96365,51.4622098 106.19265,56.1342098 C105.80665,58.4802098 105.98565,60.9722098 106.90965,63.0682098 C105.57165,63.6382098 104.17565,64.0782098 102.75365,64.3672098 C98.0336497,65.3262098 92.7896497,64.4722098 89.8976497,60.2732098 C87.3926497,56.6382098 87.4986497,51.6872098 89.2156497,47.7482098 C90.8326497,44.0372098 94.2936497,41.0192098 98.5296497,41.2872098 C100.05665,41.3822098 101.83765,42.0542098 101.67765,43.8862098 C101.56665,45.1462098 100.70165,46.1422098 99.6816497,46.8142098 C99.1236497,47.1812098 98.5096497,47.4552098 97.8816497,47.6772098 C97.1386497,47.9412098 97.1566497,47.8612098 97.1566497,48.5822098 C100.49865,48.0272098 105.28665,46.0972098 104.43365,41.8492098 C103.63665,37.8802098 98.5906497,37.6032098 95.4036497,38.1582098 C90.0926497,39.0822098 85.7106497,42.9532098 83.4136497,47.7342098 C81.3796497,51.9662098 80.6976497,57.4042098 82.9256497,61.6972098 C81.9126497,62.4062098 80.8156497,62.9602098 79.5026497,63.2382098 C77.3626497,63.6912098 74.7746497,63.5132098 73.1146497,61.9332098 C71.4016497,60.3042098 71.1066497,57.6712098 71.0626497,55.4332098 C71.0266497,53.6442098 71.2546497,51.9622098 71.6416497,50.2302098 C71.7736497,49.6382098 72.0646497,48.9002098 72.0306497,48.2872098 C72.0116497,47.9412098 71.3876497,47.9962098 71.2346497,48.1622098 C70.8006497,48.6322098 70.4236497,49.1712098 70.0606497,49.6992098 C68.3796497,52.1342098 67.0996497,54.9372098 66.4746497,57.8352098 C66.2976497,58.6522098 66.1816497,59.4822098 66.1546497,60.3182098 C65.6046497,60.7362098 65.0216497,61.1132098 64.4116497,61.4412098 C63.4176497,61.9742098 62.3396497,62.3762098 61.2266497,62.5762098 C58.8506497,63.0032098 56.5066497,62.2652098 55.3446497,60.0352098 C53.0286497,55.5872098 54.9206497,49.2282098 57.5316497,45.3532098 C58.8966497,43.3282098 60.8756497,41.4512098 63.3886497,41.0992098 C64.8136497,40.9002098 66.2886497,41.1732098 67.5426497,41.8822098 C68.3746497,42.3512098 69.5806497,43.2532098 70.4506497,42.3782098 C70.8206497,41.9582098 70.9786497,41.4662098 70.8086497,40.9122098 C70.0146497,38.3182098 65.9406497,38.5542098 63.9086497,38.9802098 C61.1656497,39.5522098 58.6556497,41.0052098 56.5296497,42.7962098 C52.7406497,45.9882098 49.7166497,50.6462098 48.7546497,55.5442098 C47.9656497,59.5622098 48.6626497,64.3732098 52.4436497,66.6712098 C57.2536497,69.5952098 62.9516497,66.5972098 66.4916497,63.0602098 C67.0606497,65.1582098 68.4536497,67.1362098 70.5286497,67.9472098 C72.7116497,68.8002098 75.2086497,68.3732098 77.3256497,67.5332098 C79.4596497,66.6832098 81.3966497,65.3432098 83.0076497,63.7142098 C83.2426497,63.4762098 83.4556497,63.2182098 83.6776497,62.9682098 C88.9726497,70.7752098 100.57265,69.3312098 107.79065,64.6172098 C107.81165,64.6462098 107.83065,64.6772098 107.85365,64.7062098 C107.68265,64.8432098 107.71065,64.8222098 107.85365,64.7062098 C108.68765,65.8332098 109.82265,66.7512098 111.31465,67.3302098 C115.98065,69.1322098 121.17265,66.1212098 124.29865,62.7712098 C122.29965,68.2482098 121.23665,74.0232098 120.59865,79.8022098 C119.99965,85.2222098 119.80065,91.8082098 121.10665,98.2082098 C122.15865,103.36821 124.40565,108.69321 128.69165,110.94121 C130.28765,111.77921 132.00565,112.01821 133.66065,111.77121 C136.23765,111.38521 138.66365,109.87921 140.23865,107.85921 C140.66765,107.30821 140.91965,106.94621 141.29665,106.33321 C141.98365,105.21821 141.94365,105.47721 141.11665,104.71621 M67.9276497,42.4142098 C67.9656497,42.3732098 68.0036497,42.3332098 68.0406497,42.2922098 C68.0776497,42.2532098 68.0596497,42.2732098 67.9826497,42.3532098 C67.9726497,42.3652098 67.9606497,42.3692098 67.9506497,42.3782098 C67.9366497,42.3942098 67.9276497,42.4122098 67.9126497,42.4272098 C67.3666497,43.0092098 67.7366497,42.6172098 67.9276497,42.4142098 M22.6656497,12.8609304 C21.7396497,15.6389304 20.0926497,18.1249304 19.3166497,20.9589304 C18.4616497,24.0859304 17.8656497,27.2749304 17.3336497,30.4709304 C16.2626497,36.8959304 15.6896497,43.3979304 15.4106497,49.9039304 C15.3946497,50.2969304 15.2206497,50.6479304 15.7246497,50.7659304 C16.3936497,50.9219304 17.0556497,51.1109304 17.7036497,51.3399304 C19.1706497,51.8529304 20.5356497,52.5859304 21.8276497,53.4449304 C23.0316497,54.2459304 24.1796497,55.1329304 25.2736497,56.0779304 C25.6496497,56.4039304 25.6676497,56.6209304 26.1616497,56.4079304 C26.5086497,56.2579304 26.8526497,56.1029304 27.1946497,55.9429304 C27.9916497,55.5719304 28.7766497,55.1719304 29.5476497,54.7459304 C34.2476497,52.1409304 38.3896497,48.4709304 41.2786497,43.9199304 C44.3416497,39.0979304 46.0246497,33.3439304 46.0346497,27.6329304 C46.0456497,21.9739304 44.0566497,16.5599304 40.7876497,11.9759304 C37.7106497,7.66193036 33.4686497,4.02293036 28.3546497,2.41393036 C23.3426497,0.835930355 17.9156497,1.64993036 13.3786497,4.22593036 C8.88064967,6.77893036 5.03764967,11.2809304 5.03764967,16.6829304 C5.03764967,18.0469304 5.40964967,19.3649304 5.90464967,20.6229304 C6.41164967,21.9079304 7.19564967,23.2029304 6.96464967,24.6409304 C6.66364967,26.5039304 4.55464967,27.7829304 2.76164967,27.1819304 C0.569649674,26.4449304 0.0506496742,23.4879304 0.00464967425,21.5019304 C-0.0523503258,19.0329304 0.413649674,16.5699304 1.46164967,14.3319304 C3.65564967,9.64193036 7.94464967,5.86693036 12.3916497,3.35693036 C21.4196497,-1.73806964 32.6796497,-0.873069645 41.1956497,4.86493036 C49.7596497,10.6349304 54.5346497,20.6829304 53.3646497,30.9819304 C51.8086497,44.6849304 40.1546497,54.4509304 27.5956497,58.2869304 C34.5436497,65.2339304 40.8416497,72.9469304 48.3566497,79.3049304 C51.7736497,82.1929304 55.5696497,84.6619304 59.7396497,86.3159304 C62.0036497,87.2169304 64.3666497,87.8709304 66.7826497,88.1889304 C69.1196497,88.4959304 71.6156497,88.7339304 73.9106497,88.0579304 C74.0146497,88.4739304 74.3066497,88.9469304 73.8496497,89.2169304 C73.4666497,89.4409304 73.0116497,89.5699304 72.6016497,89.7339304 C71.1926497,90.2949304 69.7106497,90.6499304 68.2106497,90.8589304 C65.1006497,91.2909304 61.9056497,91.1289304 58.8066497,90.6779304 C53.1426497,89.8529304 47.7246497,87.5989304 43.1426497,84.1699304 C38.4016497,80.6209304 34.4986497,76.0919304 30.8896497,71.4319304 C28.8786497,68.8359304 26.9226497,66.1949304 24.9406497,63.5759304 C24.0576497,62.4079304 23.1056497,61.2419304 22.3306497,59.9979304 C22.0626497,59.5639304 21.7686497,59.6829304 21.2966497,59.7559304 C20.4106497,59.8909304 19.5216497,60.0019304 18.6296497,60.0899304 C18.0966497,60.1419304 15.1466497,60.0389304 15.2006497,60.6619304 C15.3396497,62.2129304 15.2556497,63.8029304 15.2886497,65.3589304 C15.3576497,68.5839304 15.5096497,71.8049304 15.6896497,75.0229304 C15.7746497,76.5819304 15.8676497,78.1409304 15.9666497,79.6969304 C16.0156497,80.4669304 16.0656497,81.2339304 16.1166497,82.0039304 C16.1376497,82.3079304 16.3166497,83.0289304 15.9526497,83.2249304 C15.8146497,83.2989304 15.6526497,83.3319304 15.5046497,83.3749304 C15.1056497,83.4879304 15.1356497,83.0579304 15.0156497,82.7319304 C14.7546497,82.0229304 14.5106497,81.3079304 14.2816497,80.5879304 C13.7876497,79.0289304 13.3666497,77.4489304 13.0036497,75.8569304 C12.3046497,72.7889304 11.8156497,69.6779304 11.4146497,66.5579304 C11.2186497,65.0369304 11.0426497,63.5139304 10.8916497,61.9859304 C10.8376497,61.4409304 10.8856497,60.7989304 10.7556497,60.2689304 C10.6506497,59.8419304 9.31464967,59.8049304 8.95764967,59.7209304 C6.67964967,59.1739304 4.04164967,57.7729304 3.85564967,55.1249304 C3.65364967,52.2709304 6.80564967,50.8729304 9.13664967,50.4509304 C10.3066497,50.2379304 10.2246497,50.2789304 10.2006497,49.1539304 C10.1766497,48.0329304 10.1806497,46.9119304 10.1826497,45.7909304 C10.1856497,43.3499304 10.1926497,40.9099304 10.2586497,38.4689304 C10.3866497,33.7539304 10.7446497,29.0449304 11.5936497,24.3999304 C12.2856497,20.6129304 13.2836497,16.4279304 15.9076497,13.4689304 C17.0736497,12.1539304 18.7556497,10.9959304 20.5246497,10.7339304 C22.0456497,10.5099304 23.1686497,11.3379304 22.6436497,12.9279304 C22.6506497,12.9059304 22.7266497,12.6799304 22.6656497,12.8609304 C21.7376497,15.6439304 22.7456497,12.6189304 22.6656497,12.8609304 M5.95081014,56.3568706 C7.02481014,57.6718706 8.97781014,58.1558706 10.5678101,58.4718706 C10.4758101,56.9158706 10.4108101,55.3588706 10.3308101,53.8008706 C10.3048101,53.2988706 10.3708101,52.7048706 10.2738101,52.2128706 C10.1998101,51.8378706 9.14981014,52.0678706 8.90681014,52.0898706 C7.79281014,52.1908706 6.63281014,52.5468706 5.95081014,53.4958706 C5.32281014,54.3648706 5.35381014,55.6228706 6.02581014,56.4488706 C5.99081014,56.4058706 5.75981014,56.1228706 5.95081014,56.3568706 C7.02481014,57.6718706 5.66181014,56.0038706 5.95081014,56.3568706 M18.1855609,58.725 C19.1395609,58.596 20.0875609,58.42 21.0235609,58.195 C19.4865609,56.103 17.6975609,54.102 15.2995609,53 C15.2365609,54.971 15.2515609,56.943 15.2515609,58.916 C16.3265609,58.916 17.3985609,58.838 18.4625609,58.687 C18.2785609,58.713 18.0925609,58.738 17.9085609,58.762 C18.0005609,58.75 18.0925609,58.736 18.1855609,58.725 C19.1395609,58.596 17.2235609,58.852 18.1855609,58.725" id="Fill-20-Copy-3" sketch:type="MSShapeGroup"></path>
            </g>
        </g>
    </g>
</svg>